<svg width="366" height="204" viewBox="0 0 366 204" fill="none" xmlns="http://www.w3.org/2000/svg">
<path d="M0.5 20C0.5 9.23045 9.23045 0.5 20 0.5H346C356.77 0.5 365.5 9.23045 365.5 20V184C365.5 194.77 356.77 203.5 346 203.5H20C9.23045 203.5 0.5 194.77 0.5 184V20Z" fill="white"/>
<path d="M0.5 20C0.5 9.23045 9.23045 0.5 20 0.5H346C356.77 0.5 365.5 9.23045 365.5 20V184C365.5 194.77 356.77 203.5 346 203.5H20C9.23045 203.5 0.5 194.77 0.5 184V20Z" stroke="white"/>
<path d="M24.76 40.24C23.7333 40.24 22.8067 40.04 21.98 39.64C21.1533 39.2267 20.4933 38.6067 20 37.78C19.52 36.9533 19.28 35.9067 19.28 34.64V26H21.84V34.66C21.84 35.7533 22.1 36.5667 22.62 37.1C23.1533 37.6333 23.8867 37.9 24.82 37.9C25.74 37.9 26.4667 37.6333 27 37.1C27.5333 36.5667 27.8 35.7533 27.8 34.66V26H30.36V34.64C30.36 35.9067 30.1067 36.9533 29.6 37.78C29.0933 38.6067 28.4133 39.2267 27.56 39.64C26.72 40.04 25.7867 40.24 24.76 40.24ZM37.0133 40.24C36.1333 40.24 35.3599 40.1 34.6933 39.82C34.0266 39.5267 33.4933 39.1267 33.0933 38.62C32.6933 38.1133 32.4533 37.5267 32.3733 36.86H34.9533C35.0333 37.2467 35.2466 37.58 35.5933 37.86C35.9533 38.1267 36.4133 38.26 36.9733 38.26C37.5333 38.26 37.9399 38.1467 38.1933 37.92C38.4599 37.6933 38.5933 37.4333 38.5933 37.14C38.5933 36.7133 38.4066 36.4267 38.0333 36.28C37.6599 36.12 37.1399 35.9667 36.4733 35.82C36.0466 35.7267 35.6133 35.6133 35.1733 35.48C34.7333 35.3467 34.3266 35.18 33.9533 34.98C33.5933 34.7667 33.2999 34.5 33.0733 34.18C32.8466 33.8467 32.7333 33.44 32.7333 32.96C32.7333 32.08 33.0799 31.34 33.7733 30.74C34.4799 30.14 35.4666 29.84 36.7333 29.84C37.9066 29.84 38.8399 30.1133 39.5333 30.66C40.2399 31.2067 40.6599 31.96 40.7933 32.92H38.3733C38.2266 32.1867 37.6733 31.82 36.7133 31.82C36.2333 31.82 35.8599 31.9133 35.5933 32.1C35.3399 32.2867 35.2133 32.52 35.2133 32.8C35.2133 33.0933 35.4066 33.3267 35.7933 33.5C36.1799 33.6733 36.6933 33.8333 37.3333 33.98C38.0266 34.14 38.6599 34.32 39.2333 34.52C39.8199 34.7067 40.2866 34.9933 40.6333 35.38C40.9799 35.7533 41.1533 36.2933 41.1533 37C41.1666 37.6133 41.0066 38.1667 40.6733 38.66C40.3399 39.1533 39.8599 39.54 39.2333 39.82C38.6066 40.1 37.8666 40.24 37.0133 40.24ZM48.2411 40.24C47.2411 40.24 46.3544 40.0267 45.5811 39.6C44.8078 39.1733 44.2011 38.5733 43.7611 37.8C43.3211 37.0267 43.1011 36.1333 43.1011 35.12C43.1011 34.0933 43.3144 33.18 43.7411 32.38C44.1811 31.58 44.7811 30.96 45.5411 30.52C46.3144 30.0667 47.2211 29.84 48.2611 29.84C49.2344 29.84 50.0944 30.0533 50.8411 30.48C51.5878 30.9067 52.1678 31.4933 52.5811 32.24C53.0078 32.9733 53.2211 33.7933 53.2211 34.7C53.2211 34.8467 53.2144 35 53.2011 35.16C53.2011 35.32 53.1944 35.4867 53.1811 35.66H45.6411C45.6944 36.4333 45.9611 37.04 46.4411 37.48C46.9344 37.92 47.5278 38.14 48.2211 38.14C48.7411 38.14 49.1744 38.0267 49.5211 37.8C49.8811 37.56 50.1478 37.2533 50.3211 36.88H52.9211C52.7344 37.5067 52.4211 38.08 51.9811 38.6C51.5544 39.1067 51.0211 39.5067 50.3811 39.8C49.7544 40.0933 49.0411 40.24 48.2411 40.24ZM48.2611 31.92C47.6344 31.92 47.0811 32.1 46.6011 32.46C46.1211 32.8067 45.8144 33.34 45.6811 34.06H50.6211C50.5811 33.4067 50.3411 32.8867 49.9011 32.5C49.4611 32.1133 48.9144 31.92 48.2611 31.92ZM55.3742 40V30.08H57.6542L57.8942 31.94C58.2542 31.3 58.7409 30.7933 59.3542 30.42C59.9809 30.0333 60.7142 29.84 61.5542 29.84V32.54H60.8342C60.2742 32.54 59.7742 32.6267 59.3342 32.8C58.8942 32.9733 58.5476 33.2733 58.2942 33.7C58.0542 34.1267 57.9342 34.72 57.9342 35.48V40H55.3742ZM68.1295 40V26H70.6895V40H68.1295ZM73.343 40V30.08H75.603L75.803 31.76C76.1096 31.1733 76.5496 30.7067 77.123 30.36C77.7096 30.0133 78.3963 29.84 79.183 29.84C80.4096 29.84 81.363 30.2267 82.043 31C82.723 31.7733 83.063 32.9067 83.063 34.4V40H80.503V34.64C80.503 33.7867 80.3296 33.1333 79.983 32.68C79.6363 32.2267 79.0963 32 78.363 32C77.643 32 77.0496 32.2533 76.583 32.76C76.1296 33.2667 75.903 33.9733 75.903 34.88V40H73.343ZM85.9709 40V32.22H84.6109V30.08H85.9709V28.92C85.9709 27.72 86.2709 26.8667 86.8709 26.36C87.4843 25.8533 88.3109 25.6 89.3509 25.6H90.4509V27.78H89.7509C89.3109 27.78 88.9976 27.8667 88.8109 28.04C88.6243 28.2133 88.5309 28.5067 88.5309 28.92V30.08H90.6709V32.22H88.5309V40H85.9709ZM97.0678 40.24C96.1078 40.24 95.2411 40.02 94.4678 39.58C93.7078 39.14 93.1011 38.5333 92.6478 37.76C92.2078 36.9733 91.9878 36.0667 91.9878 35.04C91.9878 34.0133 92.2145 33.1133 92.6678 32.34C93.1211 31.5533 93.7278 30.94 94.4878 30.5C95.2611 30.06 96.1278 29.84 97.0878 29.84C98.0345 29.84 98.8878 30.06 99.6478 30.5C100.421 30.94 101.028 31.5533 101.468 32.34C101.921 33.1133 102.148 34.0133 102.148 35.04C102.148 36.0667 101.921 36.9733 101.468 37.76C101.028 38.5333 100.421 39.14 99.6478 39.58C98.8745 40.02 98.0145 40.24 97.0678 40.24ZM97.0678 38.02C97.7345 38.02 98.3145 37.7733 98.8078 37.28C99.3011 36.7733 99.5478 36.0267 99.5478 35.04C99.5478 34.0533 99.3011 33.3133 98.8078 32.82C98.3145 32.3133 97.7411 32.06 97.0878 32.06C96.4078 32.06 95.8211 32.3133 95.3278 32.82C94.8478 33.3133 94.6078 34.0533 94.6078 35.04C94.6078 36.0267 94.8478 36.7733 95.3278 37.28C95.8211 37.7733 96.4011 38.02 97.0678 38.02ZM104.437 40V30.08H106.717L106.957 31.94C107.317 31.3 107.803 30.7933 108.417 30.42C109.043 30.0333 109.777 29.84 110.617 29.84V32.54H109.897C109.337 32.54 108.837 32.6267 108.397 32.8C107.957 32.9733 107.61 33.2733 107.357 33.7C107.117 34.1267 106.997 34.72 106.997 35.48V40H104.437ZM112.366 40V30.08H114.626L114.846 31.42C115.166 30.94 115.586 30.56 116.106 30.28C116.64 29.9867 117.253 29.84 117.946 29.84C119.48 29.84 120.566 30.4333 121.206 31.62C121.566 31.0733 122.046 30.64 122.646 30.32C123.26 30 123.926 29.84 124.646 29.84C125.94 29.84 126.933 30.2267 127.626 31C128.32 31.7733 128.666 32.9067 128.666 34.4V40H126.106V34.64C126.106 33.7867 125.94 33.1333 125.606 32.68C125.286 32.2267 124.786 32 124.106 32C123.413 32 122.853 32.2533 122.426 32.76C122.013 33.2667 121.806 33.9733 121.806 34.88V40H119.246V34.64C119.246 33.7867 119.08 33.1333 118.746 32.68C118.413 32.2267 117.9 32 117.206 32C116.526 32 115.973 32.2533 115.546 32.76C115.133 33.2667 114.926 33.9733 114.926 34.88V40H112.366ZM134.517 40.24C133.664 40.24 132.964 40.1067 132.417 39.84C131.87 39.56 131.464 39.1933 131.197 38.74C130.93 38.2867 130.797 37.7867 130.797 37.24C130.797 36.32 131.157 35.5733 131.877 35C132.597 34.4267 133.677 34.14 135.117 34.14H137.637V33.9C137.637 33.22 137.444 32.72 137.057 32.4C136.67 32.08 136.19 31.92 135.617 31.92C135.097 31.92 134.644 32.0467 134.257 32.3C133.87 32.54 133.63 32.9 133.537 33.38H131.037C131.104 32.66 131.344 32.0333 131.757 31.5C132.184 30.9667 132.73 30.56 133.397 30.28C134.064 29.9867 134.81 29.84 135.637 29.84C137.05 29.84 138.164 30.1933 138.977 30.9C139.79 31.6067 140.197 32.6067 140.197 33.9V40H138.017L137.777 38.4C137.484 38.9333 137.07 39.3733 136.537 39.72C136.017 40.0667 135.344 40.24 134.517 40.24ZM135.097 38.24C135.83 38.24 136.397 38 136.797 37.52C137.21 37.04 137.47 36.4467 137.577 35.74H135.397C134.717 35.74 134.23 35.8667 133.937 36.12C133.644 36.36 133.497 36.66 133.497 37.02C133.497 37.4067 133.644 37.7067 133.937 37.92C134.23 38.1333 134.617 38.24 135.097 38.24ZM146.923 40C145.883 40 145.05 39.7467 144.423 39.24C143.796 38.7333 143.483 37.8333 143.483 36.54V32.22H141.783V30.08H143.483L143.783 27.42H146.043V30.08H148.723V32.22H146.043V36.56C146.043 37.04 146.143 37.3733 146.343 37.56C146.556 37.7333 146.916 37.82 147.423 37.82H148.663V40H146.923ZM152.301 28.54C151.834 28.54 151.448 28.4 151.141 28.12C150.848 27.84 150.701 27.4867 150.701 27.06C150.701 26.6333 150.848 26.2867 151.141 26.02C151.448 25.74 151.834 25.6 152.301 25.6C152.768 25.6 153.148 25.74 153.441 26.02C153.748 26.2867 153.901 26.6333 153.901 27.06C153.901 27.4867 153.748 27.84 153.441 28.12C153.148 28.4 152.768 28.54 152.301 28.54ZM151.021 40V30.08H153.581V40H151.021ZM161.013 40.24C160.053 40.24 159.186 40.02 158.413 39.58C157.653 39.14 157.046 38.5333 156.593 37.76C156.153 36.9733 155.933 36.0667 155.933 35.04C155.933 34.0133 156.16 33.1133 156.613 32.34C157.066 31.5533 157.673 30.94 158.433 30.5C159.206 30.06 160.073 29.84 161.033 29.84C161.98 29.84 162.833 30.06 163.593 30.5C164.366 30.94 164.973 31.5533 165.413 32.34C165.866 33.1133 166.093 34.0133 166.093 35.04C166.093 36.0667 165.866 36.9733 165.413 37.76C164.973 38.5333 164.366 39.14 163.593 39.58C162.82 40.02 161.96 40.24 161.013 40.24ZM161.013 38.02C161.68 38.02 162.26 37.7733 162.753 37.28C163.246 36.7733 163.493 36.0267 163.493 35.04C163.493 34.0533 163.246 33.3133 162.753 32.82C162.26 32.3133 161.686 32.06 161.033 32.06C160.353 32.06 159.766 32.3133 159.273 32.82C158.793 33.3133 158.553 34.0533 158.553 35.04C158.553 36.0267 158.793 36.7733 159.273 37.28C159.766 37.7733 160.346 38.02 161.013 38.02ZM168.382 40V30.08H170.642L170.842 31.76C171.149 31.1733 171.589 30.7067 172.162 30.36C172.749 30.0133 173.435 29.84 174.222 29.84C175.449 29.84 176.402 30.2267 177.082 31C177.762 31.7733 178.102 32.9067 178.102 34.4V40H175.542V34.64C175.542 33.7867 175.369 33.1333 175.022 32.68C174.675 32.2267 174.135 32 173.402 32C172.682 32 172.089 32.2533 171.622 32.76C171.169 33.2667 170.942 33.9733 170.942 34.88V40H168.382Z" fill="#555555"/>
<rect x="18" y="74" width="94" height="103" rx="12" fill="#7D45A1"/>
<path opacity="0.4" d="M64.9926 102.019L59.5828 104.721C59.1743 104.943 58.6647 104.795 58.4362 104.388C58.3694 104.26 58.3341 104.118 58.3333 103.973V97.9248C58.3333 98.5245 58.6714 98.8946 59.5607 99.3092L64.9926 102.019Z" fill="#FBB858"/>
<path fill-rule="evenodd" clip-rule="evenodd" d="M62.4126 88.167H67.5578C69.8143 88.167 71.6445 89.0554 71.6666 91.3281V103.973C71.6657 104.115 71.6304 104.255 71.5637 104.38C71.4565 104.584 71.2715 104.736 71.0511 104.8C70.8307 104.864 70.5939 104.836 70.395 104.72L64.9926 102.018L59.5607 99.3087C58.6714 98.8941 58.3333 98.524 58.3333 97.9243V91.3281C58.3333 89.0554 60.1635 88.167 62.4126 88.167ZM61.854 94.5189H68.1238C68.4851 94.5189 68.7779 94.2239 68.7779 93.86C68.7779 93.4961 68.4851 93.2011 68.1238 93.2011H61.854C61.4927 93.2011 61.1998 93.4961 61.1998 93.86C61.1998 94.2239 61.4927 94.5189 61.854 94.5189Z" fill="#FBB858"/>
<path d="M64.616 133.192C63.6027 133.192 62.728 132.952 61.992 132.472C61.2667 131.981 60.7067 131.304 60.312 130.44C59.928 129.565 59.736 128.552 59.736 127.4C59.736 126.248 59.928 125.24 60.312 124.376C60.7067 123.501 61.2667 122.824 61.992 122.344C62.728 121.853 63.6027 121.608 64.616 121.608C65.6293 121.608 66.4987 121.853 67.224 122.344C67.9493 122.824 68.504 123.501 68.888 124.376C69.2827 125.24 69.48 126.248 69.48 127.4C69.48 128.552 69.2827 129.565 68.888 130.44C68.504 131.304 67.9493 131.981 67.224 132.472C66.4987 132.952 65.6293 133.192 64.616 133.192ZM64.616 131.672C65.224 131.672 65.7627 131.501 66.232 131.16C66.712 130.819 67.0853 130.328 67.352 129.688C67.6187 129.048 67.752 128.285 67.752 127.4C67.752 126.515 67.6187 125.752 67.352 125.112C67.0853 124.472 66.712 123.981 66.232 123.64C65.7627 123.299 65.224 123.128 64.616 123.128C63.9973 123.128 63.4533 123.299 62.984 123.64C62.5147 123.981 62.1467 124.472 61.88 125.112C61.6133 125.752 61.48 126.515 61.48 127.4C61.48 128.285 61.6133 129.048 61.88 129.688C62.1467 130.328 62.5147 130.819 62.984 131.16C63.4533 131.501 63.9973 131.672 64.616 131.672Z" fill="white"/>
<path d="M46.572 157.144C45.748 157.144 45.036 156.964 44.436 156.604C43.844 156.236 43.384 155.728 43.056 155.08C42.728 154.424 42.564 153.664 42.564 152.8C42.564 151.944 42.728 151.192 43.056 150.544C43.384 149.888 43.844 149.376 44.436 149.008C45.036 148.64 45.748 148.456 46.572 148.456C47.532 148.456 48.312 148.688 48.912 149.152C49.52 149.608 49.908 150.248 50.076 151.072H48.96C48.832 150.552 48.568 150.136 48.168 149.824C47.776 149.504 47.244 149.344 46.572 149.344C45.972 149.344 45.448 149.484 45 149.764C44.552 150.036 44.204 150.432 43.956 150.952C43.716 151.464 43.596 152.08 43.596 152.8C43.596 153.52 43.716 154.14 43.956 154.66C44.204 155.172 44.552 155.568 45 155.848C45.448 156.12 45.972 156.256 46.572 156.256C47.244 156.256 47.776 156.104 48.168 155.8C48.568 155.488 48.832 155.076 48.96 154.564H50.076C49.908 155.372 49.52 156.004 48.912 156.46C48.312 156.916 47.532 157.144 46.572 157.144ZM54.1767 157.144C53.6167 157.144 53.1127 157.016 52.6647 156.76C52.2167 156.504 51.8607 156.144 51.5967 155.68C51.3407 155.208 51.2127 154.656 51.2127 154.024C51.2127 153.392 51.3447 152.844 51.6087 152.38C51.8727 151.908 52.2287 151.544 52.6767 151.288C53.1327 151.032 53.6407 150.904 54.2007 150.904C54.7607 150.904 55.2647 151.032 55.7127 151.288C56.1607 151.544 56.5127 151.908 56.7687 152.38C57.0327 152.844 57.1647 153.392 57.1647 154.024C57.1647 154.656 57.0327 155.208 56.7687 155.68C56.5047 156.144 56.1447 156.504 55.6887 156.76C55.2407 157.016 54.7367 157.144 54.1767 157.144ZM54.1767 156.28C54.5207 156.28 54.8407 156.196 55.1367 156.028C55.4327 155.86 55.6727 155.608 55.8567 155.272C56.0407 154.936 56.1327 154.52 56.1327 154.024C56.1327 153.528 56.0407 153.112 55.8567 152.776C55.6807 152.44 55.4447 152.188 55.1487 152.02C54.8527 151.852 54.5367 151.768 54.2007 151.768C53.8567 151.768 53.5367 151.852 53.2407 152.02C52.9447 152.188 52.7047 152.44 52.5207 152.776C52.3367 153.112 52.2447 153.528 52.2447 154.024C52.2447 154.52 52.3367 154.936 52.5207 155.272C52.7047 155.608 52.9407 155.86 53.2287 156.028C53.5247 156.196 53.8407 156.28 54.1767 156.28ZM60.7383 157.144C60.0343 157.144 59.4743 156.932 59.0583 156.508C58.6423 156.076 58.4343 155.416 58.4343 154.528V151.048H59.4423V154.42C59.4423 155.66 59.9503 156.28 60.9663 156.28C61.4863 156.28 61.9143 156.096 62.2503 155.728C62.5943 155.352 62.7663 154.82 62.7663 154.132V151.048H63.7743V157H62.8623L62.7903 155.932C62.6063 156.308 62.3303 156.604 61.9623 156.82C61.6023 157.036 61.1943 157.144 60.7383 157.144ZM65.4335 159.64V151.048H66.3455L66.4415 152.032C66.6335 151.744 66.9055 151.484 67.2575 151.252C67.6175 151.02 68.0735 150.904 68.6255 150.904C69.2175 150.904 69.7335 151.04 70.1735 151.312C70.6135 151.584 70.9535 151.956 71.1935 152.428C71.4415 152.9 71.5655 153.436 71.5655 154.036C71.5655 154.636 71.4415 155.172 71.1935 155.644C70.9535 156.108 70.6095 156.476 70.1615 156.748C69.7215 157.012 69.2055 157.144 68.6135 157.144C68.1255 157.144 67.6895 157.044 67.3055 156.844C66.9295 156.644 66.6415 156.364 66.4415 156.004V159.64H65.4335ZM68.5055 156.268C68.9055 156.268 69.2575 156.176 69.5615 155.992C69.8655 155.8 70.1055 155.536 70.2815 155.2C70.4575 154.864 70.5455 154.472 70.5455 154.024C70.5455 153.576 70.4575 153.184 70.2815 152.848C70.1055 152.512 69.8655 152.252 69.5615 152.068C69.2575 151.876 68.9055 151.78 68.5055 151.78C68.1055 151.78 67.7535 151.876 67.4495 152.068C67.1455 152.252 66.9055 152.512 66.7295 152.848C66.5535 153.184 66.4655 153.576 66.4655 154.024C66.4655 154.472 66.5535 154.864 66.7295 155.2C66.9055 155.536 67.1455 155.8 67.4495 155.992C67.7535 156.176 68.1055 156.268 68.5055 156.268ZM72.9686 157V148.36H73.9766V157H72.9686ZM78.3048 157.144C77.7368 157.144 77.2328 157.016 76.7928 156.76C76.3528 156.496 76.0048 156.132 75.7488 155.668C75.5008 155.204 75.3768 154.656 75.3768 154.024C75.3768 153.4 75.5008 152.856 75.7488 152.392C75.9968 151.92 76.3408 151.556 76.7808 151.3C77.2288 151.036 77.7448 150.904 78.3288 150.904C78.9048 150.904 79.4008 151.036 79.8168 151.3C80.2408 151.556 80.5648 151.896 80.7888 152.32C81.0128 152.744 81.1248 153.2 81.1248 153.688C81.1248 153.776 81.1208 153.864 81.1128 153.952C81.1128 154.04 81.1128 154.14 81.1128 154.252H76.3728C76.3968 154.708 76.5008 155.088 76.6848 155.392C76.8768 155.688 77.1128 155.912 77.3928 156.064C77.6808 156.216 77.9848 156.292 78.3048 156.292C78.7208 156.292 79.0688 156.196 79.3488 156.004C79.6288 155.812 79.8328 155.552 79.9608 155.224H80.9568C80.7968 155.776 80.4888 156.236 80.0328 156.604C79.5848 156.964 79.0088 157.144 78.3048 157.144ZM78.3048 151.756C77.8248 151.756 77.3968 151.904 77.0208 152.2C76.6528 152.488 76.4408 152.912 76.3848 153.472H80.1288C80.1048 152.936 79.9208 152.516 79.5768 152.212C79.2328 151.908 78.8088 151.756 78.3048 151.756ZM84.7408 157.144C84.0288 157.144 83.4368 156.964 82.9648 156.604C82.4928 156.244 82.2168 155.756 82.1368 155.14H83.1688C83.2328 155.452 83.3968 155.724 83.6608 155.956C83.9328 156.18 84.2968 156.292 84.7528 156.292C85.1768 156.292 85.4888 156.204 85.6888 156.028C85.8888 155.844 85.9888 155.628 85.9888 155.38C85.9888 155.02 85.8568 154.78 85.5928 154.66C85.3368 154.54 84.9728 154.432 84.5008 154.336C84.1808 154.272 83.8608 154.18 83.5408 154.06C83.2208 153.94 82.9528 153.772 82.7368 153.556C82.5208 153.332 82.4128 153.04 82.4128 152.68C82.4128 152.16 82.6048 151.736 82.9888 151.408C83.3808 151.072 83.9088 150.904 84.5728 150.904C85.2048 150.904 85.7208 151.064 86.1208 151.384C86.5288 151.696 86.7648 152.144 86.8288 152.728H85.8328C85.7928 152.424 85.6608 152.188 85.4368 152.02C85.2208 151.844 84.9288 151.756 84.5608 151.756C84.2008 151.756 83.9208 151.832 83.7208 151.984C83.5288 152.136 83.4328 152.336 83.4328 152.584C83.4328 152.824 83.5568 153.012 83.8048 153.148C84.0608 153.284 84.4048 153.4 84.8368 153.496C85.2048 153.576 85.5528 153.676 85.8808 153.796C86.2168 153.908 86.4888 154.08 86.6968 154.312C86.9128 154.536 87.0208 154.864 87.0208 155.296C87.0288 155.832 86.8248 156.276 86.4088 156.628C86.0008 156.972 85.4448 157.144 84.7408 157.144Z" fill="white"/>
<rect x="136" y="74" width="94" height="103" rx="12" fill="#FFF4E3"/>
<path opacity="0.4" d="M182.993 102.019L177.583 104.721C177.174 104.943 176.665 104.795 176.436 104.388C176.369 104.26 176.334 104.118 176.333 103.973V97.9248C176.333 98.5245 176.671 98.8946 177.561 99.3092L182.993 102.019Z" fill="#7D45A1"/>
<path fill-rule="evenodd" clip-rule="evenodd" d="M180.413 88.167H185.558C187.814 88.167 189.645 89.0554 189.667 91.3281V103.973C189.666 104.115 189.63 104.255 189.564 104.38C189.457 104.584 189.272 104.736 189.051 104.8C188.831 104.864 188.594 104.836 188.395 104.72L182.993 102.018L177.561 99.3087C176.671 98.8941 176.333 98.524 176.333 97.9243V91.3281C176.333 89.0554 178.163 88.167 180.413 88.167ZM179.854 94.5189H186.124C186.485 94.5189 186.778 94.2239 186.778 93.86C186.778 93.4961 186.485 93.2011 186.124 93.2011H179.854C179.493 93.2011 179.2 93.4961 179.2 93.86C179.2 94.2239 179.493 94.5189 179.854 94.5189Z" fill="#7D45A1"/>
<path d="M182.616 133.192C181.603 133.192 180.728 132.952 179.992 132.472C179.267 131.981 178.707 131.304 178.312 130.44C177.928 129.565 177.736 128.552 177.736 127.4C177.736 126.248 177.928 125.24 178.312 124.376C178.707 123.501 179.267 122.824 179.992 122.344C180.728 121.853 181.603 121.608 182.616 121.608C183.629 121.608 184.499 121.853 185.224 122.344C185.949 122.824 186.504 123.501 186.888 124.376C187.283 125.24 187.48 126.248 187.48 127.4C187.48 128.552 187.283 129.565 186.888 130.44C186.504 131.304 185.949 131.981 185.224 132.472C184.499 132.952 183.629 133.192 182.616 133.192ZM182.616 131.672C183.224 131.672 183.763 131.501 184.232 131.16C184.712 130.819 185.085 130.328 185.352 129.688C185.619 129.048 185.752 128.285 185.752 127.4C185.752 126.515 185.619 125.752 185.352 125.112C185.085 124.472 184.712 123.981 184.232 123.64C183.763 123.299 183.224 123.128 182.616 123.128C181.997 123.128 181.453 123.299 180.984 123.64C180.515 123.981 180.147 124.472 179.88 125.112C179.613 125.752 179.48 126.515 179.48 127.4C179.48 128.285 179.613 129.048 179.88 129.688C180.147 130.328 180.515 130.819 180.984 131.16C181.453 131.501 181.997 131.672 182.616 131.672Z" fill="#333333"/>
<path d="M162.912 158V149.6H165.636C166.3 149.6 166.844 149.712 167.268 149.936C167.7 150.152 168.02 150.448 168.228 150.824C168.436 151.2 168.54 151.624 168.54 152.096C168.54 152.56 168.436 152.98 168.228 153.356C168.028 153.732 167.712 154.032 167.28 154.256C166.856 154.48 166.308 154.592 165.636 154.592H163.92V158H162.912ZM163.92 153.74H165.612C166.3 153.74 166.788 153.592 167.076 153.296C167.364 152.992 167.508 152.592 167.508 152.096C167.508 151.576 167.364 151.172 167.076 150.884C166.788 150.588 166.3 150.44 165.612 150.44H163.92V153.74ZM169.824 158V149.36H170.832V158H169.824ZM174.488 158.144C174 158.144 173.592 158.056 173.264 157.88C172.944 157.704 172.704 157.472 172.544 157.184C172.384 156.896 172.304 156.58 172.304 156.236C172.304 155.828 172.408 155.48 172.616 155.192C172.832 154.904 173.132 154.688 173.516 154.544C173.9 154.392 174.352 154.316 174.872 154.316H176.456C176.456 153.924 176.404 153.6 176.3 153.344C176.196 153.08 176.032 152.884 175.808 152.756C175.592 152.62 175.316 152.552 174.98 152.552C174.604 152.552 174.28 152.648 174.008 152.84C173.736 153.024 173.568 153.3 173.504 153.668H172.472C172.52 153.244 172.664 152.888 172.904 152.6C173.144 152.304 173.448 152.08 173.816 151.928C174.184 151.776 174.572 151.7 174.98 151.7C175.54 151.7 176.004 151.804 176.372 152.012C176.74 152.212 177.012 152.496 177.188 152.864C177.372 153.224 177.464 153.652 177.464 154.148V158H176.564L176.504 156.92C176.424 157.088 176.32 157.248 176.192 157.4C176.072 157.544 175.928 157.672 175.76 157.784C175.6 157.896 175.412 157.984 175.196 158.048C174.98 158.112 174.744 158.144 174.488 158.144ZM174.632 157.292C174.904 157.292 175.152 157.232 175.376 157.112C175.608 156.992 175.804 156.832 175.964 156.632C176.124 156.432 176.244 156.208 176.324 155.96C176.412 155.704 176.456 155.44 176.456 155.168V155.096H174.956C174.572 155.096 174.26 155.144 174.02 155.24C173.788 155.328 173.62 155.456 173.516 155.624C173.412 155.792 173.36 155.98 173.36 156.188C173.36 156.412 173.408 156.608 173.504 156.776C173.6 156.936 173.744 157.064 173.936 157.16C174.128 157.248 174.36 157.292 174.632 157.292ZM179.07 158V151.844H179.982L180.042 152.876C180.226 152.508 180.494 152.22 180.846 152.012C181.198 151.804 181.602 151.7 182.058 151.7C182.53 151.7 182.938 151.792 183.282 151.976C183.626 152.16 183.894 152.44 184.086 152.816C184.278 153.184 184.374 153.652 184.374 154.22V158H183.366V154.328C183.366 153.744 183.23 153.304 182.958 153.008C182.686 152.712 182.31 152.564 181.83 152.564C181.51 152.564 181.214 152.644 180.942 152.804C180.678 152.964 180.466 153.196 180.306 153.5C180.154 153.796 180.078 154.164 180.078 154.604V158H179.07ZM185.973 158V151.844H186.885L186.945 152.876C187.129 152.508 187.397 152.22 187.749 152.012C188.101 151.804 188.505 151.7 188.961 151.7C189.433 151.7 189.841 151.792 190.185 151.976C190.529 152.16 190.797 152.44 190.989 152.816C191.181 153.184 191.277 153.652 191.277 154.22V158H190.269V154.328C190.269 153.744 190.133 153.304 189.861 153.008C189.589 152.712 189.213 152.564 188.733 152.564C188.413 152.564 188.117 152.644 187.845 152.804C187.581 152.964 187.369 153.196 187.209 153.5C187.057 153.796 186.981 154.164 186.981 154.604V158H185.973ZM195.515 158.144C194.955 158.144 194.455 158.012 194.015 157.748C193.583 157.476 193.243 157.1 192.995 156.62C192.747 156.132 192.623 155.568 192.623 154.928C192.623 154.28 192.747 153.716 192.995 153.236C193.243 152.748 193.583 152.372 194.015 152.108C194.455 151.836 194.963 151.7 195.539 151.7C196.139 151.7 196.643 151.836 197.051 152.108C197.467 152.372 197.783 152.724 197.999 153.164C198.215 153.604 198.323 154.084 198.323 154.604C198.323 154.684 198.323 154.768 198.323 154.856C198.323 154.944 198.319 155.044 198.311 155.156H193.379V154.376H197.327C197.311 153.792 197.131 153.344 196.787 153.032C196.451 152.712 196.027 152.552 195.515 152.552C195.179 152.552 194.867 152.632 194.579 152.792C194.291 152.952 194.055 153.188 193.871 153.5C193.695 153.804 193.607 154.188 193.607 154.652V154.988C193.607 155.492 193.695 155.916 193.871 156.26C194.055 156.604 194.291 156.864 194.579 157.04C194.867 157.208 195.179 157.292 195.515 157.292C195.955 157.292 196.307 157.204 196.571 157.028C196.835 156.844 197.031 156.588 197.159 156.26H198.155C198.051 156.62 197.879 156.944 197.639 157.232C197.407 157.512 197.111 157.736 196.751 157.904C196.399 158.064 195.987 158.144 195.515 158.144ZM199.684 158V151.844H200.596L200.68 152.996C200.816 152.716 200.992 152.48 201.208 152.288C201.432 152.096 201.7 151.952 202.012 151.856C202.324 151.752 202.676 151.7 203.068 151.7V152.756H202.6C202.352 152.756 202.112 152.792 201.88 152.864C201.656 152.928 201.452 153.036 201.268 153.188C201.092 153.332 200.952 153.532 200.848 153.788C200.744 154.044 200.692 154.364 200.692 154.748V158H199.684ZM206.499 158.144C205.971 158.144 205.519 158.06 205.143 157.892C204.775 157.724 204.487 157.488 204.279 157.184C204.071 156.88 203.943 156.524 203.895 156.116H204.927C204.967 156.324 205.047 156.52 205.167 156.704C205.295 156.88 205.467 157.024 205.683 157.136C205.907 157.24 206.183 157.292 206.511 157.292C206.791 157.292 207.023 157.252 207.207 157.172C207.399 157.084 207.539 156.968 207.627 156.824C207.723 156.672 207.771 156.508 207.771 156.332C207.771 156.076 207.711 155.88 207.591 155.744C207.479 155.608 207.311 155.504 207.087 155.432C206.871 155.352 206.603 155.288 206.283 155.24C205.979 155.192 205.695 155.128 205.431 155.048C205.175 154.96 204.947 154.848 204.747 154.712C204.555 154.576 204.403 154.408 204.291 154.208C204.187 154 204.135 153.752 204.135 153.464C204.135 153.12 204.223 152.816 204.399 152.552C204.583 152.288 204.839 152.08 205.167 151.928C205.503 151.776 205.899 151.7 206.355 151.7C207.011 151.7 207.539 151.856 207.939 152.168C208.339 152.48 208.575 152.928 208.647 153.512H207.651C207.611 153.216 207.475 152.984 207.243 152.816C207.019 152.64 206.719 152.552 206.343 152.552C205.951 152.552 205.655 152.628 205.455 152.78C205.255 152.932 205.155 153.132 205.155 153.38C205.155 153.556 205.203 153.712 205.299 153.848C205.403 153.976 205.563 154.088 205.779 154.184C206.003 154.272 206.283 154.344 206.619 154.4C207.043 154.464 207.419 154.556 207.747 154.676C208.075 154.796 208.335 154.98 208.527 155.228C208.719 155.468 208.811 155.808 208.803 156.248C208.811 156.632 208.719 156.968 208.527 157.256C208.335 157.544 208.067 157.764 207.723 157.916C207.379 158.068 206.971 158.144 206.499 158.144Z" fill="#333333"/>
<rect x="254" y="74" width="94" height="103" rx="12" fill="#F8F5FB"/>
<path opacity="0.4" d="M300.993 102.019L295.583 104.721C295.174 104.943 294.665 104.795 294.436 104.388C294.369 104.26 294.334 104.118 294.333 103.973V97.9248C294.333 98.5245 294.671 98.8946 295.561 99.3092L300.993 102.019Z" fill="#7D45A1"/>
<path fill-rule="evenodd" clip-rule="evenodd" d="M298.413 88.167H303.558C305.814 88.167 307.645 89.0554 307.667 91.3281V103.973C307.666 104.115 307.63 104.255 307.564 104.38C307.457 104.584 307.272 104.736 307.051 104.8C306.831 104.864 306.594 104.836 306.395 104.72L300.993 102.018L295.561 99.3087C294.671 98.8941 294.333 98.524 294.333 97.9243V91.3281C294.333 89.0554 296.163 88.167 298.413 88.167ZM297.854 94.5189H304.124C304.485 94.5189 304.778 94.2239 304.778 93.86C304.778 93.4961 304.485 93.2011 304.124 93.2011H297.854C297.493 93.2011 297.2 93.4961 297.2 93.86C297.2 94.2239 297.493 94.5189 297.854 94.5189Z" fill="#7D45A1"/>
<path d="M300.616 133.192C299.603 133.192 298.728 132.952 297.992 132.472C297.267 131.981 296.707 131.304 296.312 130.44C295.928 129.565 295.736 128.552 295.736 127.4C295.736 126.248 295.928 125.24 296.312 124.376C296.707 123.501 297.267 122.824 297.992 122.344C298.728 121.853 299.603 121.608 300.616 121.608C301.629 121.608 302.499 121.853 303.224 122.344C303.949 122.824 304.504 123.501 304.888 124.376C305.283 125.24 305.48 126.248 305.48 127.4C305.48 128.552 305.283 129.565 304.888 130.44C304.504 131.304 303.949 131.981 303.224 132.472C302.499 132.952 301.629 133.192 300.616 133.192ZM300.616 131.672C301.224 131.672 301.763 131.501 302.232 131.16C302.712 130.819 303.085 130.328 303.352 129.688C303.619 129.048 303.752 128.285 303.752 127.4C303.752 126.515 303.619 125.752 303.352 125.112C303.085 124.472 302.712 123.981 302.232 123.64C301.763 123.299 301.224 123.128 300.616 123.128C299.997 123.128 299.453 123.299 298.984 123.64C298.515 123.981 298.147 124.472 297.88 125.112C297.613 125.752 297.48 126.515 297.48 127.4C297.48 128.285 297.613 129.048 297.88 129.688C298.147 130.328 298.515 130.819 298.984 131.16C299.453 131.501 299.997 131.672 300.616 131.672Z" fill="#091118"/>
<path d="M284.432 158L281.276 149.6H282.368L285.02 156.932L287.696 149.6H288.764L285.608 158H284.432ZM291.722 158.144C291.162 158.144 290.662 158.012 290.222 157.748C289.79 157.476 289.45 157.1 289.202 156.62C288.954 156.132 288.83 155.568 288.83 154.928C288.83 154.28 288.954 153.716 289.202 153.236C289.45 152.748 289.79 152.372 290.222 152.108C290.662 151.836 291.17 151.7 291.746 151.7C292.346 151.7 292.85 151.836 293.258 152.108C293.674 152.372 293.99 152.724 294.206 153.164C294.422 153.604 294.53 154.084 294.53 154.604C294.53 154.684 294.53 154.768 294.53 154.856C294.53 154.944 294.526 155.044 294.518 155.156H289.586V154.376H293.534C293.518 153.792 293.338 153.344 292.994 153.032C292.658 152.712 292.234 152.552 291.722 152.552C291.386 152.552 291.074 152.632 290.786 152.792C290.498 152.952 290.262 153.188 290.078 153.5C289.902 153.804 289.814 154.188 289.814 154.652V154.988C289.814 155.492 289.902 155.916 290.078 156.26C290.262 156.604 290.498 156.864 290.786 157.04C291.074 157.208 291.386 157.292 291.722 157.292C292.162 157.292 292.514 157.204 292.778 157.028C293.042 156.844 293.238 156.588 293.366 156.26H294.362C294.258 156.62 294.086 156.944 293.846 157.232C293.614 157.512 293.318 157.736 292.958 157.904C292.606 158.064 292.194 158.144 291.722 158.144ZM295.891 158V151.844H296.803L296.863 152.876C297.047 152.508 297.315 152.22 297.667 152.012C298.019 151.804 298.423 151.7 298.879 151.7C299.351 151.7 299.759 151.792 300.103 151.976C300.447 152.16 300.715 152.44 300.907 152.816C301.099 153.184 301.195 153.652 301.195 154.22V158H300.187V154.328C300.187 153.744 300.051 153.304 299.779 153.008C299.507 152.712 299.131 152.564 298.651 152.564C298.331 152.564 298.035 152.644 297.763 152.804C297.499 152.964 297.287 153.196 297.127 153.5C296.975 153.796 296.899 154.164 296.899 154.604V158H295.891ZM305.445 158.144C304.869 158.144 304.361 158.004 303.921 157.724C303.489 157.444 303.149 157.06 302.901 156.572C302.661 156.084 302.541 155.532 302.541 154.916C302.541 154.292 302.661 153.74 302.901 153.26C303.149 152.78 303.489 152.4 303.921 152.12C304.361 151.84 304.873 151.7 305.457 151.7C305.945 151.7 306.373 151.8 306.741 152C307.109 152.2 307.393 152.48 307.593 152.84V149.36H308.601V158H307.689L307.605 157.004C307.485 157.196 307.325 157.38 307.125 157.556C306.925 157.732 306.685 157.876 306.405 157.988C306.133 158.092 305.813 158.144 305.445 158.144ZM305.565 157.268C305.965 157.268 306.313 157.172 306.609 156.98C306.913 156.788 307.145 156.516 307.305 156.164C307.473 155.812 307.557 155.4 307.557 154.928C307.557 154.448 307.473 154.036 307.305 153.692C307.145 153.34 306.913 153.068 306.609 152.876C306.313 152.676 305.965 152.576 305.565 152.576C305.181 152.576 304.837 152.676 304.533 152.876C304.237 153.068 304.001 153.34 303.825 153.692C303.657 154.036 303.573 154.448 303.573 154.928C303.573 155.4 303.657 155.812 303.825 156.164C304.001 156.516 304.237 156.788 304.533 156.98C304.837 157.172 305.181 157.268 305.565 157.268ZM313.005 158.144C312.429 158.144 311.917 158.012 311.469 157.748C311.021 157.484 310.669 157.112 310.413 156.632C310.165 156.144 310.041 155.576 310.041 154.928C310.041 154.272 310.169 153.704 310.425 153.224C310.681 152.744 311.033 152.372 311.481 152.108C311.937 151.836 312.453 151.7 313.029 151.7C313.605 151.7 314.117 151.836 314.565 152.108C315.013 152.372 315.361 152.744 315.609 153.224C315.865 153.704 315.993 154.272 315.993 154.928C315.993 155.576 315.865 156.144 315.609 156.632C315.353 157.112 314.997 157.484 314.541 157.748C314.093 158.012 313.581 158.144 313.005 158.144ZM313.005 157.28C313.365 157.28 313.693 157.192 313.989 157.016C314.285 156.84 314.521 156.576 314.697 156.224C314.873 155.872 314.961 155.44 314.961 154.928C314.961 154.4 314.873 153.964 314.697 153.62C314.529 153.268 314.297 153.004 314.001 152.828C313.705 152.652 313.381 152.564 313.029 152.564C312.677 152.564 312.353 152.652 312.057 152.828C311.761 153.004 311.521 153.268 311.337 153.62C311.161 153.964 311.073 154.4 311.073 154.928C311.073 155.44 311.161 155.872 311.337 156.224C311.513 156.576 311.745 156.84 312.033 157.016C312.329 157.192 312.653 157.28 313.005 157.28ZM317.43 158V151.844H318.342L318.426 152.996C318.562 152.716 318.738 152.48 318.954 152.288C319.178 152.096 319.446 151.952 319.758 151.856C320.07 151.752 320.422 151.7 320.814 151.7V152.756H320.346C320.098 152.756 319.858 152.792 319.626 152.864C319.402 152.928 319.198 153.036 319.014 153.188C318.838 153.332 318.698 153.532 318.594 153.788C318.49 154.044 318.438 154.364 318.438 154.748V158H317.43ZM324.245 158.144C323.717 158.144 323.265 158.06 322.889 157.892C322.521 157.724 322.233 157.488 322.025 157.184C321.817 156.88 321.689 156.524 321.641 156.116H322.673C322.713 156.324 322.793 156.52 322.913 156.704C323.041 156.88 323.213 157.024 323.429 157.136C323.653 157.24 323.929 157.292 324.257 157.292C324.537 157.292 324.769 157.252 324.953 157.172C325.145 157.084 325.285 156.968 325.373 156.824C325.469 156.672 325.517 156.508 325.517 156.332C325.517 156.076 325.457 155.88 325.337 155.744C325.225 155.608 325.057 155.504 324.833 155.432C324.617 155.352 324.349 155.288 324.029 155.24C323.725 155.192 323.441 155.128 323.177 155.048C322.921 154.96 322.693 154.848 322.493 154.712C322.301 154.576 322.149 154.408 322.037 154.208C321.933 154 321.881 153.752 321.881 153.464C321.881 153.12 321.969 152.816 322.145 152.552C322.329 152.288 322.585 152.08 322.913 151.928C323.249 151.776 323.645 151.7 324.101 151.7C324.757 151.7 325.285 151.856 325.685 152.168C326.085 152.48 326.321 152.928 326.393 153.512H325.397C325.357 153.216 325.221 152.984 324.989 152.816C324.765 152.64 324.465 152.552 324.089 152.552C323.697 152.552 323.401 152.628 323.201 152.78C323.001 152.932 322.901 153.132 322.901 153.38C322.901 153.556 322.949 153.712 323.045 153.848C323.149 153.976 323.309 154.088 323.525 154.184C323.749 154.272 324.029 154.344 324.365 154.4C324.789 154.464 325.165 154.556 325.493 154.676C325.821 154.796 326.081 154.98 326.273 155.228C326.465 155.468 326.557 155.808 326.549 156.248C326.557 156.632 326.465 156.968 326.273 157.256C326.081 157.544 325.813 157.764 325.469 157.916C325.125 158.068 324.717 158.144 324.245 158.144Z" fill="#091118"/>
</svg>
