<svg width="123" height="124" viewBox="0 0 123 124" fill="none" xmlns="http://www.w3.org/2000/svg">
<rect width="123" height="124" rx="11" fill="#602587"/>
<path fill-rule="evenodd" clip-rule="evenodd" d="M38.96 26.6491C37.6866 24.6061 37.1638 23.0148 34.3067 21.6638C24.903 17.2178 14.6719 28.3752 24.4973 39.8494L38.9597 53.7307L46.4481 46.8038C47.2599 46.007 48.0957 45.3929 48.9559 44.5855L52.5032 40.9553C52.8662 40.5337 53.0681 40.2801 53.5256 39.7307C59.2996 32.7931 58.6751 24.0611 51.2809 21.3007C48.7104 20.341 45.7406 20.5821 43.4595 21.738C42.4781 22.2352 41.35 23.0984 40.7784 23.7736C39.9298 24.776 39.6529 25.5374 38.9597 26.6498L38.96 26.6491Z" fill="#FBB858"/>
<path d="M104.55 74.399C104.55 72.1256 102.705 70.2656 100.45 70.2656L24.6 70.2656C22.345 70.2656 20.5 72.1256 20.5 74.399C20.5 76.6723 22.345 78.5323 24.6 78.5323H100.45C102.705 78.5323 104.55 76.6723 104.55 74.399Z" fill="white"/>
<path d="M84.05 95.063C84.05 92.7897 82.205 90.9297 79.95 90.9297L24.6 90.9297C22.345 90.9297 20.5 92.7897 20.5 95.063C20.5 97.3364 22.345 99.1964 24.6 99.1964H79.95C82.205 99.1964 84.05 97.3364 84.05 95.063Z" fill="white"/>
</svg>
