<svg width="48" height="48" viewBox="0 0 48 48" fill="none" xmlns="http://www.w3.org/2000/svg">
<circle cx="24" cy="24" r="24" fill="#8A58AA"/>
<path opacity="0.4" d="M23.9898 31.7247L16.4161 35.5077C15.8442 35.8181 15.1307 35.6109 14.8108 35.0413C14.7174 34.8622 14.668 34.6632 14.6667 34.4609V25.9932C14.6667 26.8327 15.1401 27.3509 16.3852 27.9313L23.9898 31.7247Z" fill="white"/>
<path fill-rule="evenodd" clip-rule="evenodd" d="M20.3779 12.333H27.5811C30.7402 12.333 33.3025 13.5767 33.3334 16.7586V34.461C33.3321 34.66 33.2827 34.8557 33.1893 35.031C33.0394 35.3171 32.7803 35.5295 32.4718 35.6194C32.1632 35.7093 31.8317 35.669 31.5532 35.5078L23.9898 31.7248L16.3852 27.9314C15.1401 27.351 14.6667 26.8328 14.6667 25.9933V16.7586C14.6667 13.5767 17.229 12.333 20.3779 12.333ZM19.5958 21.2257H28.3735C28.8793 21.2257 29.2893 20.8127 29.2893 20.3032C29.2893 19.7938 28.8793 19.3808 28.3735 19.3808H19.5958C19.09 19.3808 18.68 19.7938 18.68 20.3032C18.68 20.8127 19.09 21.2257 19.5958 21.2257Z" fill="white"/>
</svg>
