<svg width="42" height="40" viewBox="0 0 42 40" fill="none" xmlns="http://www.w3.org/2000/svg">
<path d="M9.55839 19.1168C14.8373 19.1168 19.1168 14.8373 19.1168 9.55839C19.1168 4.27944 14.8373 0 9.55839 0C4.27944 0 0 4.27944 0 9.55839C0 14.8373 4.27944 19.1168 9.55839 19.1168Z" fill="#7D45A1"/>
<path d="M32.0766 0L36.9928 8.5144L41.909 17.03H32.0766H22.2441L27.1604 8.5144L32.0766 0Z" fill="#FBB858"/>
<path d="M17.3731 24.3672H1.74414V39.9961H17.3731V24.3672Z" fill="#7D45A1"/>
<path d="M32.0738 21.9688L34.9518 27.7996L41.3866 28.7357L36.7302 33.2746L37.8299 39.6833L32.0738 36.6581L26.3176 39.6833L27.4174 33.2746L22.7598 28.7357L29.1957 27.7996L32.0738 21.9688Z" fill="#7D45A1"/>
</svg>
