<svg width="19" height="20" viewBox="0 0 19 20" fill="none" xmlns="http://www.w3.org/2000/svg">
<path d="M17.865 9.71591L10.2067 17.3742C9.26846 18.3125 7.99598 18.8395 6.66916 18.8395C5.34234 18.8395 4.06987 18.3125 3.13166 17.3742C2.19346 16.436 1.66638 15.1636 1.66638 13.8367C1.66638 12.5099 2.19346 11.2375 3.13166 10.2992L10.79 2.64092C11.4155 2.01545 12.2638 1.66406 13.1483 1.66406C14.0329 1.66406 14.8812 2.01545 15.5067 2.64092C16.1321 3.26638 16.4835 4.1147 16.4835 4.99925C16.4835 5.8838 16.1321 6.73211 15.5067 7.35758L7.84 15.0159C7.68515 15.1708 7.50131 15.2936 7.29899 15.3774C7.09667 15.4612 6.87982 15.5043 6.66083 15.5043C6.44184 15.5043 6.22499 15.4612 6.02267 15.3774C5.82035 15.2936 5.63651 15.1708 5.48166 15.0159C5.32681 14.8611 5.20398 14.6772 5.12017 14.4749C5.03637 14.2726 4.99324 14.0557 4.99324 13.8367C4.99324 13.6178 5.03637 13.4009 5.12017 13.1986C5.20398 12.9963 5.32681 12.8124 5.48166 12.6576L12.5567 5.59092" stroke="#A89AA6" stroke-width="1.5" stroke-linecap="round" stroke-linejoin="round"/>
</svg>
