<svg width="20" height="20" viewBox="0 0 20 20" fill="none" xmlns="http://www.w3.org/2000/svg">
<path d="M17.8646 9.71592L10.2063 17.3743C9.26809 18.3125 7.99562 18.8395 6.6688 18.8395C5.34198 18.8395 4.0695 18.3125 3.1313 17.3743C2.19309 16.436 1.66602 15.1636 1.66602 13.8368C1.66602 12.5099 2.19309 11.2375 3.1313 10.2993L10.7896 2.64092C11.4151 2.01545 12.2634 1.66406 13.148 1.66406C14.0325 1.66406 14.8808 2.01545 15.5063 2.64092C16.1318 3.26639 16.4831 4.1147 16.4831 4.99925C16.4831 5.8838 16.1318 6.73211 15.5063 7.35758L7.83963 15.0159C7.68478 15.1708 7.50095 15.2936 7.29862 15.3774C7.0963 15.4612 6.87945 15.5043 6.66046 15.5043C6.44147 15.5043 6.22462 15.4612 6.0223 15.3774C5.81998 15.2936 5.63615 15.1708 5.4813 15.0159C5.32645 14.8611 5.20361 14.6772 5.11981 14.4749C5.036 14.2726 4.99287 14.0557 4.99287 13.8368C4.99287 13.6178 5.036 13.4009 5.11981 13.1986C5.20361 12.9963 5.32645 12.8124 5.4813 12.6576L12.5563 5.59092" stroke="#7D45A1" stroke-width="1.5" stroke-linecap="round" stroke-linejoin="round"/>
</svg>
