<svg width="83" height="54" viewBox="0 0 83 54" fill="none" xmlns="http://www.w3.org/2000/svg">
<path d="M35.7902 19.5404C35.3822 19.5583 35.0489 18.5909 35.27 18.3145C35.3344 18.2401 35.4162 18.1829 35.5081 18.148C35.6001 18.1131 35.6992 18.1016 35.7967 18.1145C35.9266 18.1319 36.0502 18.1809 36.1568 18.2571C36.2634 18.3333 36.3496 18.4346 36.408 18.5519C36.4966 18.738 36.5261 18.9468 36.4925 19.1502C36.4925 19.1528 36.4936 19.1553 36.4954 19.1571C36.4972 19.1589 36.4997 19.1599 36.5023 19.1599C36.5049 19.1599 36.5074 19.1589 36.5092 19.1571C36.511 19.1553 36.512 19.1528 36.512 19.1502C36.6463 18.8972 36.8624 18.6972 37.1249 18.5828C37.2452 18.5306 37.3762 18.5083 37.507 18.5177C37.5707 18.5244 37.6324 18.544 37.6883 18.5753C37.7442 18.6066 37.7931 18.649 37.8321 18.6998C37.8912 18.8046 37.9123 18.9265 37.8918 19.045C37.8714 19.1635 37.8107 19.2713 37.7199 19.3502C37.5357 19.5037 37.318 19.6117 37.0843 19.6656L36.8258 19.7469C36.9928 19.7314 37.1607 19.7282 37.3281 19.7371C37.4034 19.7396 37.4784 19.7478 37.5525 19.7615C37.6859 19.7867 37.8076 19.8542 37.8996 19.9541C37.9916 20.054 38.0489 20.1809 38.0629 20.3159C38.1085 20.75 37.6273 21.0118 37.281 20.8638C37.1367 20.7902 37.0097 20.6865 36.9087 20.5598C36.7965 20.4362 36.6827 20.3127 36.5836 20.1794C36.7176 20.3651 36.8148 20.5748 36.8697 20.7972C36.8959 20.8677 36.9075 20.9429 36.9038 21.018C36.9002 21.0932 36.8814 21.1668 36.8486 21.2345C36.7982 21.3025 36.7303 21.3555 36.6521 21.3879C36.5739 21.4203 36.4884 21.4308 36.4047 21.4183C36.2392 21.4032 36.0843 21.3301 35.9674 21.2118C35.9115 21.1515 35.8683 21.0805 35.8404 21.0031C35.8124 20.9258 35.8004 20.8435 35.8049 20.7614C35.8134 20.674 35.8354 20.5885 35.8699 20.5078C35.9216 20.3772 35.9887 20.2533 36.0699 20.1387C35.943 20.2558 35.7984 20.381 35.6634 20.4883C35.6073 20.5372 35.5436 20.5768 35.4749 20.6053C35.3832 20.6348 35.2851 20.6376 35.192 20.6135C35.113 20.6016 35.0373 20.5732 34.9701 20.5301C34.9028 20.4869 34.8455 20.43 34.8018 20.3631C34.7627 20.2833 34.7461 20.1943 34.7538 20.1058C34.7615 20.0172 34.7933 19.9325 34.8457 19.8607C34.954 19.7181 35.1077 19.6166 35.2814 19.5729C35.4491 19.5419 35.6199 19.531 35.7902 19.5404Z" fill="#FFA298"/>
<path d="M51.7129 21.6279C52.0406 21.6425 52.3058 20.8679 52.1304 20.6466C52.079 20.5882 52.0141 20.5432 51.9413 20.5156C51.8685 20.4879 51.7901 20.4784 51.7129 20.488C51.6092 20.5018 51.5104 20.5408 51.4253 20.6016C51.3401 20.6624 51.2712 20.7431 51.2244 20.8366C51.1561 20.9854 51.1349 21.1515 51.1638 21.3126C51.1638 21.3231 51.1513 21.3272 51.1471 21.3126C51.0408 21.1102 50.8684 20.9503 50.6586 20.8596C50.5627 20.8177 50.4581 20.7998 50.3538 20.8074C50.3017 20.8115 50.251 20.8264 50.205 20.8512C50.159 20.876 50.1186 20.9102 50.0866 20.9514C50.04 21.035 50.0235 21.132 50.0398 21.2262C50.0561 21.3205 50.1043 21.4062 50.1763 21.4692C50.3245 21.5913 50.4988 21.6778 50.6857 21.7218L50.8945 21.7865C50.7604 21.7761 50.6257 21.7761 50.4916 21.7865C50.4321 21.7886 50.3728 21.7949 50.3141 21.8053C50.2074 21.8248 50.1099 21.8785 50.0364 21.9584C49.963 22.0383 49.9175 22.1399 49.907 22.2479C49.9025 22.3244 49.9177 22.4008 49.951 22.4698C49.9844 22.5388 50.0349 22.5981 50.0977 22.6421C50.1605 22.686 50.2335 22.7132 50.3098 22.7209C50.386 22.7287 50.463 22.7168 50.5333 22.6863C50.6492 22.6273 50.751 22.544 50.8319 22.4421C50.9216 22.3418 51.0114 22.2437 51.0928 22.1373C50.9849 22.2857 50.9069 22.4538 50.8632 22.632C50.8424 22.6883 50.8332 22.7482 50.8361 22.8081C50.839 22.868 50.8539 22.9267 50.8799 22.9807C50.9203 23.0349 50.9747 23.0771 51.0372 23.1028C51.0996 23.1285 51.168 23.1368 51.2348 23.1268C51.3669 23.1149 51.4904 23.0564 51.5834 22.9619C51.6294 22.9145 51.6652 22.8582 51.6886 22.7964C51.7119 22.7347 51.7223 22.6688 51.7191 22.6028C51.7136 22.5308 51.6959 22.4602 51.6669 22.394C51.6253 22.2903 51.5721 22.1915 51.5083 22.0997C51.6085 22.1936 51.7171 22.2938 51.8319 22.3794C51.8759 22.4196 51.9268 22.4514 51.9822 22.4734C52.0565 22.4954 52.1355 22.4954 52.2097 22.4734C52.2734 22.4626 52.3341 22.4385 52.3878 22.4025C52.4414 22.3665 52.4867 22.3195 52.5208 22.2646C52.5521 22.2009 52.5653 22.1299 52.559 22.0592C52.5528 21.9886 52.5273 21.921 52.4853 21.8638C52.3993 21.75 52.2771 21.669 52.1388 21.6341C51.9976 21.6141 51.8545 21.612 51.7129 21.6279Z" fill="#FFA298"/>
<path d="M55.5022 25.4073C55.8299 25.4219 56.0951 24.6494 55.9197 24.4281C55.8685 24.3694 55.8036 24.3242 55.7308 24.2965C55.658 24.2689 55.5794 24.2596 55.5022 24.2695C55.3981 24.282 55.2988 24.3206 55.2134 24.3815C55.1281 24.4424 55.0594 24.5238 55.0136 24.6181C54.9427 24.7668 54.9193 24.9338 54.9468 25.0962C54.9468 25.0962 54.9343 25.1108 54.9301 25.0962C54.8238 24.8944 54.6513 24.7352 54.4416 24.6453C54.346 24.6027 54.2412 24.5847 54.1368 24.5931C54.0846 24.5968 54.0338 24.6116 53.9877 24.6364C53.9417 24.6612 53.9014 24.6956 53.8696 24.7371C53.823 24.8206 53.8065 24.9176 53.8228 25.0119C53.8392 25.1061 53.8874 25.1919 53.9594 25.2549C54.107 25.3774 54.2816 25.4633 54.4688 25.5054L54.6775 25.5701C54.5434 25.5607 54.4087 25.5607 54.2746 25.5701C54.2151 25.5722 54.1558 25.5785 54.0971 25.5889C53.9904 25.6084 53.8929 25.6621 53.8194 25.742C53.746 25.8218 53.7005 25.9235 53.6901 26.0315C53.6861 26.1078 53.7016 26.1839 53.7352 26.2526C53.7687 26.3213 53.8192 26.3803 53.8818 26.4241C53.9444 26.468 54.0171 26.4952 54.0932 26.5032C54.1692 26.5112 54.246 26.4997 54.3164 26.4699C54.4323 26.4101 54.5341 26.3261 54.6149 26.2235C54.7047 26.1254 54.7944 26.0273 54.8759 25.9187C54.7687 26.0676 54.6907 26.2356 54.6462 26.4135C54.6255 26.4702 54.6163 26.5304 54.6192 26.5906C54.6221 26.6508 54.6369 26.7099 54.6629 26.7643C54.7034 26.8182 54.7579 26.8602 54.8204 26.8855C54.8829 26.9109 54.9512 26.9188 55.0178 26.9083C55.1504 26.8983 55.2746 26.8395 55.3665 26.7434C55.4127 26.6962 55.4486 26.6399 55.4719 26.5781C55.4953 26.5163 55.5056 26.4503 55.5022 26.3843C55.4958 26.3124 55.4782 26.242 55.45 26.1755C55.4088 26.0715 55.3555 25.9727 55.2913 25.8812C55.3915 25.9751 55.5001 26.0753 55.6149 26.1609C55.66 26.1997 55.7106 26.2313 55.7652 26.2549C55.8398 26.2747 55.9182 26.2747 55.9928 26.2549C56.0563 26.2436 56.1168 26.2193 56.1703 26.1833C56.2239 26.1474 56.2694 26.1006 56.3038 26.0461C56.3353 25.9825 56.3487 25.9114 56.3424 25.8407C56.3362 25.77 56.3105 25.7024 56.2683 25.6453C56.1818 25.5311 56.0588 25.45 55.9197 25.4156C55.7814 25.3954 55.6411 25.3926 55.5022 25.4073Z" fill="#FFA298"/>
<path d="M47.0345 20.0661C47.452 20.0849 47.7986 19.0849 47.571 18.7989C47.5042 18.7228 47.4199 18.664 47.3254 18.6277C47.2308 18.5913 47.1289 18.5784 47.0282 18.5901C46.8948 18.608 46.7679 18.6585 46.6586 18.7371C46.5494 18.8158 46.4612 18.9202 46.4019 19.0411C46.3087 19.2357 46.278 19.4546 46.3143 19.6674C46.3143 19.6701 46.3132 19.6728 46.3112 19.6747C46.3092 19.6767 46.3066 19.6778 46.3038 19.6778C46.3011 19.6778 46.2984 19.6767 46.2964 19.6747C46.2945 19.6728 46.2934 19.6701 46.2934 19.6674C46.1565 19.4075 45.9358 19.2015 45.6671 19.0828C45.5429 19.0289 45.4075 19.006 45.2725 19.016C45.2053 19.0209 45.1399 19.0403 45.0809 19.0727C45.0218 19.1051 44.9704 19.1499 44.9301 19.2039C44.8699 19.3116 44.8484 19.4367 44.8693 19.5583C44.8902 19.6799 44.9522 19.7906 45.0449 19.872C45.2355 20.029 45.4599 20.1398 45.7005 20.1956L45.9698 20.2791C45.7967 20.2665 45.623 20.2665 45.45 20.2791C45.3722 20.2822 45.2948 20.2906 45.2182 20.3041C45.0804 20.3296 44.9546 20.3992 44.8598 20.5024C44.7649 20.6055 44.7061 20.7367 44.6921 20.8761C44.6872 20.9746 44.7074 21.0726 44.7507 21.1611C44.794 21.2497 44.859 21.3257 44.9398 21.3823C45.0205 21.4388 45.1142 21.4739 45.2122 21.4843C45.3102 21.4948 45.4093 21.4802 45.5001 21.4419C45.6443 21.3617 45.7697 21.2513 45.8675 21.1183C45.9863 20.9934 46.0984 20.8624 46.2036 20.7258C46.0651 20.918 45.9644 21.1348 45.9072 21.3647C45.8807 21.4375 45.8691 21.515 45.873 21.5924C45.8769 21.6699 45.8964 21.7458 45.9301 21.8156C45.9818 21.8858 46.0518 21.9404 46.1324 21.9735C46.2131 22.0067 46.3012 22.017 46.3873 22.0035C46.5584 21.9901 46.719 21.916 46.8404 21.7947C46.8992 21.7333 46.9449 21.6605 46.9747 21.5808C47.0045 21.5011 47.0177 21.4162 47.0136 21.3313C47.005 21.2407 46.9825 21.1519 46.9468 21.0682C46.8931 20.9335 46.823 20.8058 46.7381 20.6882C46.8696 20.8072 47.0178 20.9367 47.1556 21.0494C47.2138 21.0994 47.2793 21.1402 47.3498 21.1705C47.446 21.1976 47.5479 21.1976 47.6441 21.1705C47.7255 21.1584 47.8034 21.129 47.8725 21.0843C47.9416 21.0397 48.0004 20.9808 48.045 20.9116C48.0863 20.8294 48.1041 20.7373 48.0964 20.6455C48.0886 20.5538 48.0557 20.466 48.0011 20.3918C47.8897 20.2446 47.7313 20.14 47.5523 20.0953C47.3814 20.0657 47.2076 20.0559 47.0345 20.0661Z" fill="#FFA298"/>
<path d="M29.0931 32.3324C29.5106 32.3512 29.8593 31.3512 29.6296 31.0652C29.5635 30.9883 29.4793 30.9289 29.3845 30.8925C29.2898 30.856 29.1875 30.8437 29.0868 30.8565C28.9535 30.8747 28.8267 30.9253 28.7175 31.0039C28.6083 31.0825 28.5201 31.1867 28.4605 31.3074C28.3673 31.5021 28.3366 31.7209 28.3729 31.9337C28.3729 31.9365 28.3718 31.9391 28.3698 31.9411C28.3678 31.943 28.3652 31.9441 28.3624 31.9441C28.3596 31.9441 28.357 31.943 28.355 31.9411C28.3531 31.9391 28.352 31.9365 28.352 31.9337C28.2162 31.673 27.9951 31.4667 27.7257 31.3492C27.6014 31.2954 27.4662 31.2718 27.3311 31.2803C27.2641 31.2861 27.1991 31.3058 27.1401 31.3382C27.0812 31.3705 27.0296 31.4148 26.9887 31.4681C26.9289 31.5765 26.9079 31.7019 26.9292 31.8238C26.9504 31.9457 27.0127 32.0566 27.1056 32.1383C27.2957 32.2961 27.5203 32.407 27.7612 32.4619L28.0284 32.5454C27.8553 32.5329 27.6816 32.5329 27.5086 32.5454C27.4314 32.5474 27.3546 32.5558 27.2789 32.5704C27.1407 32.5956 27.0145 32.665 26.9192 32.7682C26.8239 32.8713 26.7648 33.0027 26.7507 33.1425C26.7458 33.2409 26.766 33.339 26.8093 33.4275C26.8526 33.516 26.9176 33.5921 26.9984 33.6486C27.0791 33.7051 27.1728 33.7402 27.2708 33.7507C27.3688 33.7611 27.4678 33.7465 27.5587 33.7082C27.7087 33.6314 27.8404 33.5232 27.9449 33.3909C28.0642 33.2657 28.1764 33.134 28.281 32.9963C28.1426 33.1891 28.0427 33.4067 27.9866 33.6373C27.9593 33.7099 27.9471 33.7873 27.9507 33.8649C27.9543 33.9424 27.9736 34.0184 28.0075 34.0882C28.0599 34.1582 28.1302 34.2127 28.2111 34.2457C28.292 34.2788 28.3804 34.2893 28.4668 34.2761C28.6374 34.2631 28.7975 34.189 28.9177 34.0673C28.9766 34.0059 29.0223 33.9331 29.0521 33.8534C29.0819 33.7737 29.0951 33.6888 29.091 33.6039C29.0824 33.5135 29.0606 33.4249 29.0263 33.3408C28.9718 33.2064 28.9017 33.0789 28.8175 32.9608C28.947 33.0798 29.0973 33.2093 29.2351 33.3199C29.2936 33.371 29.3598 33.4126 29.4313 33.4431C29.527 33.4692 29.6279 33.4692 29.7236 33.4431C29.805 33.4302 29.8829 33.4006 29.9522 33.356C30.0216 33.3114 30.0809 33.2529 30.1265 33.1842C30.1676 33.1018 30.185 33.0096 30.1769 32.9178C30.1688 32.8261 30.1355 32.7384 30.0806 32.6644C29.9692 32.5172 29.8108 32.4126 29.6317 32.3679C29.4543 32.3345 29.2734 32.3226 29.0931 32.3324Z" fill="#FFA298"/>
<path d="M57.6205 31.2461C58.2197 31.2732 58.7082 29.8536 58.3825 29.4465C58.2882 29.338 58.1685 29.2547 58.034 29.2041C57.8995 29.1534 57.7546 29.137 57.6122 29.1563C57.4213 29.1808 57.2394 29.2522 57.0828 29.364C56.9262 29.4758 56.7996 29.6247 56.7144 29.7972C56.5837 30.0697 56.5407 30.3761 56.5913 30.674C56.5913 30.6779 56.5897 30.6816 56.587 30.6844C56.5843 30.6871 56.5805 30.6887 56.5767 30.6887C56.5728 30.6887 56.5691 30.6871 56.5663 30.6844C56.5636 30.6816 56.5621 30.6779 56.5621 30.674C56.3665 30.301 56.0489 30.0062 55.6623 29.839C55.4861 29.7628 55.2942 29.7298 55.1028 29.7429C55.0072 29.7509 54.9143 29.7788 54.8302 29.8248C54.7461 29.8708 54.6725 29.934 54.6142 30.0102C54.4055 30.2962 54.5286 30.7158 54.7792 30.9601C55.05 31.1845 55.3696 31.3425 55.7124 31.4214L56.0923 31.5404C55.8473 31.5185 55.601 31.5143 55.3554 31.5279C55.2454 31.5312 55.1358 31.5431 55.0276 31.5634C54.8316 31.5994 54.6526 31.6981 54.5175 31.8445C54.3823 31.9909 54.2983 32.1773 54.2781 32.3755C54.2092 33.0123 54.9149 33.3985 55.4243 33.1814C55.6376 33.0714 55.8254 32.9178 55.9754 32.7304C56.1403 32.5488 56.3053 32.3672 56.4514 32.1709C56.2551 32.444 56.1134 32.7523 56.0339 33.0791C55.9958 33.1825 55.9789 33.2926 55.9843 33.4027C55.9896 33.5128 56.0172 33.6207 56.0652 33.72C56.1392 33.8195 56.239 33.897 56.3538 33.944C56.4685 33.9911 56.5939 34.006 56.7165 33.9872C56.9597 33.9668 57.1873 33.8593 57.3575 33.6845C57.4416 33.5973 57.5071 33.4937 57.5498 33.3803C57.5926 33.2669 57.6116 33.1459 57.6059 33.0248C57.5934 32.8969 57.5617 32.7716 57.5119 32.6532C57.4355 32.4619 57.3367 32.2804 57.2176 32.1125C57.4034 32.2816 57.6163 32.4653 57.8126 32.6239C57.8931 32.6986 57.9855 32.7593 58.0861 32.8035C58.2215 32.846 58.3662 32.8496 58.5036 32.8139C58.6192 32.7965 58.7299 32.7549 58.8284 32.692C58.9269 32.6291 59.0112 32.5461 59.0756 32.4486C59.1336 32.3314 59.1585 32.2006 59.1474 32.0703C59.1364 31.94 59.0899 31.8153 59.013 31.7095C58.852 31.5027 58.6264 31.3557 58.3721 31.292C58.1242 31.2473 57.872 31.2319 57.6205 31.2461Z" fill="#FFA298"/>
<path d="M30.6876 22.344C30.2838 22.2935 30.1254 21.3118 30.3904 21.0814C30.4658 21.0214 30.5554 20.9807 30.6511 20.963C30.7467 20.9454 30.8453 20.9514 30.938 20.9804C31.0624 21.0183 31.1754 21.0856 31.2667 21.1765C31.358 21.2674 31.4249 21.3789 31.4614 21.5012C31.5158 21.6939 31.5085 21.8983 31.4404 22.0868C31.4399 22.0891 31.4403 22.0915 31.4414 22.0936C31.4425 22.0958 31.4443 22.0975 31.4464 22.0986C31.4486 22.0996 31.4511 22.1 31.4535 22.0995C31.4559 22.0991 31.4581 22.098 31.4597 22.0962C31.6341 21.8762 31.8804 21.7214 32.1576 21.6575C32.2833 21.6267 32.4148 21.6267 32.5404 21.6575C32.6033 21.6734 32.662 21.7022 32.7127 21.7419C32.7633 21.7817 32.8048 21.8314 32.8344 21.8879C32.8731 21.9975 32.8723 22.1168 32.832 22.2259C32.7917 22.335 32.7145 22.4274 32.6131 22.4876C32.4067 22.6031 32.1754 22.6696 31.9379 22.6818L31.6697 22.7149C31.8361 22.7291 32.0012 22.7544 32.164 22.7907C32.2372 22.8059 32.309 22.8264 32.3789 22.8522C32.5052 22.8985 32.6127 22.9835 32.6855 23.0944C32.7583 23.2054 32.7924 23.3363 32.7827 23.4678C32.752 23.8908 32.2367 24.0612 31.9217 23.8608C31.7911 23.7666 31.6821 23.6467 31.6019 23.5088C31.5108 23.3731 31.4267 23.2329 31.3499 23.089C31.4485 23.2894 31.5071 23.5063 31.5227 23.7282C31.5364 23.8001 31.535 23.8739 31.5186 23.9453C31.5022 24.0166 31.4712 24.084 31.4274 24.1433C31.3664 24.2 31.2906 24.2393 31.2083 24.2568C31.1259 24.2743 31.0403 24.2695 30.9606 24.2427C30.8011 24.2011 30.662 24.1054 30.5681 23.9728C30.5224 23.9061 30.4911 23.8309 30.4761 23.7519C30.4611 23.673 30.4627 23.5919 30.4808 23.5135C30.5043 23.4314 30.5402 23.3532 30.5874 23.2815C30.6614 23.1669 30.7487 23.061 30.8475 22.9659C30.7021 23.0558 30.5406 23.1521 30.3904 23.231C30.3268 23.2688 30.2576 23.2965 30.1852 23.3131C30.09 23.3247 29.9933 23.3105 29.9058 23.2721C29.8306 23.2477 29.7615 23.2079 29.7033 23.1553C29.6451 23.1028 29.599 23.0388 29.5681 22.9675C29.5434 22.8845 29.5424 22.7966 29.5652 22.7131C29.588 22.6296 29.6337 22.5539 29.6974 22.494C29.828 22.3765 29.9953 22.3053 30.1723 22.2919C30.3456 22.2893 30.5186 22.3067 30.6876 22.344Z" fill="#FFA298"/>
<path d="M28.3121 26.6031C27.9084 26.551 27.7502 25.568 28.015 25.3388C28.0906 25.2791 28.1802 25.2386 28.2757 25.221C28.3712 25.2033 28.4697 25.209 28.5624 25.2377C28.6866 25.2759 28.7994 25.3434 28.8906 25.4344C28.9819 25.5253 29.0488 25.6369 29.0855 25.7592C29.1408 25.952 29.1335 26.1569 29.0645 26.3455C29.0641 26.3479 29.0645 26.3503 29.0656 26.3524C29.0667 26.3545 29.0684 26.3563 29.0706 26.3573C29.0728 26.3584 29.0753 26.3587 29.0776 26.3583C29.08 26.3579 29.0822 26.3567 29.0839 26.355C29.2583 26.1351 29.5045 25.9806 29.7814 25.9172C29.9076 25.8864 30.0396 25.8864 30.1657 25.9172C30.2282 25.9336 30.2865 25.9624 30.3371 26.0018C30.3876 26.0412 30.4294 26.0905 30.4596 26.1464C30.4982 26.2566 30.4972 26.3764 30.4567 26.4859C30.4161 26.5954 30.3385 26.6881 30.2368 26.7485C30.0301 26.8631 29.799 26.9291 29.5618 26.9413L29.2938 26.9761C29.4602 26.9895 29.6253 27.0149 29.7879 27.0519C29.8608 27.0671 29.9325 27.0872 30.0026 27.112C30.1289 27.1584 30.2364 27.2434 30.3091 27.3545C30.3819 27.4656 30.416 27.5967 30.4063 27.7283C30.3756 28.1534 29.8606 28.3225 29.5457 28.1234C29.4165 28.0269 29.3097 27.9046 29.2325 27.7647C29.1436 27.6272 29.0548 27.4897 28.9806 27.3459C29.0799 27.5463 29.1385 27.7637 29.1533 27.9859C29.1669 28.0579 29.1654 28.1318 29.149 28.2033C29.1327 28.2747 29.1017 28.3421 29.0581 28.4016C28.9961 28.4585 28.9194 28.4977 28.8363 28.515C28.7532 28.5323 28.6668 28.5269 28.5866 28.4996C28.4264 28.4576 28.2868 28.3613 28.1926 28.2277C28.1469 28.1612 28.1156 28.0862 28.1006 28.0074C28.0856 27.9286 28.0873 27.8476 28.1054 27.7694C28.1285 27.6871 28.1645 27.6087 28.212 27.5371C28.2856 27.4221 28.3729 27.316 28.4719 27.221C28.3282 27.3111 28.1652 27.4059 28.015 27.4865C27.9519 27.5247 27.8825 27.552 27.8099 27.5671C27.7149 27.5801 27.618 27.5664 27.5306 27.5276C27.4557 27.5027 27.3869 27.4627 27.3288 27.4102C27.2706 27.3576 27.2244 27.2937 27.1931 27.2226C27.1684 27.1396 27.1674 27.0515 27.1902 26.9679C27.213 26.8844 27.2586 26.8085 27.3223 26.7485C27.4525 26.6302 27.6199 26.5589 27.797 26.5462C27.9705 26.5443 28.1435 26.5634 28.3121 26.6031Z" fill="#FFA298"/>
<path d="M45.566 15.2656C45.3301 13.8606 44.0399 13.5391 43.0441 13.9128C42.3761 14.1633 41.8395 14.727 41.8395 15.489C41.8291 15.1584 41.7216 14.8382 41.5304 14.5683C41.3392 14.2984 41.0728 14.0908 40.7644 13.9712C40.6111 13.902 40.4508 13.8495 40.2863 13.8147C39.2424 13.5934 38.0671 14.1028 38.0566 15.7145C38.0566 17.0923 38.9126 18.1466 39.8145 18.8731L39.9335 18.965C40.5105 19.4084 41.1419 19.776 41.8124 20.0589C42.4477 19.7928 43.0484 19.4507 43.6015 19.0401C44.5786 18.3136 45.5869 17.2051 45.5765 15.7166C45.5765 15.6435 45.5765 15.5704 45.5765 15.5078L45.566 15.2656Z" fill="#FF1840"/>
<path d="M37.5723 0.59375C37.5723 0.59375 40.4345 1.25555 40.3238 3.34532C40.3238 3.34532 40.8186 0.815045 43.0211 0.59375" stroke="black" stroke-width="0.5" stroke-miterlimit="10"/>
<path d="M37.9668 4.72656C37.9668 4.72656 39.7977 5.1441 39.7267 6.48648C39.7267 6.48648 40.044 4.86644 41.4532 4.72656" stroke="black" stroke-width="0.5" stroke-miterlimit="10"/>
<path d="M43.0176 5.28125C43.0176 5.28125 44.8485 5.69879 44.7796 7.04117C44.7796 7.04117 45.0969 5.42112 46.504 5.28125" stroke="black" stroke-width="0.5" stroke-miterlimit="10"/>
<path d="M33.8125 7.03906C33.8125 7.03906 35.6455 7.4566 35.5745 8.80107C35.5745 8.80107 35.8918 7.18103 37.301 7.03906" stroke="black" stroke-width="0.5" stroke-miterlimit="10"/>
<path d="M22.6065 8.6973C25.0082 8.6973 26.9551 6.75034 26.9551 4.34865C26.9551 1.94696 25.0082 0 22.6065 0C20.2048 0 18.2578 1.94696 18.2578 4.34865C18.2578 6.75034 20.2048 8.6973 22.6065 8.6973Z" fill="#FDDA23"/>
<path d="M22.1946 49.0963C22.1946 49.0963 25.704 33.3176 20.4785 19.1506L22.1946 18.6328C22.1946 18.6328 28.0401 34.1756 28.2092 49.0963H22.1946Z" fill="#C16217"/>
<path d="M19.8831 15.451C19.8831 15.451 9.00836 8.75583 0 23.3842L4.58038 21.5512L6.17746 19.3279L5.81838 21.0565L8.93112 19.8039L9.79333 17.5345L9.92486 19.4135L12.975 18.1943L13.2944 16.1421L13.5908 17.9479L19.8831 15.451Z" fill="#53A017"/>
<path d="M19.4434 16.1046C19.4434 16.1046 10.9381 15.0357 9.50391 26.4846L11.8004 24.09L12.1594 22.2841L12.4204 23.4407L13.9757 21.8144L13.8713 20.1881L14.4726 21.2946L15.9966 19.7017L15.6208 18.3593L16.3035 19.3802L19.4434 16.1046Z" fill="#53A017"/>
<path d="M20.2715 16.1808C20.2715 16.1808 26.9855 10.8468 34.1588 19.8823L30.9521 19.0305L29.7099 17.6756L30.0878 18.7988L27.9145 18.2184L27.1588 16.7737L27.2193 18.0263L25.0878 17.4564L24.712 16.1161L24.6598 17.3437L20.2715 16.1808Z" fill="#53A017"/>
<path d="M19.8837 15.6993C19.8837 15.6993 16.961 4.54894 1.96094 8.46752L6.09038 10.1377L8.51836 9.68465L7.2052 10.5886L10.0111 11.7181L11.9881 10.7765L10.9067 12.073L13.6562 13.1794L15.1447 12.0416L14.2115 13.4028L19.8837 15.6993Z" fill="#53A017"/>
<path d="M19.5273 15.7465C19.5273 15.7465 17.022 6.57319 29.3624 3.19531L27.0951 6.08467L25.1724 6.76108L26.4814 6.86546L24.9427 8.82997L23.139 8.97194L24.45 9.45628L22.9406 11.3811L21.4062 11.1724L22.6358 11.7611L19.5273 15.7465Z" fill="#53A017"/>
<path d="M19.457 16.0701C19.457 16.0701 24.6762 5.22665 39.265 12.2496L34.6971 13.1264L32.2963 12.1765L33.4612 13.3644L30.3589 13.9615L28.5218 12.6003L29.3694 14.1515L26.3297 14.7361L25.0312 13.2747L25.7201 14.8488L19.457 16.0701Z" fill="#53A017"/>
<path d="M19.1593 18.0452C20.1059 18.0452 20.8733 17.2778 20.8733 16.3312C20.8733 15.3846 20.1059 14.6172 19.1593 14.6172C18.2127 14.6172 17.4453 15.3846 17.4453 16.3312C17.4453 17.2778 18.2127 18.0452 19.1593 18.0452Z" fill="#7D471B"/>
<path d="M22.1964 18.6389C23.143 18.6389 23.9104 17.8715 23.9104 16.9249C23.9104 15.9783 23.143 15.2109 22.1964 15.2109C21.2498 15.2109 20.4824 15.9783 20.4824 16.9249C20.4824 17.8715 21.2498 18.6389 22.1964 18.6389Z" fill="#7D471B"/>
<path d="M23.214 20.3733C24.1606 20.3733 24.928 19.6059 24.928 18.6593C24.928 17.7127 24.1606 16.9453 23.214 16.9453C22.2674 16.9453 21.5 17.7127 21.5 18.6593C21.5 19.6059 22.2674 20.3733 23.214 20.3733Z" fill="#7D471B"/>
<path d="M18.1632 20.3499C19.1098 20.3499 19.8772 19.5825 19.8772 18.6359C19.8772 17.6893 19.1098 16.9219 18.1632 16.9219C17.2166 16.9219 16.4492 17.6893 16.4492 18.6359C16.4492 19.5825 17.2166 20.3499 18.1632 20.3499Z" fill="#7D471B"/>
<path d="M20.4835 20.8655C21.4301 20.8655 22.1975 20.0981 22.1975 19.1515C22.1975 18.2049 21.4301 17.4375 20.4835 17.4375C19.5369 17.4375 18.7695 18.2049 18.7695 19.1515C18.7695 20.0981 19.5369 20.8655 20.4835 20.8655Z" fill="#7D471B"/>
<path d="M60.8076 49.0963C60.8076 49.0963 57.2961 33.3176 62.5216 19.1506L60.8076 18.6328C60.8076 18.6328 54.9621 34.1756 54.793 49.0963H60.8076Z" fill="#C16217"/>
<path d="M63.1152 15.451C63.1152 15.451 73.9921 8.75583 83.0004 23.3842L78.4201 21.5512L76.8209 19.3279L77.18 21.0565L74.0693 19.8039L73.2071 17.5345L73.0756 19.4135L70.0234 18.1943L69.7061 16.1421L69.4096 17.9479L63.1152 15.451Z" fill="#53A017"/>
<path d="M63.5527 16.1046C63.5527 16.1046 72.0601 15.0357 73.4943 26.4846L71.1978 24.09L70.8408 22.2883L70.5799 23.4449L69.0246 21.8186L69.1289 20.1923L68.5277 21.2988L67.0016 19.7058L67.3774 18.3635L66.6947 19.3843L63.5527 16.1046Z" fill="#53A017"/>
<path d="M62.7213 16.1808C62.7213 16.1808 56.0094 10.8468 48.834 19.8823L52.0281 19.0305L53.2808 17.6756L52.9029 18.7988L55.0762 18.2184L55.8319 16.7737L55.7693 18.0263L57.9008 17.4564L58.2787 16.1161L58.3309 17.3437L62.7213 16.1808Z" fill="#53A017"/>
<path d="M63.1152 15.6993C63.1152 15.6993 66.0255 4.54894 81.0318 8.46752L76.9023 10.1377L74.4743 9.68465L75.7854 10.5886L72.9816 11.7181L71.0025 10.7765L72.086 12.0792L69.3365 13.1794L67.848 12.0416L68.7812 13.4028L63.1152 15.6993Z" fill="#53A017"/>
<path d="M63.4601 15.7465C63.4601 15.7465 65.9653 6.57319 53.625 3.19531L55.8943 6.08467L57.8171 6.76108L56.506 6.86546L58.0467 8.82997L59.8484 8.97194L58.5394 9.45628L60.0488 11.3811L61.5833 11.1724L60.3536 11.7611L63.4601 15.7465Z" fill="#53A017"/>
<path d="M63.5306 16.0701C63.5306 16.0701 58.3114 5.22665 43.7227 12.2496L48.2884 13.1264L50.6872 12.1765L49.5264 13.3644L52.6266 13.9615L54.4659 12.6003L53.6162 14.1515L56.658 14.7361L57.9544 13.2747L57.2655 14.8488L63.5306 16.0701Z" fill="#53A017"/>
<path d="M63.837 18.0452C64.7836 18.0452 65.551 17.2778 65.551 16.3312C65.551 15.3846 64.7836 14.6172 63.837 14.6172C62.8904 14.6172 62.123 15.3846 62.123 16.3312C62.123 17.2778 62.8904 18.0452 63.837 18.0452Z" fill="#7D471B"/>
<path d="M60.8038 18.6389C61.7504 18.6389 62.5178 17.8715 62.5178 16.9249C62.5178 15.9783 61.7504 15.2109 60.8038 15.2109C59.8572 15.2109 59.0898 15.9783 59.0898 16.9249C59.0898 17.8715 59.8572 18.6389 60.8038 18.6389Z" fill="#7D471B"/>
<path d="M59.7706 20.3733C60.7172 20.3733 61.4846 19.6059 61.4846 18.6593C61.4846 17.7127 60.7172 16.9453 59.7706 16.9453C58.824 16.9453 58.0566 17.7127 58.0566 18.6593C58.0566 19.6059 58.824 20.3733 59.7706 20.3733Z" fill="#7D471B"/>
<path d="M64.8331 20.3499C65.7797 20.3499 66.5471 19.5825 66.5471 18.6359C66.5471 17.6893 65.7797 16.9219 64.8331 16.9219C63.8865 16.9219 63.1191 17.6893 63.1191 18.6359C63.1191 19.5825 63.8865 20.3499 64.8331 20.3499Z" fill="#7D471B"/>
<path d="M62.5187 20.8655C63.4653 20.8655 64.2327 20.0981 64.2327 19.1515C64.2327 18.2049 63.4653 17.4375 62.5187 17.4375C61.5721 17.4375 60.8047 18.2049 60.8047 19.1515C60.8047 20.0981 61.5721 20.8655 62.5187 20.8655Z" fill="#7D471B"/>
<path d="M16.446 51.4765C17.1718 49.842 18.3385 48.4418 19.8153 47.433C21.292 46.4241 23.0206 45.8464 24.8072 45.7646C25.7529 45.7354 26.7153 45.8481 27.6381 45.6435C30.4439 45.0172 31.993 41.7688 34.7362 40.9316C38.993 39.6352 42.6005 44.6581 47.0076 45.2845C49.54 45.6456 52.4941 44.5976 54.4627 46.2323C54.9742 46.6498 55.3542 47.226 55.8991 47.6039C57.4001 48.6477 59.4356 47.892 61.2582 47.9817C63.9575 48.1174 66.3605 50.487 66.54 53.178H16.4355" fill="#FFCD6C"/>
</svg>
