<svg width="26" height="25" viewBox="0 0 26 25" fill="none" xmlns="http://www.w3.org/2000/svg">
<path d="M0 6.01306C0 2.69214 2.69214 0 6.01306 0H19.5424C22.8633 0 25.5555 2.69214 25.5555 6.01306V18.6297C25.5555 21.9507 22.8633 24.6428 19.5424 24.6428H6.01305C2.69214 24.6428 0 21.9507 0 18.6297V6.01306Z" fill="#7D45A1"/>
<path fill-rule="evenodd" clip-rule="evenodd" d="M8.89545 4.69531C9.01382 4.69531 9.12733 4.74233 9.21102 4.82603C9.29472 4.90972 9.34174 5.02323 9.34174 5.14159V5.58788H16.4822V5.14159C16.4822 5.02323 16.5293 4.90972 16.613 4.82603C16.6966 4.74233 16.8102 4.69531 16.9285 4.69531C17.0469 4.69531 17.1604 4.74233 17.2441 4.82603C17.3278 4.90972 17.3748 5.02323 17.3748 5.14159V5.58788H18.2674C18.7408 5.58788 19.1949 5.77595 19.5296 6.11073C19.8644 6.4455 20.0525 6.89956 20.0525 7.373V17.1912C20.0525 17.6646 19.8644 18.1187 19.5296 18.4535C19.1949 18.7882 18.7408 18.9763 18.2674 18.9763H7.55661C7.08317 18.9763 6.62911 18.7882 6.29434 18.4535C5.95956 18.1187 5.77148 17.6646 5.77148 17.1912V7.373C5.77148 6.89956 5.95956 6.4455 6.29434 6.11073C6.62911 5.77595 7.08317 5.58788 7.55661 5.58788H8.44917V5.14159C8.44917 5.02323 8.49619 4.90972 8.57989 4.82603C8.66358 4.74233 8.77709 4.69531 8.89545 4.69531ZM17.78 7.373H8.04306C7.77529 7.373 7.55661 7.57294 7.55661 7.81928V8.71185C7.55661 8.95819 7.7744 9.15813 8.04306 9.15813H17.7809C18.0487 9.15813 18.2674 8.95819 18.2674 8.71185V7.81928C18.2674 7.57294 18.0496 7.373 17.78 7.373ZM9.69765 12.7288C10.0571 12.7288 10.3786 12.4599 10.3786 12.0733C10.3786 11.6111 10.0755 11.39 9.71145 11.39C9.37444 11.39 9.03973 11.6049 9.03973 12.0622C9.03973 12.516 9.35201 12.7288 9.69765 12.7288ZM13.5046 12.0733C13.5046 12.4599 13.1831 12.7288 12.8237 12.7288C12.478 12.7288 12.1658 12.516 12.1658 12.0622C12.1658 11.6049 12.5005 11.39 12.8375 11.39C13.2015 11.39 13.5046 11.6111 13.5046 12.0733ZM15.9467 12.7288C16.3061 12.7288 16.6276 12.4599 16.6276 12.0733C16.6276 11.6111 16.3245 11.39 15.9605 11.39C15.6235 11.39 15.2888 11.6049 15.2888 12.0622C15.2888 12.516 15.601 12.7288 15.9467 12.7288ZM10.3787 15.1974C10.3787 15.584 10.0572 15.8529 9.69773 15.8529C9.3521 15.8529 9.03981 15.6401 9.03981 15.1862C9.03981 14.729 9.37452 14.514 9.71154 14.514C10.0756 14.514 10.3787 14.7352 10.3787 15.1974ZM12.8237 15.8529C13.1832 15.8529 13.5047 15.584 13.5047 15.1974C13.5047 14.7352 13.2016 14.514 12.8375 14.514C12.5005 14.514 12.1658 14.729 12.1658 15.1862C12.1658 15.6401 12.4781 15.8529 12.8237 15.8529ZM16.6276 15.1973C16.6276 15.5839 16.3061 15.8528 15.9467 15.8528C15.601 15.8528 15.2888 15.6401 15.2888 15.1862C15.2888 14.729 15.6235 14.514 15.9605 14.514C16.3245 14.514 16.6276 14.7351 16.6276 15.1973Z" fill="white"/>
</svg>
