<svg width="14" height="16" viewBox="0 0 14 16" fill="none" xmlns="http://www.w3.org/2000/svg">
<path d="M12.4763 15.278H1.80904C1.40488 15.278 1.01728 15.1174 0.731493 14.8316C0.445708 14.5458 0.285156 14.1582 0.285156 13.7541V3.08684C0.285156 2.68268 0.445708 2.29507 0.731493 2.00929C1.01728 1.7235 1.40488 1.56295 1.80904 1.56295H3.33293V0.0390625H4.85682V1.56295H9.42849V0.0390625H10.9524V1.56295H12.4763C12.8804 1.56295 13.268 1.7235 13.5538 2.00929C13.8396 2.29507 14.0002 2.68268 14.0002 3.08684V13.7541C14.0002 14.1582 13.8396 14.5458 13.5538 14.8316C13.268 15.1174 12.8804 15.278 12.4763 15.278ZM1.80904 6.13462V13.7541H12.4763V6.13462H1.80904ZM1.80904 3.08684V4.61073H12.4763V3.08684H1.80904Z" fill="#7D45A1"/>
</svg>
