<svg width="26" height="26" viewBox="0 0 26 26" fill="none" xmlns="http://www.w3.org/2000/svg">
<g clip-path="url(#clip0_12268_58976)">
<path d="M24.0413 20.2083C24.0413 20.7167 23.8394 21.2042 23.48 21.5636C23.1205 21.9231 22.633 22.125 22.1247 22.125H4.87467C4.36634 22.125 3.87883 21.9231 3.51939 21.5636C3.15994 21.2042 2.95801 20.7167 2.95801 20.2083V9.66667C2.95801 9.15833 3.15994 8.67082 3.51939 8.31138C3.87883 7.95193 4.36634 7.75 4.87467 7.75H8.70801L10.6247 4.875H16.3747L18.2913 7.75H22.1247C22.633 7.75 23.1205 7.95193 23.48 8.31138C23.8394 8.67082 24.0413 9.15833 24.0413 9.66667V20.2083Z" fill="#D0C5D7" stroke="#D0C5D7" stroke-width="2" stroke-linecap="round" stroke-linejoin="round"/>
<path d="M13.5003 18.2917C15.6174 18.2917 17.3337 16.5754 17.3337 14.4583C17.3337 12.3412 15.6174 10.625 13.5003 10.625C11.3832 10.625 9.66699 12.3412 9.66699 14.4583C9.66699 16.5754 11.3832 18.2917 13.5003 18.2917Z" stroke="#7D45A1" stroke-width="2" stroke-linecap="round" stroke-linejoin="round"/>
</g>
<defs>
<clipPath id="clip0_12268_58976">
<rect width="23" height="23" fill="white" transform="translate(2 2)"/>
</clipPath>
</defs>
</svg>
