<svg width="220" height="220" viewBox="0 0 220 220" fill="none" xmlns="http://www.w3.org/2000/svg">
<circle cx="110" cy="110" r="110" fill="#602587"/>
<mask id="mask0_8_3481" style="mask-type:alpha" maskUnits="userSpaceOnUse" x="78" y="82" width="82" height="102">
<path fill-rule="evenodd" clip-rule="evenodd" d="M159.07 103.352C159.118 103.282 159.165 103.212 159.21 103.142C164.151 95.5246 142.086 83.8384 119.73 82.5898C97.957 81.3737 77.6947 86.8818 78.8179 95.2722L78.7949 95.2699L78.8675 95.5745C78.8918 95.7003 78.921 95.8268 78.9549 95.9538C78.9625 95.9823 78.9703 96.0107 78.9781 96.0392L98.8832 179.659C99.1136 180.652 99.6259 181.558 100.359 182.267C101.091 182.977 102.014 183.46 103.014 183.658C104.015 183.856 105.051 183.761 105.999 183.384C106.947 183.007 107.765 182.365 108.357 181.534L159.07 103.352Z" fill="#FFB545"/>
</mask>
<g mask="url(#mask0_8_3481)">
<path d="M78.8126 96.3984L159.224 104.271L108.375 182.663C107.783 183.494 106.964 184.136 106.016 184.513C105.069 184.889 104.032 184.984 103.032 184.786C102.031 184.588 101.109 184.105 100.376 183.396C99.6436 182.687 99.1312 181.781 98.9008 180.787L78.8126 96.3984Z" fill="#FF9C03"/>
<path d="M158.417 103.857C154.295 110.212 139.469 117.371 117.103 116.128C94.7376 114.885 80.745 106.334 78.162 96.6692C75.8154 87.8977 96.5797 82.0565 118.937 83.3052C141.293 84.5538 163.358 96.24 158.417 103.857Z" fill="#FBB858"/>
<path d="M141.595 133.65C134.215 135.407 126.137 136.34 118.017 135.302C113.3 134.7 108.704 133.46 104.257 132.262L85.8084 127.29C82.4889 126.396 79.0566 125.471 75.8977 123.65L78.0229 119.956C80.7032 121.496 83.8634 122.349 86.9211 123.173L105.367 128.146C109.672 129.306 114.125 130.505 118.554 131.071C133.708 133.01 149.008 127.496 159.176 123.184L160.842 127.109C155.547 129.353 148.915 131.908 141.595 133.65Z" fill="white"/>
<path d="M147.676 149.225C139.894 151.118 131.916 152.09 123.907 152.12C112.269 152.104 100.779 149.847 89.6739 147.679C87.3186 147.219 84.88 146.738 82.5174 145.79C81.5105 145.362 80.5618 144.908 79.6486 144.445C78.106 143.682 76.6642 142.957 75.1734 142.655L76.0162 138.477C78.0605 138.888 79.833 139.773 81.5503 140.627C82.4342 141.066 83.2677 141.48 84.1141 141.82C86.1011 142.619 88.3362 143.061 90.4992 143.485C101.411 145.627 112.695 147.844 123.921 147.86C134.388 147.876 145.43 145.976 156.732 142.21L158.08 146.259C154.586 147.417 151.118 148.406 147.676 149.225Z" fill="white"/>
<path d="M140.16 167.719C119.155 172.67 97.1298 170.954 77.1447 162.81L78.7685 158.868C100.231 167.71 125.179 168.594 147.212 161.29L148.553 165.34C145.79 166.252 142.992 167.045 140.16 167.719Z" fill="white"/>
<g style="mix-blend-mode:multiply" opacity="0.41">
<path d="M104.208 101.224C102.828 125.871 114.198 149.178 120.576 173.027C121.785 177.547 122.767 182.588 120.58 186.725C118.091 191.435 112.292 193.36 106.984 193.705C89.4717 194.896 72.0101 182.264 67.6593 165.259C65.7275 157.715 66.165 149.761 67.2732 142.052C67.8995 137.708 68.6729 132.995 66.5501 129.151C64.6328 125.657 60.7353 123.764 58.034 120.807C54.9145 117.422 53.4839 112.785 52.9638 108.213C51.454 94.9378 57.0986 81.3989 66.4499 71.8537C72.3468 65.836 79.6208 61.3006 87.4099 58.1433C93.3334 55.7396 106.438 50.2111 112.502 54.3172C118.712 58.5318 111.629 69.6465 109.871 74.8254C106.967 83.3667 104.72 92.1972 104.208 101.224Z" fill="#A8977D"/>
</g>
</g>
<path d="M74.9198 105.023C74.8397 105.042 74.7584 105.056 74.6766 105.065C74.4242 105.091 74.1689 105.068 73.9255 104.996C73.6821 104.924 73.4552 104.805 73.2579 104.646C73.0605 104.486 72.8966 104.289 72.7754 104.066C72.6542 103.843 72.5782 103.598 72.5517 103.346C72.3262 101.231 70.112 99.4051 67.9945 99.5866C67.7421 99.6085 67.4879 99.5805 67.2463 99.5041C67.0047 99.4278 66.7805 99.3046 66.5865 99.1416C66.3925 98.9787 66.2325 98.7791 66.1157 98.5543C65.9988 98.3295 65.9274 98.0838 65.9055 97.8314C65.8836 97.579 65.9116 97.3248 65.9879 97.0832C66.0642 96.8416 66.1874 96.6174 66.3504 96.4234C66.5134 96.2294 66.713 96.0694 66.9378 95.9526C67.1626 95.8357 67.4082 95.7643 67.6606 95.7424C71.8653 95.3811 75.9414 98.7432 76.3888 102.936C76.4398 103.403 76.3188 103.873 76.0484 104.257C75.7779 104.641 75.3767 104.914 74.9198 105.023Z" fill="#7D45A1"/>
<path d="M67.7105 99.6419C67.6973 99.6451 67.6007 99.696 67.7065 99.7071C67.8045 99.6502 67.7406 99.7798 67.8796 99.7077C67.752 99.699 67.9799 99.6838 67.9198 99.6423C67.7809 99.6447 67.7897 99.6817 67.7105 99.6419Z" fill="#7D45A1"/>
<path d="M74.9501 105.034C75.2103 104.938 75.4466 104.787 75.6427 104.591C75.8625 104.378 76.0401 104.125 76.1662 103.846C76.1693 103.859 76.1756 103.886 76.1775 103.894C76.1885 103.847 76.1889 103.813 76.1568 103.807C76.2641 103.603 76.3228 103.336 76.2637 103.286C76.2883 103.261 76.2761 103.175 76.2697 103.101C76.2633 103.028 76.2542 102.966 76.3098 102.978C76.2315 102.941 76.1958 102.674 76.1585 102.435C76.2493 102.525 76.1684 102.314 76.1309 102.32C76.0971 102.178 76.1201 101.994 76.0482 101.972C76.0843 101.914 76.0213 101.859 76.0648 101.843C75.9926 101.669 75.9104 101.569 75.9683 101.496C75.8942 101.314 75.7904 101.216 75.813 101.125C75.7502 101.053 75.7005 100.97 75.6662 100.881C75.7094 100.888 75.6612 100.802 75.683 100.788C75.6497 100.777 75.6569 100.772 75.5895 100.699C75.5221 100.627 75.6415 100.743 75.6537 100.712C75.5448 100.535 75.4603 100.402 75.3903 100.271C75.3202 100.141 75.2618 100.024 75.1874 99.8747C75.0558 99.7893 75.0038 99.5708 74.9302 99.4716C74.8918 99.4974 75.0219 99.5415 74.9502 99.5558C74.9121 99.5009 74.8813 99.4415 74.8386 99.3905C74.7958 99.3395 74.8804 99.3444 74.8091 99.2668C74.7378 99.1892 74.821 99.3168 74.7468 99.2622C74.6322 99.0726 74.6169 99.0317 74.5294 98.8746C74.4194 98.7979 74.3243 98.6787 74.1623 98.5588C74.2433 98.5839 74.1713 98.4565 74.3149 98.5808C74.335 98.5482 74.2271 98.5155 74.1947 98.4732C74.2365 98.555 74.1312 98.4633 74.1848 98.5367C74.0821 98.5139 74.1427 98.4299 74.0347 98.35C74.0504 98.4158 73.9685 98.3407 73.8784 98.2426C73.7969 98.1664 73.7229 98.0825 73.6575 97.9921C73.6029 97.9494 73.6586 98.0669 73.536 97.9487C73.6097 97.9311 73.2902 97.7458 73.1907 97.6666C73.1578 97.6216 73.2223 97.6591 73.1563 97.5802C73.0488 97.5585 72.9501 97.5056 72.8726 97.4281C72.9722 97.4377 72.886 97.4027 72.8582 97.3676C72.8304 97.3325 72.8644 97.3939 72.8315 97.4073C72.7755 97.3706 72.7642 97.3232 72.7339 97.336C72.6943 97.2981 72.7473 97.3105 72.7839 97.3241C72.8139 97.2752 72.6578 97.2735 72.6949 97.2424C72.6127 97.2008 72.7226 97.2886 72.6344 97.2568C72.5953 97.2327 72.5711 97.2246 72.5585 97.2303C72.4772 97.1429 72.38 97.0717 72.2722 97.0204C72.295 96.9761 72.4038 97.0475 72.3982 96.9654C72.283 96.9372 72.3295 97.004 72.2044 96.9809C72.1276 96.9269 72.0391 96.859 72.1262 96.8744C72.0044 96.8534 71.732 96.6902 71.6355 96.6937C71.3729 96.4781 71.2138 96.4993 70.6888 96.2795C70.7125 96.2738 70.7335 96.2688 70.7396 96.2479C70.6241 96.1948 70.7028 96.3151 70.5702 96.2604C70.7255 96.2235 70.2876 96.2415 70.2645 96.1441C70.1645 96.1679 70.077 96.1276 69.9467 96.1058L69.9577 96.0586C69.8027 96.0599 69.648 96.0445 69.4963 96.0128C69.3359 95.9736 69.1696 95.9642 69.0058 95.9849C68.9668 95.9497 68.8271 95.9468 68.773 95.918C68.7346 95.9438 68.6098 95.9568 68.6936 95.9118C68.6098 95.8984 68.6173 95.93 68.6151 95.9556C68.5381 95.9434 68.4622 95.9252 68.388 95.9012C68.3591 95.8902 68.3277 95.8882 68.2976 95.8953C68.2676 95.9025 68.2404 95.9185 68.2196 95.9413C68.1842 95.933 68.1489 95.9247 68.1421 95.943C68.1354 95.9613 68.0603 95.9263 68.0619 95.8981C68.0251 95.9069 68.0277 95.9063 68.0228 95.9325C67.9402 95.9243 67.9365 95.9085 67.9807 95.8841C67.8768 95.9617 67.778 95.8851 67.7176 95.9468C67.671 95.8911 67.525 95.9787 67.4494 95.9299C67.3679 95.9966 67.3152 95.9619 67.2127 96.0336C67.2711 95.9752 67.1867 96.0064 67.1243 96.0129C67.0377 96.0697 67.2048 96.0354 67.1233 96.1021C67.0564 96.1014 66.9288 96.1846 66.9224 96.111C66.8867 96.1362 66.9101 96.1529 66.9178 96.1733C66.8309 96.194 66.847 96.1679 66.8416 96.1219C66.8362 96.0759 66.771 96.1526 66.76 96.1413C66.7412 96.1792 66.7725 96.194 66.8149 96.22C66.7244 96.2721 66.7485 96.2914 66.6803 96.3438C66.5438 96.3429 66.7353 96.353 66.5846 96.4556C66.5605 96.4363 66.5905 96.3986 66.567 96.3819C66.519 96.449 66.4827 96.5299 66.4285 96.5595C66.4348 96.5858 66.4707 96.5495 66.4864 96.5457C66.4482 96.6188 66.2546 96.7399 66.257 96.8784C66.2303 96.9181 66.207 96.8903 66.1802 96.8828C66.1782 97.0494 66.1268 97.2116 66.0325 97.3489C66.0786 97.4492 66.0039 97.556 66.0068 97.6498C66.0097 97.7437 66.029 97.6028 66.0569 97.6852C66.0385 97.6895 66.0449 97.7631 66.0502 97.8203C66.0554 97.8774 66.0608 97.9234 66.0275 97.9119C66.0362 97.9487 66.0781 97.961 66.045 97.9855C66.0757 98.1145 66.0801 97.8993 66.1011 98.0111C66.1222 98.1229 66.0826 98.0851 66.0555 98.0998C66.124 98.1419 66.1119 98.3367 66.1716 98.4587C66.1884 98.3658 66.2163 98.4481 66.2793 98.561C66.3424 98.6739 66.4232 98.7798 66.4621 98.7566C66.5095 98.8625 66.5773 98.958 66.6616 99.0377C66.746 99.1173 66.8452 99.1796 66.9536 99.2208C67.169 99.304 67.3885 99.3761 67.6113 99.4369C67.7007 99.4156 67.8025 99.4108 67.9135 99.3983C68.0245 99.3858 68.1892 99.3883 68.3427 99.3907C68.7057 99.4194 69.0659 99.4759 69.4202 99.5597C69.4783 99.582 69.4314 99.607 69.487 99.63C69.5425 99.6529 69.4813 99.6063 69.5012 99.5849L69.8089 99.7091C69.9071 99.7411 69.9969 99.7948 70.0715 99.8662C70.1154 99.8752 70.1268 99.8531 70.1979 99.8945C70.2041 99.9209 70.1531 99.9052 70.1373 99.909C70.2641 99.9502 70.3846 100.008 70.4956 100.082C70.619 100.159 70.7336 100.25 70.8377 100.351C70.653 100.148 70.9877 100.432 71.0461 100.491C71.0277 100.495 70.9763 100.454 70.9366 100.428C71.0536 100.525 71.1619 100.632 71.2604 100.748C71.2604 100.748 71.2604 100.748 71.2572 100.735C71.3972 100.891 71.6275 101.123 71.8122 101.384C71.9125 101.514 71.9968 101.658 72.08 101.785C72.1632 101.913 72.2148 102.048 72.2628 102.156C72.3541 102.28 72.4262 102.418 72.4767 102.564C72.5356 102.753 72.5815 102.934 72.544 102.94C72.5961 103.083 72.6366 103.229 72.665 103.378C72.6988 103.557 72.755 103.73 72.8324 103.895C72.9758 104.192 73.1899 104.449 73.4558 104.644L73.4298 104.687C73.546 104.731 73.5027 104.736 73.6345 104.799C73.5696 104.737 73.6547 104.756 73.7442 104.793C73.8336 104.83 73.9467 104.872 73.9272 104.908C74.0264 104.903 74.1568 104.914 74.277 104.905C74.3066 104.914 74.3325 104.932 74.3506 104.957C74.4379 104.95 74.3049 104.929 74.3892 104.909C74.4734 104.889 74.5316 104.9 74.6018 104.903C74.672 104.905 74.724 104.89 74.7255 104.873C74.7939 104.857 74.7685 104.96 74.808 104.893C74.8676 104.898 74.8136 104.916 74.8605 104.95C74.8105 104.962 74.7924 104.932 74.7379 104.937C74.7586 104.966 74.8546 104.948 74.8316 105.004C74.7444 105.047 74.6512 105.076 74.5551 105.092C74.5682 105.089 74.6503 105.025 74.5407 105.031C74.5182 105.101 74.3239 105.113 74.1255 105.075C73.9645 105.029 73.7997 104.997 73.6331 104.98C73.6043 104.971 73.5776 104.956 73.5547 104.936C73.5318 104.916 73.5132 104.892 73.4999 104.865C73.3225 104.783 73.1576 104.676 73.0101 104.548C73.1474 104.587 72.9242 104.421 73.0367 104.461C72.9362 104.375 72.8255 104.302 72.7071 104.244C72.6576 104.036 72.4314 103.787 72.4496 103.571C72.4396 103.529 72.4021 103.535 72.3958 103.451C72.378 103.212 72.3222 102.977 72.2305 102.756C72.2268 102.701 72.2286 102.645 72.2356 102.591C72.2161 102.565 72.1903 102.546 72.1608 102.533C72.1489 102.483 72.1973 102.441 72.1426 102.457C72.1181 102.323 72.0615 102.197 71.9775 102.09C71.9394 102.036 71.8948 101.977 71.8516 101.912C71.8083 101.847 71.7448 101.779 71.6848 101.69C71.7442 101.659 71.7313 101.582 71.6818 101.491C71.6162 101.391 71.5563 101.287 71.5022 101.18C71.4438 101.18 71.3369 101.058 71.2639 101.02C71.2563 100.988 71.23 100.878 71.1822 100.934C71.1258 100.872 71.2235 100.874 71.1775 100.821C71.1427 100.793 71.0999 100.777 71.0553 100.775C71.0553 100.775 71.085 100.818 71.1045 100.841C70.9739 100.842 70.8198 100.603 70.6268 100.552C70.6418 100.498 70.5295 100.447 70.3431 100.341C70.3668 100.335 70.3905 100.33 70.4036 100.327C70.3736 100.318 70.3418 100.318 70.3117 100.326C70.2456 100.259 70.2693 100.253 70.151 100.212C70.1773 100.205 70.2062 100.198 70.1664 100.183C70.2269 100.168 70.2476 100.255 70.31 100.249C70.3044 100.225 70.2962 100.191 70.2244 100.158C70.1187 100.111 70.1521 100.228 70.0639 100.196C70.0312 100.129 69.91 100.11 69.7054 100.045C69.696 100.006 69.7659 100.031 69.8253 100.058C69.7872 100.019 69.7444 99.9842 69.6979 99.9552C69.6091 99.9096 69.7584 100.058 69.6316 100.015C69.55 100.035 69.6737 100.005 69.6559 99.954C69.5977 99.9317 69.5188 99.8921 69.5035 99.9097C69.4882 99.9272 69.569 99.9163 69.6071 99.9712C69.572 99.999 69.4591 99.9453 69.3733 99.9351C69.3979 99.9098 69.362 99.8877 69.3564 99.8641C69.306 99.851 69.2693 99.907 69.2812 99.8402C69.1628 99.8684 68.9452 99.7256 68.9264 99.8218L68.7745 99.7912C68.8693 99.7687 68.7834 99.7001 68.6298 99.7089C68.6354 99.7326 68.7254 99.7251 68.7829 99.7447C68.7936 99.7895 68.6522 99.7564 68.5858 99.7694C68.5878 99.7077 68.5463 99.7204 68.5935 99.673C68.5569 99.6595 68.4022 99.6407 68.4004 99.5744C68.2907 99.581 68.4318 99.6364 68.4763 99.6481C68.3394 99.6807 68.272 99.6077 68.2816 99.6944C68.2184 99.6684 68.1509 99.6543 68.0826 99.6528C68.1219 99.5962 68.1847 99.6146 68.0795 99.5701C67.9675 99.6135 68.0327 99.6536 68.1229 99.6822C68.1298 99.7111 67.9819 99.674 67.9229 99.6714C67.9304 99.6446 67.8765 99.5934 67.9991 99.606C67.8806 99.5869 67.7582 99.6105 67.7942 99.563C67.669 99.5511 67.7156 99.6067 67.5886 99.5869C67.5823 99.5606 67.6302 99.5631 67.6331 99.5402C67.5393 99.5676 67.4411 99.5759 67.3441 99.5645C67.351 99.5934 67.5033 99.5794 67.4566 99.6517C67.4127 99.6427 67.4254 99.6257 67.419 99.6106C67.3135 99.5995 67.2825 99.6097 67.2589 99.5569C67.2306 99.5588 67.2022 99.5572 67.1743 99.552C67.1616 99.569 67.1812 99.581 67.204 99.595C67.185 99.644 66.9407 99.4352 66.9561 99.5233C66.8876 99.4924 66.8684 99.4469 66.8419 99.4643C66.797 99.4389 66.8313 99.4196 66.8269 99.4011C66.629 99.3254 66.4505 99.2064 66.3046 99.0527C66.1076 98.8565 65.9481 98.6259 65.834 98.3723C65.7713 98.1091 65.878 98.1949 65.9053 98.0411C65.8208 97.6485 65.8669 97.2392 66.0365 96.8753C66.1896 96.5539 66.4208 96.2761 66.709 96.0673C66.67 96.0904 66.5659 96.0735 66.5593 96.1391C66.4291 96.2229 66.7061 95.9734 66.5417 96.0654C66.6127 96.0012 66.9211 95.7665 66.9503 95.8541C67.0309 95.77 67.1326 95.7093 67.2449 95.6783C67.2486 95.6941 67.1949 95.6902 67.1677 95.7161C67.1405 95.7421 67.2177 95.7042 67.255 95.7093C67.2416 95.7347 67.1311 95.761 67.1917 95.7938C67.0518 95.7549 67.0192 95.8516 66.8381 95.9086C66.8699 95.9372 67.0712 95.8364 66.9842 95.9267L67.0568 95.8927C67.0308 95.8655 67.1429 95.8222 67.2471 95.8279C67.2671 95.8065 67.3481 95.7149 67.3366 95.6898C67.4893 95.6535 67.2964 95.7662 67.5504 95.7001C67.4695 95.6638 67.5631 95.6832 67.671 95.6575C67.6236 95.6688 67.6378 95.6932 67.7146 95.6889C67.6394 95.7273 67.554 95.7408 67.4707 95.7274L67.4882 95.8011C67.4933 95.8222 67.5308 95.8049 67.5277 95.7917C67.583 95.7786 67.5277 95.7917 67.5352 95.8233C67.7273 95.7776 67.8238 95.7741 67.7651 95.6907C67.8037 95.701 67.8416 95.7087 67.8478 95.6877C67.9074 95.693 67.8337 95.7105 67.8591 95.7351C67.9591 95.7113 67.9876 95.7379 68.0207 95.7133C68.0097 95.7604 68.1568 95.7476 68.1064 95.793C68.1854 95.7742 68.2276 95.6946 68.2246 95.7871C68.2908 95.7964 68.2924 95.7098 68.226 95.7228C68.2141 95.6728 68.3436 95.7616 68.3444 95.6946C68.45 95.6945 68.2903 95.7242 68.3594 95.7578C68.4147 95.7447 68.42 95.7434 68.4789 95.7572C68.4601 95.6782 68.5578 95.7384 68.6026 95.6694C68.584 95.7433 68.7526 95.6336 68.7661 95.7138C68.8135 95.7026 68.8477 95.6944 68.8506 95.6715C68.9087 95.6938 68.9003 95.7403 69.0078 95.7481C69.0898 95.6368 69.7553 95.9094 69.7379 95.8245C69.9044 95.8444 70.0643 95.9013 70.2058 95.9912C70.3561 96.0023 70.5051 96.0264 70.6512 96.0632C70.6249 96.0694 70.6012 96.0751 70.5963 96.1013C70.7234 96.1211 70.7552 96.1497 70.7959 96.1455C70.922 96.1962 70.8039 96.2493 70.871 96.2973C70.938 96.3453 70.921 96.2854 70.8831 96.2666C70.8731 96.2245 71.0868 96.3627 71.0503 96.2796C71.0705 96.2943 71.1811 96.3736 71.2006 96.3384C71.2253 96.3586 71.2449 96.3845 71.2574 96.4138C71.3084 96.4295 71.3543 96.3769 71.3339 96.4429C71.4503 96.4764 71.322 96.3929 71.3582 96.3815C71.413 96.413 71.6131 96.5294 71.5151 96.4332C71.5761 96.4325 71.6082 96.5556 71.675 96.5675C71.6588 96.6047 71.6408 96.5756 71.5945 96.5449C71.5983 96.5607 71.625 96.5794 71.6064 96.5949C71.7004 96.6393 71.6933 96.5743 71.7523 96.5769C71.8449 96.6272 71.9551 96.6927 72.0706 96.7458C72.1685 96.8014 72.2723 96.8457 72.3801 96.8779C72.4777 96.9492 72.3301 96.8898 72.346 96.9333C72.4958 96.9507 72.6364 97.0144 72.7482 97.1157C72.6674 97.0961 72.5929 97.0565 72.5316 97.0004C72.4929 97.0597 72.7295 97.084 72.6782 97.149C72.8216 97.1788 72.7782 97.1252 72.93 97.2837C72.8386 97.1803 73.287 97.4518 73.0172 97.2296C73.0409 97.224 73.1072 97.2805 73.1599 97.3152C73.1415 97.3196 73.1498 97.3426 73.1718 97.3652C73.131 97.3546 73.0917 97.3387 73.0549 97.318C73.0332 97.3787 73.2901 97.465 73.2022 97.5276C73.4555 97.6925 73.5536 97.836 73.8076 98.0036C73.7819 97.953 73.7526 97.9042 73.7201 97.8576C73.6934 97.8389 73.6776 97.8427 73.649 97.8161C73.6184 97.8512 73.7568 97.86 73.6869 97.8933C73.5239 97.7346 73.701 97.8593 73.7214 97.7933C73.7285 97.9279 73.904 97.9528 74.0035 98.0904C74.0412 98.1204 74.0488 98.0936 74.064 98.076C74.0282 98.054 74.0114 98.0886 73.9525 98.0164C73.9657 98.0132 73.9475 97.9953 73.9425 97.9743L73.9651 97.9522C74.035 97.9773 74.061 98.0517 74.1714 98.1534C74.1346 98.1621 74.161 98.2031 74.1535 98.2299C74.146 98.2567 74.1772 98.2243 74.1667 98.2268C74.2061 98.2174 74.2185 98.2812 74.2523 98.3176C74.3944 98.3422 74.4496 98.5043 74.5774 98.5739C74.6071 98.6169 74.6205 98.6499 74.5994 98.666C74.6895 98.7311 74.7632 98.8165 74.8144 98.9152C74.7591 98.9283 74.7451 98.776 74.6883 98.8061C74.7787 98.9988 75.0016 98.954 75.1189 99.2598C75.2125 99.2792 75.1396 99.3467 75.2198 99.3915C75.2417 99.4836 75.2858 99.5871 75.2368 99.6266C75.2849 99.6652 75.3219 99.6453 75.3706 99.6865C75.4174 99.7894 75.283 99.6573 75.3225 99.7647C75.3606 99.8196 75.3551 99.668 75.4451 99.8357C75.4293 99.8394 75.4087 99.7998 75.3887 99.774C75.3887 99.774 75.3987 99.8161 75.3815 99.8257C75.5289 99.9724 75.6393 100.152 75.7037 100.35C75.7112 100.381 75.7355 100.378 75.7554 100.415C75.7754 100.452 75.7633 100.355 75.7929 100.351C75.8292 100.503 75.7662 100.449 75.8618 100.64C75.822 100.625 75.8265 100.574 75.8053 100.531C75.7764 100.538 75.7968 100.589 75.7652 100.596C75.8981 100.734 75.8624 100.876 75.9666 100.952C76.0766 101.32 76.218 101.81 76.3253 102.307C76.3651 102.556 76.4234 102.801 76.4469 103.04C76.462 103.256 76.4405 103.474 76.3832 103.683C76.4206 103.747 76.4273 103.553 76.4647 103.617C76.4741 103.539 76.4503 103.381 76.4898 103.488C76.4421 103.288 76.545 103.183 76.4806 103.018C76.5148 103.06 76.5391 103.109 76.5517 103.162C76.5643 103.215 76.5648 103.27 76.5533 103.323C76.4928 103.338 76.5593 103.255 76.522 103.192C76.4908 103.224 76.4901 103.455 76.5411 103.412C76.551 103.524 76.4667 103.613 76.5007 103.628C76.4636 103.659 76.3826 103.856 76.3748 103.73C76.3402 103.83 76.413 103.89 76.4512 103.712C76.4713 103.726 76.4169 103.837 76.4411 103.845C76.4063 103.909 76.3654 103.924 76.3674 103.862C76.3028 104.011 76.286 103.987 76.2525 104.045C76.2191 104.103 76.2311 104.142 76.2769 104.148C76.1633 104.278 76.0663 104.56 75.9067 104.567C75.6449 104.832 75.3257 105.034 74.9736 105.156C74.91 105.157 75.0055 105.068 74.9501 105.034ZM69.1425 99.6313C69.1842 99.6548 69.1336 99.664 69.2091 99.7128C69.2421 99.7284 69.2783 99.7361 69.3148 99.7351C69.3513 99.7341 69.387 99.7246 69.4192 99.7073C69.3793 99.6963 69.3414 99.679 69.3069 99.6562C69.2843 99.6782 69.3541 99.7144 69.2932 99.7039C69.2323 99.6934 69.1809 99.5944 69.1425 99.6313ZM68.691 99.6387C68.7437 99.6413 68.7963 99.6474 68.8482 99.6569C68.8638 99.617 68.8683 99.5659 68.7391 99.5605C68.7441 99.5816 68.7485 99.6 68.7739 99.6134C68.7261 99.6109 68.6782 99.6084 68.691 99.6387ZM68.3225 99.5512C68.4517 99.5566 68.4489 99.5211 68.5252 99.5614C68.5164 99.5245 68.4695 99.4912 68.3626 99.4861C68.3807 99.5151 68.3163 99.5249 68.3225 99.5512ZM72.433 96.9599C72.5604 97.063 72.3817 97.0249 72.4624 97.0836C72.5431 97.1422 72.5636 96.9594 72.433 96.9599ZM74.1401 98.3722C74.1417 98.3071 74.1264 98.2427 74.0956 98.1853C74.0679 98.2559 74.0401 98.2208 74.0817 98.3138C74.0576 98.2945 74.0292 98.2567 74.0153 98.2684C74.0757 98.3235 74.0994 98.3179 74.1585 98.3678L74.1401 98.3722Z" fill="#7D45A1"/>
<path d="M71.3068 100.748C71.2917 100.729 71.2754 100.712 71.2578 100.695L71.3068 100.748Z" fill="#7D45A1"/>
<path d="M76.4197 102.022C76.4153 102.003 76.336 101.858 76.3482 101.827C76.3532 101.848 76.3589 101.872 76.364 101.823C76.3429 101.828 76.3319 101.758 76.3109 101.752C76.3109 101.823 76.3192 101.893 76.3355 101.961C76.3627 101.888 76.4294 102.156 76.4197 102.022Z" fill="#7D45A1"/>
<path d="M76.1612 101.045C76.1049 101.078 76.05 100.812 75.998 100.805C76.0399 100.887 76.1652 101.214 76.1612 101.045Z" fill="#7D45A1"/>
<path d="M129.64 103.749C129.253 103.841 128.848 103.811 128.478 103.664C128.109 103.517 127.794 103.259 127.577 102.926C127.359 102.593 127.251 102.201 127.265 101.803C127.279 101.406 127.416 101.023 127.656 100.706C139.676 84.9994 157.226 74.4586 176.738 71.2254C176.991 71.1769 177.251 71.1795 177.503 71.2331C177.755 71.2866 177.993 71.3901 178.205 71.5374C178.416 71.6847 178.595 71.8728 178.733 72.0906C178.87 72.3085 178.963 72.5516 179.005 72.8057C179.046 73.0598 179.037 73.3197 178.977 73.5702C178.917 73.8206 178.807 74.0564 178.654 74.2637C178.501 74.4711 178.309 74.6457 178.087 74.7774C177.866 74.909 177.621 74.995 177.365 75.0303C158.831 78.1011 142.161 88.1134 130.743 103.033C130.471 103.394 130.081 103.647 129.64 103.749Z" fill="#F8F5FB"/>
<path d="M119.629 99.1788C119.143 99.3027 118.635 99.3086 118.147 99.196C117.658 99.0834 117.204 98.8556 116.822 98.5316C116.483 98.2425 116.255 97.845 116.176 97.4066C116.097 96.9683 116.172 96.5161 116.388 96.1269C116.605 95.7377 116.95 95.4354 117.364 95.2714C117.778 95.1074 118.236 95.0917 118.66 95.2271C118.388 94.8038 118.006 94.4623 117.555 94.2389C117.229 94.0384 116.847 93.8845 116.454 93.7029C115.548 93.3293 114.695 92.841 113.914 92.2497C112.68 91.2476 112.097 89.8737 112.358 88.5768C112.523 87.7506 113.088 86.6067 114.844 85.8549C117.064 84.901 119.464 84.9832 121.581 85.0576C123.698 85.132 125.632 85.2057 127.057 84.3104C127.197 84.2283 127.324 84.1268 127.435 84.0089C127.088 83.6703 126.688 83.3899 126.251 83.1786C123.569 81.6695 121.024 79.9308 118.643 77.9821C117.956 77.431 116.569 76.2789 116.375 74.473C116.32 73.9616 116.369 73.4443 116.52 72.9525C116.671 72.4606 116.919 72.0045 117.252 71.6116C118.7 69.8459 121.302 69.4796 122.066 69.4088C124.474 69.1896 126.9 69.2524 129.294 69.596L129.351 69.6045C130.019 69.7013 131.033 69.8466 131.304 69.6292C131.352 69.5643 131.379 69.4859 131.381 69.405C131.391 68.8977 131.214 68.4044 130.884 68.0189C130.34 67.4575 129.732 66.962 129.073 66.5424C128.42 66.1071 127.798 65.6281 127.21 65.1087C125.992 63.9861 125.445 62.6591 125.668 61.3743C126.019 59.3442 128.026 58.1517 130.782 58.3271C131.255 58.4037 131.683 58.6537 131.982 59.0284C132.281 59.4032 132.429 59.8757 132.399 60.354C132.368 60.8324 132.161 61.2822 131.817 61.6158C131.473 61.9495 131.017 62.1431 130.538 62.1589C130.281 62.141 130.023 62.1501 129.768 62.1863C129.774 62.2126 129.812 62.2288 129.834 62.2513C130.296 62.6514 130.783 63.0222 131.291 63.3615C132.218 63.9585 133.066 64.6705 133.814 65.4805C134.831 66.6647 135.34 68.2023 135.23 69.7594C135.184 70.3198 135.024 70.8648 134.76 71.361C134.495 71.8572 134.132 72.2941 133.693 72.6449C132.111 73.8862 130.196 73.608 128.796 73.4072L128.741 73.398C126.646 73.0977 124.523 73.0431 122.415 73.2354C121.175 73.35 120.314 73.8469 120.201 74.0825C120.209 74.1167 120.305 74.3356 121.083 74.9848C123.289 76.7945 125.647 78.4102 128.13 79.8141C129.048 80.3297 131.482 81.6997 131.328 84.2392C131.249 85.5565 130.449 86.7508 129.069 87.5994C126.644 89.0943 123.877 88.9994 121.432 88.9167C119.602 88.8547 117.866 88.7951 116.459 89.3579C116.962 89.6876 117.494 89.9687 118.05 90.1974C118.496 90.3999 118.957 90.6098 119.423 90.8716C121.422 91.9834 122.588 93.6553 122.59 95.465C122.576 96.2005 122.354 96.9171 121.951 97.5321C121.547 98.1472 120.978 98.6358 120.309 98.9417C120.091 99.0427 119.863 99.1221 119.629 99.1788Z" fill="#F8F5FB"/>
<path d="M105.773 100.355C105.724 100.369 105.673 100.381 105.623 100.391C105.373 100.43 105.117 100.419 104.871 100.36C104.624 100.3 104.392 100.193 104.188 100.043C103.983 99.8939 103.81 99.7057 103.678 99.4894C103.546 99.2731 103.458 99.0329 103.419 98.7825C100.575 80.7079 91.6842 64.1324 78.2001 51.7647C78.0066 51.5956 77.8489 51.3895 77.7361 51.1585C77.6234 50.9275 77.558 50.6763 77.5437 50.4197C77.5294 50.163 77.5666 49.9061 77.653 49.6641C77.7394 49.422 77.8733 49.1997 78.0469 49.0101C78.2204 48.8205 78.4301 48.6675 78.6636 48.5601C78.8972 48.4528 79.1498 48.3931 79.4067 48.3847C79.6636 48.3764 79.9195 48.4194 80.1596 48.5114C80.3996 48.6033 80.6188 48.7423 80.8043 48.9202C94.9322 61.8793 104.248 79.2461 107.23 98.1838C107.305 98.6626 107.196 99.1518 106.926 99.5541C106.656 99.9564 106.244 100.242 105.773 100.355Z" fill="#F8F5FB"/>
<path d="M93.3118 95.4731C92.8203 95.5901 92.3024 95.5094 91.8699 95.2482C91.4374 94.9871 91.1248 94.5664 90.9995 94.077C89.4617 88.0723 86.9713 83.2176 83.6002 79.6515C80.9971 76.852 77.6545 74.8469 73.9591 73.8683C73.2268 76.5581 71.5102 78.8744 69.1499 80.3578C67.7872 81.2216 66.5246 81.5834 65.297 81.4612C63.705 81.3035 62.3658 80.3154 61.6204 78.7493C61.1913 77.8538 60.9956 76.8644 61.0513 75.873C61.107 74.8816 61.4123 73.9203 61.939 73.0785C63.3689 70.9084 66.0805 69.6483 69.5521 69.5366C69.7064 69.5305 69.8587 69.5276 70.0142 69.5267C68.9377 67.0606 65.8542 65.3448 60.8359 64.426C57.3471 63.7882 53.3899 63.3787 50.4124 65.1804C49.9747 65.4453 49.4496 65.5256 48.9528 65.4034C48.4559 65.2813 48.0279 64.9668 47.763 64.5291C47.498 64.0914 47.4178 63.5664 47.5399 63.0695C47.662 62.5727 47.9766 62.1447 48.4143 61.8797C52.5169 59.3959 57.5799 59.9064 61.5315 60.6315C68.4311 61.895 72.5905 64.6728 73.9001 68.9243C74.0045 69.2633 74.0867 69.6088 74.1463 69.9585C78.6125 70.9059 82.9801 73.3783 86.3905 77.0046C90.2187 81.0542 93.0222 86.4767 94.7214 93.1242C94.8482 93.6194 94.7733 94.1447 94.513 94.5847C94.2528 95.0247 93.8285 95.3433 93.3334 95.4707L93.3118 95.4731ZM67.7855 73.6333C66.796 73.8689 65.7259 74.3266 65.1563 75.2046C64.9996 75.4922 64.9131 75.8129 64.9041 76.1403C64.895 76.4677 64.9636 76.7927 65.1042 77.0885C65.1482 77.2173 65.2235 77.3333 65.3232 77.426C65.4229 77.5187 65.5439 77.5853 65.6756 77.6199C65.9063 77.6428 66.3369 77.5709 67.0857 77.0951C68.4664 76.2234 69.5181 74.9176 70.0757 73.3829C69.9418 73.3814 69.7987 73.3877 69.674 73.3895C69.0381 73.4094 68.4056 73.4911 67.7855 73.6333Z" fill="#F8F5FB"/>
<path d="M101.355 54.9082C101.055 54.9803 100.742 54.9791 100.442 54.9047C100.142 54.8304 99.8647 54.685 99.6329 54.4809C99.4011 54.2768 99.2218 54.0199 99.1101 53.732C98.9984 53.4441 98.9576 53.1335 98.991 52.8265C99.0794 51.9712 99.1766 51.0944 98.9666 50.4575C98.8979 50.2134 98.7357 50.0062 98.5151 49.881C98.0217 49.8651 97.5531 49.6607 97.2058 49.3097C96.8586 48.9588 96.6592 48.488 96.6486 47.9945C96.638 47.5009 96.8171 47.022 97.149 46.6565C97.4809 46.291 97.9403 46.0667 98.4326 46.0298C100.258 45.99 101.978 47.3158 102.618 49.2547C103.089 50.6832 102.934 52.102 102.813 53.2403C102.771 53.6344 102.608 54.006 102.347 54.3044C102.087 54.6028 101.74 54.8137 101.355 54.9082Z" fill="#F8F5FB"/>
<path d="M150.687 68.1398C150.555 68.1709 150.421 68.1889 150.285 68.1936C150.032 68.1997 149.78 68.1559 149.544 68.0646C149.307 67.9733 149.091 67.8363 148.908 67.6615C148.725 67.4867 148.577 67.2775 148.475 67.0458C148.372 66.8141 148.317 66.5645 148.311 66.3112C148.256 63.7437 148.926 61.632 150.272 60.1938C151.309 59.1083 152.733 58.4773 154.234 58.4387C154.852 58.4154 155.469 58.5172 156.047 58.7379C156.625 58.9587 157.153 59.2938 157.599 59.7233C157.785 59.9 157.934 60.112 158.037 60.347C158.14 60.582 158.195 60.8352 158.199 61.0918C158.203 61.3484 158.156 61.6032 158.06 61.8414C157.965 62.0795 157.823 62.2961 157.642 62.4786C157.462 62.6611 157.247 62.8057 157.01 62.904C156.773 63.0023 156.518 63.0523 156.262 63.0511C156.005 63.0499 155.751 62.9975 155.515 62.8969C155.279 62.7964 155.065 62.6498 154.887 62.4656C154.726 62.3393 154.524 62.2782 154.32 62.2945C153.861 62.3104 153.425 62.5007 153.101 62.8267C152.289 63.6928 152.152 65.1466 152.178 66.2138C152.189 66.6573 152.046 67.091 151.775 67.4418C151.503 67.7927 151.119 68.0392 150.687 68.1398Z" fill="#7D45A1"/>
<path d="M160.773 106.356C160.652 106.385 160.527 106.403 160.402 106.408C159.891 106.429 159.393 106.245 159.017 105.898C158.642 105.551 158.419 105.069 158.399 104.558C158.397 103.516 158.62 102.485 159.052 101.537C159.484 100.589 160.114 99.7442 160.901 99.061C161.688 98.3778 162.613 97.8719 163.613 97.5776C164.612 97.2832 165.663 97.2073 166.695 97.3551C167.198 97.4469 167.645 97.7349 167.936 98.1559C168.227 98.5768 168.339 99.0961 168.247 99.5995C168.155 100.103 167.867 100.549 167.446 100.84C167.025 101.131 166.506 101.243 166.003 101.152C165.541 101.107 165.076 101.157 164.634 101.298C164.192 101.439 163.784 101.668 163.433 101.971C163.082 102.274 162.797 102.645 162.594 103.062C162.39 103.478 162.273 103.932 162.25 104.395C162.27 104.842 162.134 105.283 161.864 105.641C161.595 105.999 161.209 106.252 160.773 106.356Z" fill="#F8F5FB"/>
<path d="M57.9547 53.1645C57.1523 53.3569 56.3257 53.4281 55.5022 53.3756C54.9949 53.3385 54.5227 53.1025 54.1886 52.7189C53.8544 52.3353 53.6854 51.8352 53.7182 51.3276C53.751 50.8199 53.983 50.3458 54.3638 50.0084C54.7445 49.671 55.2431 49.4977 55.751 49.5262C56.7002 49.5668 57.6409 49.3335 58.4611 48.8543C59.2814 48.375 59.9465 47.67 60.3772 46.8233C60.5992 46.3619 60.9955 46.0075 61.4787 45.8382C61.962 45.669 62.4928 45.6986 62.9542 45.9206C63.4156 46.1427 63.77 46.5389 63.9392 47.0222C64.1085 47.5055 64.0789 48.0362 63.8569 48.4977C63.2761 49.6613 62.4463 50.6826 61.4262 51.4892C60.4061 52.2958 59.2208 52.8678 57.9547 53.1645Z" fill="#7D45A1"/>
</svg>
