<svg width="49" height="37" viewBox="0 0 49 37" fill="none" xmlns="http://www.w3.org/2000/svg">
<path d="M3.57902 10.0234H31.8555C32.3251 10.0233 32.7901 10.1157 33.224 10.2953C33.6579 10.4749 34.0521 10.7383 34.3842 11.0704C34.7162 11.4024 34.9796 11.7967 35.1592 12.2305C35.3389 12.6644 35.4313 13.1294 35.4311 13.599V26.365C35.4311 27.3133 35.0544 28.2227 34.3838 28.8933C33.7133 29.5638 32.8038 29.9405 31.8555 29.9405H15.318L6.83888 36.3429V29.9348H3.57902C2.6311 29.9358 1.72162 29.5602 1.05049 28.8908C0.379361 28.2214 0.00151061 27.3129 1.82674e-07 26.365V13.599C-0.000150035 13.1292 0.092347 12.6639 0.272198 12.2297C0.452049 11.7956 0.715726 11.4013 1.04814 11.0692C1.38056 10.7371 1.77519 10.4738 2.20947 10.2943C2.64374 10.1149 3.10913 10.0228 3.57902 10.0234Z" fill="#7D45A1"/>
<path d="M17.7178 22.5234C18.9755 22.5234 19.9951 21.5038 19.9951 20.2461C19.9951 18.9884 18.9755 17.9688 17.7178 17.9688C16.46 17.9688 15.4404 18.9884 15.4404 20.2461C15.4404 21.5038 16.46 22.5234 17.7178 22.5234Z" fill="white" stroke="white" stroke-miterlimit="10"/>
<path d="M26.9082 22.5234C28.166 22.5234 29.1856 21.5038 29.1856 20.2461C29.1856 18.9884 28.166 17.9688 26.9082 17.9688C25.6505 17.9688 24.6309 18.9884 24.6309 20.2461C24.6309 21.5038 25.6505 22.5234 26.9082 22.5234Z" fill="white" stroke="white" stroke-miterlimit="10"/>
<path d="M43.726 1.25335e-06H11.9252C11.3123 1.23506e-06 10.7054 0.12074 10.1392 0.35532C9.57294 0.5899 9.05847 0.933726 8.62514 1.36716C8.19181 1.8006 7.84811 2.31515 7.61367 2.88144C7.37923 3.44772 7.25864 4.05464 7.25879 4.66754V18.4593C7.25879 19.6969 7.75043 20.8838 8.62555 21.7589C9.50067 22.6341 10.6876 23.1257 11.9252 23.1257H30.6181L40.457 30.563V23.1223H43.7226C44.336 23.1232 44.9435 23.0031 45.5104 22.769C46.0774 22.5349 46.5926 22.1913 47.0266 21.7579C47.4607 21.3245 47.805 20.8098 48.0399 20.2432C48.2749 19.6766 48.3958 19.0692 48.3958 18.4559V4.66412C48.3955 4.05122 48.2745 3.44439 48.0396 2.87828C47.8048 2.31217 47.4607 1.79786 47.027 1.36474C46.5934 0.931626 46.0787 0.588177 45.5123 0.354012C44.9459 0.119847 44.3389 -0.000447938 43.726 1.25335e-06Z" fill="#D0C5D7"/>
<path d="M38.4373 14.5153C39.8978 14.5153 41.0817 13.3314 41.0817 11.8709C41.0817 10.4105 39.8978 9.22656 38.4373 9.22656C36.9769 9.22656 35.793 10.4105 35.793 11.8709C35.793 13.3314 36.9769 14.5153 38.4373 14.5153Z" fill="#FBB858"/>
<path d="M27.7733 14.5153C29.2337 14.5153 30.4176 13.3314 30.4176 11.8709C30.4176 10.4105 29.2337 9.22656 27.7733 9.22656C26.3128 9.22656 25.1289 10.4105 25.1289 11.8709C25.1289 13.3314 26.3128 14.5153 27.7733 14.5153Z" fill="#FBB858"/>
<path d="M17.0985 14.5153C18.5589 14.5153 19.7428 13.3314 19.7428 11.8709C19.7428 10.4105 18.5589 9.22656 17.0985 9.22656C15.638 9.22656 14.4541 10.4105 14.4541 11.8709C14.4541 13.3314 15.638 14.5153 17.0985 14.5153Z" fill="#FBB858"/>
</svg>
