<svg width="20" height="20" viewBox="0 0 20 20" fill="none" xmlns="http://www.w3.org/2000/svg">
<path fill-rule="evenodd" clip-rule="evenodd" d="M15.8929 15.8889C13.3461 18.436 9.57489 18.9863 6.48876 17.5591C6.03317 17.3756 5.65965 17.2274 5.30456 17.2274C4.31549 17.2333 3.08439 18.1923 2.44455 17.5532C1.80471 16.9133 2.76447 15.6812 2.76447 14.6862C2.76447 14.3311 2.62209 13.9642 2.43869 13.5077C1.01077 10.4221 1.56184 6.64964 4.10863 4.1034C7.35975 0.851089 12.6418 0.851089 15.8929 4.10256C19.1499 7.3599 19.144 12.6375 15.8929 15.8889Z" stroke="#435360" stroke-width="1.5" stroke-linecap="round" stroke-linejoin="round"/>
<path d="M13.283 10.3385H13.2905" stroke="#435360" stroke-width="2" stroke-linecap="round" stroke-linejoin="round"/>
<path d="M9.94197 10.3385H9.94947" stroke="#435360" stroke-width="2" stroke-linecap="round" stroke-linejoin="round"/>
<path d="M6.60115 10.3385H6.60865" stroke="#435360" stroke-width="2" stroke-linecap="round" stroke-linejoin="round"/>
</svg>
