<svg width="24" height="24" viewBox="0 0 24 24" fill="none" xmlns="http://www.w3.org/2000/svg">
<rect opacity="0.4" width="24" height="24" rx="4" fill="#758089"/>
<path d="M18.2317 17.2654H12.9674C12.4331 17.2654 12.0002 16.8531 12.0002 16.3443C12.0002 15.8354 12.4331 15.4219 12.9674 15.4219L18.2317 15.4219C18.766 15.4219 19.2002 15.8354 19.2002 16.3443C19.2002 16.8531 18.766 17.2654 18.2317 17.2654Z" fill="#758089"/>
<path d="M18.2317 8.69509H12.9674C12.4331 8.69509 12.0002 8.2828 12.0002 7.77394C12.0002 7.26509 12.4331 6.85156 12.9674 6.85156L18.2317 6.85156C18.766 6.85156 19.2002 7.26509 19.2002 7.77394C19.2002 8.2828 18.766 8.69509 18.2317 8.69509Z" fill="#758089"/>
<path d="M4.19946 7.42411L5.99946 9.13839L9.59946 6.28125" stroke="#758089" stroke-width="1.3" stroke-linecap="round" stroke-linejoin="round"/>
<path d="M9.04961 15.99C9.04961 17.2392 7.9783 18.2971 6.59961 18.2971C5.22092 18.2971 4.14961 17.2392 4.14961 15.99C4.14961 14.7407 5.22092 13.6828 6.59961 13.6828C7.9783 13.6828 9.04961 14.7407 9.04961 15.99Z" stroke="#758089" stroke-width="1.1"/>
</svg>
