<svg width="20" height="20" viewBox="0 0 20 20" fill="none" xmlns="http://www.w3.org/2000/svg">
<rect opacity="0.4" width="19.0476" height="20" rx="4" fill="#758089"/>
<path d="M14.4696 14.38H10.2915C9.8675 14.38 9.52393 14.0364 9.52393 13.6124C9.52393 13.1884 9.8675 12.8438 10.2915 12.8438L14.4696 12.8438C14.8936 12.8438 15.2382 13.1884 15.2382 13.6124C15.2382 14.0364 14.8936 14.38 14.4696 14.38Z" fill="#758089"/>
<path d="M14.4696 7.24721H10.2915C9.8675 7.24721 9.52393 6.90364 9.52393 6.47959C9.52393 6.05554 9.8675 5.71094 10.2915 5.71094L14.4696 5.71094C14.8936 5.71094 15.2382 6.05554 15.2382 6.47959C15.2382 6.90364 14.8936 7.24721 14.4696 7.24721Z" fill="#758089"/>
<path d="M3.33301 6.18676L4.76158 7.61533L7.61872 5.23438" stroke="#758089" stroke-width="1.3" stroke-linecap="round" stroke-linejoin="round"/>
<circle cx="5.23789" cy="13.3263" r="1.83095" stroke="#758089" stroke-width="1.1"/>
</svg>
