<svg width="21" height="22" viewBox="0 0 21 22" fill="none" xmlns="http://www.w3.org/2000/svg">
<rect opacity="0.4" width="20.9524" height="22" rx="4" fill="#758089"/>
<path d="M15.9165 15.8227H11.3207C10.8542 15.8227 10.4763 15.4448 10.4763 14.9783C10.4763 14.5119 10.8542 14.1328 11.3207 14.1328L15.9165 14.1328C16.383 14.1328 16.762 14.5119 16.762 14.9783C16.762 15.4448 16.383 15.8227 15.9165 15.8227Z" fill="#758089"/>
<path d="M15.9165 7.97115H11.3207C10.8542 7.97115 10.4763 7.59322 10.4763 7.12677C10.4763 6.66031 10.8542 6.28125 11.3207 6.28125L15.9165 6.28125C16.383 6.28125 16.762 6.66031 16.762 7.12677C16.762 7.59322 16.383 7.97115 15.9165 7.97115Z" fill="#758089"/>
<path d="M3.66626 6.80543L5.23769 8.37686L8.38055 5.75781" stroke="#758089" stroke-width="1.3" stroke-linecap="round" stroke-linejoin="round"/>
<circle cx="5.76163" cy="14.6581" r="2.06905" stroke="#758089" stroke-width="1.1"/>
</svg>
