<svg width="58" height="60" viewBox="0 0 58 60" fill="none" xmlns="http://www.w3.org/2000/svg">
<path d="M3.49023 41.7467V59.0334H54.2377V41.7467L29.9832 17.4922L3.49023 41.7467Z" fill="#E89418"/>
<path d="M47.772 45.6094H49.1017C49.5173 45.6094 49.9158 45.7745 50.2097 46.0683C50.5035 46.3622 50.6686 46.7607 50.6686 47.1763V53.7452H46.2051V47.1785C46.2048 46.9725 46.2451 46.7685 46.3237 46.5782C46.4023 46.3878 46.5177 46.2148 46.6632 46.0691C46.8087 45.9234 46.9816 45.8077 47.1718 45.7289C47.3621 45.65 47.566 45.6094 47.772 45.6094Z" stroke="#7F5A27" stroke-miterlimit="10"/>
<path d="M8.98876 45.6094H10.3185C10.7341 45.6094 11.1326 45.7745 11.4265 46.0683C11.7203 46.3622 11.8854 46.7607 11.8854 47.1763V53.7452H7.42188V47.1785C7.42159 46.9725 7.4619 46.7685 7.54051 46.5782C7.61913 46.3878 7.73449 46.2148 7.88002 46.0691C8.02555 45.9234 8.19838 45.8077 8.38863 45.7289C8.57887 45.65 8.78281 45.6094 8.98876 45.6094V45.6094Z" stroke="#7F5A27" stroke-miterlimit="10"/>
<path d="M29.06 12.95L28.8672 1" stroke="#7F5A27" stroke-miterlimit="10" stroke-linecap="round"/>
<path d="M25.666 5.5625H32.071" stroke="#7F5A27" stroke-miterlimit="10" stroke-linecap="round"/>
<path d="M1 44.2004L29.0598 18L57 44.2004" stroke="#222223" stroke-miterlimit="10"/>
<path d="M14.2793 22.7906V59.0372H44.1786V22.7906L29.0661 9.15625L14.2793 22.7906Z" fill="#FFB64D"/>
<path d="M34.3366 36.3034H24.4277V25.4216C24.4275 23.8432 24.8798 22.2979 25.731 20.9686C26.5822 19.6394 27.7966 18.5821 29.2303 17.9219V17.9219C30.7458 18.5804 32.0357 19.6676 32.9414 21.0497C33.847 22.4318 34.3289 24.0485 34.3277 25.7009L34.3366 36.3034Z" stroke="#7F5A27" stroke-miterlimit="10"/>
<path d="M11.3984 25.1797L29.0641 9.15625L46.8583 24.9182" stroke="#222223" stroke-miterlimit="10"/>
<path d="M24.5957 47.3017C24.5957 45.0985 26.4629 43.3125 28.7663 43.3125H29.4614C29.5893 43.3125 29.6931 43.4117 29.6931 43.5341L29.4614 45.6396C29.4614 46.986 27.7236 50.5153 24.9433 51.6234L24.5957 51.7342V47.3017Z" fill="white"/>
<path d="M34.1289 47.3017C34.1289 45.0985 32.2617 43.3125 29.9583 43.3125H29.2632C29.1353 43.3125 29.0315 43.4117 29.0315 43.5341L29.2632 45.6396C29.2632 46.986 31.001 50.5153 33.7814 51.6234L34.1289 51.7342V47.3017Z" fill="white"/>
<path d="M24.4277 59.0458V47.8183C24.4289 46.5051 24.9512 45.2462 25.88 44.3178C26.8087 43.3895 28.0679 42.8678 29.381 42.8672V42.8672C30.6953 42.8672 31.9558 43.3893 32.8851 44.3186C33.8145 45.248 34.3366 46.5084 34.3366 47.8227V59.0458" stroke="#7F5A27" stroke-miterlimit="10"/>
<path d="M31.5719 42.5925C31.4234 41.706 30.61 41.5043 29.9829 41.7392C29.7693 41.806 29.5818 41.9374 29.446 42.1152C29.3103 42.293 29.233 42.5085 29.2249 42.7321C29.2183 42.5257 29.152 42.3255 29.034 42.156C28.916 41.9865 28.7513 41.8548 28.56 41.7769C28.4634 41.7335 28.3623 41.7008 28.2586 41.6794C27.6048 41.5398 26.8602 41.8611 26.8535 42.8762C26.8535 43.7449 27.3921 44.4098 27.9616 44.8708L28.037 44.9306C28.402 45.2094 28.8012 45.4403 29.2249 45.6177C29.6261 45.4505 30.0056 45.2354 30.3552 44.9772C30.9691 44.5206 31.6051 43.8203 31.5985 42.8828C31.6008 42.8378 31.6008 42.7927 31.5985 42.7476L31.5719 42.5925Z" fill="#FF1840"/>
</svg>
