<svg width="45" height="40" viewBox="0 0 45 40" fill="none" xmlns="http://www.w3.org/2000/svg">
<path d="M3.3792 0H18.9927C19.5295 0 20.0442 0.213224 20.4237 0.592764C20.8033 0.972305 21.0165 1.48707 21.0165 2.02382V19.661H1.35547V2.02382C1.35547 1.48707 1.56868 0.972305 1.94821 0.592764C2.32773 0.213224 2.84248 0 3.3792 0Z" fill="#7D45A1"/>
<path d="M1.35547 21.0156H21.0165V38.0447C21.0165 38.5629 20.8033 39.0599 20.4237 39.4264C20.0442 39.7928 19.5295 39.9987 18.9927 39.9987H3.3792C2.84248 39.9987 2.32773 39.7928 1.94821 39.4264C1.56868 39.0599 1.35547 38.5629 1.35547 38.0447V21.0156Z" fill="#7D45A1"/>
<path d="M25.0745 0H40.6881C41.2248 0 41.7395 0.213224 42.1191 0.592764C42.4986 0.972305 42.7118 1.48707 42.7118 2.02382V19.661H23.0508V2.02382C23.0508 1.48707 23.264 0.972305 23.6435 0.592764C24.023 0.213224 24.5378 0 25.0745 0Z" fill="#7D45A1"/>
<path d="M23.0508 21.0156H42.7118V38.0447C42.7118 38.5629 42.4986 39.0599 42.1191 39.4264C41.7395 39.7928 41.2248 39.9987 40.6881 39.9987H25.0745C24.5378 39.9987 24.023 39.7928 23.6435 39.4264C23.264 39.0599 23.0508 38.5629 23.0508 38.0447V21.0156Z" fill="#7D45A1"/>
<path d="M14.9173 4.74391V33.8947H11.2097V9.82869L7.0511 12.6082L5.42578 9.82869L12.6125 4.74219L14.9173 4.74391Z" fill="#FBB858"/>
<path d="M35.9329 4.74391V33.8947H32.227V9.82869L28.0703 12.6082L26.4414 9.82869L33.6249 4.74219L35.9329 4.74391Z" fill="#FBB858"/>
<path d="M4.0678 16.9531H0V23.0548H4.0678V16.9531Z" fill="#F8F5FB"/>
<path d="M44.7455 16.9531H40.6777V23.0548H44.7455V16.9531Z" fill="#F8F5FB"/>
<path d="M26.4422 16.9531H18.3066V23.0548H26.4422V16.9531Z" fill="#F8F5FB"/>
</svg>
