<svg width="17" height="18" viewBox="0 0 17 18" fill="none" xmlns="http://www.w3.org/2000/svg">
<path opacity="0.4" d="M8.57116 13.8218L4.06301 16.0736C3.72257 16.2584 3.2979 16.135 3.10748 15.7959C3.05187 15.6893 3.02246 15.5709 3.02173 15.4505V10.4102C3.02173 10.9099 3.30349 11.2183 4.04464 11.5638L8.57116 13.8218Z" fill="#FBB858"/>
<path fill-rule="evenodd" clip-rule="evenodd" d="M6.42121 2.27734H10.7089C12.5893 2.27734 14.1145 3.01766 14.1328 4.91163V15.4488C14.1321 15.5672 14.1027 15.6837 14.0471 15.7881C13.9578 15.9584 13.8036 16.0848 13.62 16.1383C13.4363 16.1918 13.2389 16.1678 13.0732 16.0719L8.57116 13.8201L4.04464 11.5621C3.30349 11.2166 3.02173 10.9082 3.02173 10.4085V4.91163C3.02173 3.01766 4.5469 2.27734 6.42121 2.27734ZM5.95579 7.56981H11.1806C11.4817 7.56981 11.7257 7.32399 11.7257 7.02075C11.7257 6.7175 11.4817 6.47168 11.1806 6.47168H5.95579C5.65471 6.47168 5.41064 6.7175 5.41064 7.02075C5.41064 7.32399 5.65471 7.56981 5.95579 7.56981Z" fill="#FBB858"/>
</svg>
