<svg width="40" height="40" viewBox="0 0 40 40" fill="none" xmlns="http://www.w3.org/2000/svg">
<path d="M33.3009 34.8391L26.8083 35.5807L21.9907 40L16.3019 36.7802L9.80932 37.5219L7.09727 31.5708L1.4094 28.3511L2.71115 21.9412L0 15.9901L4.81764 11.5708L6.11938 5.16184L12.612 4.4202L17.4296 0L23.1184 3.21975L29.611 2.47811L32.3221 8.42918L38.0109 11.6489L36.7091 18.0588L39.4203 24.0099L34.6027 28.4292L33.3009 34.8391Z" fill="#7D45A1"/>
<path d="M27.9357 15.4162L25.7447 13.0672C25.7032 13.0241 25.6477 13 25.5899 13C25.5321 13 25.4766 13.0241 25.4351 13.0672L22.6307 16.0728C21.1533 17.6549 19.6762 19.2379 18.1994 20.8218L17.3427 21.7391L14.0437 18.2035L13.5636 17.6864C13.522 17.6435 13.4666 17.6195 13.4088 17.6195C13.3511 17.6195 13.2956 17.6435 13.2541 17.6864L11.0631 20.0354C11.0226 20.0797 11 20.1392 11 20.2012C11 20.2632 11.0226 20.3227 11.0631 20.3671L13.1377 22.5913L16.4311 26.12L17.1892 26.9324C17.2079 26.9538 17.2306 26.9708 17.2558 26.9825C17.2809 26.9941 17.308 27.0001 17.3354 27H17.3516C17.3792 26.9998 17.4064 26.9936 17.4317 26.9819C17.4569 26.9701 17.4797 26.953 17.4987 26.9316L18.5372 25.8186L21.0297 23.1474L24.045 19.9202L26.6563 17.1217C27.0766 16.6713 27.5178 16.2347 27.9211 15.7661C27.9268 15.7592 27.9333 15.7531 27.9397 15.7462C27.9791 15.7014 28.0007 15.6419 28 15.5803C27.9992 15.5188 27.9762 15.4599 27.9357 15.4162Z" fill="#FBB858"/>
</svg>
