<svg width="23" height="25" viewBox="0 0 23 25" fill="none" xmlns="http://www.w3.org/2000/svg">
<mask id="mask0_25_5893" style="mask-type:alpha" maskUnits="userSpaceOnUse" x="0" y="5" width="23" height="20">
<path d="M22.7588 7.44351C20.2982 7.3058 17.8754 6.7771 15.5811 5.87727C15.0803 5.68084 14.5647 5.4628 14.0281 5.49546C13.5541 5.5239 13.1164 5.74561 12.6946 5.96259L8.91751 7.9059C8.39824 8.17291 7.85949 8.44519 7.27649 8.47889C6.74195 8.50944 6.21899 8.33565 5.71183 8.16291C4.37258 7.71157 1.19112 7.16913 0.327956 6.8779C-0.409345 12.6652 0.291091 17.5656 0.54546 23.394C1.40863 23.6873 4.59008 24.2297 5.92934 24.6827C6.43649 24.8538 6.95945 25.0276 7.494 24.9986C8.07699 24.9655 8.61575 24.6927 9.13502 24.4257L12.9121 22.4834C13.3334 22.2659 13.7716 22.0447 14.2456 22.0157C14.7822 21.9831 15.2989 22.2011 15.7986 22.3976C18.0927 23.2977 20.5157 23.8262 22.9763 23.9633C22.6029 18.5457 23.3565 12.8147 22.7588 7.44351Z" fill="#5D4FA3"/>
</mask>
<g mask="url(#mask0_25_5893)">
<path d="M22.7568 7.44351C20.2963 7.3058 17.8734 6.7771 15.5792 5.87727C15.0783 5.68084 14.5628 5.4628 14.0261 5.49546C13.5521 5.5239 13.1145 5.74561 12.6926 5.96259L8.91556 7.9059C8.39629 8.17291 7.85753 8.44519 7.27454 8.47889C6.74 8.50944 6.21704 8.33565 5.70988 8.16291C4.37063 7.71157 1.18917 7.16913 0.326003 6.8779C-0.411298 12.6652 0.289138 17.5656 0.543507 23.394C1.40668 23.6873 4.58813 24.2297 5.92738 24.6827C6.43454 24.8538 6.9575 25.0276 7.49204 24.9986C8.07504 24.9655 8.61379 24.6927 9.13306 24.4257L12.9102 22.4834C13.3315 22.2659 13.7696 22.0447 14.2436 22.0157C14.7803 21.9831 15.2969 22.2011 15.7967 22.3976C18.0908 23.2977 20.5138 23.8262 22.9743 23.9633C22.6009 18.5457 23.3545 12.8147 22.7568 7.44351Z" fill="#602587"/>
<path d="M5.11638 5.64062C5.22171 7.98208 5.29649 10.4721 4.11576 12.4986C3.49801 13.5613 2.57954 14.4108 1.79379 15.3567C0.282832 17.1817 -0.734283 19.3641 -1.16016 21.6948" fill="#602587"/>
<path d="M5.11638 5.64062C5.22171 7.98208 5.29649 10.4721 4.11576 12.4986C3.49801 13.5613 2.57954 14.4108 1.79379 15.3567C0.282832 17.1817 -0.734283 19.3641 -1.16016 21.6948" stroke="#D0C5D7" stroke-miterlimit="10"/>
<path d="M2.42383 14.4688C3.82628 16.0008 6.35417 16.2409 7.49067 17.9794C8.28063 19.1906 8.14318 20.7537 8.18531 22.1999C8.21796 23.3243 8.38385 24.4644 8.88311 25.4751C9.38237 26.4857 10.2524 27.3473 11.3373 27.6454" fill="#602587"/>
<path d="M2.42383 14.4688C3.82628 16.0008 6.35417 16.2409 7.49067 17.9794C8.28063 19.1906 8.14318 20.7537 8.18531 22.1999C8.21796 23.3243 8.38385 24.4644 8.88311 25.4751C9.38237 26.4857 10.2524 27.3473 11.3373 27.6454" stroke="#D0C5D7" stroke-miterlimit="10"/>
<path d="M8.07031 20.8756C10.604 18.9844 13.9608 17.7595 16.9379 18.8249C18.214 19.282 19.3726 20.1415 20.7229 20.2579C22.276 20.3927 23.8443 19.5158 25.3532 19.9082" fill="#602587"/>
<path d="M8.07031 20.8756C10.604 18.9844 13.9608 17.7595 16.9379 18.8249C18.214 19.282 19.3726 20.1415 20.7229 20.2579C22.276 20.3927 23.8443 19.5158 25.3532 19.9082" stroke="#D0C5D7" stroke-miterlimit="10"/>
<path d="M22.1825 4.5625C19.6146 4.64044 17.1478 6.22669 16.0113 8.53076C15.4673 9.63671 15.2114 10.8722 14.5794 11.9276C13.8421 13.1557 12.6598 14.0395 11.7265 15.1254C10.7933 16.2113 10.2124 17.9777 10.7233 19.3148" fill="#602587"/>
<path d="M22.1825 4.5625C19.6146 4.64044 17.1478 6.22669 16.0113 8.53076C15.4673 9.63671 15.2114 10.8722 14.5794 11.9276C13.8421 13.1557 12.6598 14.0395 11.7265 15.1254C10.7933 16.2113 10.2124 17.9777 10.7233 19.3148" stroke="#D0C5D7" stroke-miterlimit="10"/>
<path d="M15.4844 11.1497C16.5124 10.9327 17.563 11.3793 18.4599 11.9276C19.3568 12.4758 20.2052 13.142 21.21 13.4454C22.1301 13.7203 23.1102 13.6665 24.0687 13.7118C25.0272 13.7571 26.0388 13.9293 26.764 14.5582" fill="#602587"/>
<path d="M15.4844 11.1497C16.5124 10.9327 17.563 11.3793 18.4599 11.9276C19.3568 12.4758 20.2052 13.142 21.21 13.4454C22.1301 13.7203 23.1102 13.6665 24.0687 13.7118C25.0272 13.7571 26.0388 13.9293 26.764 14.5582" stroke="#D0C5D7" stroke-miterlimit="10"/>
</g>
<path d="M19.6298 6.50804C17.6509 11.1066 15.0168 13 15.0168 13C12.127 10.0678 10.8678 7.79727 10.3167 6.39549C9.39292 4.03433 10.5485 1.35647 13.0211 0.377123C13.6492 0.127979 14.3279 -0.000455418 15.0141 1.21336e-06C15.0919 1.21336e-06 15.1691 7.67063e-07 15.2458 0.00487315C18.6936 0.149096 20.9188 3.5125 19.6298 6.50804Z" fill="#FBB858"/>
<path d="M14.2085 6.93739C14.8025 7.13817 15.4411 6.82764 15.9398 6.40935C16.2747 6.12759 16.5809 5.78693 16.7752 5.36798C17.6571 3.46393 15.7736 1.36378 14.0826 2.18162C12.6146 2.89238 12.6232 6.40332 14.2085 6.93739Z" fill="white"/>
</svg>
