<svg width="22" height="23" viewBox="0 0 22 23" fill="none" xmlns="http://www.w3.org/2000/svg">
<circle cx="11" cy="11.3203" r="11" fill="#7D45A1"/>
<path d="M15.3637 8.55056L13.749 6.93007C13.5383 6.73141 13.2622 6.61742 12.9731 6.60978C12.6841 6.60215 12.4024 6.70141 12.1815 6.88867L6.8779 12.2114C6.68742 12.4042 6.56882 12.6569 6.54201 12.9271L6.28861 15.3933C6.28067 15.4799 6.29187 15.5672 6.32141 15.649C6.35095 15.7308 6.3981 15.805 6.4595 15.8664C6.51457 15.9212 6.57987 15.9646 6.65167 15.994C6.72347 16.0235 6.80035 16.0384 6.8779 16.0379H6.93094L9.38829 15.8132C9.65747 15.7863 9.90924 15.6673 10.1013 15.4761L15.405 10.1533C15.6108 9.93505 15.7221 9.6438 15.7143 9.34338C15.7066 9.04295 15.5805 8.75786 15.3637 8.55056ZM13.3601 10.5259L11.7808 8.9409L12.9299 7.75806L14.5387 9.37263L13.3601 10.5259Z" fill="white"/>
</svg>
