<svg width="60" height="50" viewBox="0 0 60 50" fill="none" xmlns="http://www.w3.org/2000/svg">
<path d="M43.7823 33.5578L41.016 35.6982L29.7705 44.4049L26.2357 47.1404C25.7975 47.4796 25.2397 47.6254 24.6849 47.5457C24.1301 47.4659 23.6238 47.1672 23.2773 46.7152L22.715 45.9844L13.3393 33.7411L2.3774 19.4315C2.03099 18.9792 1.87289 18.4107 1.93788 17.851C2.00286 17.2913 2.28561 16.7862 2.72392 16.4469L8.13692 12.2561L12.7093 8.71723L20.2693 2.86399C20.4867 2.69606 20.7358 2.57397 21.0023 2.50468C21.2688 2.43539 21.5475 2.42026 21.8225 2.46015C22.0974 2.50004 22.3633 2.59418 22.6049 2.73718C22.8465 2.88019 23.0591 3.06926 23.2306 3.2936L25.2393 5.91585L37.7671 22.2709L44.1286 30.5744C44.4747 31.0266 44.6326 31.5948 44.5677 32.1542C44.5027 32.7136 44.2203 33.2185 43.7823 33.5578Z" fill="#7D45A1"/>
<path d="M36.6893 4.36099L18.7281 33.2343C18.1081 34.2311 18.3812 35.5216 19.3382 36.1169L37.7318 47.559C38.6887 48.1543 39.9671 47.8289 40.5872 46.8322L58.5484 17.9588C59.1684 16.9621 58.8953 15.6715 57.9383 15.0762L39.5447 3.63413C38.5878 3.03885 37.3094 3.36428 36.6893 4.36099Z" fill="#D0C5D7"/>
<path d="M34.9422 33.0555L15.649 46.9331C15.4471 47.0784 15.2203 47.1783 14.9814 47.2273C14.7425 47.2763 14.4962 47.2733 14.2566 47.2186C14.0169 47.1638 13.7887 47.0584 13.5849 46.9083C13.3811 46.7582 13.2057 46.5663 13.0687 46.3436L11.6077 43.9696C11.4707 43.7469 11.3748 43.4978 11.3255 43.2364C11.2761 42.9751 11.2744 42.7066 11.3203 42.4465C11.3662 42.1863 11.4589 41.9395 11.593 41.7201C11.7271 41.5007 11.9001 41.313 12.102 41.1678L31.3952 27.2901L31.6006 27.2322L37.6927 25.5177L39.4562 25.0232C39.5582 24.9945 39.6665 25.0015 39.7658 25.0433C39.8651 25.0851 39.9504 25.1595 40.0098 25.2561C40.0692 25.3527 40.0997 25.4666 40.0969 25.5817C40.0941 25.6969 40.0583 25.8076 39.9943 25.8981L38.8913 27.4639L35.076 32.8743L34.9422 33.0555Z" fill="#F09303"/>
<path d="M17.5321 45.5806L15.6488 46.9342C15.447 47.0795 15.2201 47.1794 14.9812 47.2284C14.7423 47.2774 14.496 47.2744 14.2564 47.2197C14.0168 47.1649 13.7886 47.0595 13.5847 46.9094C13.3809 46.7592 13.2055 46.5674 13.0685 46.3447L11.6105 43.9712C11.4734 43.7485 11.3775 43.4993 11.3282 43.238C11.2789 42.9766 11.2771 42.7082 11.323 42.448C11.3689 42.1878 11.4616 41.941 11.5957 41.7216C11.7298 41.5022 11.9028 41.3145 12.1048 41.1693L13.9881 39.8157L17.5321 45.5806Z" fill="#F72827"/>
<path d="M15.635 38.6317L13.9824 39.8203L17.5296 45.5855L19.1822 44.3969L15.635 38.6317Z" fill="#D7DCF0"/>
<path d="M35.0732 32.8727C34.5329 32.3366 33.7325 33.0593 33.2038 32.3596C32.6776 31.6242 33.5727 30.9169 33.1232 30.2065C32.6941 29.4824 31.7413 30.1035 31.3179 29.2941C30.9248 28.4969 31.8504 27.978 31.6022 27.2317L37.6944 25.5171L39.4578 25.0226C39.5598 24.994 39.6681 25.001 39.7674 25.0428C39.8667 25.0845 39.9521 25.159 40.0115 25.2555C40.0709 25.3521 40.1013 25.466 40.0985 25.5812C40.0958 25.6963 40.0599 25.807 39.996 25.8976L38.8929 27.4634L35.0732 32.8727Z" fill="#FFDC9C"/>
<g opacity="0.3">
<path opacity="0.3" d="M34.9472 33.0554L15.654 46.933C15.4521 47.0782 15.2253 47.1782 14.9864 47.2272C14.7475 47.2762 14.5012 47.2732 14.2616 47.2184C14.0219 47.1637 13.7937 47.0583 13.5899 46.9081C13.3861 46.758 13.2106 46.5662 13.0737 46.3435L12.1366 44.8167C12.2736 45.0394 12.449 45.2313 12.6528 45.3816C12.8566 45.5318 13.0848 45.6373 13.3244 45.6921C13.564 45.7469 13.8104 45.7499 14.0493 45.701C14.2883 45.6521 14.5152 45.5522 14.717 45.4069L33.8347 31.6556C33.9511 31.5718 34.0539 31.4676 34.139 31.3471L40.0843 25.4219C40.1054 25.5036 40.1085 25.5891 40.0935 25.6716C40.0785 25.7541 40.0457 25.8312 39.9978 25.8966L38.8947 27.4624L35.0794 32.8728L34.9472 33.0554Z" fill="#390075"/>
</g>
<path d="M38.892 27.4668C38.5735 27.2579 38.3007 26.9747 38.0936 26.6382C37.8864 26.3017 37.7503 25.9202 37.695 25.5219L39.4585 25.0274C39.5605 24.9987 39.6688 25.0058 39.7681 25.0475C39.8674 25.0893 39.9527 25.1637 40.0121 25.2603C40.0715 25.3569 40.102 25.4708 40.0992 25.5859C40.0964 25.7011 40.0606 25.8118 39.9966 25.9024L38.892 27.4668Z" fill="black"/>
</svg>
