<svg width="39" height="39" viewBox="0 0 39 39" fill="none" xmlns="http://www.w3.org/2000/svg">
<circle cx="19.5" cy="19.5" r="19.5" fill="#758089"/>
<path d="M11.462 12.6016H26.6996C28.137 12.6016 28.8615 13.2801 28.8615 14.6601V24.3431C28.8615 25.7116 28.137 26.4016 26.6996 26.4016H11.462C10.0245 26.4016 9.30005 25.7116 9.30005 24.3431V14.6601C9.30005 13.2801 10.0245 12.6016 11.462 12.6016ZM19.075 22.4916L26.826 16.1321C27.102 15.9021 27.3205 15.3731 26.9755 14.9016C26.642 14.4301 26.0325 14.4186 25.63 14.7061L19.075 19.1451L12.5315 14.7061C12.129 14.4186 11.5195 14.4301 11.186 14.9016C10.841 15.3731 11.0595 15.9021 11.3355 16.1321L19.075 22.4916Z" fill="white"/>
</svg>
