<svg width="70" height="60" viewBox="0 0 70 60" fill="none" xmlns="http://www.w3.org/2000/svg">
<path d="M35.9674 34.4375H25.4453V37.8493H35.9674V34.4375Z" fill="#DBD6D0"/>
<path d="M29.6231 26.4844H31.7743C32.3247 26.4829 32.87 26.5901 33.379 26.7998C33.8879 27.0094 34.3505 27.3174 34.7402 27.7061C35.1299 28.0948 35.4391 28.5565 35.6501 29.0649C35.861 29.5733 35.9696 30.1183 35.9696 30.6687V34.4394H25.4453V30.6687C25.4453 29.5601 25.8853 28.4968 26.6686 27.7123C27.4518 26.9277 28.5145 26.4861 29.6231 26.4844Z" fill="#DBD6D0"/>
<path d="M35.8208 34.3594H25.4453V34.5126H35.8208V34.3594Z" fill="#878787"/>
<path d="M37.3779 59.3379H23.7285L25.4333 37.8516H35.9554L37.3779 59.3379Z" fill="#DBD6D0"/>
<path d="M30.7177 32.7787C30.3786 32.7791 30.047 32.6789 29.7649 32.4908C29.4827 32.3027 29.2628 32.0351 29.1328 31.7219C29.0028 31.4087 28.9687 31.064 29.0348 30.7314C29.1008 30.3988 29.2641 30.0932 29.5038 29.8535C29.7436 29.6137 30.0492 29.4504 30.3818 29.3844C30.7144 29.3183 31.0591 29.3525 31.3723 29.4824C31.6855 29.6124 31.9531 29.8324 32.1412 30.1145C32.3293 30.3966 32.4295 30.7282 32.4291 31.0673C32.4291 31.5212 32.2488 31.9565 31.9278 32.2774C31.6069 32.5984 31.1716 32.7787 30.7177 32.7787ZM30.7177 30.1197C30.5302 30.1193 30.3468 30.1745 30.1906 30.2783C30.0345 30.3822 29.9127 30.53 29.8407 30.7032C29.7686 30.8763 29.7495 31.0669 29.7859 31.2508C29.8222 31.4348 29.9122 31.6038 30.0447 31.7366C30.1771 31.8693 30.346 31.9598 30.5298 31.9965C30.7137 32.0333 30.9044 32.0146 31.0776 31.943C31.2509 31.8713 31.399 31.7499 31.5033 31.594C31.6075 31.4381 31.6631 31.2548 31.6631 31.0673C31.6631 30.8164 31.5636 30.5757 31.3863 30.398C31.2091 30.2204 30.9686 30.1203 30.7177 30.1197Z" fill="#878787"/>
<path d="M44.7469 23.9161L31.3105 29.4844L31.6038 30.192L45.0402 24.6237L44.7469 23.9161Z" fill="#878787"/>
<path d="M29.3399 31.6584L22.5371 41.2734L23.1624 41.7158L29.9652 32.1008L29.3399 31.6584Z" fill="#878787"/>
<path d="M18.2642 25.0066L17.9961 25.7266L29.944 30.1753L30.2121 29.4553L18.2642 25.0066Z" fill="#878787"/>
<path d="M30.4121 16.0612L30.3262 29.7344L31.0921 29.7392L31.178 16.066L30.4121 16.0612Z" fill="#878787"/>
<path d="M35.9723 37.7734H25.4414V37.9266H35.9723V37.7734Z" fill="#878787"/>
<path d="M39.7231 33.2046L36.998 35.9297L53.3162 52.2478L56.0413 49.5227L39.7231 33.2046Z" fill="#C6C3BD"/>
<path d="M38.6133 27.2656L38.3105 26.5383C37.9982 25.7881 37.9968 24.9446 38.3064 24.1933C38.6161 23.442 39.2115 22.8446 39.9617 22.5323L55.6057 16.0203C56.3559 15.708 57.1994 15.7066 57.9506 16.0162C58.7019 16.3259 59.2994 16.9213 59.6117 17.6715L59.9144 18.3988L38.6133 27.2656Z" fill="#C6C3BD"/>
<path d="M31.1658 23.0703H30.3801C29.5675 23.0703 28.7882 22.7475 28.2137 22.1729C27.6391 21.5984 27.3163 20.8191 27.3163 20.0065L27.3163 3.06123C27.3163 2.24865 27.6391 1.46935 28.2137 0.894768C28.7882 0.320185 29.5675 -0.00260925 30.3801 -0.00260925H31.168L31.168 23.0703H31.1658Z" fill="#C6C3BD"/>
<path d="M22.9434 26.8594L22.6646 27.5963C22.3771 28.3563 21.7995 28.971 21.0588 29.3051C20.3181 29.6392 19.475 29.6654 18.715 29.3779L2.86572 23.3827C2.1057 23.0952 1.49101 22.5176 1.15688 21.7769C0.822745 21.0362 0.796546 20.1931 1.08404 19.433L1.36278 18.6961L22.9434 26.8594Z" fill="#C6C3BD"/>
<path d="M26.3633 35.7812L27.0119 36.2322C27.6791 36.6961 28.1347 37.406 28.2784 38.2058C28.4222 39.0055 28.2424 39.8297 27.7785 40.4968L18.1027 54.4133C17.6388 55.0805 16.9289 55.536 16.1292 55.6798C15.3294 55.8236 14.5053 55.6437 13.8381 55.1798L13.1912 54.7301L26.3651 35.7825L26.3633 35.7812Z" fill="#C6C3BD"/>
<path d="M65.1203 59.3429H31.8711V32.357L48.615 22.1172L65.1203 32.357V59.3429Z" fill="#FF1840"/>
<path d="M48.491 45.8438H38.1309V59.3356H48.491V45.8438Z" fill="#C98C54"/>
<path d="M58.8484 45.8438H48.4883V59.3356H58.8484V45.8438Z" fill="#C98C54"/>
<path d="M46.9785 31.6328H49.2938C50.4883 31.6328 51.6339 32.1073 52.4785 32.952C53.3232 33.7966 53.7977 34.9422 53.7977 36.1367V39.3428H42.4746V36.1345C42.4752 34.9404 42.95 33.7953 43.7945 32.9512C44.6391 32.107 45.7843 31.6328 46.9785 31.6328Z" fill="#222223"/>
<path d="M54.2547 39.7999H42.0124V37.2941C41.9741 36.4664 42.104 35.6395 42.3943 34.8635C42.6846 34.0874 43.1293 33.3783 43.7015 32.779C44.2737 32.1797 44.9614 31.7027 45.7232 31.3768C46.485 31.0509 47.305 30.8828 48.1335 30.8828C48.9621 30.8828 49.7821 31.0509 50.5439 31.3768C51.3057 31.7027 51.9934 32.1797 52.5656 32.779C53.1378 33.3783 53.5825 34.0874 53.8728 34.8635C54.1631 35.6395 54.293 36.4664 54.2547 37.2941V39.7999ZM42.9316 38.8829H53.3377V37.2941C53.3519 36.6018 53.2278 35.9137 52.9727 35.27C52.7176 34.6263 52.3366 34.04 51.8521 33.5454C51.3675 33.0508 50.7891 32.6579 50.1508 32.3896C49.5125 32.1214 48.827 31.9832 48.1346 31.9832C47.4422 31.9832 46.7568 32.1214 46.1185 32.3896C45.4801 32.6579 44.9018 33.0508 44.4172 33.5454C43.9327 34.04 43.5517 34.6263 43.2966 35.27C43.0415 35.9137 42.9174 36.6018 42.9316 37.2941V38.8829Z" fill="white"/>
<mask id="mask0_25_6824" style="mask-type:alpha" maskUnits="userSpaceOnUse" x="36" y="43" width="25" height="3">
<path d="M60.5503 43.4375H36.2168V45.847H60.5503V43.4375Z" fill="white"/>
</mask>
<g mask="url(#mask0_25_6824)">
<path d="M60.5503 43.4375H36.2168V45.847H60.5503V43.4375Z" fill="white"/>
<g opacity="0.68">
<path opacity="0.68" d="M35.2443 44.7641L35.2246 44.6131C36.5191 44.4476 37.8267 44.4087 39.1288 44.4971L39.5512 44.5299C40.1508 44.5967 40.7554 44.6055 41.3567 44.5562C41.8218 44.4877 42.2812 44.3845 42.731 44.2476C43.1736 44.1121 43.6257 44.0097 44.0835 43.9413C45.0464 43.8165 46.0159 43.9872 46.9547 44.1601C47.4844 44.2542 48.0315 44.3505 48.5698 44.3921C49.7013 44.4796 50.8568 44.3352 51.9751 44.1951C53.2728 44.0332 54.6165 43.8668 55.9318 44.0616C56.2863 44.1141 56.6452 44.1929 56.991 44.2695C57.6651 44.455 58.3623 44.5427 59.0613 44.5299C59.2429 44.5168 59.4333 44.4906 59.615 44.4643C60.1512 44.3899 60.7092 44.3133 61.195 44.554L61.1294 44.6919C60.6786 44.473 60.173 44.5431 59.6369 44.6175C59.4508 44.6437 59.2583 44.67 59.0722 44.6831C58.3586 44.6971 57.6467 44.6086 56.9582 44.4205C56.6146 44.3439 56.2579 44.263 55.9077 44.2126C54.6144 44.02 53.2816 44.1864 51.9926 44.3483C50.8677 44.4884 49.7035 44.635 48.5589 44.5453C48.0118 44.5015 47.4647 44.4052 46.9285 44.3111C46.0006 44.1492 45.042 43.9806 44.1032 44.0923C43.653 44.161 43.2083 44.2619 42.7726 44.3943C42.3152 44.5343 41.8477 44.639 41.3742 44.7072C40.7628 44.7583 40.1479 44.7503 39.5381 44.6831L39.1179 44.6503C37.8261 44.5622 36.5287 44.6003 35.2443 44.7641Z" fill="#FFCFC9"/>
<path opacity="0.68" d="M48.9407 45.5642C47.8124 45.5526 46.6907 45.39 45.6055 45.0806L45.2247 44.9733C44.6622 44.7835 44.0773 44.668 43.4849 44.6298C42.8359 44.6481 42.193 44.7609 41.5766 44.9646C41.0618 45.1223 40.5336 45.2322 39.9987 45.2929C39.331 45.3217 38.6621 45.2747 38.005 45.1528C37.0311 45.0105 36.1098 44.8771 35.2322 45.1988L35.1797 45.0543C36.0945 44.7195 37.0771 44.8639 38.0247 45.0018C38.6704 45.1204 39.3274 45.1666 39.9834 45.1397C40.5088 45.08 41.0275 44.9716 41.5328 44.8158C42.164 44.6102 42.8213 44.496 43.4849 44.4766C44.0905 44.515 44.6886 44.6319 45.2641 44.8245L45.6449 44.9339C47.2773 45.418 48.9981 45.5265 50.6784 45.2513C51.0745 45.1791 51.4728 45.0762 51.8579 44.9777C52.5772 44.7669 53.3179 44.6377 54.0661 44.5926C54.5497 44.595 55.0325 44.633 55.5105 44.7064C55.8759 44.7523 56.2524 44.8005 56.6222 44.8136C57.0293 44.8289 57.4473 44.8026 57.8521 44.7786C58.5721 44.737 59.3184 44.691 60.0406 44.8727C60.2594 44.9252 60.4783 44.9996 60.6796 45.0718C61.2464 45.2666 61.7738 45.4504 62.3078 45.2907L62.3538 45.4373C61.7782 45.6189 61.1961 45.4176 60.6315 45.2185C60.4236 45.1484 60.2113 45.074 60.0034 45.0215C59.2999 44.8851 58.5798 44.8556 57.8674 44.9339C57.4582 44.958 57.038 44.9843 56.6244 44.969C56.2458 44.9536 55.8672 44.9055 55.4995 44.8595C55.0286 44.7883 54.5533 44.751 54.077 44.7479C53.3406 44.7924 52.6116 44.9202 51.9039 45.1287C51.5143 45.2272 51.1139 45.3301 50.7134 45.4023C50.1287 45.5102 49.5353 45.5644 48.9407 45.5642Z" fill="#FFCFC9"/>
<path opacity="0.68" d="M60.3404 46.2857C60.1104 46.2863 59.8807 46.2695 59.6533 46.2354C59.3411 46.1787 59.0321 46.1057 58.7276 46.0165C58.4173 45.9237 58.1016 45.8507 57.7821 45.7977C57.0162 45.6861 56.2283 45.813 55.4667 45.9334C54.9359 46.0292 54.3993 46.0898 53.8604 46.115C53.2742 46.1118 52.689 46.065 52.1097 45.9749C51.6352 45.9047 51.1575 45.8587 50.6784 45.8371C49.9403 45.838 49.2034 45.8973 48.4746 46.0143C47.5708 46.1347 46.6363 46.2594 45.7128 46.1522C45.3028 46.1016 44.8958 46.0286 44.4938 45.9334C43.8529 45.755 43.1892 45.6724 42.5242 45.6883C42.2169 45.7185 41.912 45.7697 41.6116 45.8414C41.2326 45.9371 40.8445 45.9921 40.4539 46.0056C40.0527 45.9913 39.6542 45.9334 39.2656 45.8327C38.5402 45.6439 37.7852 45.597 37.0421 45.6948C36.3221 45.7408 35.578 45.7911 34.8887 45.5351L34.9412 45.3906C35.5977 45.6357 36.2958 45.5898 37.0312 45.5416C37.5084 45.4953 37.9889 45.4916 38.4668 45.5307C38.7467 45.5659 39.0243 45.6171 39.2984 45.6839C39.6764 45.7814 40.0638 45.8379 40.4539 45.8524C40.8341 45.8384 41.2118 45.7848 41.581 45.6926C41.8895 45.6132 42.2032 45.5555 42.5198 45.5197C43.1995 45.5039 43.8779 45.5879 44.5332 45.7692C44.9294 45.8642 45.3305 45.9373 45.7347 45.9881C46.6385 46.0909 47.5642 45.9684 48.4593 45.8502C49.1961 45.7322 49.941 45.6721 50.6872 45.6707C51.1715 45.6918 51.6543 45.7386 52.1337 45.8108C52.703 45.8984 53.2779 45.9444 53.8539 45.9487C54.3862 45.9251 54.9163 45.8651 55.4405 45.7692C56.213 45.6467 57.0118 45.5197 57.8018 45.6335C58.1271 45.686 58.4487 45.7591 58.7648 45.8524C59.063 45.9429 59.3662 46.0159 59.673 46.0712C60.9751 46.2704 62.2991 45.8218 63.459 45.4256L63.5071 45.5701C62.5311 45.9159 61.4456 46.2857 60.3404 46.2857Z" fill="#FFCFC9"/>
<path opacity="0.68" d="M49.9616 44.2466C48.2743 44.2466 46.5826 43.9118 44.9282 43.5901L44.7093 43.5485C43.8547 43.3017 42.9434 43.3354 42.1094 43.6448L41.8556 43.717C39.6846 44.3145 37.3982 44.3559 35.207 43.8374L35.242 43.6886C37.4059 44.1991 39.6633 44.1585 41.8074 43.5704L42.0613 43.4982C42.9186 43.1849 43.8528 43.1497 44.7312 43.3975L44.95 43.4391C47.0969 43.8636 49.316 44.3035 51.487 43.9927C51.9247 43.9315 52.3733 43.8352 52.8 43.7433C53.6045 43.539 54.43 43.4295 55.2599 43.4172C55.9468 43.4566 56.6288 43.5584 57.2973 43.7214C58.466 43.9687 59.569 44.2007 60.6282 43.8045L60.6829 43.9468C59.5886 44.3604 58.4047 44.1109 57.2645 43.8702C56.6054 43.7091 55.9329 43.6088 55.2555 43.5704C54.4373 43.583 53.6235 43.6917 52.8307 43.8943C52.393 43.9862 51.9553 44.0825 51.5045 44.1459C50.9931 44.2147 50.4776 44.2483 49.9616 44.2466Z" fill="#FFCFC9"/>
</g>
</g>
<path d="M29.2402 34.1975L48.6168 22.1172L68 34.7665" stroke="#222223" stroke-width="5" stroke-miterlimit="10"/>
<path d="M48.3614 45.3085L37.332 59.6719L37.5907 59.8705L48.62 45.5071L48.3614 45.3085Z" fill="white"/>
<path d="M37.5907 45.3014L37.332 45.5L48.3614 59.8634L48.62 59.6648L37.5907 45.3014Z" fill="white"/>
<path d="M59.3888 45.3085L48.3594 59.6719L48.618 59.8705L59.6474 45.5071L59.3888 45.3085Z" fill="white"/>
<path d="M48.618 45.3014L48.3594 45.5L59.3888 59.8634L59.6474 59.6648L48.618 45.3014Z" fill="white"/>
<path d="M48.6503 45.4062H48.3242V59.7691H48.6503V45.4062Z" fill="white"/>
<path d="M49.307 35.2679C49.2183 34.7313 48.731 34.6078 48.3545 34.7504C48.1027 34.8465 47.8987 35.0623 47.8994 35.3532C47.8994 35.0833 47.7256 34.879 47.4996 34.7739C47.4418 34.7471 47.3812 34.727 47.3189 34.7141C46.9274 34.6294 46.481 34.8242 46.4766 35.4398C46.4728 35.9663 46.7996 36.3699 47.1401 36.6494L47.1855 36.685C47.4046 36.8545 47.6443 36.9949 47.8987 37.1026C48.1391 37.001 48.3664 36.8702 48.5755 36.713C48.9444 36.4361 49.3259 36.0128 49.3215 35.4436C49.3215 35.415 49.3215 35.3876 49.3184 35.3615L49.307 35.2679Z" fill="#FF9C03"/>
</svg>
