<svg width="47" height="57" viewBox="0 0 47 57" fill="none" xmlns="http://www.w3.org/2000/svg">
<path d="M5.1582 56.0583V26.3894C5.1582 21.3853 7.183 16.5525 10.8877 13.1904C13.8025 10.5471 18.148 8.29534 24.5985 7.8125C24.5985 7.8125 26.2784 25.7153 8.65598 33.5474C8.65598 33.5474 15.7761 41.5331 14.1096 56.0649" fill="white"/>
<path d="M5.1582 56.0583V26.3894C5.1582 21.3853 7.183 16.5525 10.8877 13.1904C13.8025 10.5471 18.148 8.29534 24.5985 7.8125C24.5985 7.8125 26.2784 25.7153 8.65598 33.5474C8.65598 33.5474 15.7761 41.5331 14.1096 56.0649" stroke="#EADECB" stroke-width="0.4" stroke-miterlimit="10"/>
<path d="M44.3191 56.0583V26.3894C44.3191 21.3853 42.2943 16.5525 38.5896 13.1904C35.677 10.5471 31.3293 8.29534 24.8789 7.8125C24.8789 7.8125 23.2012 25.7153 40.8236 33.5474C40.8236 33.5474 33.7034 41.5331 35.3677 56.0649" fill="white"/>
<path d="M44.3191 56.0583V26.3894C44.3191 21.3853 42.2943 16.5525 38.5896 13.1904C35.677 10.5471 31.3293 8.29534 24.8789 7.8125C24.8789 7.8125 23.2012 25.7153 40.8236 33.5474C40.8236 33.5474 33.7034 41.5331 35.3677 56.0649" stroke="#EADECB" stroke-width="0.4" stroke-miterlimit="10"/>
<path d="M46.8911 56.0571H42.4166V27.1604C42.3644 22.5066 40.479 18.061 37.1696 14.7886C33.8602 11.5161 29.3938 9.68071 24.7397 9.68071C20.0855 9.68071 15.6191 11.5161 12.3097 14.7886C9.00033 18.061 7.11495 22.5066 7.06274 27.1604V56.0571H2.58594V27.1604C2.58594 21.2852 4.91987 15.6506 9.07429 11.4962C13.2287 7.34174 18.8633 5.00781 24.7385 5.00781C30.6138 5.00781 36.2484 7.34174 40.4028 11.4962C44.5572 15.6506 46.8911 21.2852 46.8911 27.1604V56.0571Z" fill="#FBB858"/>
<path d="M8.23397 11.072C7.53086 11.1031 6.96124 9.441 7.34395 8.96707C7.45381 8.83961 7.59382 8.74169 7.75122 8.68223C7.90863 8.62277 8.07841 8.60365 8.2451 8.62663C8.46799 8.65576 8.68025 8.73943 8.86306 8.87023C9.04587 9.00103 9.19358 9.17492 9.29309 9.37648C9.44463 9.69489 9.49584 10.0518 9.43995 10.4C9.43818 10.4044 9.43824 10.4094 9.44012 10.4138C9.44199 10.4181 9.44554 10.4216 9.44996 10.4234C9.45439 10.4251 9.45933 10.4251 9.46372 10.4232C9.4681 10.4213 9.47155 10.4178 9.47332 10.4133C9.70202 9.97795 10.0737 9.63459 10.5258 9.441C10.7306 9.35076 10.9544 9.31181 11.1777 9.32753C11.2896 9.33719 11.3982 9.37008 11.4967 9.4241C11.5952 9.47812 11.6813 9.55208 11.7496 9.64126C11.9854 9.97501 11.8497 10.4645 11.556 10.7538C11.2396 11.016 10.8662 11.2004 10.4657 11.2922L10.0207 11.4324C10.3076 11.405 10.5963 11.3998 10.884 11.4168C11.0124 11.4201 11.1404 11.4335 11.2667 11.4569C11.4958 11.4994 11.705 11.6149 11.8631 11.7861C12.0211 11.9574 12.1194 12.1752 12.1434 12.407C12.2235 13.1524 11.398 13.6041 10.8084 13.3504C10.5591 13.2221 10.3399 13.0424 10.1653 12.8231C9.97173 12.6006 9.77816 12.3981 9.60683 12.1689C9.83821 12.4873 10.0052 12.8479 10.0986 13.2303C10.1439 13.3511 10.1641 13.4799 10.158 13.6089C10.1518 13.7378 10.1195 13.8641 10.063 13.9801C9.97622 14.0962 9.85969 14.1866 9.72572 14.2419C9.59175 14.2971 9.44534 14.315 9.302 14.2938C9.01741 14.2684 8.751 14.1431 8.54993 13.9401C8.45202 13.8376 8.3759 13.7164 8.32618 13.5836C8.27646 13.4509 8.25418 13.3095 8.26067 13.168C8.2744 13.0147 8.31193 12.8646 8.37192 12.723C8.46076 12.4995 8.57579 12.2874 8.71458 12.091C8.49208 12.2913 8.24955 12.5049 8.01814 12.6896C7.9227 12.7747 7.81364 12.8431 7.69551 12.8921C7.53736 12.941 7.36882 12.9456 7.20822 12.9054C7.07302 12.8848 6.94367 12.8359 6.82865 12.7619C6.71363 12.6879 6.61551 12.5905 6.54071 12.476C6.47243 12.3396 6.44316 12.187 6.45612 12.0351C6.46908 11.8831 6.52376 11.7377 6.61414 11.6149C6.79899 11.369 7.06308 11.1945 7.36175 11.1209C7.64946 11.0695 7.94232 11.0531 8.23397 11.072V11.072Z" fill="#FDDA23"/>
<path d="M35.0391 10.6627C35.4841 10.6805 35.8312 9.64811 35.5932 9.35218C35.5263 9.27115 35.44 9.20829 35.3424 9.1694C35.2448 9.13051 35.139 9.11685 35.0347 9.12968C34.8955 9.14754 34.763 9.19955 34.6489 9.28108C34.5347 9.36261 34.4425 9.47112 34.3805 9.59694C34.2869 9.7951 34.2559 10.0171 34.2915 10.2333C34.2915 10.2363 34.2903 10.2391 34.2882 10.2412C34.2862 10.2433 34.2833 10.2444 34.2804 10.2444C34.2774 10.2444 34.2746 10.2433 34.2725 10.2412C34.2704 10.2391 34.2693 10.2363 34.2693 10.2333C34.127 9.96259 33.896 9.74894 33.6151 9.62809C33.4873 9.57125 33.3473 9.54752 33.2079 9.55911C33.1386 9.5644 33.0711 9.5844 33.0101 9.61778C32.9491 9.65115 32.896 9.69715 32.8541 9.75269C32.7925 9.86414 32.7708 9.99329 32.7927 10.1187C32.8145 10.2442 32.8786 10.3584 32.9743 10.4425C33.1677 10.6047 33.3963 10.7197 33.6418 10.7784L33.9199 10.8652C33.7414 10.853 33.5622 10.853 33.3837 10.8652C33.3038 10.8685 33.2242 10.8774 33.1456 10.8919C33.0027 10.9178 32.8722 10.9897 32.7738 11.0965C32.6754 11.2033 32.6146 11.3393 32.6005 11.4838C32.595 11.5856 32.6156 11.6871 32.6602 11.7787C32.7048 11.8704 32.772 11.9492 32.8554 12.0077C32.9389 12.0662 33.0358 12.1026 33.1372 12.1133C33.2386 12.124 33.341 12.1088 33.4349 12.069C33.5898 11.9901 33.7257 11.8785 33.8331 11.7419C33.9533 11.6084 34.0757 11.4771 34.1802 11.3347C34.0364 11.5354 33.9329 11.7621 33.8754 12.0022C33.8474 12.0772 33.8349 12.1571 33.8387 12.237C33.8425 12.317 33.8626 12.3953 33.8977 12.4673C33.9518 12.5394 34.0244 12.5957 34.1078 12.6301C34.1912 12.6646 34.2823 12.6759 34.3716 12.6631C34.5487 12.6461 34.7141 12.5673 34.8389 12.4406C34.8998 12.3767 34.9471 12.3013 34.9781 12.2187C35.0091 12.1361 35.023 12.0481 35.0191 11.9599C35.0096 11.8666 34.9863 11.7751 34.9501 11.6885C34.8921 11.5494 34.8174 11.4179 34.7276 11.2969C34.8633 11.4193 35.0169 11.5528 35.1726 11.6685C35.2316 11.7219 35.2994 11.7648 35.3729 11.7953C35.4718 11.8231 35.5765 11.8231 35.6755 11.7953C35.7598 11.7828 35.8405 11.7526 35.9123 11.7066C35.984 11.6605 36.0451 11.5998 36.0916 11.5283C36.1341 11.4433 36.1523 11.3482 36.144 11.2536C36.1358 11.1589 36.1014 11.0684 36.0448 10.992C35.9283 10.8408 35.7646 10.7328 35.5798 10.685C35.4011 10.6558 35.2196 10.6483 35.0391 10.6627V10.6627Z" fill="#FFA298"/>
<path d="M42.2614 12.4038C42.8265 12.4283 43.2849 11.0933 42.9779 10.7105C42.8894 10.6086 42.7771 10.5302 42.6508 10.4824C42.5246 10.4346 42.3885 10.419 42.2547 10.4369C42.0758 10.4614 41.9055 10.5291 41.7585 10.6341C41.6116 10.7392 41.4925 10.8784 41.4114 11.0399C41.2883 11.2964 41.2471 11.5846 41.2935 11.8653C41.2935 11.8689 41.2921 11.8723 41.2896 11.8748C41.2871 11.8773 41.2837 11.8787 41.2801 11.8787C41.2766 11.8787 41.2732 11.8773 41.2707 11.8748C41.2682 11.8723 41.2668 11.8689 41.2668 11.8653C41.0826 11.516 40.7841 11.2403 40.4213 11.0844C40.2555 11.0115 40.0745 10.9802 39.8939 10.9931C39.8043 11.001 39.7172 11.0274 39.6383 11.0707C39.5594 11.114 39.4904 11.1732 39.4356 11.2446C39.3562 11.3884 39.3284 11.5551 39.3567 11.717C39.385 11.8789 39.4678 12.0262 39.5913 12.1346C39.8442 12.3503 40.1447 12.5028 40.468 12.5796L40.8262 12.6908C40.5954 12.6705 40.3634 12.6667 40.132 12.6797C40.0282 12.6831 39.9248 12.6943 39.8227 12.7131C39.6385 12.7465 39.4702 12.8392 39.3433 12.9769C39.2164 13.1146 39.1379 13.2899 39.1196 13.4763C39.0551 14.0748 39.7181 14.4375 40.1988 14.2328C40.3991 14.1305 40.5752 13.9863 40.715 13.81C40.8707 13.6387 41.0265 13.4674 41.16 13.2827C40.9739 13.5392 40.8394 13.8294 40.7639 14.1371C40.7281 14.2344 40.7122 14.338 40.7172 14.4416C40.7222 14.5451 40.7479 14.6467 40.7929 14.7401C40.8623 14.8337 40.956 14.9066 41.0638 14.9509C41.1717 14.9952 41.2895 15.0092 41.4047 14.9915C41.6341 14.9721 41.8488 14.8711 42.01 14.7067C42.0873 14.6243 42.147 14.5269 42.1852 14.4205C42.2235 14.3141 42.2396 14.201 42.2325 14.0882C42.2207 13.9672 42.1907 13.8486 42.1435 13.7366C42.0724 13.5569 41.9798 13.3866 41.8675 13.2293C42.0433 13.3895 42.2414 13.5608 42.4283 13.7099C42.5043 13.7785 42.5916 13.8335 42.6864 13.8723C42.8152 13.908 42.9513 13.908 43.0802 13.8723C43.1888 13.8558 43.2927 13.8165 43.3851 13.7571C43.4775 13.6977 43.5563 13.6194 43.6164 13.5275C43.6713 13.4174 43.6948 13.2944 43.6842 13.1719C43.6736 13.0494 43.6293 12.9322 43.5564 12.8332C43.4072 12.6365 43.1952 12.4968 42.9556 12.4372C42.7263 12.3991 42.4933 12.3879 42.2614 12.4038Z" fill="#69B7F3"/>
<path d="M3.14615 25.0503C3.71131 25.0748 4.16967 23.7397 3.86484 23.3593C3.7762 23.2569 3.66346 23.1783 3.53681 23.1306C3.41016 23.0828 3.2736 23.0673 3.13947 23.0856C2.96003 23.1086 2.78908 23.1757 2.64192 23.2809C2.49476 23.3861 2.37597 23.5262 2.29618 23.6886C2.17297 23.9443 2.13179 24.2318 2.17825 24.5118C2.17825 24.5296 2.16045 24.5363 2.15155 24.5118C1.96661 24.163 1.6684 23.8876 1.30603 23.7308C1.14079 23.6589 0.960728 23.6276 0.780917 23.6396C0.690882 23.6472 0.603418 23.6735 0.524112 23.7168C0.444806 23.76 0.375401 23.8194 0.320331 23.891C0.241781 24.0351 0.214416 24.2016 0.242706 24.3633C0.270996 24.5249 0.35327 24.6722 0.476086 24.7811C0.730718 24.9912 1.03091 25.139 1.35275 25.2127L1.71099 25.3262C1.4802 25.3051 1.2482 25.3006 1.01677 25.3128C0.913721 25.3161 0.811069 25.3273 0.709715 25.3462C0.52522 25.3796 0.356603 25.4721 0.22935 25.6098C0.102097 25.7475 0.0231262 25.9229 0.00437474 26.1094C-0.0601517 26.7102 0.602913 27.0706 1.08352 26.8682C1.28395 26.7649 1.45996 26.62 1.59974 26.4432C1.75692 26.2758 1.90545 26.1006 2.04475 25.9181C1.85978 26.1744 1.72537 26.4636 1.64869 26.7703C1.61344 26.8681 1.59785 26.9719 1.60281 27.0757C1.60778 27.1796 1.6332 27.2815 1.67761 27.3755C1.74742 27.4687 1.84116 27.5413 1.94888 27.5856C2.05661 27.6298 2.17431 27.6441 2.2895 27.6269C2.51857 27.6065 2.73301 27.5056 2.89471 27.3421C2.97193 27.2591 3.03147 27.1613 3.06971 27.0545C3.10796 26.9478 3.12413 26.8345 3.11722 26.7213C3.10629 26.6002 3.07625 26.4815 3.02822 26.3697C2.9571 26.1901 2.86445 26.0198 2.75231 25.8624C2.92809 26.0226 3.12612 26.1962 3.31303 26.343C3.39012 26.4119 3.47809 26.4676 3.57336 26.5077C3.70131 26.5444 3.83701 26.5444 3.96496 26.5077C4.07465 26.4948 4.18035 26.4588 4.27508 26.402C4.36982 26.3452 4.45144 26.269 4.51455 26.1784C4.56901 26.0686 4.59221 25.946 4.58161 25.824C4.57101 25.7019 4.52703 25.5851 4.45448 25.4864C4.3048 25.2898 4.09311 25.1494 3.85371 25.0881C3.62019 25.0475 3.38267 25.0348 3.14615 25.0503V25.0503Z" fill="#FDDA23"/>
<path d="M44.0879 25.4356C44.8889 25.4712 45.5408 23.5755 45.1047 23.0325C44.9792 22.8873 44.8195 22.7757 44.64 22.7077C44.4606 22.6397 44.267 22.6175 44.0768 22.6432C43.8217 22.6758 43.5786 22.7712 43.3694 22.9207C43.1601 23.0701 42.9911 23.2691 42.8774 23.4998C42.7035 23.8637 42.646 24.2724 42.7128 24.6702C42.7128 24.6969 42.6839 24.708 42.6727 24.6835C42.4105 24.1867 41.9867 23.7943 41.4712 23.571C41.2361 23.4684 40.9794 23.4249 40.7236 23.4442C40.5961 23.4546 40.4722 23.4917 40.3599 23.553C40.2476 23.6143 40.1494 23.6985 40.0717 23.8002C39.8024 24.1807 39.9582 24.7414 40.2942 25.0685C40.6557 25.3683 41.0825 25.5794 41.5402 25.6848L42.0475 25.8428C41.7198 25.8135 41.3904 25.8075 41.0618 25.825C40.9125 25.8309 40.7638 25.8472 40.6168 25.8739C40.3546 25.9215 40.115 26.0532 39.9343 26.2491C39.7536 26.4451 39.6417 26.6945 39.6155 26.9598C39.5243 27.812 40.4677 28.3237 41.1486 28.0345C41.4335 27.8881 41.6839 27.6825 41.8829 27.4315C42.108 27.1945 42.3205 26.9456 42.5192 26.6861C42.2569 27.0509 42.0665 27.4625 41.9585 27.8987C41.9071 28.0369 41.8844 28.1841 41.8917 28.3314C41.8989 28.4787 41.9361 28.6229 42.0008 28.7554C42.1001 28.8879 42.2333 28.9912 42.3865 29.0543C42.5396 29.1173 42.7069 29.1378 42.8708 29.1136C43.1953 29.0846 43.499 28.941 43.7274 28.7086C43.8408 28.5911 43.9287 28.4513 43.9854 28.2982C44.042 28.145 44.0663 27.9817 44.0567 27.8186C44.0408 27.6471 43.9988 27.479 43.9321 27.3202C43.83 27.0648 43.6985 26.8222 43.5405 26.5971C43.7875 26.8196 44.0723 27.071 44.3349 27.2824C44.4448 27.3765 44.5696 27.4517 44.7042 27.5049C44.8847 27.5611 45.0771 27.5665 45.2605 27.5205C45.4151 27.4968 45.563 27.4407 45.6945 27.356C45.826 27.2713 45.9382 27.1598 46.0237 27.0287C46.1018 26.873 46.1352 26.6986 46.1203 26.5251C46.1054 26.3515 46.0427 26.1854 45.9391 26.0453C45.7282 25.7648 45.4274 25.5652 45.0869 25.4801C44.7569 25.4256 44.4215 25.4107 44.0879 25.4356V25.4356Z" fill="#9556A6"/>
<path d="M6.91839 21.3051C6.47338 21.3251 6.1107 20.2705 6.35323 19.9701C6.4222 19.888 6.51073 19.8245 6.61067 19.7857C6.71061 19.7468 6.81873 19.7337 6.92506 19.7476C7.06702 19.7656 7.20229 19.8185 7.31878 19.9016C7.43527 19.9847 7.52934 20.0954 7.59258 20.2237C7.68991 20.4263 7.72254 20.6539 7.68603 20.8757C7.68603 20.8786 7.6872 20.8815 7.68929 20.8835C7.69138 20.8856 7.69421 20.8868 7.69716 20.8868C7.70011 20.8868 7.70294 20.8856 7.70502 20.8835C7.70711 20.8815 7.70828 20.8786 7.70828 20.8757C7.85356 20.5993 8.08914 20.381 8.3758 20.2571C8.5061 20.2007 8.648 20.1763 8.78966 20.1859C8.86059 20.1918 8.92951 20.2124 8.99198 20.2465C9.05444 20.2806 9.10907 20.3274 9.15234 20.3839C9.21584 20.4981 9.23832 20.6306 9.21606 20.7593C9.19379 20.8881 9.12812 21.0053 9.02996 21.0915C8.82917 21.2581 8.5922 21.3755 8.33797 21.4342L8.05539 21.5209C8.2376 21.5076 8.42054 21.5076 8.60275 21.5209C8.68486 21.5242 8.76664 21.5331 8.84751 21.5476C8.99302 21.5744 9.12593 21.6476 9.22624 21.7563C9.32656 21.8651 9.38885 22.0034 9.40377 22.1506C9.40873 22.2544 9.38736 22.3578 9.34166 22.4511C9.29596 22.5444 9.22741 22.6247 9.14238 22.6844C9.05734 22.7441 8.95859 22.7814 8.8553 22.7927C8.75201 22.804 8.64753 22.7891 8.55158 22.7492C8.39245 22.668 8.25278 22.5534 8.14217 22.4132C8.01715 22.2807 7.89907 22.1418 7.78839 21.9971C7.93404 22.1976 8.03979 22.4242 8.09989 22.6646C8.12848 22.7414 8.14125 22.8231 8.13742 22.905C8.1336 22.9868 8.11327 23.067 8.07764 23.1408C8.02282 23.2146 7.94887 23.2721 7.86378 23.307C7.77869 23.3419 7.68569 23.3529 7.5948 23.3388C7.41391 23.3241 7.24424 23.2452 7.11642 23.1163C7.05466 23.0512 7.00667 22.9743 6.97532 22.8901C6.94397 22.806 6.9299 22.7165 6.93397 22.6268C6.94242 22.5311 6.96569 22.4372 7.00294 22.3487C7.06063 22.2066 7.13534 22.0722 7.22545 21.9482C7.08749 22.075 6.92952 22.2107 6.78044 22.3286C6.71957 22.3824 6.65045 22.4259 6.57573 22.4577C6.47452 22.4855 6.36767 22.4855 6.26645 22.4577C6.18051 22.444 6.09834 22.4127 6.02518 22.3655C5.95201 22.3184 5.88945 22.2566 5.84147 22.184C5.79893 22.0971 5.78081 22.0003 5.78904 21.9039C5.79727 21.8075 5.83154 21.7151 5.88819 21.6366C6.00618 21.4805 6.17431 21.3697 6.36435 21.3229C6.54766 21.295 6.73366 21.289 6.91839 21.3051V21.3051Z" fill="#9556A6"/>
<path d="M31.2243 2.48121C30.8175 0.155824 28.5843 -0.379316 26.8589 0.238579C25.7048 0.655107 24.7699 1.59022 24.7728 2.85084C24.7728 1.68125 23.9765 0.795787 22.9407 0.340641C22.6759 0.224229 22.3981 0.13723 22.1126 0.0813468C20.318 -0.285528 18.2723 0.558561 18.2521 3.22599C18.2348 5.50724 19.7322 7.2561 21.2932 8.46707L21.5009 8.62154C22.5051 9.35606 23.6037 9.96422 24.7699 10.4311C25.8716 9.99077 26.9132 9.42387 27.8716 8.74291C29.5624 7.54298 31.3108 5.70861 31.2906 3.24254C31.2906 3.11841 31.2906 2.9998 31.2762 2.8867L31.2243 2.48121Z" fill="#FF1840"/>
<path d="M21.7569 12.1641C21.7569 12.1641 18.6997 24.8713 8.69141 30.9257" stroke="#EADECB" stroke-width="0.4" stroke-miterlimit="10"/>
<path d="M16.2032 13.6797C16.2032 13.6797 12.7054 25.715 8.69141 29.7334" stroke="#EADECB" stroke-width="0.4" stroke-miterlimit="10"/>
<path d="M26.8496 12.1641C26.8496 12.1641 29.9046 24.8713 39.9151 30.9257" stroke="#EADECB" stroke-width="0.4" stroke-miterlimit="10"/>
<path d="M32.4082 13.6797C32.4082 13.6797 35.9038 25.715 39.92 29.7312" stroke="#EADECB" stroke-width="0.4" stroke-miterlimit="10"/>
<path d="M9.23553 34.7404C9.4937 34.7342 9.74393 34.6498 9.95308 34.4984C10.1622 34.3469 10.3205 34.1355 10.4068 33.8921C10.4932 33.6487 10.5036 33.3848 10.4367 33.1354C10.3698 32.886 10.2287 32.6628 10.0321 32.4953C9.94087 32.4196 9.84965 32.3484 9.7562 32.2728C9.04787 31.7569 8.23527 31.4023 7.37539 31.2337C6.15076 30.9708 4.8733 31.1275 3.74856 31.6787C3.33499 31.8768 2.93376 32.0997 2.54703 32.3462C2.45136 32.5999 2.58041 33.6011 2.58041 33.6011C2.58041 33.6011 3.99554 33.8503 4.69865 33.995C6.07596 34.2753 7.45104 34.7181 8.8684 34.7292L9.23553 34.7404Z" fill="#F9C980"/>
<path d="M40.2701 34.7425C40.0119 34.7363 39.7617 34.652 39.5525 34.5005C39.3434 34.349 39.1851 34.1376 39.0988 33.8942C39.0124 33.6508 39.002 33.387 39.0689 33.1375C39.1358 32.8881 39.2769 32.6649 39.4735 32.4974C39.5647 32.4217 39.656 32.3505 39.7472 32.2749C40.4562 31.7587 41.2695 31.4041 42.1302 31.2358C42.9628 31.0632 43.8234 31.0792 44.649 31.2825C45.0326 31.3803 45.4054 31.5167 45.7615 31.6897C46.1751 31.8878 46.5763 32.1108 46.963 32.3572C47.0565 32.6109 46.9296 33.6121 46.9296 33.6121C46.9296 33.6121 45.5145 33.8614 44.8114 34.006C43.4341 34.2863 42.059 34.7291 40.6417 34.7402L40.2701 34.7425Z" fill="#F9C980"/>
<path d="M9.14258 37.9609C9.14258 37.9609 12.8562 46.7098 11.8616 53.6008" stroke="#EADECB" stroke-width="0.4" stroke-miterlimit="10"/>
<path d="M40.4268 37.625C40.4268 37.625 36.8467 48.3052 37.9793 52.9334" stroke="#EADECB" stroke-width="0.4" stroke-miterlimit="10"/>
</svg>
