<svg width="37" height="40" viewBox="0 0 37 40" fill="none" xmlns="http://www.w3.org/2000/svg">
<path d="M35.0967 17.8594H1.82812V40.0003H35.0967V17.8594Z" fill="#7D45A1"/>
<path d="M1.82812 26.1328H35.0967" stroke="white" stroke-width="3" stroke-miterlimit="10"/>
<path d="M36.3074 9.84375H1.23047V17.8437H36.3074V9.84375Z" fill="#FF9C03"/>
<path d="M19.2852 9.82031V39.9987" stroke="white" stroke-width="3" stroke-miterlimit="10"/>
<path d="M17.5527 11.8594L7.72851 31.7561L3.59961 24.1427C3.59961 24.1427 6.46532 15.6263 14.0741 12.1698L17.5527 11.8594Z" fill="#FBB858"/>
<path d="M0.352621 6.96875C0.235895 7.37015 0.142007 7.77673 0.0713364 8.18689C-0.0525857 8.89605 -0.0147536 9.62075 0.182484 10.3161C0.379721 11.0114 0.732163 11.6626 1.21797 12.2292C1.70378 12.7959 2.3126 13.2659 3.0067 13.6102C3.7008 13.9545 4.4654 14.1657 5.25311 14.2308C9.06331 14.5505 15.1676 14.5599 17.094 11.6773L11.92 8.48089C11.92 8.48089 12.7238 11.3178 5.12924 11.3529C5.12924 11.3529 1.26485 11.6328 1.08421 7.54503L0.352621 6.96875Z" fill="#F9C980"/>
<path d="M18.7833 12.2098C18.7833 12.2098 16.484 14.8042 8.15011 10.2303C8.15011 10.2303 1.97354 7.6347 0.00585938 8.03411C0.414457 6.43523 1.26328 4.9566 2.47288 3.73664C3.3849 2.84792 4.59636 2.25947 5.91688 2.06378C7.2374 1.86809 8.59211 2.07625 9.76813 2.65554C11.7371 3.61483 14.3525 5.46664 17.1924 9.0426L18.7833 12.2098Z" fill="#FBB858"/>
<path d="M17.2305 10.7643L31.0494 28.5984L33.5099 20.3994C33.5099 20.3994 28.9088 12.5412 20.7142 10.4609L17.2305 10.7643Z" fill="#FBB858"/>
<path d="M36.0436 3.84375C36.2421 4.21755 36.4195 4.60028 36.5752 4.99045C36.8464 5.66554 36.962 6.38402 36.9147 7.10133C36.8674 7.81864 36.6583 8.51948 36.3003 9.1604C35.9424 9.80132 35.4432 10.3686 34.8337 10.8272C34.2242 11.2857 33.5175 11.6257 32.7573 11.8261C29.0838 12.7971 23.0943 13.863 20.5977 11.3658L25.0053 7.33303C25.0053 7.33303 24.813 10.2613 32.276 8.9787C32.276 8.9787 36.1275 8.58514 35.4475 4.54067L36.0436 3.84375Z" fill="#F9C980"/>
<path d="M19.0527 12.1875C19.0527 12.1875 21.8539 14.3368 29.0756 8.40537C29.0756 8.40537 34.5955 4.78959 36.6096 4.84112C35.8737 3.34225 34.7305 2.03763 33.2871 1.04965C32.2053 0.334745 30.8924 -0.0336279 29.5549 0.00241425C28.2174 0.0384564 26.9309 0.476868 25.8977 1.24877C24.1661 2.53719 21.9868 4.80364 19.9495 8.80361L19.0527 12.1875Z" fill="#FBB858"/>
<path d="M16.7896 8.79203C16.7896 8.79203 15.5187 13.7278 19.1509 13.1457C19.1509 13.1457 23.7662 13.5978 21.2063 8.40667C21.2063 8.40667 19.1896 7.58325 16.7896 8.79203Z" fill="#7D45A1"/>
</svg>
