<svg width="216" height="216" viewBox="0 0 216 216" fill="none" xmlns="http://www.w3.org/2000/svg">
<mask id="mask0_28_11137" style="mask-type:alpha" maskUnits="userSpaceOnUse" x="0" y="0" width="216" height="216">
<circle cx="108" cy="108" r="108" fill="#F8F5FB"/>
</mask>
<g mask="url(#mask0_28_11137)">
<circle cx="108" cy="108" r="108" fill="#F8F5FB"/>
<path d="M50.3473 61.6172L50.308 64.0821L52.0265 65.8082L49.7286 66.5336L48.6582 68.7433L47.2768 66.7216L44.9004 66.3623L46.3439 64.391L45.9446 61.9597L48.2163 62.759L50.3473 61.6172Z" fill="#D0C5D7"/>
<path d="M145.312 164.575L148.712 159.986C150.254 158.615 151.872 157.333 153.557 156.147C154.997 155.135 156.384 154.049 157.714 152.893C159.291 151.475 161.908 148.614 161.877 145.363C161.836 141.104 157.351 137.761 153.166 136.049L155.449 130.289C163.239 133.489 167.926 139.085 167.986 145.296C168.024 149.523 165.819 153.859 161.773 157.513C160.288 158.812 158.737 160.032 157.127 161.167C155.575 162.31 149.946 165.02 145.312 164.575Z" fill="#5D4FA3"/>
<path d="M9 37C20.1251 46.9885 74.4427 119.68 78.1628 128.343L110.978 88.5365C105.441 84.6384 101.187 79.2073 97.1887 73.7409C88.6252 62.0251 59.9309 22.7509 53 10" fill="#DB8163"/>
<path d="M207 37C195.231 48.5322 161.631 85.1345 155.402 100.392C154.207 103.317 153.236 106.37 152.993 109.519C152.712 113.129 153.392 116.733 153.951 120.311C154.921 126.635 155.48 133.016 155.625 139.413C155.763 145.377 155.469 151.614 152.558 156.817C151.041 159.471 148.915 161.724 146.355 163.388C143.795 165.052 140.876 166.08 137.84 166.385C133.393 166.792 128.943 165.607 124.48 165.745C114.637 166.046 105.74 173.631 98.0954 179.839C96.5118 180.43 94.8421 180.755 93.1532 180.801C91.8209 180.883 90.4876 180.654 89.2589 180.131C87.1536 179.141 85.831 177.037 84.6266 175.041C84.371 174.618 84.4477 174.269 84.1921 173.843C81.3169 173.635 78.6238 172.036 76.7677 169.816C74.9116 167.596 73.8286 164.793 73.3366 161.936C73.2855 161.638 73.2408 161.353 73.196 161.052C72.2401 160.857 71.3559 160.403 70.6403 159.738C70.0411 159.202 69.4944 158.61 69.0078 157.97C68.3256 157.158 67.7152 156.287 67.1837 155.369C66.1526 153.49 65.7707 151.322 66.0975 149.202C64.0624 145.393 63.957 140.781 64.9378 136.571C65.9186 132.362 67.9057 128.467 69.9087 124.642C73.129 118.495 76.4674 112.376 80.6524 106.847C89.4857 95.1835 101.769 86.5664 110.967 75.1912C117.771 66.7919 161.562 11.5939 162 7.5" fill="#E0A28E"/>
<path d="M98.6346 181.676C94.6398 176.587 93.3605 168.234 96.6686 163.432C99.8293 158.842 112.322 176.629 112.271 179.816C112.224 182.912 109.195 186.195 106.047 185.992C103.09 185.799 100.55 184.109 98.6346 181.676Z" fill="#DB8163"/>
<path d="M95.6509 150.632C95.2638 148.328 95.2158 145.57 97.0136 144.093C98.4372 142.926 100.577 143.052 102.206 143.909C103.834 144.766 105.062 146.214 106.249 147.626L120.363 164.434C121.799 166.147 123.283 167.951 123.776 170.142C124.489 173.32 122.762 176.814 119.937 178.401C113.316 182.127 108.472 175.744 104.778 171.076C100.076 165.15 96.9359 158.116 95.6509 150.632Z" fill="#DB8163"/>
<path d="M112.92 160.324C109.747 156.06 107.298 151.315 104.852 146.595C103.326 143.636 101.787 140.645 100.964 137.423C100.425 135.319 100.335 132.758 101.98 131.331C102.877 130.549 104.126 130.286 105.32 130.289C110.596 130.289 114.63 134.758 117.937 138.84L129.771 153.46C131.171 155.191 132.588 156.948 133.472 158.99C134.356 161.032 134.653 163.424 133.766 165.463C132.268 168.913 126.989 171.507 123.368 170.032C119.251 168.339 115.495 163.796 112.92 160.324Z" fill="#DB8163"/>
<path d="M123.413 147.842C119.459 142.797 115.487 137.726 112.389 132.124C111.685 130.845 111.01 129.487 110.978 128.032C110.945 126.577 111.74 125.004 113.148 124.576C114.036 124.307 114.996 124.525 115.884 124.8C122.767 126.935 128.067 132.246 133.532 136.907C135.742 138.791 138.791 140.686 141.355 139.315C142.435 141.014 143.102 142.938 143.303 144.935C143.504 146.932 143.235 148.948 142.515 150.825C141.346 153.786 137.215 159.013 133.594 158.015C129.637 156.922 125.777 150.841 123.413 147.842Z" fill="#DB8163"/>
<path d="M66.2783 149.706C66.4474 148.81 66.6996 147.943 66.9363 147.063L67.3545 145.766C67.5021 145.338 67.662 144.915 67.8188 144.486C67.9756 144.057 68.154 143.644 68.3292 143.225L68.8827 141.982L69.4977 140.758L70.1126 139.554L70.7891 138.377C71.0289 137.992 71.2565 137.601 71.4994 137.22L72.2527 136.094C72.511 135.722 72.7744 135.355 73.0429 134.993C73.3166 134.634 73.5872 134.274 73.867 133.921L74.7341 132.883C75.349 132.221 75.9394 131.549 76.5943 130.938L76.6435 130.975C72.1157 136.524 68.6219 142.879 66.3367 149.724L66.2783 149.706Z" fill="#573327"/>
<path d="M72.7549 161.373C72.9791 160.341 73.2956 159.336 73.5924 158.32L74.1068 156.821C74.2881 156.325 74.4859 155.835 74.6739 155.338C74.8618 154.842 75.0762 154.358 75.2905 153.875L75.9499 152.427L76.6654 151.005L77.4139 149.599L78.2152 148.222C78.4954 147.77 78.7658 147.312 79.0527 146.864L79.9363 145.535C80.2397 145.096 80.5496 144.663 80.8629 144.231C81.1761 143.799 81.4992 143.379 81.829 142.95L82.8412 141.713C83.5534 140.913 84.2459 140.112 85.0108 139.359L85.0636 139.398C79.7479 146.012 75.6088 153.444 72.8175 161.385L72.7549 161.373Z" fill="#573327"/>
<path d="M84.418 173.671C84.5111 172.698 84.6941 171.725 84.8578 170.768L85.1788 169.335C85.2944 168.858 85.4228 168.388 85.5448 167.911C85.6668 167.434 85.8145 166.97 85.959 166.503L86.4181 165.105L86.9157 163.727L87.4583 162.361L88.0554 161.021C88.2673 160.577 88.4696 160.133 88.6975 159.695L89.3781 158.397C89.6136 157.965 89.8533 157.539 90.0973 157.119C90.3541 156.701 90.6013 156.279 90.8614 155.867L91.6704 154.645C92.2451 153.856 92.8037 153.059 93.4362 152.312L93.4875 152.348C89.2776 158.876 86.235 166.1 84.4982 173.691L84.418 173.671Z" fill="#573327"/>
<path d="M106.103 80.4082C105.959 80.2773 105.783 80.1273 105.591 79.9645C104.778 79.314 104.036 78.5789 103.379 77.7716C99.3463 72.3038 99.762 64.4229 104.386 58.6039C108.13 53.8958 114.209 50.7358 121.506 49.7048C127.959 48.7919 134.521 49.6346 140.088 50.5794C156.245 53.3028 171.952 58.2171 186.775 65.1857L184.131 70.7748C169.815 64.0473 154.645 59.3028 139.043 56.6728C133.69 55.7663 127.963 55.0353 122.363 55.8238C116.764 56.6122 111.942 59.0349 109.227 62.4502C106.381 66.0284 106.03 70.9313 108.357 74.1072C108.761 74.5222 109.188 74.9134 109.637 75.2787C109.873 75.483 110.091 75.6713 110.276 75.8309L106.103 80.4082Z" fill="#5D4FA3"/>
<path d="M67.5885 128.343C62.0411 126.747 57.4311 123.184 56.1309 120.499C53.7393 115.548 54.2047 109.166 57.3508 103.426C60.0026 98.6088 64.0732 94.8066 67.6623 91.461L85.0429 75.2371C90.9949 69.6791 96.3849 64.1338 96.9532 57.4106C97.1329 55.2813 96.6707 53.5254 95.6883 52.5964C94.966 51.9133 93.7621 51.4535 91.9965 51.1918C89.3865 50.8087 85.5759 51.2588 82.4619 51.8302L79.2323 46.4798C83.0301 45.771 86.4009 44.0982 92.9082 45.0687C95.9837 45.5284 98.2951 46.5212 99.9709 48.1111C102.359 50.3745 103.486 53.8574 103.143 57.9214C102.391 66.8219 95.8874 73.5802 89.2902 79.7384L71.9096 95.9623C68.5002 99.1547 64.9753 102.437 62.8019 106.389C60.6286 110.341 60.2016 114.654 61.7297 117.814C62.5259 119.462 67.8485 123.104 70.5195 122.68L67.5885 128.343Z" fill="#D0C5D7"/>
<path d="M114.273 134.82C115.008 135.824 115.699 136.853 116.427 137.856C117.156 138.859 117.828 139.898 118.544 140.908C119.97 142.931 121.358 144.97 122.812 146.967C124.266 148.964 125.714 150.951 127.234 152.88C127.994 153.851 128.797 154.776 129.629 155.66C130.444 156.576 131.36 157.39 132.359 158.084L132.331 158.142C131.266 157.534 130.282 156.783 129.407 155.909C128.519 155.055 127.672 154.155 126.871 153.213C125.258 151.339 123.744 149.365 122.309 147.352C120.874 145.339 119.495 143.274 118.141 141.203C116.787 139.131 115.483 136.995 114.22 134.866L114.273 134.82Z" fill="#573327"/>
<path d="M103.91 145.188C104.571 146.398 105.194 147.614 105.893 148.802C106.592 149.99 107.224 151.2 107.927 152.376C108.629 153.551 109.322 154.726 110.06 155.888C110.798 157.051 111.523 158.194 112.306 159.308C113.089 160.423 113.875 161.543 114.718 162.597C115.562 163.651 116.441 164.702 117.368 165.688C118.294 166.677 119.303 167.585 120.384 168.403C121.459 169.242 122.656 169.913 123.935 170.392L123.919 170.453C122.588 170.066 121.33 169.462 120.198 168.664C119.063 167.879 118 166.995 117.022 166.024C115.08 164.061 113.325 161.923 111.78 159.637C110.228 157.364 108.795 155.013 107.487 152.593C106.175 150.175 104.95 147.713 103.853 145.194L103.91 145.188Z" fill="#573327"/>
<path d="M100.03 163.328C100.498 163.997 100.931 164.682 101.409 165.338C101.634 165.675 101.865 166.004 102.099 166.334L102.789 167.327C103.264 167.961 103.709 168.646 104.2 169.283C104.691 169.92 105.163 170.567 105.647 171.201C106.131 171.836 106.638 172.47 107.168 173.06C107.697 173.649 108.229 174.252 108.752 174.861C109.32 175.419 109.853 176.028 110.459 176.554C110.74 176.844 111.037 177.119 111.347 177.378C111.668 177.632 111.97 177.898 112.275 178.174L112.242 178.228C110.862 177.352 109.572 176.343 108.393 175.216C107.232 174.074 106.144 172.863 105.134 171.588C104.146 170.301 103.22 168.968 102.356 167.59C101.488 166.218 100.69 164.804 99.9658 163.353L100.03 163.328Z" fill="#573327"/>
<path d="M67.915 156.846C60.1383 156.846 54.9219 145.477 57.0283 138.345C58.4187 133.635 62.0114 129.398 67.1479 126.442C71.9104 123.694 77.2738 122.4 81.4099 121.578C94.387 119.022 107.77 118.84 120.709 118.677C125.561 118.619 130.576 118.555 135.473 118.357C141.833 118.108 149.067 117.555 154.366 114.098C157.109 112.308 159.161 109.362 159.71 106.41C159.969 105.029 160.004 103 158.704 101.182C158.04 100.17 157.116 99.3564 156.028 98.8268L158.931 93.3594C160.86 94.3373 162.509 95.7885 163.725 97.5774C165.764 100.424 166.477 103.872 165.783 107.554C164.917 112.174 161.909 116.558 157.738 119.281C151.119 123.601 142.891 124.262 135.703 124.54C130.726 124.732 125.669 124.796 120.776 124.86C108.115 125.017 95.0231 125.18 82.6053 127.643C78.9359 128.372 74.2118 129.5 70.2323 131.797C66.5342 133.932 63.8812 136.955 62.9543 140.105C61.5287 144.947 62.4013 148.283 65.8757 151.264L67.915 156.846Z" fill="#5D4FA3"/>
</g>
</svg>
