<svg width="16" height="16" viewBox="0 0 16 16" fill="none" xmlns="http://www.w3.org/2000/svg">
<path fill-rule="evenodd" clip-rule="evenodd" d="M0.976311 10.3122C1.60143 9.68713 2.44928 9.33594 3.33333 9.33594H8.66667C9.55072 9.33594 10.3986 9.68713 11.0237 10.3122C11.6488 10.9374 12 11.7852 12 12.6693V14.0026C12 14.3708 11.7015 14.6693 11.3333 14.6693C10.9651 14.6693 10.6667 14.3708 10.6667 14.0026V12.6693C10.6667 12.1388 10.456 11.6301 10.0809 11.2551C9.70581 10.88 9.1971 10.6693 8.66667 10.6693H3.33333C2.8029 10.6693 2.29419 10.88 1.91912 11.2551C1.54405 11.6301 1.33333 12.1388 1.33333 12.6693V14.0026C1.33333 14.3708 1.03486 14.6693 0.666667 14.6693C0.298477 14.6693 0 14.3708 0 14.0026V12.6693C0 11.7852 0.35119 10.9374 0.976311 10.3122Z" fill="#071D2F"/>
<path fill-rule="evenodd" clip-rule="evenodd" d="M5.99935 2.66927C4.89478 2.66927 3.99935 3.5647 3.99935 4.66927C3.99935 5.77384 4.89478 6.66927 5.99935 6.66927C7.10392 6.66927 7.99935 5.77384 7.99935 4.66927C7.99935 3.5647 7.10392 2.66927 5.99935 2.66927ZM2.66602 4.66927C2.66602 2.82832 4.1584 1.33594 5.99935 1.33594C7.8403 1.33594 9.33268 2.82832 9.33268 4.66927C9.33268 6.51022 7.8403 8.0026 5.99935 8.0026C4.1584 8.0026 2.66602 6.51022 2.66602 4.66927Z" fill="#071D2F"/>
<path fill-rule="evenodd" clip-rule="evenodd" d="M12.6873 9.92204C12.7794 9.56554 13.143 9.35116 13.4995 9.44321C14.2146 9.62785 14.8482 10.0448 15.3006 10.6285C15.7531 11.2122 15.999 11.9296 15.9995 12.6682L15.9995 14.002C15.9995 14.3702 15.701 14.6687 15.3328 14.6687C14.9647 14.6687 14.6662 14.3702 14.6662 14.002L14.6662 12.6692C14.6662 12.6691 14.6662 12.6693 14.6662 12.6692C14.6658 12.2261 14.5183 11.7955 14.2469 11.4454C13.9754 11.0951 13.5952 10.845 13.1662 10.7342C12.8097 10.6422 12.5953 10.2785 12.6873 9.92204Z" fill="#071D2F"/>
<path fill-rule="evenodd" clip-rule="evenodd" d="M10.021 1.92334C10.1123 1.56666 10.4755 1.35154 10.8322 1.44287C11.5492 1.62645 12.1847 2.04345 12.6386 2.62813C13.0924 3.2128 13.3387 3.93189 13.3387 4.67204C13.3387 5.41218 13.0924 6.13127 12.6386 6.71594C12.1847 7.30062 11.5492 7.71762 10.8322 7.9012C10.4755 7.99253 10.1123 7.77741 10.021 7.42073C9.92967 7.06404 10.1448 6.70086 10.5015 6.60954C10.9317 6.49938 11.313 6.24919 11.5853 5.89838C11.8576 5.54757 12.0054 5.11612 12.0054 4.67204C12.0054 4.22795 11.8576 3.7965 11.5853 3.44569C11.313 3.09489 10.9317 2.84469 10.5015 2.73454C10.1448 2.64321 9.92967 2.28003 10.021 1.92334Z" fill="#071D2F"/>
</svg>
