<svg width="49" height="54" viewBox="0 0 49 54" fill="none" xmlns="http://www.w3.org/2000/svg">
<path d="M41.6757 7.875L8.83984 51.75" stroke="#261405" stroke-width="2" stroke-miterlimit="10"/>
<path d="M15.1641 7.875L47.9999 51.75" stroke="#261405" stroke-width="2" stroke-miterlimit="10"/>
<path d="M29.0085 3.26562C29.0085 3.26562 -3.74554 24.0945 29.0085 53.2592C29.0085 53.2592 58.9023 31.2561 29.0085 3.26562Z" fill="#5C2F0B"/>
<path d="M28.8909 7.88281C28.8909 7.88281 2.1715 24.8728 28.8909 48.6652C28.8909 48.6544 53.2769 30.7053 28.8909 7.88281Z" stroke="white" stroke-miterlimit="10"/>
<path d="M28.5387 11.2074L27.3008 12.4453L28.5387 13.6832L29.7765 12.4453L28.5387 11.2074Z" fill="white"/>
<path d="M28.5408 15.9768L26.3145 18.2031L28.5408 20.4295L30.7671 18.2031L28.5408 15.9768Z" fill="white"/>
<path d="M28.5356 42.2457L29.7734 41.0078L28.5356 39.7699L27.2977 41.0078L28.5356 42.2457Z" fill="white"/>
<path d="M28.5393 37.4842L30.7656 35.2578L28.5393 33.0315L26.3129 35.2578L28.5393 37.4842Z" fill="white"/>
<path d="M28.3737 23.0365L23.918 27.4922L28.3737 31.9479L32.8294 27.4922L28.3737 23.0365Z" fill="white"/>
<mask id="mask0_25_6745" style="mask-type:alpha" maskUnits="userSpaceOnUse" x="2" y="15" width="25" height="39">
<path fill-rule="evenodd" clip-rule="evenodd" d="M26.0827 15.0781H2.42578V26.3281C2.42578 29.4652 3.67199 32.4738 5.89026 34.6921C6.70934 35.5111 7.63617 36.1977 8.63744 36.7379L4.78694 49.6405C4.63584 50.1464 4.60503 50.6806 4.69697 51.2006C4.78891 51.7205 5.00106 52.2118 5.31649 52.6352C5.63193 53.0587 6.04193 53.4026 6.5138 53.6395C6.98568 53.8764 7.50638 53.9998 8.03439 53.9998H20.222C20.7599 54.0014 21.2904 53.875 21.7697 53.6311C22.249 53.3871 22.6634 53.0325 22.9786 52.5967C23.2938 52.1609 23.5008 51.6563 23.5824 51.1247C23.664 50.5931 23.6179 50.0497 23.448 49.5394L19.2801 37.0357C20.5086 36.4591 21.6402 35.6701 22.6182 34.6921C24.8365 32.4738 26.0827 29.4652 26.0827 26.3281V15.0781Z" fill="#C16217"/>
</mask>
<g mask="url(#mask0_25_6745)">
<path fill-rule="evenodd" clip-rule="evenodd" d="M26.0827 15.0781H2.42578V26.3281C2.42578 29.4652 3.67199 32.4738 5.89026 34.6921C6.70934 35.5111 7.63617 36.1977 8.63744 36.7379L4.78694 49.6405C4.63584 50.1464 4.60503 50.6806 4.69697 51.2006C4.78891 51.7205 5.00106 52.2118 5.31649 52.6352C5.63193 53.0587 6.04193 53.4026 6.5138 53.6395C6.98568 53.8764 7.50638 53.9998 8.03439 53.9998H20.222C20.7599 54.0014 21.2904 53.875 21.7697 53.6311C22.249 53.3871 22.6634 53.0325 22.9786 52.5967C23.2938 52.1609 23.5008 51.6563 23.5824 51.1247C23.664 50.5931 23.6179 50.0497 23.448 49.5394L19.2801 37.0357C20.5086 36.4591 21.6402 35.6701 22.6182 34.6921C24.8365 32.4738 26.0827 29.4652 26.0827 26.3281V15.0781Z" fill="#C16217"/>
<path d="M2.01562 29.5938L5.20286 31.3143L8.38794 29.5938L11.5752 31.3143L14.7624 29.5938L17.9475 31.3143L21.1347 29.5938L24.3198 31.3143L27.5092 29.5938L30.6964 31.3143" stroke="#5C2F0B" stroke-width="0.8" stroke-miterlimit="10"/>
<path d="M2.01562 31.8203L5.20286 33.5408L8.38794 31.8203L11.5752 33.5408L14.7624 31.8203L17.9475 33.5408L21.1347 31.8203L24.3198 33.5408L27.5092 31.8203L30.6964 33.5408" stroke="#5C2F0B" stroke-width="0.8" stroke-miterlimit="10"/>
<path d="M2.01562 34.0391L5.20286 35.7596L8.38794 34.0391L11.5752 35.7596L14.7624 34.0391L17.9475 35.7596L21.1347 34.0391L24.3198 35.7596L27.5092 34.0391L30.6964 35.7596" stroke="#5C2F0B" stroke-width="0.8" stroke-miterlimit="10"/>
<path d="M2.78906 42.5391L5.9763 44.2596L9.16138 42.5391L12.3486 44.2596L15.5358 42.5391L18.7209 44.2596L21.9082 42.5391L25.0954 44.2596L28.2826 42.5391L31.472 44.2596" stroke="#5C2F0B" stroke-width="0.8" stroke-miterlimit="10"/>
<path d="M2.78906 44.7578L5.9763 46.4783L9.16138 44.7578L12.3486 46.4783L15.5358 44.7578L18.7209 46.4783L21.9082 44.7578L25.0954 46.4783L28.2826 44.7578L31.472 46.4783" stroke="#5C2F0B" stroke-width="0.8" stroke-miterlimit="10"/>
<path d="M2.78906 46.9766L5.9763 48.6971L9.16138 46.9766L12.3486 48.6971L15.5358 46.9766L18.7209 48.6971L21.9082 46.9766L25.0954 48.6971L28.2826 46.9766L31.472 48.6971" stroke="#5C2F0B" stroke-width="0.8" stroke-miterlimit="10"/>
<path d="M1.24023 25.9219H30.6953" stroke="#5C2F0B" stroke-width="0.8" stroke-miterlimit="10"/>
<path d="M-0.0175781 21.2109H29.4374" stroke="#5C2F0B" stroke-width="0.8" stroke-miterlimit="10"/>
</g>
<path d="M25.2054 13.6328H2.31838C1.03797 13.6328 0 14.6703 0 15.9501C0 17.2299 1.03797 18.2674 2.31838 18.2674H25.2054C26.4858 18.2674 27.5238 17.2299 27.5238 15.9501C27.5238 14.6703 26.4858 13.6328 25.2054 13.6328Z" fill="#F7C8A3"/>
<path d="M47.8787 1.06143L44.6871 9.42308C44.5071 9.91745 44.2122 10.362 43.8269 10.7203C43.4415 11.0785 42.9767 11.3402 42.4705 11.4838C41.9643 11.6274 41.4313 11.6488 40.9153 11.5463C40.3992 11.4438 39.9148 11.2203 39.502 10.8941C39.0878 10.5614 38.7552 10.1384 38.5295 9.65747C38.3038 9.17654 38.191 8.65039 38.1997 8.1192C38.2084 7.58802 38.3384 7.06585 38.5798 6.59258C38.8211 6.11932 39.1674 5.70747 39.5923 5.3885L46.7066 0.140965C46.8434 0.0450601 47.0075 -0.0042629 47.1746 0.000288994C47.3416 0.00484088 47.5028 0.0630263 47.6342 0.166241C47.7656 0.269456 47.8604 0.412222 47.9044 0.573434C47.9484 0.734645 47.9394 0.905744 47.8787 1.06143Z" fill="#261405"/>
<path d="M8.83956 1.61254L12.2677 9.88171C12.4624 10.3704 12.7703 10.8059 13.1661 11.1525C13.5619 11.499 14.0342 11.7467 14.5444 11.8752C15.0545 12.0037 15.5878 12.0093 16.1006 11.8915C16.6133 11.7738 17.0907 11.5361 17.4937 11.1979C17.8983 10.8535 18.2188 10.4212 18.4308 9.93394C18.6427 9.44672 18.7405 8.91749 18.7166 8.3867C18.6928 7.85591 18.5479 7.33759 18.2931 6.87136C18.0383 6.40512 17.6802 6.00329 17.2464 5.69658L9.98585 0.649056C9.84559 0.554296 9.67827 0.507829 9.50924 0.516694C9.3402 0.525559 9.17866 0.589273 9.04909 0.698185C8.91951 0.807096 8.82896 0.955271 8.79115 1.12026C8.75335 1.28525 8.77034 1.45807 8.83956 1.61254Z" fill="#261405"/>
</svg>
