<svg width="16" height="14" viewBox="0 0 16 14" fill="none" xmlns="http://www.w3.org/2000/svg">
<path fill-rule="evenodd" clip-rule="evenodd" d="M0.976311 9.31225C1.60143 8.68713 2.44928 8.33594 3.33333 8.33594H8C8.88406 8.33594 9.7319 8.68713 10.357 9.31225C10.9821 9.93737 11.3333 10.7852 11.3333 11.6693V13.0026C11.3333 13.3708 11.0349 13.6693 10.6667 13.6693C10.2985 13.6693 10 13.3708 10 13.0026V11.6693C10 11.1388 9.78929 10.6301 9.41421 10.2551C9.03914 9.87998 8.53043 9.66927 8 9.66927H3.33333C2.8029 9.66927 2.29419 9.87998 1.91912 10.2551C1.54405 10.6301 1.33333 11.1388 1.33333 11.6693V13.0026C1.33333 13.3708 1.03486 13.6693 0.666667 13.6693C0.298477 13.6693 0 13.3708 0 13.0026V11.6693C0 10.7852 0.35119 9.93737 0.976311 9.31225Z" fill="black"/>
<path fill-rule="evenodd" clip-rule="evenodd" d="M5.66667 1.66927C4.5621 1.66927 3.66667 2.5647 3.66667 3.66927C3.66667 4.77384 4.5621 5.66927 5.66667 5.66927C6.77124 5.66927 7.66667 4.77384 7.66667 3.66927C7.66667 2.5647 6.77124 1.66927 5.66667 1.66927ZM2.33333 3.66927C2.33333 1.82832 3.82572 0.335938 5.66667 0.335938C7.50762 0.335938 9 1.82832 9 3.66927C9 5.51022 7.50762 7.0026 5.66667 7.0026C3.82572 7.0026 2.33333 5.51022 2.33333 3.66927Z" fill="black"/>
<path fill-rule="evenodd" clip-rule="evenodd" d="M13.3333 3.66927C13.7015 3.66927 14 3.96775 14 4.33594V8.33594C14 8.70413 13.7015 9.0026 13.3333 9.0026C12.9651 9.0026 12.6667 8.70413 12.6667 8.33594V4.33594C12.6667 3.96775 12.9651 3.66927 13.3333 3.66927Z" fill="black"/>
<path fill-rule="evenodd" clip-rule="evenodd" d="M10.6667 6.33594C10.6667 5.96775 10.9651 5.66927 11.3333 5.66927H15.3333C15.7015 5.66927 16 5.96775 16 6.33594C16 6.70413 15.7015 7.0026 15.3333 7.0026H11.3333C10.9651 7.0026 10.6667 6.70413 10.6667 6.33594Z" fill="black"/>
</svg>
