<svg width="164" height="158" viewBox="0 0 164 158" fill="none" xmlns="http://www.w3.org/2000/svg">
<rect width="164" height="158" rx="79" fill="white"/>
<path d="M43.4766 64.0032L82.2498 34L121.001 64.0032V95.1944C121.001 98.3502 119.747 101.377 117.516 103.608C115.285 105.84 112.259 107.094 109.103 107.095H55.3746C53.812 107.095 52.2646 106.787 50.8209 106.189C49.3772 105.591 48.0655 104.714 46.9606 103.609C45.8558 102.504 44.9794 101.192 44.3816 99.7483C43.7838 98.3045 43.4763 96.7571 43.4766 95.1944V64.0032Z" fill="#7D45A1"/>
<path d="M107.859 42.0547H56.2112C53.7365 42.0547 51.7305 44.0608 51.7305 46.5354V99.1912C51.7305 101.666 53.7365 103.672 56.2112 103.672H107.859C110.334 103.672 112.34 101.666 112.34 99.1912V46.5354C112.34 44.0608 110.334 42.0547 107.859 42.0547Z" fill="#D0C5D7"/>
<path d="M43.4766 64V114.362H121.001V64L82.2387 91.5337L43.4766 64Z" fill="#7D45A1"/>
<path d="M44 114L82 78L121 114H44Z" fill="#602587"/>
<path d="M54.498 102.004L81.7609 77.6719L108.998 102.004" stroke="#FBB858" stroke-width="5" stroke-miterlimit="10" stroke-linecap="round"/>
</svg>
