<svg width="42" height="42" viewBox="0 0 42 42" fill="none" xmlns="http://www.w3.org/2000/svg">
<circle cx="21" cy="21" r="21" fill="#7D45A1"/>
<path d="M17.8268 23.8708L19.748 24.9922L14.1332 34.6124L12.2119 33.4911L17.8268 23.8708Z" fill="#F8F5FB"/>
<path d="M12.7412 34.7988C12.9106 34.8977 13.0978 34.9624 13.2921 34.989C13.4865 35.0156 13.6842 35.0036 13.8739 34.9537C14.0636 34.9039 14.2417 34.8171 14.3979 34.6984C14.554 34.5797 14.6853 34.4313 14.7841 34.2619L18.0703 28.6305L15.4906 27.125L12.2038 32.7559C12.0042 33.0981 11.9487 33.5055 12.0495 33.8886C12.1503 34.2717 12.3991 34.5991 12.7412 34.7988Z" fill="#602587"/>
<path d="M21.7575 25.2369C18.5035 25.2369 15.8657 22.599 15.8657 19.345C15.8657 16.091 18.5035 13.4531 21.7575 13.4531C25.0115 13.4531 27.6494 16.091 27.6494 19.345C27.6494 22.599 25.0115 25.2369 21.7575 25.2369Z" fill="#FBB858"/>
<path d="M18.3234 25.2298C19.4873 25.909 20.8265 26.2278 22.1716 26.146C23.5167 26.0641 24.8073 25.5852 25.8802 24.7699C26.9532 23.9545 27.7602 22.8393 28.1994 21.5653C28.6385 20.2912 28.69 18.9156 28.3473 17.6123C28.0047 16.309 27.2832 15.1366 26.2742 14.2433C25.2653 13.35 24.0141 12.776 22.6788 12.5938C21.3436 12.4116 19.9844 12.6295 18.773 13.2198C17.5615 13.8101 16.5524 14.7463 15.873 15.9102C14.9641 17.4714 14.7117 19.3295 15.171 21.0767C15.6304 22.8239 16.7641 24.3175 18.3234 25.2298ZM24.2632 15.0517C25.1123 15.5472 25.7954 16.2833 26.2262 17.167C26.657 18.0508 26.816 19.0424 26.6832 20.0165C26.5503 20.9906 26.1316 21.9034 25.48 22.6395C24.8284 23.3757 23.9731 23.9021 23.0224 24.1521C22.0716 24.4022 21.068 24.3647 20.1385 24.0444C19.2091 23.724 18.3955 23.1353 17.8006 22.3526C17.2058 21.5699 16.8564 20.6283 16.7966 19.647C16.7369 18.6657 16.9695 17.6888 17.465 16.8397C18.1303 15.7021 19.2198 14.8749 20.4943 14.5397C21.7688 14.2045 23.1243 14.3887 24.2632 15.0517Z" fill="#602587"/>
<path d="M22.2495 15.8717C21.4401 15.6062 20.5604 15.6557 19.7859 16.0104C18.9979 16.3783 18.3777 17.03 18.0492 17.8353C18.0341 17.8722 18.0265 17.9117 18.0267 17.9516C18.0269 17.9914 18.0349 18.0309 18.0504 18.0677C18.0658 18.1044 18.0883 18.1378 18.1167 18.1658C18.145 18.1939 18.1786 18.2161 18.2155 18.2312C18.2524 18.2462 18.2919 18.2539 18.3318 18.2537C18.3717 18.2535 18.4111 18.2455 18.4479 18.23C18.4847 18.2146 18.518 18.192 18.5461 18.1637C18.5741 18.1354 18.5963 18.1018 18.6114 18.0649C18.614 18.0591 18.6162 18.0533 18.618 18.0473C18.8572 17.3536 19.3486 16.7753 19.9946 16.4273C20.6593 16.077 21.4314 15.9896 22.1576 16.1822C22.1959 16.1865 22.2346 16.1771 22.2668 16.1558C22.299 16.1345 22.3227 16.1026 22.3338 16.0656C22.3449 16.0287 22.3428 15.989 22.3277 15.9534C22.3126 15.9179 22.2855 15.8888 22.2512 15.8711L22.2495 15.8717Z" fill="white"/>
<path d="M25.6508 28.3977C25.6274 28.4173 25.6105 28.4437 25.6025 28.4732C25.5945 28.5027 25.5957 28.534 25.606 28.5628L25.9265 29.4738C25.9825 29.6325 26.0039 29.8014 25.989 29.969C25.9742 30.1367 25.9235 30.2992 25.8405 30.4456L25.3425 31.3187C25.3395 31.3251 25.3373 31.3319 25.3361 31.3388C25.3338 31.3444 25.332 31.3502 25.3304 31.356C25.3281 31.3646 25.327 31.3735 25.3271 31.3824C25.3263 31.3965 25.3281 31.4106 25.3322 31.4241C25.3343 31.4323 25.3376 31.4401 25.3419 31.4473L25.358 31.4662L25.3752 31.4864C25.3818 31.492 25.3892 31.4967 25.3971 31.5003C25.41 31.5072 25.4241 31.5112 25.4386 31.5121C25.447 31.5137 25.4556 31.514 25.4641 31.513L25.4794 31.5112C25.4875 31.5109 25.4955 31.5097 25.5033 31.5076L26.4448 31.1555C26.6025 31.0966 26.7711 31.0723 26.939 31.0845C27.1069 31.0966 27.2703 31.1448 27.4178 31.2259L28.2611 31.6875C28.288 31.7021 28.3187 31.7083 28.3491 31.7052C28.3796 31.7021 28.4084 31.6899 28.4318 31.6703C28.456 31.6495 28.473 31.6216 28.4802 31.5905C28.4875 31.5595 28.4848 31.5269 28.4724 31.4976L28.1328 30.7027C28.0614 30.5325 28.0308 30.348 28.0436 30.1639C28.0564 29.9797 28.1122 29.8012 28.2065 29.6425L28.7441 28.7447C28.7496 28.7346 28.7541 28.724 28.7575 28.713C28.7597 28.7058 28.7609 28.6983 28.7611 28.6908C28.7637 28.6722 28.7615 28.6532 28.7547 28.6357C28.7531 28.6299 28.7507 28.6244 28.7475 28.6194C28.745 28.6085 28.7405 28.5983 28.7341 28.5892C28.728 28.5814 28.7205 28.5748 28.712 28.5698C28.7075 28.5655 28.7022 28.562 28.6965 28.5594C28.6814 28.5514 28.6649 28.5463 28.6479 28.5446C28.6412 28.544 28.6345 28.5441 28.6279 28.5448C28.6141 28.5451 28.6005 28.5479 28.5878 28.5531L27.615 28.9397C27.4436 29.0078 27.2587 29.0347 27.075 29.0181C26.8914 29.0015 26.7142 28.942 26.5578 28.8444L25.8274 28.3822C25.8001 28.3656 25.7683 28.3582 25.7366 28.361C25.7048 28.3638 25.6747 28.3766 25.6508 28.3977Z" fill="#FBB858"/>
<path d="M31.0001 14.001C30.9993 14.0153 31.0032 14.0293 31.0113 14.0412C31.0194 14.053 31.0313 14.0619 31.045 14.0666L31.46 14.2227C31.5324 14.2499 31.5979 14.2919 31.6521 14.346C31.7064 14.4001 31.7481 14.465 31.7744 14.5363L31.9327 14.962C31.9343 14.9649 31.9361 14.9677 31.938 14.9705L31.942 14.977C31.9446 14.9804 31.9475 14.9835 31.9508 14.9862C31.9554 14.9907 31.9609 14.9942 31.9669 14.9967L31.9782 15H31.9896H32.0017L32.0131 14.9967C32.0191 14.9938 32.0247 14.9903 32.0299 14.9862L32.0372 14.9777C32.0388 14.9759 32.0402 14.9739 32.0413 14.9718C32.0437 14.9688 32.0457 14.9655 32.0473 14.962L32.2055 14.5363C32.2316 14.4649 32.2731 14.4 32.3273 14.3459C32.3815 14.2918 32.447 14.2497 32.5193 14.2227L32.9349 14.0666C32.9437 14.0664 32.9524 14.0644 32.9604 14.0609C32.9685 14.0573 32.9757 14.0523 32.9818 14.046C32.9878 14.0397 32.9925 14.0324 32.9956 14.0243C32.9988 14.0163 33.0002 14.0077 33 13.9991C32.9997 13.9905 32.9977 13.982 32.9941 13.9741C32.9905 13.9663 32.9853 13.9592 32.9789 13.9533C32.9725 13.9474 32.965 13.9427 32.9567 13.9397C32.9485 13.9366 32.9397 13.9352 32.9309 13.9354L32.5508 13.8187C32.4698 13.7934 32.3959 13.7499 32.3352 13.6917C32.2744 13.6335 32.2284 13.5622 32.2008 13.4835L32.0466 13.0362C32.0444 13.0315 32.042 13.0269 32.0393 13.0224C32.0374 13.0195 32.0352 13.0168 32.0326 13.0145C32.0268 13.0085 32.0197 13.0038 32.0118 13.0008H32.0037C31.9991 12.9998 31.9943 12.9998 31.9896 13.0008C31.9852 12.9997 31.9806 12.9997 31.9762 13.0008H31.9682C31.9608 13.0037 31.954 13.0079 31.9481 13.0132L31.942 13.0204C31.9384 13.0252 31.9354 13.0305 31.9333 13.0362L31.7785 13.4835C31.7512 13.5622 31.7053 13.6336 31.6446 13.6918C31.584 13.75 31.5102 13.7935 31.4292 13.8187L31.049 13.9354C31.0345 13.9394 31.0218 13.948 31.013 13.9599C31.0041 13.9718 30.9995 13.9863 31.0001 14.001Z" fill="white"/>
<path d="M9.00013 13.5033C8.99962 13.5244 9.00576 13.5451 9.01773 13.5627C9.02971 13.5803 9.04695 13.5939 9.06714 13.6017L9.69856 13.8379C9.80806 13.8789 9.90722 13.9422 9.98935 14.0235C10.0715 14.1048 10.1347 14.2023 10.1747 14.3092L10.4092 14.9429C10.4092 14.9429 10.4153 14.9508 10.4173 14.9557C10.4193 14.9592 10.4217 14.9625 10.4244 14.9656C10.4279 14.9706 10.432 14.9752 10.4366 14.9793C10.4439 14.9857 10.4521 14.991 10.4609 14.9951L10.4782 15H10.4955H10.5137L10.531 14.9951C10.5403 14.9908 10.5488 14.9851 10.5564 14.9784L10.5686 14.9656C10.5689 14.9626 10.5689 14.9596 10.5686 14.9567C10.572 14.9523 10.575 14.9477 10.5777 14.9429L10.8173 14.3043C10.8573 14.1973 10.9204 14.0999 11.0026 14.0186C11.0847 13.9373 11.1839 13.874 11.2934 13.833L11.9319 13.5998C11.9522 13.592 11.9696 13.5784 11.9817 13.5608C11.9939 13.5433 12.0002 13.5225 11.9999 13.5014C12.0008 13.4794 11.9941 13.4578 11.9809 13.44C11.9676 13.4221 11.9486 13.4091 11.9268 13.403L11.3512 13.2268C11.2284 13.1894 11.1165 13.1245 11.0244 13.0373C10.9323 12.9501 10.8628 12.8431 10.8213 12.725L10.5868 12.0539C10.5843 12.0465 10.5806 12.0395 10.5757 12.0332C10.5736 12.0287 10.5704 12.0247 10.5665 12.0214C10.5574 12.0123 10.5463 12.0053 10.534 12.0008H10.5219C10.5151 11.9997 10.5083 11.9997 10.5015 12.0008H10.4802H10.4681C10.457 12.0049 10.4469 12.0113 10.4386 12.0195C10.435 12.0222 10.4319 12.0256 10.4295 12.0293C10.4234 12.0367 10.4186 12.045 10.4153 12.0539L10.1808 12.725C10.1396 12.8431 10.0702 12.9501 9.97828 13.0373C9.88638 13.1245 9.77454 13.1894 9.65186 13.2268L9.07627 13.403C9.05358 13.4086 9.03361 13.4217 9.01973 13.44C9.00586 13.4583 8.99893 13.4807 9.00013 13.5033Z" fill="#FBB858"/>
<path d="M23 8C23 7.80222 22.9414 7.60889 22.8315 7.44444C22.7216 7.27999 22.5654 7.15181 22.3827 7.07612C22.2 7.00043 21.9989 6.98063 21.8049 7.01922C21.6109 7.0578 21.4327 7.15304 21.2929 7.2929C21.153 7.43275 21.0578 7.61093 21.0192 7.80491C20.9806 7.99889 21.0004 8.19996 21.0761 8.38269C21.1518 8.56542 21.28 8.72159 21.4444 8.83147C21.6089 8.94135 21.8022 9 22 9C22.2652 9 22.5196 8.89465 22.7071 8.70711C22.8946 8.51958 23 8.26522 23 8Z" fill="#F8F5FB"/>
</svg>
