<svg width="24" height="28" viewBox="0 0 24 28" fill="none" xmlns="http://www.w3.org/2000/svg">
<path d="M8.82675 16.8708L10.748 17.9922L5.13318 27.6124L3.21188 26.4911L8.82675 16.8708Z" fill="#F8F5FB"/>
<path d="M3.74119 27.7988C3.91056 27.8977 4.09777 27.9624 4.29213 27.989C4.48649 28.0156 4.68418 28.0036 4.87391 27.9537C5.06364 27.9039 5.24168 27.8171 5.39785 27.6984C5.55402 27.5797 5.68527 27.4313 5.78408 27.2619L9.07031 21.6305L6.49055 20.125L3.20377 25.7559C3.00419 26.0981 2.94869 26.5055 3.04947 26.8886C3.15025 27.2717 3.39907 27.5991 3.74119 27.7988Z" fill="#602587"/>
<path d="M12.7575 18.2369C9.50355 18.2369 6.86566 15.599 6.86566 12.345C6.86566 9.09101 9.50355 6.45312 12.7575 6.45312C16.0115 6.45312 18.6494 9.09101 18.6494 12.345C18.6494 15.599 16.0115 18.2369 12.7575 18.2369Z" fill="#FBB858"/>
<path d="M9.32341 18.2298C10.4873 18.909 11.8265 19.2278 13.1716 19.146C14.5167 19.0641 15.8073 18.5852 16.8802 17.7699C17.9532 16.9545 18.7602 15.8393 19.1994 14.5653C19.6385 13.2912 19.69 11.9156 19.3473 10.6123C19.0047 9.30902 18.2832 8.13661 17.2742 7.24332C16.2653 6.35004 15.0141 5.77601 13.6788 5.59382C12.3436 5.41162 10.9844 5.62945 9.77295 6.21975C8.56153 6.81006 7.55236 7.74633 6.87305 8.91017C5.96413 10.4714 5.71166 12.3295 6.17104 14.0767C6.63041 15.8239 7.76412 17.3175 9.32341 18.2298ZM15.2632 8.05172C16.1123 8.54719 16.7954 9.28332 17.2262 10.167C17.657 11.0508 17.816 12.0424 17.6832 13.0165C17.5503 13.9906 17.1316 14.9034 16.48 15.6395C15.8284 16.3757 14.9731 16.9021 14.0224 17.1521C13.0716 17.4022 12.068 17.3647 11.1385 17.0444C10.2091 16.724 9.39548 16.1353 8.80062 15.3526C8.20576 14.5699 7.85636 13.6283 7.79661 12.647C7.73687 11.6657 7.96945 10.6888 8.46496 9.83965C9.13031 8.70209 10.2198 7.87495 11.4943 7.53975C12.7688 7.20455 14.1243 7.38867 15.2632 8.05172Z" fill="#602587"/>
<path d="M13.2495 8.87167C12.4401 8.60618 11.5604 8.65573 10.7859 9.01043C9.99788 9.3783 9.37766 10.03 9.04921 10.8353C9.03413 10.8722 9.02647 10.9117 9.02667 10.9516C9.02687 10.9914 9.03492 11.0309 9.05036 11.0677C9.0658 11.1044 9.08833 11.1378 9.11667 11.1658C9.145 11.1939 9.17859 11.2161 9.2155 11.2312C9.25242 11.2462 9.29194 11.2539 9.33182 11.2537C9.37169 11.2535 9.41114 11.2455 9.4479 11.23C9.48466 11.2146 9.51803 11.192 9.54608 11.1637C9.57414 11.1354 9.59634 11.1018 9.61142 11.0649C9.61395 11.0591 9.61616 11.0533 9.61802 11.0473C9.85723 10.3536 10.3486 9.77528 10.9946 9.42727C11.6593 9.07704 12.4314 8.98957 13.1576 9.18223C13.1959 9.18645 13.2346 9.1771 13.2668 9.1558C13.299 9.1345 13.3227 9.1026 13.3338 9.06563C13.3449 9.02865 13.3428 8.98896 13.3277 8.95342C13.3126 8.91789 13.2855 8.88877 13.2512 8.87112L13.2495 8.87167Z" fill="white"/>
<path d="M16.6508 21.3977C16.6274 21.4173 16.6105 21.4437 16.6025 21.4732C16.5945 21.5027 16.5957 21.534 16.606 21.5628L16.9265 22.4738C16.9825 22.6325 17.0039 22.8014 16.989 22.969C16.9742 23.1367 16.9235 23.2992 16.8405 23.4456L16.3425 24.3187C16.3395 24.3251 16.3373 24.3319 16.3361 24.3388C16.3338 24.3444 16.332 24.3502 16.3304 24.356C16.3281 24.3646 16.327 24.3735 16.3271 24.3824C16.3263 24.3965 16.3281 24.4106 16.3322 24.4241C16.3343 24.4323 16.3376 24.4401 16.3419 24.4473L16.358 24.4662L16.3752 24.4864C16.3818 24.492 16.3892 24.4967 16.3971 24.5003C16.41 24.5072 16.4241 24.5112 16.4386 24.5121C16.447 24.5137 16.4556 24.514 16.4641 24.513L16.4794 24.5112C16.4875 24.5109 16.4955 24.5097 16.5033 24.5076L17.4448 24.1555C17.6025 24.0966 17.7711 24.0723 17.939 24.0845C18.1069 24.0966 18.2703 24.1448 18.4178 24.2259L19.2611 24.6875C19.288 24.7021 19.3187 24.7083 19.3491 24.7052C19.3796 24.7021 19.4084 24.6899 19.4318 24.6703C19.456 24.6495 19.473 24.6216 19.4802 24.5905C19.4875 24.5595 19.4848 24.5269 19.4724 24.4976L19.1328 23.7027C19.0614 23.5325 19.0308 23.348 19.0436 23.1639C19.0564 22.9797 19.1122 22.8012 19.2065 22.6425L19.7441 21.7447C19.7496 21.7346 19.7541 21.724 19.7575 21.713C19.7597 21.7058 19.7609 21.6983 19.7611 21.6908C19.7637 21.6722 19.7615 21.6532 19.7547 21.6357C19.7531 21.6299 19.7507 21.6244 19.7475 21.6194C19.745 21.6085 19.7405 21.5983 19.7341 21.5892C19.728 21.5814 19.7205 21.5748 19.712 21.5698C19.7075 21.5655 19.7022 21.562 19.6965 21.5594C19.6814 21.5514 19.6649 21.5463 19.6479 21.5446C19.6412 21.544 19.6345 21.5441 19.6279 21.5448C19.6141 21.5451 19.6005 21.5479 19.5878 21.5531L18.615 21.9397C18.4436 22.0078 18.2587 22.0347 18.075 22.0181C17.8914 22.0015 17.7142 21.942 17.5578 21.8444L16.8274 21.3822C16.8001 21.3656 16.7683 21.3582 16.7366 21.361C16.7048 21.3638 16.6747 21.3766 16.6508 21.3977Z" fill="#FBB858"/>
<path d="M22.0001 7.00103C21.9993 7.01526 22.0032 7.02935 22.0113 7.04118C22.0194 7.05302 22.0313 7.06195 22.045 7.06663L22.46 7.22273C22.5324 7.24985 22.5979 7.29189 22.6521 7.34599C22.7064 7.40009 22.7481 7.46499 22.7744 7.53626L22.9327 7.96196C22.9343 7.96489 22.9361 7.96773 22.938 7.97048L22.942 7.97704C22.9446 7.98041 22.9475 7.98349 22.9508 7.98622C22.9554 7.99067 22.9609 7.99423 22.9669 7.99672L22.9782 8H22.9896H23.0017L23.0131 7.99672C23.0191 7.99385 23.0247 7.99033 23.0299 7.98622L23.0372 7.9777C23.0388 7.97589 23.0402 7.97391 23.0413 7.97179C23.0437 7.96876 23.0457 7.96545 23.0473 7.96196L23.2055 7.53626C23.2316 7.46495 23.2731 7.39999 23.3273 7.34587C23.3815 7.29175 23.447 7.24974 23.5193 7.22273L23.9349 7.06663C23.9437 7.06637 23.9524 7.06442 23.9604 7.06088C23.9685 7.05735 23.9757 7.0523 23.9818 7.04602C23.9878 7.03975 23.9925 7.03237 23.9956 7.02432C23.9988 7.01626 24.0002 7.00768 24 6.99907C23.9997 6.99045 23.9977 6.98197 23.9941 6.97411C23.9905 6.96626 23.9853 6.95917 23.9789 6.95326C23.9725 6.94735 23.965 6.94274 23.9567 6.93968C23.9485 6.93662 23.9397 6.93518 23.9309 6.93544L23.5508 6.81869C23.4698 6.7934 23.3959 6.74992 23.3352 6.69172C23.2744 6.63352 23.2284 6.56222 23.2008 6.48351L23.0466 6.03618C23.0444 6.03145 23.042 6.02685 23.0393 6.0224C23.0374 6.01947 23.0352 6.01681 23.0326 6.01453C23.0268 6.00848 23.0197 6.00378 23.0118 6.00076H23.0037C22.9991 5.9998 22.9943 5.9998 22.9896 6.00076C22.9852 5.99975 22.9806 5.99975 22.9762 6.00076H22.9682C22.9608 6.0037 22.954 6.00792 22.9481 6.01322L22.942 6.02043C22.9384 6.02523 22.9354 6.03053 22.9333 6.03618L22.7785 6.48351C22.7512 6.56225 22.7053 6.6336 22.6446 6.69182C22.584 6.75004 22.5102 6.7935 22.4292 6.81869L22.049 6.93544C22.0345 6.93941 22.0218 6.94804 22.013 6.95994C22.0041 6.97184 21.9995 6.98631 22.0001 7.00103Z" fill="white"/>
<path d="M0.00013423 6.50334C-0.000383377 6.52441 0.00575519 6.54512 0.017731 6.56271C0.0297067 6.5803 0.0469501 6.59392 0.067138 6.60174L0.698561 6.8379C0.808064 6.87891 0.907223 6.94221 0.989353 7.02352C1.07148 7.10482 1.13467 7.20225 1.17467 7.30923L1.40917 7.94293C1.40917 7.94293 1.41526 7.9508 1.41729 7.95572C1.41932 7.95922 1.4217 7.96252 1.4244 7.96556C1.42791 7.97059 1.43199 7.97521 1.43658 7.97934C1.44387 7.9857 1.45208 7.991 1.46094 7.99508L1.4782 8H1.49546H1.51373L1.53099 7.99508C1.54028 7.99078 1.54883 7.98514 1.55637 7.97835L1.56855 7.96556C1.56889 7.96262 1.56889 7.95965 1.56855 7.9567C1.57195 7.95234 1.575 7.94774 1.57768 7.94293L1.81726 7.30431C1.85726 7.19733 1.92045 7.0999 2.00258 7.0186C2.08471 6.93729 2.18387 6.874 2.29337 6.83298L2.9319 6.59977C2.9522 6.59199 2.96957 6.57841 2.98172 6.56084C2.99387 6.54326 3.00021 6.52252 2.99992 6.50137C3.00082 6.47941 2.99411 6.4578 2.98087 6.43996C2.96762 6.42213 2.9486 6.40911 2.92683 6.40297L2.35123 6.22684C2.22844 6.18942 2.11648 6.12448 2.02441 6.0373C1.93235 5.95011 1.86277 5.84312 1.82132 5.725L1.58682 5.05391C1.58434 5.04646 1.58056 5.03947 1.57566 5.03325C1.57356 5.0287 1.57043 5.02467 1.56652 5.02144C1.55736 5.01235 1.54628 5.0053 1.53403 5.00077H1.52185C1.51513 4.99974 1.50827 4.99974 1.50155 5.00077H1.48023H1.46805C1.45696 5.00487 1.44691 5.01125 1.43861 5.01947C1.43502 5.02224 1.43194 5.02557 1.42947 5.02931C1.4234 5.03671 1.4186 5.04502 1.41526 5.05391L1.18076 5.725C1.13956 5.84309 1.07018 5.95008 0.978281 6.03728C0.886378 6.12448 0.77454 6.18943 0.651862 6.22684L0.0762708 6.40297C0.0535822 6.40862 0.0336089 6.4217 0.0197322 6.43999C0.0058558 6.45828 -0.00107002 6.48066 0.00013423 6.50334Z" fill="#FBB858"/>
<path d="M14 1C14 0.802218 13.9414 0.608886 13.8315 0.444437C13.7216 0.279988 13.5654 0.151808 13.3827 0.0761205C13.2 0.000432814 12.9989 -0.0193699 12.8049 0.0192153C12.6109 0.0578006 12.4327 0.153044 12.2929 0.292897C12.153 0.43275 12.0578 0.61093 12.0192 0.804911C11.9806 0.998892 12.0004 1.19996 12.0761 1.38269C12.1518 1.56542 12.28 1.72159 12.4444 1.83147C12.6089 1.94135 12.8022 2 13 2C13.2652 2 13.5196 1.89465 13.7071 1.70711C13.8946 1.51958 14 1.26522 14 1Z" fill="#F8F5FB"/>
</svg>
