<svg width="28" height="23" viewBox="0 0 28 23" fill="none" xmlns="http://www.w3.org/2000/svg">
<mask id="mask0_25_5877" style="mask-type:alpha" maskUnits="userSpaceOnUse" x="4" y="0" width="25" height="23">
<path d="M8.14549 2.64692C7.28074 3.34087 6.52596 4.1586 5.90617 5.07297C3.45335 8.70588 3.36408 13.7552 5.68767 17.4707C8.63556 22.1841 15.0695 23.934 20.3328 22.5281C23.9581 21.5591 26.7449 18.5216 27.6701 14.9578C29.2826 8.74286 24.8421 2.43735 18.8939 0.513032C15.2243 -0.674106 11.099 0.265249 8.14549 2.64692Z" fill="#C4C4C4"/>
</mask>
<g mask="url(#mask0_25_5877)">
<path d="M7.59424 2.31903C7.51544 2.38295 7.43751 2.4473 7.36044 2.51208C4.45865 4.96642 3.09089 8.30687 3.27404 12.0559C3.42017 15.0418 4.44826 18.3765 7.00713 20.1925C8.63858 21.3508 10.3843 22.6217 12.4061 23.0882C14.9715 23.6841 17.7174 23.7575 20.273 23.0728C23.2469 22.2748 25.1881 20.6082 26.7091 18.0065C27.4067 16.8128 28.0327 15.5495 28.2614 14.1879C28.4744 12.9221 28.3347 11.6209 28.0607 10.3667C26.463 3.04877 18.4591 -2.69196 10.9929 0.317078C9.76618 0.813933 8.6208 1.48862 7.59424 2.31903Z" fill="#602587"/>
<path d="M18.8931 2.12148C18.4927 2.74732 18.2957 3.55013 18.5599 4.24443C19.0307 5.4819 20.7468 5.97792 21.0322 7.27094C21.1614 7.84188 20.9612 8.43349 20.7216 8.96633C20.482 9.49917 20.1926 10.0268 20.1203 10.6068C20.0479 11.1868 20.2572 11.8533 20.7816 12.1123C21.2195 12.3287 21.7459 12.2105 22.2251 12.3061C22.5036 12.3609 22.763 12.4874 22.9777 12.673C23.1924 12.8585 23.3551 13.0968 23.4498 13.3644C23.5444 13.632 23.5677 13.9196 23.5174 14.1989C23.4671 14.4782 23.345 14.7396 23.1629 14.9574C22.8361 15.3449 22.3466 15.5658 21.9816 15.9216C21.4068 16.4816 21.2066 17.4226 21.5851 18.1305C21.7317 18.4063 21.9849 18.6536 22.2955 18.6782C22.8245 18.7195 23.2372 18.1247 23.7675 18.1434C24.257 18.1602 24.5651 18.6827 24.6807 19.1587C24.7963 19.6347 24.8331 20.1656 25.1651 20.526C25.6572 21.0614 26.5828 20.9264 27.1356 20.4543C27.6885 19.9822 27.9753 19.2769 28.2788 18.6181C28.5824 17.9593 28.9757 17.2792 29.6293 16.9608C29.9968 16.7813 30.4257 16.7296 30.7589 16.4932C31.1749 16.1987 31.3609 15.6749 31.4416 15.1724C31.7206 13.437 31.036 11.7074 30.3656 10.0824L28.9783 6.71938C28.6857 6.00893 28.3925 5.29848 28.1839 4.56284C27.9811 3.84722 27.8577 3.10448 27.5522 2.42633C26.7972 0.747084 25.0256 -0.0841424 23.2605 -0.0692876C22.6146 -0.0641207 21.8105 -0.19846 21.1937 0.0456759C20.3334 0.384108 19.3833 1.35678 18.8931 2.12148Z" fill="#F8F5FB"/>
<path d="M5.4689 18.05C6.27364 17.6509 7.132 17.2421 8.02716 17.3228C9.18972 17.4287 10.1223 18.3342 11.2358 18.6952C13.0914 19.2972 15.1362 18.3148 17.0486 18.7069C17.4019 18.7792 17.7661 18.9123 17.9864 19.1977C18.4895 19.8436 17.9864 20.8279 18.2667 21.5997C18.525 22.3147 19.3646 22.6247 19.8471 23.2143C20.3638 23.8428 20.4284 24.7386 20.2811 25.5395C20.2075 25.9315 20.0828 26.3248 19.8355 26.6374C19.1683 27.4803 17.8611 27.4583 16.858 27.0701C15.4753 26.5354 14.3308 25.48 12.9183 25.0189C10.7785 24.3181 8.40628 25.0945 6.20777 24.6101C5.27774 24.4041 4.41038 23.979 3.67792 23.37C1.10158 21.2199 3.28007 19.1338 5.4689 18.05Z" fill="#F8F5FB"/>
<path d="M7.59045 2.26902C6.68581 2.99499 5.8962 3.85043 5.24783 4.80699C2.68186 8.60748 2.58847 13.8897 5.01925 17.7766C8.10312 22.7075 14.8338 24.5381 20.34 23.0673C24.1325 22.0537 27.0478 18.876 28.0157 15.1478C29.7026 8.64617 25.0572 2.04979 18.8346 0.0366976C14.9958 -1.2052 10.6802 -0.222515 7.59045 2.26902Z" stroke="#5D4FA3" stroke-miterlimit="10"/>
</g>
<path d="M15.4445 6.69904C15.1376 6.3765 14.7216 6.19531 14.2878 6.19531C13.854 6.19531 13.438 6.3765 13.1311 6.69904L10.255 9.72498L2.62317 6.91049L0.798012 8.76218L6.84725 13.3107L4.20025 16.095L1.21535 15.8842L0 17.3033L4.3029 18.8844L6.0138 23.003L7.36846 21.4219L6.65721 18.3773L9.16551 15.7422L13.4831 22.1L15.2416 20.1782L12.5714 12.1538L15.4433 9.13303C15.7503 8.81042 15.9228 8.37275 15.9231 7.9163C15.9233 7.45985 15.7512 7.02199 15.4445 6.69904Z" fill="#FBB858"/>
</svg>
