<svg width="47" height="47" viewBox="0 0 47 47" fill="none" xmlns="http://www.w3.org/2000/svg">
<circle cx="23.5" cy="23.5" r="23.5" fill="#7D45A1"/>
<mask id="mask0_3841_17323" style="mask-type:alpha" maskUnits="userSpaceOnUse" x="12" y="12" width="25" height="23">
<path d="M16.1455 14.6469C15.2807 15.3409 14.526 16.1586 13.9062 17.073C11.4533 20.7059 11.3641 25.7552 13.6877 29.4707C16.6356 34.1841 23.0695 35.934 28.3328 34.5281C31.9581 33.5591 34.7449 30.5216 35.6701 26.9578C37.2826 20.7429 32.8421 14.4374 26.8939 12.513C23.2243 11.3259 19.099 12.2652 16.1455 14.6469Z" fill="#C4C4C4"/>
</mask>
<g mask="url(#mask0_3841_17323)">
<path d="M15.5942 14.319C15.5154 14.383 15.4375 14.4473 15.3604 14.5121C12.4587 16.9664 11.0909 20.3069 11.274 24.0559C11.4202 27.0418 12.4483 30.3765 15.0071 32.1925C16.6386 33.3508 18.3843 34.6217 20.4061 35.0882C22.9715 35.6841 25.7174 35.7575 28.273 35.0728C31.2469 34.2748 33.1881 32.6082 34.7091 30.0065C35.4067 28.8128 36.0327 27.5495 36.2614 26.1879C36.4744 24.9221 36.3347 23.6209 36.0607 22.3667C34.463 15.0488 26.4591 9.30804 18.9929 12.3171C17.7662 12.8139 16.6208 13.4886 15.5942 14.319Z" fill="#602587"/>
<path d="M26.8931 14.1215C26.4927 14.7473 26.2957 15.5501 26.5599 16.2444C27.0307 17.4819 28.7468 17.9779 29.0322 19.2709C29.1614 19.8419 28.9612 20.4335 28.7216 20.9663C28.482 21.4992 28.1926 22.0268 28.1203 22.6068C28.0479 23.1868 28.2572 23.8533 28.7816 24.1123C29.2195 24.3287 29.7459 24.2105 30.2251 24.3061C30.5036 24.3609 30.763 24.4874 30.9777 24.673C31.1924 24.8585 31.3551 25.0968 31.4498 25.3644C31.5444 25.632 31.5677 25.9196 31.5174 26.1989C31.4671 26.4782 31.345 26.7396 31.1629 26.9574C30.8361 27.3449 30.3466 27.5658 29.9816 27.9216C29.4068 28.4816 29.2066 29.4226 29.5851 30.1305C29.7317 30.4063 29.9849 30.6536 30.2955 30.6782C30.8245 30.7195 31.2372 30.1247 31.7675 30.1434C32.257 30.1602 32.5651 30.6827 32.6807 31.1587C32.7963 31.6347 32.8331 32.1656 33.1651 32.526C33.6572 33.0614 34.5828 32.9264 35.1356 32.4543C35.6885 31.9822 35.9753 31.2769 36.2788 30.6181C36.5824 29.9593 36.9757 29.2792 37.6293 28.9608C37.9968 28.7813 38.4257 28.7296 38.7589 28.4932C39.1749 28.1987 39.3609 27.6749 39.4416 27.1724C39.7206 25.437 39.036 23.7074 38.3656 22.0824L36.9783 18.7194C36.6857 18.0089 36.3925 17.2985 36.1839 16.5628C35.9811 15.8472 35.8577 15.1045 35.5522 14.4263C34.7972 12.7471 33.0256 11.9159 31.2605 11.9307C30.6146 11.9359 29.8105 11.8015 29.1937 12.0457C28.3334 12.3841 27.3833 13.3568 26.8931 14.1215Z" fill="#F8F5FB"/>
<path d="M13.4689 30.05C14.2736 29.6509 15.132 29.2421 16.0272 29.3228C17.1897 29.4287 18.1223 30.3342 19.2358 30.6952C21.0914 31.2972 23.1362 30.3148 25.0486 30.7069C25.4019 30.7792 25.7661 30.9123 25.9864 31.1977C26.4895 31.8436 25.9864 32.8279 26.2667 33.5997C26.525 34.3147 27.3646 34.6247 27.8471 35.2143C28.3638 35.8428 28.4284 36.7386 28.2811 37.5395C28.2075 37.9315 28.0828 38.3248 27.8355 38.6374C27.1683 39.4803 25.8611 39.4583 24.858 39.0701C23.4753 38.5354 22.3308 37.48 20.9183 37.0189C18.7785 36.3181 16.4063 37.0945 14.2078 36.6101C13.2777 36.4041 12.4104 35.979 11.6779 35.37C9.10158 33.2199 11.2801 31.1338 13.4689 30.05Z" fill="#F8F5FB"/>
<path d="M15.5904 14.269C14.6858 14.995 13.8962 15.8504 13.2478 16.807C10.6819 20.6075 10.5885 25.8897 13.0193 29.7766C16.1031 34.7075 22.8338 36.5381 28.34 35.0673C32.1325 34.0537 35.0478 30.876 36.0157 27.1478C37.7026 20.6462 33.0572 14.0498 26.8346 12.0367C22.9958 10.7948 18.6802 11.7775 15.5904 14.269Z" stroke="#5D4FA3" stroke-miterlimit="10"/>
</g>
<path d="M23.4445 18.699C23.1376 18.3765 22.7216 18.1953 22.2878 18.1953C21.854 18.1953 21.438 18.3765 21.1311 18.699L18.255 21.725L10.6232 18.9105L8.79801 20.7622L14.8472 25.3107L12.2002 28.095L9.21535 27.8842L8 29.3033L12.3029 30.8844L14.0138 35.003L15.3685 33.4219L14.6572 30.3773L17.1655 27.7422L21.4831 34.1L23.2416 32.1782L20.5714 24.1538L23.4433 21.133C23.7503 20.8104 23.9228 20.3728 23.9231 19.9163C23.9233 19.4598 23.7512 19.022 23.4445 18.699Z" fill="#FBB858"/>
</svg>
