<svg width="47" height="47" viewBox="0 0 47 47" fill="none" xmlns="http://www.w3.org/2000/svg">
<circle cx="23.5" cy="23.5" r="23.5" fill="#7D45A1"/>
<mask id="mask0_3841_17324" style="mask-type:alpha" maskUnits="userSpaceOnUse" x="11" y="16" width="23" height="20">
<path d="M33.7588 18.4435C31.2982 18.3058 28.8754 17.7771 26.5811 16.8773C26.0803 16.6808 25.5647 16.4628 25.0281 16.4955C24.5541 16.5239 24.1164 16.7456 23.6946 16.9626L19.9175 18.9059C19.3982 19.1729 18.8595 19.4452 18.2765 19.4789C17.7419 19.5094 17.219 19.3356 16.7118 19.1629C15.3726 18.7116 12.1911 18.1691 11.328 17.8779C10.5907 23.6652 11.2911 28.5656 11.5455 34.394C12.4086 34.6873 15.5901 35.2297 16.9293 35.6827C17.4365 35.8538 17.9595 36.0276 18.494 35.9986C19.077 35.9655 19.6157 35.6927 20.135 35.4257L23.9121 33.4834C24.3334 33.2659 24.7716 33.0447 25.2456 33.0157C25.7822 32.9831 26.2989 33.2011 26.7986 33.3976C29.0927 34.2977 31.5157 34.8262 33.9763 34.9633C33.6029 29.5457 34.3565 23.8147 33.7588 18.4435Z" fill="#5D4FA3"/>
</mask>
<g mask="url(#mask0_3841_17324)">
<path d="M33.7568 18.4435C31.2963 18.3058 28.8734 17.7771 26.5792 16.8773C26.0783 16.6808 25.5628 16.4628 25.0261 16.4955C24.5521 16.5239 24.1145 16.7456 23.6926 16.9626L19.9156 18.9059C19.3963 19.1729 18.8575 19.4452 18.2745 19.4789C17.74 19.5094 17.217 19.3356 16.7099 19.1629C15.3706 18.7116 12.1892 18.1691 11.326 17.8779C10.5887 23.6652 11.2891 28.5656 11.5435 34.394C12.4067 34.6873 15.5881 35.2297 16.9274 35.6827C17.4345 35.8538 17.9575 36.0276 18.492 35.9986C19.075 35.9655 19.6138 35.6927 20.1331 35.4257L23.9102 33.4834C24.3315 33.2659 24.7696 33.0447 25.2436 33.0157C25.7803 32.9831 26.2969 33.2011 26.7967 33.3976C29.0908 34.2977 31.5138 34.8262 33.9743 34.9633C33.6009 29.5457 34.3545 23.8147 33.7568 18.4435Z" fill="#602587"/>
<path d="M16.1164 16.6406C16.2217 18.9821 16.2965 21.4721 15.1158 23.4986C14.498 24.5613 13.5795 25.4108 12.7938 26.3567C11.2828 28.1817 10.2657 30.3641 9.83984 32.6948" fill="#602587"/>
<path d="M16.1164 16.6406C16.2217 18.9821 16.2965 21.4721 15.1158 23.4986C14.498 24.5613 13.5795 25.4108 12.7938 26.3567C11.2828 28.1817 10.2657 30.3641 9.83984 32.6948" stroke="#D0C5D7" stroke-miterlimit="10"/>
<path d="M13.4238 25.4688C14.8263 27.0008 17.3542 27.2409 18.4907 28.9794C19.2806 30.1906 19.1432 31.7537 19.1853 33.1999C19.218 34.3243 19.3839 35.4644 19.8831 36.4751C20.3824 37.4857 21.2524 38.3473 22.3373 38.6454" fill="#602587"/>
<path d="M13.4238 25.4688C14.8263 27.0008 17.3542 27.2409 18.4907 28.9794C19.2806 30.1906 19.1432 31.7537 19.1853 33.1999C19.218 34.3243 19.3839 35.4644 19.8831 36.4751C20.3824 37.4857 21.2524 38.3473 22.3373 38.6454" stroke="#D0C5D7" stroke-miterlimit="10"/>
<path d="M19.0703 31.8756C21.604 29.9844 24.9608 28.7595 27.9379 29.8249C29.214 30.282 30.3726 31.1415 31.7229 31.2579C33.276 31.3927 34.8443 30.5158 36.3532 30.9082" fill="#602587"/>
<path d="M19.0703 31.8756C21.604 29.9844 24.9608 28.7595 27.9379 29.8249C29.214 30.282 30.3726 31.1415 31.7229 31.2579C33.276 31.3927 34.8443 30.5158 36.3532 30.9082" stroke="#D0C5D7" stroke-miterlimit="10"/>
<path d="M33.1825 15.5625C30.6146 15.6404 28.1478 17.2267 27.0113 19.5308C26.4673 20.6367 26.2114 21.8722 25.5794 22.9276C24.8421 24.1557 23.6598 25.0395 22.7265 26.1254C21.7933 27.2113 21.2124 28.9777 21.7233 30.3148" fill="#602587"/>
<path d="M33.1825 15.5625C30.6146 15.6404 28.1478 17.2267 27.0113 19.5308C26.4673 20.6367 26.2114 21.8722 25.5794 22.9276C24.8421 24.1557 23.6598 25.0395 22.7265 26.1254C21.7933 27.2113 21.2124 28.9777 21.7233 30.3148" stroke="#D0C5D7" stroke-miterlimit="10"/>
<path d="M26.4844 22.1497C27.5124 21.9327 28.563 22.3793 29.4599 22.9276C30.3568 23.4758 31.2052 24.142 32.21 24.4454C33.1301 24.7203 34.1102 24.6665 35.0687 24.7118C36.0272 24.7571 37.0388 24.9293 37.764 25.5582" fill="#602587"/>
<path d="M26.4844 22.1497C27.5124 21.9327 28.563 22.3793 29.4599 22.9276C30.3568 23.4758 31.2052 24.142 32.21 24.4454C33.1301 24.7203 34.1102 24.6665 35.0687 24.7118C36.0272 24.7571 37.0388 24.9293 37.764 25.5582" stroke="#D0C5D7" stroke-miterlimit="10"/>
</g>
<path d="M30.6298 17.508C28.6509 22.1066 26.0168 24 26.0168 24C23.127 21.0678 21.8678 18.7973 21.3167 17.3955C20.3929 15.0343 21.5485 12.3565 24.0211 11.3771C24.6492 11.128 25.3279 10.9995 26.0141 11C26.0919 11 26.1691 11 26.2458 11.0049C29.6936 11.1491 31.9188 14.5125 30.6298 17.508Z" fill="#FBB858"/>
<path d="M25.2085 17.9374C25.8025 18.1382 26.4411 17.8276 26.9398 17.4093C27.2747 17.1276 27.5809 16.7869 27.7752 16.368C28.6571 14.4639 26.7736 12.3638 25.0826 13.1816C23.6146 13.8924 23.6232 17.4033 25.2085 17.9374Z" fill="white"/>
</svg>
