<svg width="16" height="16" viewBox="0 0 16 16" fill="none" xmlns="http://www.w3.org/2000/svg">
<g clip-path="url(#clip0_9676_22096)">
<path d="M11.666 3C10.366 3 8.96601 3.26667 7.99935 4C7.03268 3.26667 5.63268 3 4.33268 3C3.03268 3 1.63268 3.26667 0.666016 4V13.7667C0.666016 14.2 1.15268 14.0667 1.16602 14.0667C2.06602 13.6333 3.36602 13.3333 4.33268 13.3333C5.63268 13.3333 7.03268 13.6 7.99935 14.3333C8.89935 13.7667 10.5327 13.3333 11.666 13.3333C12.766 13.3333 13.8993 13.5333 14.8327 14.0333C15.106 14.1733 15.3327 13.9067 15.3327 13.7333V4C14.3393 3.25333 12.9127 3 11.666 3ZM13.9993 12.3333C13.266 12.1 12.466 12 11.666 12C10.5327 12 8.89935 12.4333 7.99935 13V5.33333C8.89935 4.76667 10.5327 4.33333 11.666 4.33333C12.466 4.33333 13.266 4.43333 13.9993 4.66667V12.3333Z" fill="#071D2F"/>
</g>
<defs>
<clipPath id="clip0_9676_22096">
<rect width="16" height="16" fill="white"/>
</clipPath>
</defs>
</svg>
