<svg width="36" height="36" viewBox="0 0 36 36" fill="none" xmlns="http://www.w3.org/2000/svg">
<circle cx="18" cy="18" r="18" fill="#C13584"/>
<path d="M18.0006 9.14906C20.8843 9.14906 21.2259 9.16008 22.3647 9.21204C23.4177 9.26005 23.9896 9.43599 24.3701 9.5839C24.8742 9.77981 25.234 10.0138 25.6119 10.3917C25.9899 10.7697 26.2239 11.1295 26.4198 11.6336C26.5677 12.0141 26.7437 12.586 26.7917 13.639C26.8436 14.7778 26.8546 15.1194 26.8546 18.0031C26.8546 20.8868 26.8436 21.2284 26.7917 22.3672C26.7437 23.4202 26.5677 23.992 26.4198 24.3726C26.2239 24.8767 25.9899 25.2365 25.612 25.6144C25.234 25.9923 24.8742 26.2264 24.3701 26.4223C23.9896 26.5702 23.4177 26.7461 22.3647 26.7941C21.2261 26.8461 20.8845 26.8571 18.0006 26.8571C15.1167 26.8571 14.7752 26.8461 13.6365 26.7941C12.5835 26.7461 12.0116 26.5702 11.6311 26.4223C11.1269 26.2264 10.7672 25.9923 10.3893 25.6144C10.0114 25.2365 9.77729 24.8767 9.58137 24.3726C9.43347 23.992 9.25753 23.4202 9.20951 22.3672C9.15755 21.2284 9.14653 20.8868 9.14653 18.0031C9.14653 15.1194 9.15755 14.7778 9.20951 13.639C9.25753 12.586 9.43347 12.0141 9.58137 11.6336C9.77729 11.1295 10.0113 10.7697 10.3893 10.3918C10.7672 10.0138 11.1269 9.77981 11.6311 9.5839C12.0116 9.43599 12.5835 9.26005 13.6365 9.21204C14.7753 9.16008 15.1169 9.14906 18.0006 9.14906ZM18.0006 7.20312C15.0675 7.20312 14.6997 7.21556 13.5478 7.26812C12.3982 7.32055 11.6131 7.50313 10.9262 7.77009C10.216 8.04609 9.6137 8.41537 9.01325 9.01578C8.41285 9.61622 8.04356 10.2185 7.7676 10.9287C7.5006 11.6157 7.31801 12.4007 7.26558 13.5503C7.21302 14.7022 7.20059 15.07 7.20059 18.0031C7.20059 20.9362 7.21302 21.304 7.26558 22.4559C7.31801 23.6054 7.5006 24.3905 7.7676 25.0775C8.04356 25.7877 8.41285 26.39 9.01325 26.9904C9.6137 27.5908 10.216 27.9601 10.9262 28.236C11.6131 28.503 12.3982 28.6856 13.5478 28.7381C14.6997 28.7906 15.0675 28.8031 18.0006 28.8031C20.9337 28.8031 21.3015 28.7906 22.4534 28.7381C23.6029 28.6856 24.388 28.503 25.075 28.236C25.7852 27.9601 26.3875 27.5908 26.9879 26.9904C27.5883 26.39 27.9576 25.7877 28.2336 25.0775C28.5006 24.3905 28.6832 23.6054 28.7356 22.4559C28.7882 21.304 28.8006 20.9362 28.8006 18.0031C28.8006 15.07 28.7882 14.7022 28.7356 13.5503C28.6832 12.4007 28.5006 11.6157 28.2336 10.9287C27.9576 10.2185 27.5883 9.61622 26.9879 9.01578C26.3875 8.41537 25.7852 8.04609 25.075 7.77009C24.388 7.50313 23.6029 7.32055 22.4534 7.26812C21.3015 7.21556 20.9337 7.20312 18.0006 7.20312Z" fill="white"/>
<path d="M18.0049 12.4609C14.9419 12.4609 12.4589 14.9439 12.4589 18.0068C12.4589 21.0698 14.9419 23.5528 18.0049 23.5528C21.0678 23.5528 23.5508 21.0698 23.5508 18.0068C23.5508 14.9439 21.0678 12.4609 18.0049 12.4609ZM18.0049 21.6069C16.0166 21.6069 14.4049 19.9951 14.4049 18.0068C14.4049 16.0186 16.0166 14.4069 18.0049 14.4069C19.9931 14.4069 21.6049 16.0186 21.6049 18.0068C21.6049 19.9951 19.9931 21.6069 18.0049 21.6069Z" fill="white"/>
<path d="M25.0658 12.2413C25.0658 12.9571 24.4855 13.5373 23.7697 13.5373C23.054 13.5373 22.4738 12.9571 22.4738 12.2413C22.4738 11.5256 23.054 10.9453 23.7697 10.9453C24.4855 10.9453 25.0658 11.5256 25.0658 12.2413Z" fill="white"/>
</svg>
