<svg width="46" height="40" viewBox="0 0 46 40" fill="none" xmlns="http://www.w3.org/2000/svg">
<path d="M6.97461 37.9993V11.8203H38.3812V37.9993H6.97461Z" stroke="#7D45A1" stroke-width="4" stroke-miterlimit="10"/>
<path d="M9.94531 0L9.07038 8.06124H0L1.45854 0H9.94531Z" fill="#7D45A1"/>
<path d="M18.1426 8.06124L18.435 0H9.94818L9.07227 8.06124H18.1426Z" fill="#D0C5D7"/>
<path d="M27.2149 8.06124L26.9236 0H18.4368L18.1445 8.06124H27.2149Z" fill="#7D45A1"/>
<path d="M36.2846 8.06124L35.4076 0H26.9219L27.2132 8.06124H36.2846Z" fill="#D0C5D7"/>
<path d="M45.3575 8.06124H36.2851L35.4102 0H43.8969L45.3575 8.06124Z" fill="#7D45A1"/>
<path d="M0 8.0625V11.8167C0.000263649 13.0195 0.478246 14.1729 1.32882 15.0233C2.1794 15.8737 3.33292 16.3514 4.53569 16.3514C5.73846 16.3514 6.89198 15.8737 7.74255 15.0233C8.59313 14.1729 9.07111 13.0195 9.07138 11.8167V8.0625H0Z" fill="#7D45A1"/>
<path d="M9.07227 8.0625V11.8167C9.07227 13.0194 9.55003 14.1728 10.4004 15.0232C11.2509 15.8737 12.4043 16.3514 13.607 16.3514C14.203 16.3522 14.7933 16.2355 15.3441 16.0079C15.895 15.7804 16.3956 15.4465 16.8173 15.0253C17.239 14.6042 17.5736 14.104 17.8019 13.5535C18.0301 13.0029 18.1476 12.4127 18.1476 11.8167V8.0625H9.07227Z" fill="#D0C5D7"/>
<path d="M18.1504 8.0625V11.8167C18.1504 12.4123 18.2677 13.0021 18.4957 13.5523C18.7236 14.1025 19.0577 14.6025 19.4789 15.0236C19.9001 15.4447 20.4001 15.7787 20.9504 16.0065C21.5007 16.2344 22.0905 16.3515 22.6861 16.3514C23.8888 16.3514 25.0422 15.8737 25.8926 15.0232C26.743 14.1728 27.2208 13.0194 27.2208 11.8167V8.0625H18.1504Z" fill="#7D45A1"/>
<path d="M27.2148 8.0625V11.8167C27.2151 13.0195 27.6931 14.1729 28.5437 15.0233C29.3942 15.8737 30.5478 16.3514 31.7505 16.3514C32.9533 16.3514 34.1068 15.8737 34.9574 15.0233C35.808 14.1729 36.286 13.0195 36.2862 11.8167V8.0625H27.2148Z" fill="#D0C5D7"/>
<path d="M36.2852 8.0625V11.8167C36.2852 13.0189 36.7625 14.1718 37.6123 15.0222C38.4621 15.8725 39.6147 16.3506 40.8169 16.3514C41.4125 16.3515 42.0022 16.2344 42.5525 16.0065C43.1028 15.7787 43.6028 15.4447 44.024 15.0236C44.4452 14.6025 44.7793 14.1025 45.0073 13.5523C45.2352 13.0021 45.3526 12.4123 45.3526 11.8167V8.0625H36.2852Z" fill="#7D45A1"/>
<g style="mix-blend-mode:overlay" opacity="0.25">
<path d="M45.3529 8.06124H0L1.45755 0H43.8924L45.3529 8.06124Z" fill="white"/>
</g>
<path d="M40.3812 23.5781H4.97461V40.0009H40.3812V23.5781Z" fill="#7D45A1"/>
<ellipse cx="22.929" cy="31.4944" rx="12.8509" ry="2.26781" fill="#FBB858"/>
</svg>
