<svg width="176" height="39" viewBox="0 0 176 39" fill="none" xmlns="http://www.w3.org/2000/svg">
<rect width="38.087" height="38.3966" rx="3.40615" fill="#602587"/>
<path fill-rule="evenodd" clip-rule="evenodd" d="M12.0643 8.25267C11.67 7.62008 11.5081 7.12731 10.6234 6.70898C7.71155 5.33227 4.54347 8.78718 7.58592 12.3402L12.0642 16.6385L14.383 14.4936C14.6343 14.2469 14.8931 14.0567 15.1595 13.8067L16.258 12.6826C16.3703 12.552 16.4329 12.4735 16.5745 12.3034C18.3625 10.1552 18.1691 7.4513 15.8794 6.59654C15.0835 6.29936 14.1639 6.37403 13.4576 6.73195C13.1537 6.88591 12.8043 7.15322 12.6273 7.36227C12.3646 7.67268 12.2788 7.90843 12.0642 8.25289L12.0643 8.25267Z" fill="#FBB858"/>
<path d="M32.3742 22.9029C32.3742 22.199 31.8029 21.623 31.1047 21.623L7.61771 21.623C6.91945 21.623 6.34814 22.199 6.34814 22.9029C6.34814 23.6069 6.91945 24.1828 7.61771 24.1828H31.1047C31.8029 24.1828 32.3742 23.6069 32.3742 22.9029Z" fill="white"/>
<path d="M26.0264 29.6168C26.0264 28.9129 25.4551 28.3369 24.7568 28.3369L7.61771 28.3369C6.91945 28.3369 6.34814 28.9129 6.34814 29.6168C6.34814 30.3207 6.91945 30.8967 7.61771 30.8967H24.7568C25.4551 30.8967 26.0264 30.3207 26.0264 29.6168Z" fill="white"/>
<path d="M45.2385 28.6982L51.8849 10.0883H56.245L62.8914 28.6982H59.0896L54.065 13.8635H54.0384L48.9871 28.6982H45.2385ZM48.2427 24.285L49.1998 21.4935H58.6643L59.5948 24.285H48.2427ZM64.5171 28.6982V9.63633H68.0795V17.5323H68.1061C68.5492 16.8056 69.143 16.2384 69.8874 15.8308C70.6318 15.4054 71.4914 15.1927 72.4662 15.1927C73.565 15.1927 74.4955 15.432 75.2577 15.9105C76.0198 16.3714 76.5958 17.0537 76.9857 17.9576C77.3934 18.8616 77.5972 19.9781 77.5972 21.3074V28.6982H74.0347V21.6265C74.0347 20.5276 73.8132 19.6857 73.3701 19.1008C72.927 18.5159 72.2269 18.2235 71.2698 18.2235C70.6672 18.2235 70.1178 18.3741 69.6215 18.6755C69.143 18.959 68.7708 19.3755 68.5049 19.925C68.2391 20.4567 68.1061 21.1125 68.1061 21.8923V28.6982H64.5171ZM84.6004 29.0173C83.5016 29.0173 82.5888 28.84 81.8621 28.4856C81.1354 28.1311 80.5949 27.6525 80.2404 27.0499C79.9036 26.4473 79.7353 25.7827 79.7353 25.056C79.7353 24.2407 79.9391 23.5318 80.3467 22.9292C80.7721 22.3088 81.4102 21.8214 82.2609 21.4669C83.1116 21.1125 84.1839 20.9352 85.4778 20.9352H88.7744C88.7744 20.2972 88.6858 19.7743 88.5085 19.3667C88.3313 18.9413 88.0477 18.6223 87.6578 18.4096C87.2856 18.1969 86.8071 18.0906 86.2222 18.0906C85.5309 18.0906 84.9372 18.2501 84.4409 18.5691C83.9447 18.8704 83.6434 19.3312 83.537 19.9516H80.0543C80.1606 18.9768 80.4797 18.1349 81.0114 17.4259C81.5608 16.717 82.2875 16.1675 83.1914 15.7776C84.0953 15.3877 85.1056 15.1927 86.2222 15.1927C87.4806 15.1927 88.5706 15.4054 89.4922 15.8308C90.4138 16.2384 91.1228 16.8499 91.6191 17.6652C92.1153 18.4628 92.3635 19.4376 92.3635 20.5896V28.6982H89.3593L88.9605 26.6511C88.7478 27.0056 88.4997 27.3335 88.2161 27.6348C87.9502 27.9184 87.6312 28.1665 87.259 28.3792C86.9045 28.5742 86.5057 28.7248 86.0627 28.8312C85.6196 28.9552 85.1322 29.0173 84.6004 29.0173ZM85.5044 26.2524C85.9829 26.2524 86.4083 26.1726 86.7805 26.0131C87.1527 25.8359 87.4628 25.6054 87.711 25.3219C87.9768 25.0383 88.1806 24.7104 88.3224 24.3382C88.4819 23.966 88.5883 23.5672 88.6415 23.1418H85.8766C85.3271 23.1418 84.8752 23.2127 84.5207 23.3545C84.1839 23.4786 83.9269 23.6647 83.7497 23.9128C83.5902 24.1432 83.5104 24.418 83.5104 24.737C83.5104 25.056 83.5902 25.3307 83.7497 25.5611C83.9269 25.7915 84.1662 25.9688 84.4675 26.0928C84.7688 26.1992 85.1144 26.2524 85.5044 26.2524ZM98.0389 28.6982L93.3066 15.5118H97.0818L100.299 25.4814H100.325L103.569 15.5118H107.291L102.558 28.6982H98.0389ZM112.563 29.0173C111.464 29.0173 110.551 28.84 109.825 28.4856C109.098 28.1311 108.558 27.6525 108.203 27.0499C107.866 26.4473 107.698 25.7827 107.698 25.056C107.698 24.2407 107.902 23.5318 108.309 22.9292C108.735 22.3088 109.373 21.8214 110.224 21.4669C111.074 21.1125 112.147 20.9352 113.44 20.9352H116.737C116.737 20.2972 116.648 19.7743 116.471 19.3667C116.294 18.9413 116.01 18.6223 115.62 18.4096C115.248 18.1969 114.77 18.0906 114.185 18.0906C113.494 18.0906 112.9 18.2501 112.404 18.5691C111.907 18.8704 111.606 19.3312 111.5 19.9516H108.017C108.123 18.9768 108.442 18.1349 108.974 17.4259C109.524 16.717 110.25 16.1675 111.154 15.7776C112.058 15.3877 113.068 15.1927 114.185 15.1927C115.443 15.1927 116.533 15.4054 117.455 15.8308C118.377 16.2384 119.085 16.8499 119.582 17.6652C120.078 18.4628 120.326 19.4376 120.326 20.5896V28.6982H117.322L116.923 26.6511C116.711 27.0056 116.462 27.3335 116.179 27.6348C115.913 27.9184 115.594 28.1665 115.222 28.3792C114.867 28.5742 114.468 28.7248 114.025 28.8312C113.582 28.9552 113.095 29.0173 112.563 29.0173ZM113.467 26.2524C113.946 26.2524 114.371 26.1726 114.743 26.0131C115.115 25.8359 115.426 25.6054 115.674 25.3219C115.94 25.0383 116.143 24.7104 116.285 24.3382C116.445 23.966 116.551 23.5672 116.604 23.1418H113.839C113.29 23.1418 112.838 23.2127 112.483 23.3545C112.147 23.4786 111.89 23.6647 111.712 23.9128C111.553 24.1432 111.473 24.418 111.473 24.737C111.473 25.056 111.553 25.3307 111.712 25.5611C111.89 25.7915 112.129 25.9688 112.43 26.0928C112.732 26.1992 113.077 26.2524 113.467 26.2524Z" fill="black"/>
<path d="M122.883 34.4673V15.5118H126.047L126.392 17.4259H126.419C126.72 17.0183 127.066 16.6461 127.456 16.3093C127.863 15.9549 128.342 15.6801 128.891 15.4852C129.458 15.2902 130.105 15.1927 130.832 15.1927C132.073 15.1927 133.172 15.494 134.129 16.0966C135.103 16.6993 135.866 17.5234 136.415 18.5691C136.982 19.5971 137.266 20.7846 137.266 22.1316C137.266 23.4431 136.982 24.6218 136.415 25.6675C135.866 26.7132 135.103 27.5373 134.129 28.1399C133.172 28.7248 132.064 29.0173 130.805 29.0173C129.831 29.0173 128.971 28.84 128.227 28.4856C127.5 28.1134 126.915 27.6082 126.472 26.9702V34.4673H122.883ZM129.981 25.9333C130.69 25.9333 131.319 25.7738 131.869 25.4548C132.418 25.118 132.844 24.6661 133.145 24.0989C133.464 23.514 133.624 22.8583 133.624 22.1316C133.624 21.3872 133.464 20.7314 133.145 20.1642C132.844 19.5794 132.418 19.1274 131.869 18.8084C131.319 18.4716 130.69 18.3033 129.981 18.3033C129.272 18.3033 128.643 18.4716 128.094 18.8084C127.562 19.1274 127.137 19.5705 126.818 20.1377C126.516 20.7048 126.366 21.3606 126.366 22.105C126.366 22.8494 126.516 23.514 126.818 24.0989C127.137 24.6661 127.562 25.118 128.094 25.4548C128.643 25.7738 129.272 25.9333 129.981 25.9333ZM139.59 28.6982V9.63633H143.179V28.6982H139.59ZM150.379 29.0173C149.28 29.0173 148.368 28.84 147.641 28.4856C146.914 28.1311 146.374 27.6525 146.019 27.0499C145.682 26.4473 145.514 25.7827 145.514 25.056C145.514 24.2407 145.718 23.5318 146.125 22.9292C146.551 22.3088 147.189 21.8214 148.04 21.4669C148.89 21.1125 149.963 20.9352 151.256 20.9352H154.553C154.553 20.2972 154.464 19.7743 154.287 19.3667C154.11 18.9413 153.826 18.6223 153.436 18.4096C153.064 18.1969 152.586 18.0906 152.001 18.0906C151.31 18.0906 150.716 18.2501 150.22 18.5691C149.723 18.8704 149.422 19.3312 149.316 19.9516H145.833C145.939 18.9768 146.258 18.1349 146.79 17.4259C147.34 16.717 148.066 16.1675 148.97 15.7776C149.874 15.3877 150.884 15.1927 152.001 15.1927C153.259 15.1927 154.349 15.4054 155.271 15.8308C156.193 16.2384 156.901 16.8499 157.398 17.6652C157.894 18.4628 158.142 19.4376 158.142 20.5896V28.6982H155.138L154.739 26.6511C154.527 27.0056 154.278 27.3335 153.995 27.6348C153.729 27.9184 153.41 28.1665 153.038 28.3792C152.683 28.5742 152.284 28.7248 151.841 28.8312C151.398 28.9552 150.911 29.0173 150.379 29.0173ZM151.283 26.2524C151.762 26.2524 152.187 26.1726 152.559 26.0131C152.931 25.8359 153.242 25.6054 153.49 25.3219C153.756 25.0383 153.959 24.7104 154.101 24.3382C154.261 23.966 154.367 23.5672 154.42 23.1418H151.655C151.106 23.1418 150.654 23.2127 150.299 23.3545C149.963 23.4786 149.706 23.6647 149.528 23.9128C149.369 24.1432 149.289 24.418 149.289 24.737C149.289 25.056 149.369 25.3307 149.528 25.5611C149.706 25.7915 149.945 25.9688 150.246 26.0928C150.548 26.1992 150.893 26.2524 151.283 26.2524ZM160.672 28.6982V15.5118H163.809L164.102 17.7184C164.527 16.9562 165.112 16.3448 165.857 15.884C166.619 15.4231 167.531 15.1927 168.595 15.1927C169.694 15.1927 170.624 15.432 171.386 15.9105C172.148 16.3714 172.733 17.0537 173.141 17.9576C173.549 18.8616 173.752 19.9781 173.752 21.3074V28.6982H170.163V21.6265C170.163 20.5276 169.942 19.6857 169.499 19.1008C169.056 18.5159 168.356 18.2235 167.399 18.2235C166.796 18.2235 166.255 18.3741 165.777 18.6755C165.298 18.959 164.926 19.3755 164.66 19.925C164.394 20.4567 164.261 21.1125 164.261 21.8923V28.6982H160.672Z" fill="#602587"/>
</svg>
