<svg width="127" height="104" viewBox="0 0 127 104" fill="none" xmlns="http://www.w3.org/2000/svg">
<path d="M101.646 18.853C101.646 18.853 102.224 20.9234 104.297 21.6598L119.238 9.63839L122.578 14.5811L127.001 0.53125L111.593 2.71696L116.336 6.77914L101.646 18.853Z" fill="#071D2F"/>
<path d="M113.643 25.6754C110.036 7.53042 93.0348 3.82853 80.1325 9.03512C71.4679 12.5418 64.6571 20.0575 64.9537 29.937C64.6754 20.789 58.4658 13.997 50.5417 10.6492C48.5091 9.79818 46.3865 9.17642 44.2139 8.79561C30.5606 6.30947 15.2847 13.3462 15.7363 34.274C16.1171 52.1613 27.83 65.5422 39.8921 74.6251C40.4488 75.0182 40.9765 75.4061 41.4911 75.7809C54.0942 84.856 66.6105 89.2764 66.6105 89.2764C66.6105 89.2764 78.0163 84.515 89.6767 75.3931C102.183 65.6255 114.99 50.8518 114.3 31.5406C114.271 30.5748 114.195 29.6402 114.098 28.7472L113.643 25.6754Z" fill="#7D45A1"/>
<path d="M72.5106 31.8573C63.4656 21.6742 51.329 25.5728 45.1143 33.6246C40.9328 39.0332 39.4379 46.3053 43.3084 52.4625C39.7228 46.7628 33.2625 44.7381 27.0033 45.5282C25.4031 45.7343 23.8313 46.1188 22.3175 46.6744C12.7603 50.1155 5.71975 60.1894 13.8082 73.3067C20.7207 84.5112 33.1161 88.6931 44.1395 90.0212C44.636 90.0653 45.1143 90.1173 45.5821 90.1641C52.5514 90.829 59.8569 90.3547 66.7685 89.243C70.5934 83.8789 73.4732 78.3227 75.8976 72.2048C80.1653 61.4109 82.7526 47.3293 75.1136 35.3348C74.7346 34.7318 74.3296 34.1704 73.9454 33.6376L72.5106 31.8573Z" fill="#FBB858"/>
<path d="M23.5313 71.0987C24.7792 70.8552 26.07 70.9355 27.2768 71.3315C29.6579 72.084 31.6774 73.6668 32.9556 75.7821C33.6171 76.8498 33.9876 78.0673 34.0311 79.3171L33.8698 79.4124L33.3965 78.7191L32.8937 78.047L32.3721 77.3935L31.8343 76.7611C30.3111 75.1205 28.5321 73.7289 26.5643 72.6386L25.8168 72.2603L25.0505 71.9057L24.2734 71.575L23.4668 71.2786L23.5313 71.0987Z" fill="#071D2F"/>
<path d="M17.7429 83.1332C15.8752 82.3412 13.0737 82.3412 10.5685 83.1328C7.38433 83.7848 0 93.0426 0 93.0426C0 93.0426 4.26575 95.3897 10.5974 93.0113L17.7429 83.1332Z" fill="#D0C5D7"/>
<path d="M20.6055 85.625C21.1099 87.6859 21.2531 89.8107 21.0294 91.9151C20.6193 95.1289 11.4475 103.232 11.4475 103.232C11.4475 103.232 8.59298 99.1935 10.5474 92.7166L20.6055 85.625Z" fill="#D0C5D7"/>
<path d="M15.3335 91.6379L31.5641 75.2666C31.5641 75.2666 30.1689 74.1226 28.5193 72.6797L12.2276 87.9703C12.2276 87.9703 9.08333 90.6885 11.1235 92.5513C12.9953 94.2656 15.3335 91.6379 15.3335 91.6379Z" fill="#071D2F"/>
</svg>
