<svg width="45" height="47" viewBox="0 0 45 47" fill="none" xmlns="http://www.w3.org/2000/svg">
<path d="M1.20747e-07 17.4158L22.5065 0L45 17.4158V35.5212C45 37.353 44.2724 39.1098 42.9772 40.4052C41.6821 41.7006 39.9254 42.4285 38.0936 42.4288H6.90639C5.99932 42.4288 5.10114 42.2502 4.26313 41.903C3.42512 41.5558 2.66371 41.047 2.02238 40.4055C1.38104 39.7641 0.87235 39.0026 0.525347 38.1645C0.178345 37.3264 -0.000169488 36.4282 1.20747e-07 35.5212V17.4158Z" fill="#7D45A1"/>
<path d="M37.3717 4.67188H7.39189C5.95547 4.67188 4.79102 5.83632 4.79102 7.27275V37.8375C4.79102 39.2739 5.95547 40.4384 7.39189 40.4384H37.3717C38.8081 40.4384 39.9725 39.2739 39.9725 37.8375V7.27275C39.9725 5.83632 38.8081 4.67188 37.3717 4.67188Z" fill="#D0C5D7"/>
<path d="M0 17.4141V46.6474H45V17.4141L22.5 33.3964L0 17.4141Z" fill="#7D45A1"/>
<path d="M0.302734 46.4358L22.3604 25.5391L44.9984 46.4358H0.302734Z" fill="#602587"/>
<path d="M6.40039 39.4676L22.2255 25.3438L38.0357 39.4676" stroke="#FBB858" stroke-width="5" stroke-miterlimit="10" stroke-linecap="round"/>
</svg>
