<svg width="40" height="40" viewBox="0 0 40 40" fill="none" xmlns="http://www.w3.org/2000/svg">
<path d="M20 40C31.0457 40 40 31.0457 40 20C40 8.95431 31.0457 0 20 0C8.9543 0 0 8.95431 0 20C0 31.0457 8.9543 40 20 40Z" fill="#7D45A1"/>
<path d="M27.6913 25.2344C27.1493 26.8482 26.1153 28.2509 24.7352 29.2446C23.3551 30.2383 21.6985 30.7728 19.9989 30.7728C18.2994 30.7728 16.6428 30.2383 15.2627 29.2446C13.8826 28.2509 12.8486 26.8482 12.3066 25.2344" stroke="#FBB858" stroke-width="3" stroke-miterlimit="10" stroke-linecap="round"/>
<path d="M28.3092 17.845C29.6687 17.845 30.7707 16.7429 30.7707 15.3834C30.7707 14.0239 29.6687 12.9219 28.3092 12.9219C26.9497 12.9219 25.8477 14.0239 25.8477 15.3834C25.8477 16.7429 26.9497 17.845 28.3092 17.845Z" fill="#FBB858"/>
<path d="M12.3092 17.845C13.6687 17.845 14.7707 16.7429 14.7707 15.3834C14.7707 14.0239 13.6687 12.9219 12.3092 12.9219C10.9497 12.9219 9.84766 14.0239 9.84766 15.3834C9.84766 16.7429 10.9497 17.845 12.3092 17.845Z" fill="#FBB858"/>
</svg>
