<svg width="22" height="20" viewBox="0 0 22 20" fill="none" xmlns="http://www.w3.org/2000/svg">
<path d="M8.12877 13.0938C3.83465 13.0938 0.166992 13.7571 0.166992 16.4084C0.166992 19.0617 3.81133 19.7479 8.12877 19.7479C12.4229 19.7479 16.0905 19.0845 16.0905 16.4333C16.0905 13.7799 12.4462 13.0938 8.12877 13.0938Z" fill="#7D45A1"/>
<path opacity="0.4" d="M8.12863 10.5686C11.0532 10.5686 13.3969 8.27335 13.3969 5.40928C13.3969 2.5452 11.0532 0.25 8.12863 0.25C5.20511 0.25 2.86035 2.5452 2.86035 5.40928C2.86035 8.27335 5.20511 10.5686 8.12863 10.5686Z" fill="#7D45A1"/>
<path opacity="0.4" d="M15.5213 5.50047C15.5213 6.95898 15.074 8.31991 14.2896 9.45038C14.208 9.56665 14.2801 9.7234 14.4221 9.74831C14.6193 9.78049 14.8217 9.80022 15.0284 9.80437C17.0849 9.85731 18.9303 8.56075 19.4402 6.60811C20.196 3.71081 17.9785 1.10938 15.1535 1.10938C14.8472 1.10938 14.5535 1.14052 14.2673 1.19761C14.2281 1.20592 14.1857 1.2246 14.1645 1.25782C14.137 1.30038 14.1571 1.3554 14.1847 1.39173C15.0337 2.5575 15.5213 3.97656 15.5213 5.50047Z" fill="#7D45A1"/>
<path d="M21.594 13.4301C21.2177 12.6443 20.3092 12.1055 18.927 11.8408C18.2751 11.6851 16.5091 11.464 14.8671 11.4952C14.8427 11.4983 14.829 11.5149 14.8268 11.5253C14.8237 11.5419 14.8311 11.5668 14.8629 11.5844C15.6219 11.9519 18.5549 13.5506 18.186 16.9223C18.1701 17.0697 18.2899 17.1942 18.4394 17.1735C19.1613 17.0728 21.0184 16.6814 21.594 15.4648C21.9131 14.8212 21.9131 14.0738 21.594 13.4301Z" fill="#7D45A1"/>
</svg>
