<svg width="27" height="30" viewBox="0 0 27 30" fill="none" xmlns="http://www.w3.org/2000/svg">
<path d="M12.2656 2.75876L0.981018 16.6444C0.439217 17.3111 0.540457 18.2908 1.20714 18.8326L12.5463 28.0476C13.2129 28.5894 14.1926 28.4882 14.7344 27.8215L26.019 13.9358C26.5608 13.2692 26.4595 12.2895 25.7929 11.7477L14.4537 2.53264C13.7871 1.99084 12.8074 2.09208 12.2656 2.75876Z" fill="#602587"/>
<path d="M24.9493 11.8412L14.5295 3.37319C14.2069 3.11099 13.7328 3.15998 13.4706 3.48261L2.71012 16.7233C2.44792 17.046 2.49692 17.5201 2.81955 17.7823L13.2394 26.2502C13.562 26.5124 14.0361 26.4634 14.2983 26.1408L25.0588 12.9001C25.321 12.5775 25.272 12.1034 24.9493 11.8412Z" fill="white"/>
<path d="M13.3301 3.3391C13.7665 2.56008 14.3374 1.86444 15.0163 1.28436C15.221 1.10912 15.4872 0.935683 15.7425 1.02361C15.8991 1.0778 16.0087 1.22113 16.081 1.36988C16.3628 1.9498 16.2014 2.66763 15.8323 3.19698C15.4631 3.72632 14.8814 4.88316 14.387 4.46583C13.6679 3.8588 15.495 2.90671 16.3628 2.54237C16.7012 2.40025 17.1065 2.30812 17.401 2.64776C17.5847 2.86034 17.6359 3.15422 17.5943 3.43063C17.4809 4.14404 17.0916 4.78428 16.5103 5.21317C16.4842 5.2318 16.4531 5.24227 16.421 5.24324C16.3889 5.24422 16.3572 5.23567 16.3299 5.21866C16.3027 5.20165 16.2811 5.17695 16.2679 5.14768C16.2546 5.11841 16.2504 5.08588 16.2556 5.05419C16.3291 4.69286 16.588 4.36526 16.903 4.1581C17.3125 3.88831 17.8063 3.78172 18.2844 3.67995C18.4181 3.65164 18.5609 3.62394 18.6885 3.67332C18.8355 3.73053 18.9294 3.87627 18.9896 4.0208C19.416 4.98011 18.9553 6.23752 18.0104 6.6952C17.8635 6.41036 18.1128 6.08697 18.3525 5.87379C18.7265 5.54137 19.1402 5.22883 19.6647 5.19149C19.8263 5.17856 19.9886 5.20373 20.1386 5.26496C20.7667 5.52873 20.8155 6.23451 20.7764 6.83612C20.7469 7.295 20.6861 7.77195 20.3247 8.11461C20.2439 8.193 20.1464 8.25213 20.0395 8.28758C19.9326 8.32303 19.8191 8.3339 19.7075 8.31936C19.6626 8.31454 19.6204 8.29556 19.587 8.26516C19.5081 8.18567 19.5449 8.05198 19.5942 7.95141C19.9989 7.12518 20.954 6.60487 21.8682 6.71267C22.0023 6.71977 22.1314 6.76581 22.2397 6.84515C22.329 6.9307 22.3928 7.0393 22.424 7.1589C22.7426 8.1387 22.1049 9.31963 21.1118 9.59062C20.9805 9.08717 21.4581 8.64214 21.9073 8.37958C22.4565 8.0592 23.1768 7.81712 23.6995 8.17904C24.2493 8.56024 24.2415 9.38346 24.0404 10.0194C23.8681 10.5614 23.5261 11.1275 22.9684 11.2353C22.8697 10.6933 23.5038 10.2356 23.8115 9.93629C24.0405 9.70736 24.3246 9.54142 24.6365 9.45452C25.7265 9.16968 26.1463 10.1489 25.9614 10.8956C25.8361 11.4117 25.4917 11.8423 25.1568 12.2542" stroke="#FBB858" stroke-width="0.8" stroke-miterlimit="10" stroke-linecap="round"/>
<path d="M13.4316 6.61719L21.9993 13.5793" stroke="#E1E2E2" stroke-width="0.8" stroke-miterlimit="10" stroke-linecap="round"/>
<path d="M11.9482 8.44531L20.5159 15.408" stroke="#E1E2E2" stroke-width="0.8" stroke-miterlimit="10" stroke-linecap="round"/>
<path d="M10.4531 10.2812L19.0201 17.2434" stroke="#E1E2E2" stroke-width="0.8" stroke-miterlimit="10" stroke-linecap="round"/>
<path d="M8.96973 12.1094L17.5373 19.0715" stroke="#E1E2E2" stroke-width="0.8" stroke-miterlimit="10" stroke-linecap="round"/>
<path d="M7.47852 13.9375L16.0461 20.8996" stroke="#E1E2E2" stroke-width="0.8" stroke-miterlimit="10" stroke-linecap="round"/>
<path d="M5.99512 15.7656L14.5627 22.7284" stroke="#E1E2E2" stroke-width="0.8" stroke-miterlimit="10" stroke-linecap="round"/>
<path d="M13.6641 24.0076C13.6683 23.7709 13.5437 23.5493 13.3943 23.3656C13.2191 23.1506 12.9457 22.9561 12.6831 23.0459C12.4844 23.1139 12.3664 23.3337 12.3634 23.5445C12.3603 23.7553 12.4507 23.9552 12.5591 24.1359C12.8192 24.567 13.2022 24.9518 13.2763 25.4499C13.3696 25.1632 13.6653 25.0054 13.9213 24.8477C14.3013 24.6122 14.6638 24.2834 14.7547 23.8456C14.7884 23.6842 14.7776 23.5017 14.6728 23.3741C14.503 23.1651 14.1537 23.1988 13.9466 23.3741C13.7394 23.5493 13.64 23.8131 13.5485 24.0666" fill="#FBB858"/>
</svg>
