<svg width="190" height="183" viewBox="0 0 190 183" fill="none" xmlns="http://www.w3.org/2000/svg">
<rect width="190" height="183" rx="91.5" fill="#F4F2F4"/>
<path d="M49.9119 73.1641H112.421C113.459 73.1637 114.487 73.368 115.446 73.7651C116.406 74.1622 117.277 74.7444 118.011 75.4785C118.745 76.2125 119.327 77.084 119.724 78.0432C120.122 79.0023 120.326 80.0303 120.325 81.0684V109.289C120.325 111.386 119.493 113.396 118.01 114.879C116.528 116.361 114.518 117.194 112.421 117.194H75.8625L57.1183 131.347V117.181H49.9119C47.8164 117.183 45.8059 116.353 44.3223 114.873C42.8386 113.393 42.0033 111.385 42 109.289V81.0684C41.9997 80.0297 42.2041 79.0011 42.6017 78.0414C42.9993 77.0818 43.5822 76.2099 44.3171 75.4758C45.0519 74.7416 45.9243 74.1596 46.8843 73.7629C47.8444 73.3662 48.8732 73.1627 49.9119 73.1641Z" fill="#AEB3B8"/>
<path d="M81.1664 100.788C83.9468 100.788 86.2008 98.5336 86.2008 95.7531C86.2008 92.9727 83.9468 90.7188 81.1664 90.7188C78.386 90.7188 76.132 92.9727 76.132 95.7531C76.132 98.5336 78.386 100.788 81.1664 100.788Z" fill="white" stroke="white" stroke-miterlimit="10"/>
<path d="M101.478 100.788C104.259 100.788 106.513 98.5336 106.513 95.7531C106.513 92.9727 104.259 90.7188 101.478 90.7188C98.698 90.7188 96.444 92.9727 96.444 95.7531C96.444 98.5336 98.698 100.788 101.478 100.788Z" fill="white" stroke="white" stroke-miterlimit="10"/>
<path d="M138.676 51H68.3757C67.0208 51 65.6792 51.2669 64.4275 51.7855C63.1758 52.3041 62.0385 53.0641 61.0805 54.0223C60.1226 54.9805 59.3628 56.118 58.8445 57.3698C58.3263 58.6217 58.0597 59.9634 58.06 61.3183V91.8069C58.06 94.5428 59.1468 97.1666 61.0814 99.1012C63.016 101.036 65.6398 102.123 68.3757 102.123H109.699L131.449 118.564V102.115H138.668C140.024 102.117 141.367 101.852 142.621 101.334C143.874 100.817 145.013 100.057 145.972 99.099C146.932 98.1409 147.693 97.003 148.213 95.7505C148.732 94.4979 148.999 93.1553 148.999 91.7993V61.3107C148.999 59.9558 148.731 58.6143 148.212 57.3628C147.693 56.1114 146.932 54.9744 145.973 54.017C145.015 53.0595 143.877 52.3002 142.625 51.7826C141.373 51.2649 140.031 50.999 138.676 51Z" fill="#E1E2E2"/>
<path d="M126.968 83.0821C130.196 83.0821 132.814 80.4649 132.814 77.2364C132.814 74.0079 130.196 71.3906 126.968 71.3906C123.739 71.3906 121.122 74.0079 121.122 77.2364C121.122 80.4649 123.739 83.0821 126.968 83.0821Z" fill="#AEB3B8"/>
<path d="M103.383 83.0821C106.612 83.0821 109.229 80.4649 109.229 77.2364C109.229 74.0079 106.612 71.3906 103.383 71.3906C100.154 71.3906 97.5373 74.0079 97.5373 77.2364C97.5373 80.4649 100.154 83.0821 103.383 83.0821Z" fill="#AEB3B8"/>
<path d="M79.7965 83.0821C83.025 83.0821 85.6422 80.4649 85.6422 77.2364C85.6422 74.0079 83.025 71.3906 79.7965 71.3906C76.5679 71.3906 73.9507 74.0079 73.9507 77.2364C73.9507 80.4649 76.5679 83.0821 79.7965 83.0821Z" fill="#AEB3B8"/>
</svg>
