<svg width="226" height="218" viewBox="0 0 226 218" fill="none" xmlns="http://www.w3.org/2000/svg">
<rect width="226" height="218" rx="109" fill="white"/>
<path d="M56.6973 90.8506L113.366 47L170.001 90.8506V136.438C170.001 141.05 168.169 145.473 164.908 148.735C161.647 151.996 157.224 153.829 152.612 153.83H74.0866C71.8028 153.83 69.5412 153.38 67.4313 152.506C65.3213 151.632 63.4041 150.351 61.7893 148.736C60.1746 147.121 58.8937 145.203 58.02 143.093C57.1463 140.983 56.6968 138.721 56.6973 136.438V90.8506Z" fill="#758089"/>
<path d="M150.795 58.7734H75.3104C71.6937 58.7734 68.7617 61.7054 68.7617 65.3221V142.28C68.7617 145.897 71.6937 148.829 75.3104 148.829H150.795C154.412 148.829 157.344 145.897 157.344 142.28V65.3221C157.344 61.7054 154.412 58.7734 150.795 58.7734Z" fill="#E1E2E2"/>
<path d="M56.6973 90.8516V164.457H170.001V90.8516L113.349 131.093L56.6973 90.8516Z" fill="#AEB3B8"/>
<path d="M56 148.49L112.652 110.82L169.304 148.49H56Z" fill="#AEB3B8"/>
<path d="M68.5 138.999L112.651 110.82L158.391 141.235" fill="#758089"/>
<path d="M68.5 138.999L112.651 110.82L158.391 141.235" stroke="#435360" stroke-width="7" stroke-miterlimit="10" stroke-linecap="round"/>
</svg>
