<svg width="190" height="183" viewBox="0 0 190 183" fill="none" xmlns="http://www.w3.org/2000/svg">
<rect width="190" height="183" rx="91.5" fill="white"/>
<path d="M64.443 40.1053L63.4119 40.5328C60.6042 41.6969 59.2718 44.9167 60.436 47.7244L61.6744 50.7113C62.8386 53.519 66.0583 54.8514 68.866 53.6873L69.8971 53.2597C72.7048 52.0956 74.0372 48.8758 72.873 46.0681L71.6346 43.0812C70.4704 40.2735 67.2507 38.9411 64.443 40.1053Z" fill="#E1E2E2"/>
<path d="M103.15 134.136C108.305 134.136 112.484 129.958 112.484 124.803C112.484 119.648 108.305 115.469 103.15 115.469C97.9953 115.469 93.8164 119.648 93.8164 124.803C93.8164 129.958 97.9953 134.136 103.15 134.136Z" fill="#E1E2E2" stroke="white" stroke-width="3" stroke-miterlimit="10"/>
<path d="M116.114 81.1356L112.433 72.2541C109.702 65.6668 104.466 60.4343 97.8767 57.7075C91.2877 54.9807 83.8852 54.983 77.2979 57.714L75.6222 58.4073L73.9492 59.1005C67.3622 61.8328 62.1301 67.0694 59.4034 73.6587C56.6767 80.248 56.6788 87.6505 59.4091 94.2383L63.0923 103.117C69.9368 119.63 68.7938 127.628 66.8826 131.349C66.1932 132.666 65.7993 134.117 65.7286 135.601C65.6579 137.086 65.9119 138.568 66.473 139.944L66.4971 139.998L103.15 124.802L139.806 109.606L139.781 109.549C139.206 108.182 138.339 106.956 137.241 105.957C136.144 104.958 134.842 104.21 133.427 103.765C129.428 102.491 122.961 97.6459 116.114 81.1356Z" fill="#AEB3B8"/>
<path d="M140.387 102.023C143.652 104.834 144.439 110.113 142.14 113.758" stroke="#AEB3B8" stroke-width="3" stroke-miterlimit="10" stroke-linecap="round"/>
<path d="M145.775 100.188C149.041 102.998 149.83 108.279 147.528 111.922" stroke="#AEB3B8" stroke-width="3" stroke-miterlimit="10" stroke-linecap="round"/>
<path d="M48.5901 89.4827C46.4353 86.5703 46.5049 82.2126 48.7507 79.3672" stroke="#AEB3B8" stroke-width="3" stroke-miterlimit="10" stroke-linecap="round"/>
<path d="M42.966 87.5707C41.2261 84.3907 41.8953 80.0758 44.4998 77.5703" stroke="#AEB3B8" stroke-width="3" stroke-miterlimit="10" stroke-linecap="round"/>
</svg>
