<svg width="145" height="140" viewBox="0 0 145 140" fill="none" xmlns="http://www.w3.org/2000/svg">
<rect x="0.25" width="144.5" height="139.385" rx="69.6925" fill="#F8F5FB"/>
<path d="M36.5007 58.088L72.7333 30.0508L108.945 58.088V87.2354C108.945 90.1844 107.774 93.0126 105.689 95.098C103.604 97.1835 100.776 98.3553 97.8267 98.3559H47.6192C46.1589 98.3559 44.7129 98.0682 43.3638 97.5093C42.0148 96.9505 40.789 96.1313 39.7565 95.0986C38.724 94.066 37.9051 92.84 37.3465 91.4909C36.7878 90.1417 36.5005 88.6956 36.5007 87.2354V58.088Z" fill="#758089"/>
<path d="M96.6651 37.5762H48.4014C46.089 37.5762 44.2144 39.4508 44.2144 41.7632V90.9687C44.2144 93.2812 46.089 95.1558 48.4014 95.1558H96.6651C98.9776 95.1558 100.852 93.2812 100.852 90.9687V41.7632C100.852 39.4508 98.9776 37.5762 96.6651 37.5762Z" fill="#E1E2E2"/>
<path d="M36.5007 58.0879V105.15H108.945V58.0879L72.7229 83.8174L36.5007 58.0879Z" fill="#AEB3B8"/>
<path d="M36.0552 94.9425L72.2774 70.8574L108.5 94.9425H36.0552Z" fill="#AEB3B8"/>
<path d="M44.0476 88.8743L72.2769 70.8574L101.522 90.3043" fill="#758089"/>
<path d="M44.0476 88.8743L72.2769 70.8574L101.522 90.3043" stroke="#435360" stroke-width="4.47566" stroke-miterlimit="10" stroke-linecap="round"/>
</svg>
