<svg width="139" height="133" viewBox="0 0 139 133" fill="none" xmlns="http://www.w3.org/2000/svg">
<rect x="0.75" width="137.5" height="132.633" rx="66.3164" fill="#F8F5FB"/>
<path d="M61.4365 75.0117C49.3785 75.0117 39.0796 76.8744 39.0796 84.3192C39.0796 91.7699 49.313 93.6967 61.4365 93.6967C73.4946 93.6967 83.7935 91.834 83.7935 84.3892C83.7935 76.9385 73.56 75.0117 61.4365 75.0117Z" fill="#7D45A1"/>
<path opacity="0.4" d="M61.4366 67.9143C69.6489 67.9143 76.2301 61.4693 76.2301 53.4269C76.2301 45.3845 69.6489 38.9395 61.4366 38.9395C53.2272 38.9395 46.6431 45.3845 46.6431 53.4269C46.6431 61.4693 53.2272 67.9143 61.4366 67.9143Z" fill="#7D45A1"/>
<path opacity="0.4" d="M82.1956 53.6897C82.1956 57.7853 80.9395 61.6068 78.7368 64.7812C78.5076 65.1077 78.71 65.5478 79.1089 65.6178C79.6625 65.7082 80.231 65.7635 80.8115 65.7752C86.586 65.9239 91.7682 62.2831 93.1999 56.8C95.3222 48.6643 89.0952 41.3594 81.1627 41.3594C80.3025 41.3594 79.478 41.4468 78.6743 41.6071C78.5642 41.6305 78.4451 41.6829 78.3856 41.7762C78.3082 41.8957 78.3647 42.0502 78.4421 42.1522C80.8263 45.4258 82.1956 49.4105 82.1956 53.6897Z" fill="#7D45A1"/>
<path d="M99.2484 75.9594C98.1917 73.7528 95.6408 72.2399 91.7594 71.4966C89.9288 71.0593 84.9698 70.4384 80.3591 70.5259C80.2907 70.5346 80.252 70.5813 80.246 70.6104C80.2371 70.6571 80.2579 70.727 80.3472 70.7766C82.4785 71.8085 90.7146 76.2975 89.6787 85.7654C89.6341 86.1793 89.9705 86.5291 90.3901 86.4708C92.4172 86.1881 97.6321 85.0891 99.2484 81.6728C100.144 79.8655 100.144 77.7667 99.2484 75.9594Z" fill="#7D45A1"/>
</svg>
