<svg width="32" height="47" viewBox="0 0 32 47" fill="none" xmlns="http://www.w3.org/2000/svg">
<path d="M23.3239 36.2972C23.1182 33.7808 23.7225 32.2426 25.5774 30.602C28.7272 27.8115 29.1873 22.3792 27.4468 18.6779C25.4238 14.3911 20.874 11.8115 16.1519 12.1C9.52192 12.5047 3.90604 18.6916 5.04646 25.4163C5.40498 27.529 6.53259 29.5247 8.18432 30.8692C10.1852 32.4995 11.1719 35.0774 10.6512 37.605C10.6333 37.6903 10.6145 37.7757 10.5941 37.8611L23.3239 36.2972Z" fill="#FBB858"/>
<path d="M15.0286 34.9154C15.4495 31.5863 15.6202 28.0498 14.1409 25.04C13.7602 24.2641 13.2463 23.5129 12.4917 23.0912C11.7371 22.6696 10.6992 22.6644 10.0794 23.2662C9.36923 23.9559 9.46654 25.1954 10.0743 25.9764C10.6821 26.7575 11.6586 27.1561 12.6223 27.3815C14.0957 27.7229 15.6245 27.74 17.1379 27.7161C18.0188 27.7024 18.9126 27.6743 19.7559 27.4182C20.5455 27.1775 21.26 26.7472 21.9659 26.3204C22.4653 26.0183 22.9817 25.6999 23.2958 25.2108C23.9173 24.2376 23.3906 22.7421 22.2954 22.3742C21.1004 21.9713 19.8199 22.8386 19.0986 23.874C17.796 25.7383 17.5622 28.1301 17.5015 30.4032C17.4572 32.1583 17.5015 33.9457 18.0436 35.6145" stroke="white" stroke-miterlimit="10"/>
<path d="M10.5879 34.616V45.2605C10.5881 45.7211 10.7712 46.1627 11.097 46.4883C11.4227 46.8139 11.8644 46.9968 12.325 46.9968H21.5226C21.9781 46.9968 22.4154 46.8179 22.7402 46.4985C23.0649 46.1792 23.2512 45.745 23.2588 45.2895L23.4244 33.9844L10.5879 34.616Z" fill="#7D45A1"/>
<path d="M10.5879 35.0257L23.4244 34.3906" stroke="#D0C5D7" stroke-miterlimit="10" stroke-linecap="round"/>
<path d="M10.5879 38.5014L23.4244 37.8672" stroke="#D0C5D7" stroke-miterlimit="10" stroke-linecap="round"/>
<path d="M10.5879 41.9788L23.4244 41.3438" stroke="#D0C5D7" stroke-miterlimit="10" stroke-linecap="round"/>
<path d="M10.5879 45.4545L23.4244 44.8203" stroke="#D0C5D7" stroke-miterlimit="10" stroke-linecap="round"/>
<path d="M1 11.9141C2.36972 12.2197 3.60954 12.9636 4.54086 14.0386" stroke="#7D45A1" stroke-width="2" stroke-miterlimit="10" stroke-linecap="round"/>
<path d="M8.08398 4.83594C8.66851 6.10593 9.38149 7.29424 10.2085 8.3768" stroke="#7D45A1" stroke-width="2" stroke-miterlimit="10" stroke-linecap="round"/>
<path d="M23.6585 4.125L22.2422 9.0822" stroke="#7D45A1" stroke-width="2" stroke-miterlimit="10" stroke-linecap="round"/>
<path d="M16.3086 2.00089L16.2262 7.27109" stroke="#7D45A1" stroke-width="2" stroke-miterlimit="10" stroke-linecap="round"/>
<path d="M27.9121 12.6245L30.7448 10.5" stroke="#7D45A1" stroke-width="2" stroke-miterlimit="10" stroke-linecap="round"/>
</svg>
