<svg width="37" height="27" viewBox="0 0 37 27" fill="none" xmlns="http://www.w3.org/2000/svg">
<path d="M18.4069 17.8594C12.6439 17.8594 7.78125 18.8011 7.78125 22.4356C7.78125 26.0716 12.6753 26.9802 18.4069 26.9802C24.17 26.9802 29.0326 26.0385 29.0326 22.404C29.0326 18.768 24.1385 17.8594 18.4069 17.8594Z" fill="#7D45A1"/>
<path opacity="0.4" d="M18.4172 14.3938C22.3195 14.3938 25.4486 11.2467 25.4486 7.32189C25.4486 3.39557 22.3195 0.25 18.4172 0.25C14.5148 0.25 11.3857 3.39557 11.3857 7.32189C11.3857 11.2467 14.5148 14.3938 18.4172 14.3938Z" fill="#7D45A1"/>
<path opacity="0.4" d="M33.6773 8.96793C34.6869 4.99647 31.7268 1.42969 27.9576 1.42969C27.5478 1.42969 27.1559 1.47482 26.773 1.55154C26.7221 1.56357 26.6653 1.58915 26.6354 1.63428C26.601 1.69144 26.6264 1.76816 26.6638 1.81781C27.7961 3.41541 28.4467 5.36052 28.4467 7.44854C28.4467 9.44931 27.8499 11.3147 26.8029 12.8627C26.6952 13.0221 26.7909 13.2372 26.9809 13.2703C27.2441 13.317 27.5134 13.341 27.7886 13.3486C30.5332 13.4208 32.9967 11.6441 33.6773 8.96793Z" fill="#7D45A1"/>
<path d="M36.5606 18.3199C36.058 17.2428 34.845 16.5042 33.0007 16.1416C32.1302 15.928 29.7745 15.6272 27.5832 15.6678C27.5503 15.6723 27.5324 15.6949 27.5294 15.7099C27.5249 15.731 27.5338 15.7671 27.5772 15.7896C28.5898 16.2936 32.5042 18.4854 32.0121 23.1082C31.9911 23.3083 32.1512 23.4813 32.3501 23.4512C33.3133 23.3128 35.7918 22.7773 36.5606 21.109C36.9854 20.2274 36.9854 19.203 36.5606 18.3199Z" fill="#7D45A1"/>
<path opacity="0.4" d="M10.227 1.55154C9.84556 1.47331 9.45219 1.42969 9.04236 1.42969C5.27312 1.42969 2.31307 4.99647 3.32418 8.96793C4.00324 11.6441 6.46671 13.4208 9.21137 13.3486C9.48659 13.341 9.75732 13.3155 10.0191 13.2703C10.209 13.2372 10.3048 13.0221 10.1971 12.8627C9.15005 11.3132 8.55325 9.44931 8.55325 7.44854C8.55325 5.35902 9.20539 3.41391 10.3377 1.81781C10.3736 1.76816 10.4005 1.69144 10.3646 1.63428C10.3347 1.58764 10.2793 1.56357 10.227 1.55154Z" fill="#7D45A1"/>
<path d="M4.00305 16.1404C2.15882 16.503 0.947277 17.2416 0.444712 18.3187C0.0184293 19.2017 0.0184293 20.2262 0.444712 21.1092C1.21352 22.776 3.69194 23.3131 4.65519 23.45C4.85412 23.4801 5.01267 23.3086 4.99173 23.107C4.49964 18.4857 8.41396 16.2939 9.42806 15.7899C9.46994 15.7658 9.47892 15.7312 9.47443 15.7087C9.47144 15.6936 9.45499 15.6711 9.42208 15.668C7.22934 15.6259 4.87506 15.9268 4.00305 16.1404Z" fill="#7D45A1"/>
</svg>
