<svg width="46" height="48" viewBox="0 0 46 48" fill="none" xmlns="http://www.w3.org/2000/svg">
<path d="M18.8437 8.9641C18.9583 9.20598 19.034 9.46502 19.0679 9.73132L19.6943 19.3911L20.0053 24.2464C20.0085 24.7457 20.0841 25.2417 20.2295 25.7186C20.6051 26.6438 21.5086 27.2319 22.4916 27.1909L37.4705 26.1748C38.1191 26.1637 38.7455 26.4153 39.2118 26.8742C39.6004 27.2566 39.8512 27.7568 39.9303 28.2949L39.9568 28.6216C39.3369 37.5226 33.0331 44.9467 24.4678 46.8632C15.9025 48.7796 7.11919 44.7312 2.8866 36.916C1.66637 34.6454 0.904213 32.1498 0.644859 29.5755C0.536514 28.8134 0.488807 28.0437 0.502203 27.2738C0.488827 17.7309 7.04181 9.48077 16.2147 7.49185C17.3188 7.31358 18.4011 7.91968 18.8437 8.9641Z" fill="#7D45A1"/>
<path d="M24.9573 0.665974C35.217 0.936658 43.84 8.58757 45.4998 18.8927L45.4839 18.9688L45.4386 19.0794L45.4449 19.3829C45.4214 19.7851 45.2717 20.172 45.0137 20.4845C44.7449 20.8101 44.3777 21.0318 43.9734 21.1178L43.7268 21.1529L26.445 22.3141C25.8702 22.3729 25.2978 22.1807 24.8703 21.7853C24.5141 21.4558 24.2863 21.0109 24.222 20.5316L23.062 2.63587C23.0418 2.57536 23.0418 2.50976 23.062 2.44925C23.0779 1.95596 23.2872 1.48969 23.6434 1.1546C23.9995 0.819509 24.4727 0.643528 24.9573 0.665974Z" fill="#FBB858"/>
</svg>
