<svg width="18" height="18" viewBox="0 0 18 18" fill="none" xmlns="http://www.w3.org/2000/svg">
<path opacity="0.4" d="M8.90465 13.8218L4.39651 16.0736C4.05606 16.2584 3.63139 16.135 3.44098 15.7959C3.38537 15.6893 3.35596 15.5709 3.35522 15.4505V10.4102C3.35522 10.9099 3.63698 11.2183 4.37813 11.5638L8.90465 13.8218Z" fill="#7D45A1"/>
<path fill-rule="evenodd" clip-rule="evenodd" d="M6.75471 2.27734H11.0423C12.9228 2.27734 14.448 3.01766 14.4663 4.91163V15.4488C14.4656 15.5672 14.4361 15.6837 14.3806 15.7881C14.2913 15.9584 14.1371 16.0848 13.9535 16.1383C13.7698 16.1918 13.5724 16.1678 13.4067 16.0719L8.90465 13.8201L4.37813 11.5621C3.63698 11.2166 3.35522 10.9082 3.35522 10.4085V4.91163C3.35522 3.01766 4.8804 2.27734 6.75471 2.27734ZM6.28928 7.56981H11.5141C11.8152 7.56981 12.0592 7.32399 12.0592 7.02075C12.0592 6.7175 11.8152 6.47168 11.5141 6.47168H6.28928C5.98821 6.47168 5.74414 6.7175 5.74414 7.02075C5.74414 7.32399 5.98821 7.56981 6.28928 7.56981Z" fill="#7D45A1"/>
</svg>
