<svg width="24" height="24" viewBox="0 0 24 24" fill="none" xmlns="http://www.w3.org/2000/svg">
<mask id="mask0_55_23745" style="mask-type:alpha" maskUnits="userSpaceOnUse" x="0" y="0" width="24" height="24">
<circle cx="12" cy="12" r="12" fill="#C4C4C4"/>
</mask>
<g mask="url(#mask0_55_23745)">
<ellipse cx="10.5613" cy="10.5603" rx="17.28" ry="18.24" fill="#D8DADB"/>
<path d="M12.477 17.7031C7.99152 17.7031 4.16016 18.4103 4.16016 21.2391C4.16016 24.069 7.9676 24.8011 12.477 24.8011C16.9626 24.8011 20.7939 24.095 20.7939 21.2651C20.7939 18.4353 16.9875 17.7031 12.477 17.7031Z" fill="#758089"/>
<path opacity="0.4" d="M12.4763 15.0074C15.5319 15.0074 17.98 12.5582 17.98 9.50368C17.98 6.4492 15.5319 4 12.4763 4C9.42186 4 6.97266 6.4492 6.97266 9.50368C6.97266 12.5582 9.42186 15.0074 12.4763 15.0074Z" fill="#758089"/>
</g>
</svg>
