<svg width="26" height="30" viewBox="0 0 26 30" fill="none" xmlns="http://www.w3.org/2000/svg">
<path d="M25.0019 5.00608C25.0021 5.02897 24.9951 5.05136 24.9818 5.0703C24.9685 5.08924 24.9497 5.10383 24.9277 5.11215L24.2285 5.37251C24.1066 5.41764 23.9961 5.48768 23.9045 5.57785C23.8129 5.66803 23.7425 5.77625 23.6979 5.89515L23.4325 6.60551C23.4301 6.61023 23.4272 6.61475 23.4239 6.61901L23.4166 6.63058C23.4125 6.63595 23.4078 6.6409 23.4027 6.64537C23.3946 6.65253 23.3855 6.65839 23.3755 6.66272C23.3694 6.66552 23.3629 6.66747 23.3563 6.66851C23.3499 6.66914 23.3434 6.66914 23.337 6.66851H23.3165C23.3098 6.66738 23.3034 6.66543 23.2972 6.66272C23.281 6.65545 23.2669 6.64441 23.2561 6.63058C23.2539 6.62751 23.2519 6.62429 23.2501 6.62094C23.2462 6.61605 23.2427 6.61089 23.2395 6.60551L22.9742 5.89515C22.9297 5.77616 22.8593 5.66787 22.7677 5.57767C22.6762 5.48748 22.5656 5.41749 22.4435 5.37251L21.7437 5.11215C21.7212 5.10373 21.7018 5.08872 21.6885 5.06919C21.6751 5.04967 21.6683 5.02659 21.669 5.00316C21.6697 4.97973 21.6779 4.95709 21.6925 4.93838C21.7071 4.91967 21.7273 4.90581 21.7504 4.89872L22.3898 4.70587C22.5263 4.66404 22.6508 4.59169 22.7531 4.49464C22.8554 4.3976 22.9327 4.27859 22.9788 4.14722L23.2389 3.40215C23.242 3.39407 23.246 3.38631 23.2508 3.37901C23.254 3.37429 23.2578 3.36997 23.2621 3.36615C23.2719 3.35573 23.2842 3.34779 23.2979 3.34301C23.3021 3.34105 23.3065 3.33975 23.3112 3.33915C23.3263 3.33487 23.3424 3.33487 23.3576 3.33915C23.3622 3.33975 23.3667 3.34105 23.3709 3.34301C23.3832 3.3477 23.3945 3.35469 23.404 3.36358L23.4146 3.37515C23.4211 3.38333 23.4263 3.39244 23.4299 3.40215L23.6926 4.14401C23.7385 4.27535 23.8157 4.39437 23.9179 4.49142C24.0201 4.58847 24.1445 4.66084 24.2809 4.70265L24.9204 4.89551C24.9445 4.90279 24.9656 4.91754 24.9803 4.9375C24.9951 4.95746 25.0027 4.98155 25.0019 5.00608Z" fill="#FBB858"/>
<path d="M17.2229 1.11216C17.2238 1.12787 17.2195 1.14347 17.2107 1.1566C17.2018 1.16974 17.1889 1.17971 17.1737 1.18504L16.7119 1.35848C16.6315 1.38861 16.5587 1.43531 16.4985 1.49542C16.4382 1.55553 16.3918 1.62762 16.3626 1.70681L16.1868 2.17976C16.1855 2.18331 16.1835 2.18654 16.1808 2.18924C16.1798 2.1919 16.1783 2.19437 16.1764 2.19652C16.1738 2.20025 16.1708 2.20367 16.1674 2.20673C16.1623 2.21167 16.1562 2.21562 16.1496 2.21838L16.1369 2.22203H16.1242H16.1108L16.0982 2.21838C16.0913 2.21555 16.085 2.21161 16.0795 2.20673C16.0764 2.20375 16.0734 2.20059 16.0706 2.19725L16.0661 2.19069C16.0635 2.18732 16.0612 2.18365 16.0594 2.17976L15.8844 1.70681C15.8551 1.62762 15.8088 1.55553 15.7485 1.49542C15.6882 1.43531 15.6154 1.38861 15.5351 1.35848L15.0733 1.18504C15.0535 1.18446 15.0348 1.17622 15.0212 1.16215C15.0077 1.14807 15.0004 1.1293 15.001 1.10998C15.0016 1.09065 15.01 1.07235 15.0244 1.05909C15.0388 1.04583 15.058 1.03871 15.0777 1.03929L15.5001 0.909574C15.5901 0.881635 15.6723 0.833381 15.7398 0.768699C15.8073 0.704017 15.8584 0.624717 15.8889 0.53719L16.0609 0.0401915C16.0631 0.0349533 16.0656 0.0298441 16.0684 0.0248886L16.0758 0.0161442C16.0825 0.00941212 16.0907 0.00418863 16.0997 0.000839089H16.1086C16.1135 -0.000279696 16.1186 -0.000279696 16.1235 0.000839089C16.1286 -0.000222521 16.134 -0.000222521 16.1391 0.000839089H16.1481C16.1562 0.00387506 16.1636 0.00859876 16.1697 0.0146853L16.1764 0.0227025C16.181 0.0278147 16.1845 0.0337545 16.1868 0.0401915L16.3581 0.53719C16.3887 0.624633 16.4398 0.70385 16.5074 0.76851C16.5749 0.833171 16.6569 0.88148 16.7469 0.909574L17.1692 1.03929C17.1852 1.04383 17.1992 1.05348 17.2089 1.06669C17.2186 1.07989 17.2235 1.0959 17.2229 1.11216Z" fill="white"/>
<path d="M21.6604 22.5008C21.6607 22.5125 21.6573 22.524 21.6506 22.5338C21.6439 22.5436 21.6343 22.5511 21.6231 22.5555L21.2728 22.685C21.2119 22.7078 21.1567 22.743 21.1109 22.7881C21.0652 22.8333 21.0301 22.8874 21.0078 22.9469L20.8728 23.2989C20.8715 23.3014 20.87 23.3037 20.8682 23.306L20.8649 23.3115C20.8627 23.3143 20.8602 23.3168 20.8575 23.3191C20.8535 23.3226 20.8489 23.3256 20.844 23.3279L20.8343 23.3306H20.8253H20.8146L20.805 23.3279C20.7999 23.3256 20.7953 23.3224 20.7914 23.3186C20.7887 23.3166 20.7864 23.3142 20.7846 23.3115L20.7812 23.3065C20.7793 23.3041 20.7776 23.3016 20.7762 23.2989L20.6468 22.9441C20.6247 22.8847 20.5897 22.8305 20.544 22.7853C20.4984 22.7402 20.4433 22.705 20.3823 22.6823L20.032 22.5527C20.0207 22.5484 20.0111 22.5409 20.0043 22.5311C19.9975 22.5214 19.994 22.5098 19.9942 22.4981C19.9937 22.4858 19.9975 22.4738 20.005 22.4638C20.0125 22.4539 20.0232 22.4467 20.0354 22.4434L20.3558 22.3456C20.4241 22.3247 20.4864 22.2886 20.5376 22.2402C20.5888 22.1918 20.6276 22.1324 20.6507 22.0668L20.7807 21.694C20.7823 21.69 20.7844 21.6861 20.7869 21.6825C20.7885 21.6801 20.7904 21.6779 20.7925 21.676C20.7974 21.6709 20.8034 21.667 20.8101 21.6645H20.8168H20.8287C20.8324 21.6639 20.8363 21.6639 20.84 21.6645H20.8468C20.853 21.6669 20.8588 21.6705 20.8637 21.6749L20.8688 21.6803C20.872 21.6845 20.8745 21.6891 20.8762 21.694L21.0067 22.0668C21.0296 22.1324 21.0682 22.1918 21.1194 22.2403C21.1705 22.2887 21.2328 22.3248 21.301 22.3456L21.6214 22.4434C21.6337 22.4472 21.6443 22.455 21.6514 22.4655C21.6585 22.4759 21.6617 22.4884 21.6604 22.5008Z" fill="white"/>
<path d="M3.8877 9.72307C3.8877 9.66813 3.92028 9.61443 3.98132 9.56876C4.04236 9.52308 4.12912 9.48748 4.23062 9.46646C4.33213 9.44543 4.44382 9.43993 4.55157 9.45065C4.65933 9.46137 4.75832 9.48782 4.836 9.52666C4.91369 9.56551 4.9666 9.615 4.98804 9.66888C5.00947 9.72276 4.99847 9.7786 4.95642 9.82936C4.91438 9.88011 4.84318 9.92349 4.75183 9.95401C4.66048 9.98453 4.55307 10.0008 4.4432 10.0008C4.29587 10.0008 4.15458 9.97156 4.05041 9.91947C3.94623 9.86738 3.8877 9.79673 3.8877 9.72307Z" fill="#5D4FA3"/>
<path d="M21.669 6.94181C21.669 6.88681 21.6853 6.83304 21.7159 6.78732C21.7465 6.74161 21.79 6.70601 21.8408 6.68504C21.8917 6.66407 21.9476 6.65867 22.0015 6.66953C22.0555 6.68039 22.1049 6.70701 22.1437 6.74603C22.1825 6.78505 22.2088 6.8347 22.2193 6.88869C22.2298 6.94268 22.2241 6.99858 22.2028 7.04931C22.1815 7.10003 22.1457 7.14329 22.0997 7.1736C22.0538 7.20391 22 7.21991 21.945 7.21956C21.9086 7.21957 21.8725 7.21237 21.8389 7.19839C21.8053 7.18441 21.7748 7.16392 21.7492 7.13811C21.7235 7.11229 21.7032 7.08166 21.6895 7.04797C21.6757 7.01428 21.6687 6.97821 21.669 6.94181Z" fill="white"/>
<path d="M6.10663 25.0003C6.10663 25.0232 6.10066 25.0457 6.08952 25.0647C6.07838 25.0836 6.06258 25.0982 6.04419 25.1065L5.46179 25.3642C5.36022 25.4096 5.26819 25.4799 5.19193 25.5704C5.11567 25.6608 5.05696 25.7693 5.01974 25.8884L4.79872 26.5969C4.79678 26.6019 4.79437 26.6067 4.79154 26.6111C4.78971 26.6151 4.78768 26.619 4.78546 26.6227C4.78204 26.6281 4.77815 26.633 4.77386 26.6375C4.76309 26.6493 4.74969 26.6574 4.73518 26.6607C4.73003 26.6613 4.72485 26.6613 4.7197 26.6607H4.70257C4.69707 26.6594 4.6917 26.6575 4.68655 26.6549C4.67802 26.6504 4.67018 26.6443 4.66334 26.6369C4.6592 26.6325 4.65532 26.6277 4.65174 26.6227L4.64677 26.613C4.6435 26.6079 4.64055 26.6025 4.63792 26.5969L4.4169 25.8884C4.37972 25.7693 4.32101 25.6608 4.24475 25.5703C4.16849 25.4799 4.07644 25.4096 3.97485 25.3642L3.39246 25.1065C3.37344 25.0983 3.35711 25.0833 3.34575 25.0637C3.3344 25.0441 3.32859 25.0209 3.32914 24.9972C3.32969 24.9736 3.33656 24.9507 3.34881 24.9319C3.36106 24.913 3.37806 24.8991 3.39743 24.892L3.93065 24.6988C4.04424 24.6568 4.14778 24.5842 4.23291 24.487C4.31804 24.3898 4.38239 24.2706 4.42077 24.1391L4.63792 23.3926C4.64034 23.3844 4.64368 23.3766 4.64787 23.3694C4.6502 23.3642 4.65339 23.3596 4.65726 23.3559C4.66553 23.3459 4.67551 23.338 4.68655 23.3327L4.69815 23.3289C4.70439 23.3279 4.71071 23.3279 4.71694 23.3289C4.72336 23.3279 4.72986 23.3279 4.73628 23.3289L4.74733 23.3327C4.7577 23.3379 4.76723 23.3451 4.77551 23.354C4.7786 23.3575 4.78137 23.3614 4.7838 23.3656C4.78942 23.3736 4.79372 23.3828 4.79651 23.3926L5.01311 24.1372C5.05149 24.2687 5.11584 24.3879 5.20097 24.4851C5.28611 24.5823 5.38964 24.6549 5.50323 24.6969L6.0359 24.8901C6.05647 24.8968 6.07456 24.9112 6.08735 24.9311C6.10015 24.9511 6.10693 24.9754 6.10663 25.0003Z" fill="#FBB858"/>
<path d="M1.66642 20.8354C1.66714 20.8472 1.6639 20.8589 1.65719 20.8687C1.65047 20.8786 1.64064 20.8861 1.62917 20.8901L1.27919 21.0203C1.21834 21.043 1.16323 21.0781 1.11756 21.1232C1.07189 21.1683 1.03673 21.2224 1.01446 21.2818L0.881242 21.6375C0.881242 21.6375 0.878419 21.6419 0.87729 21.644C0.876312 21.6462 0.874978 21.6483 0.873338 21.6501C0.871382 21.6527 0.869108 21.6551 0.866565 21.6572C0.86265 21.6609 0.858056 21.6639 0.853018 21.6659C0.849854 21.6666 0.846585 21.6666 0.843421 21.6659C0.840246 21.6665 0.837001 21.6665 0.833826 21.6659H0.823666C0.820519 21.6667 0.817216 21.6667 0.814069 21.6659C0.808789 21.664 0.803983 21.661 0.799957 21.6572C0.797414 21.6551 0.79514 21.6527 0.793184 21.6501L0.789797 21.6451C0.789797 21.6424 0.785846 21.6402 0.784717 21.6375L0.652066 21.2818C0.629791 21.2224 0.594633 21.1683 0.548964 21.1232C0.503296 21.0781 0.448178 21.043 0.387328 21.0203L0.0373536 20.8901C0.0258809 20.8861 0.0160522 20.8786 0.00933667 20.8687C0.00262114 20.8589 -0.000620479 20.8472 9.81747e-05 20.8354C-0.000403157 20.8232 0.00332669 20.8111 0.0106924 20.8012C0.0180581 20.7913 0.0286357 20.7841 0.0407403 20.7807L0.360797 20.6827C0.429156 20.6619 0.491475 20.6257 0.542678 20.5771C0.593882 20.5285 0.632522 20.4689 0.655452 20.4031L0.785846 20.0305C0.78726 20.0265 0.789154 20.0226 0.791491 20.019C0.792909 20.0165 0.794827 20.0143 0.797136 20.0125C0.802045 20.0071 0.808248 20.0029 0.815198 20.0004H0.821973C0.825713 19.9999 0.829521 19.9999 0.833261 20.0004C0.837193 19.9999 0.841182 19.9999 0.845115 20.0004H0.85189C0.857833 20.0031 0.863345 20.0066 0.868258 20.0108L0.873338 20.0168C0.876832 20.0209 0.879514 20.0255 0.881242 20.0305L1.01107 20.4031C1.03408 20.4689 1.07275 20.5285 1.12394 20.577C1.17513 20.6256 1.23741 20.6618 1.30572 20.6827L1.62578 20.7807C1.63789 20.7841 1.64846 20.7913 1.65583 20.8012C1.6632 20.8111 1.66693 20.8232 1.66642 20.8354Z" fill="white"/>
<path d="M5.55665 13.7266C5.55704 12.3488 5.87913 10.9907 6.49658 9.76327C7.11403 8.53588 8.0093 7.47409 9.10917 6.66475C10.209 5.85542 11.4823 5.32152 12.8247 5.10673C14.1671 4.89193 15.5407 5.00235 16.8329 5.42894C18.1252 5.85554 19.2995 6.58619 20.2598 7.56114C21.2201 8.53609 21.9392 9.72765 22.3581 11.0384C22.777 12.3491 22.884 13.7417 22.6702 15.1023C22.4564 16.463 21.9279 17.753 21.128 18.8669C19.9003 20.7444 16.7083 22.8639 16.7083 24.1341V25.5853C16.7081 25.7243 16.6536 25.8576 16.5565 25.9558C16.4595 26.0541 16.328 26.1093 16.1908 26.1093H12.1475C12.0795 26.1094 12.0123 26.0959 11.9495 26.0696C11.8867 26.0433 11.8297 26.0047 11.7816 25.956C11.7335 25.9074 11.6954 25.8496 11.6694 25.786C11.6434 25.7223 11.63 25.6542 11.63 25.5853V24.1341C11.63 22.8639 8.43802 20.7444 7.21034 18.8669C6.13397 17.3753 5.55469 15.5747 5.55665 13.7266Z" fill="#FBB858"/>
<path d="M21.19 14.442C21.1281 14.442 21.0669 14.4285 21.0098 14.4024C20.9527 14.3764 20.9008 14.3381 20.8573 14.29C20.8137 14.2418 20.7792 14.1847 20.7558 14.1218C20.7324 14.0589 20.7205 13.9916 20.7209 13.9237C20.7226 12.3647 20.2502 10.8496 19.3787 9.61878C18.5071 8.38798 17.2862 7.5119 15.9097 7.12949C15.8496 7.11279 15.7931 7.08327 15.7435 7.04261C15.6938 7.00195 15.6519 6.95094 15.6202 6.89251C15.5885 6.83408 15.5676 6.76936 15.5586 6.70205C15.5497 6.63474 15.5529 6.56615 15.5681 6.50021C15.5989 6.36704 15.6765 6.25271 15.784 6.18239C15.8372 6.14757 15.8961 6.1246 15.9574 6.11479C16.0187 6.10498 16.0812 6.10852 16.1413 6.12522C17.7214 6.56402 19.1229 7.56953 20.1234 8.98228C21.1239 10.395 21.6662 12.1341 21.6643 13.9237C21.6647 13.9921 21.6527 14.0599 21.6289 14.1231C21.6052 14.1864 21.5702 14.2438 21.5261 14.292C21.4819 14.3403 21.4295 14.3784 21.3718 14.4041C21.314 14.4299 21.2522 14.4427 21.19 14.442Z" fill="white"/>
<g opacity="0.55">
<path opacity="0.2" d="M22.7878 14.1953C22.3149 17.7046 19.4817 21.3383 14.245 21.3383C9.00822 21.3383 6.28062 17.5349 5.70215 14.1953C5.79617 15.8315 6.3604 17.4057 7.32712 18.7291C8.54752 20.5701 11.7206 22.6484 11.7206 23.8939V25.3169C11.7206 25.3844 11.7339 25.4512 11.7597 25.5136C11.7856 25.576 11.8235 25.6327 11.8713 25.6804C11.9191 25.7281 11.9758 25.7659 12.0382 25.7917C12.1006 25.8175 12.1675 25.8307 12.235 25.8307H16.2501C16.3864 25.8307 16.5172 25.7765 16.6136 25.6802C16.7101 25.5839 16.7643 25.4532 16.7645 25.3169V23.8939C16.7645 22.6484 19.9376 20.5701 21.158 18.7291C22.1262 17.4062 22.6921 15.8319 22.7878 14.1953Z" fill="#435360"/>
</g>
<path d="M13.0712 25.1346C13.2251 22.9714 13.193 20.7979 12.9753 18.6406C12.8404 17.3078 12.5986 15.8997 11.7392 14.9078C11.2991 14.4004 10.5729 14.029 10.0014 14.3607C9.6438 14.5681 9.44728 15.0118 9.44437 15.442C9.44147 15.8722 9.60717 16.2859 9.82985 16.6463C10.8549 18.3028 12.959 18.8377 14.83 18.6902C15.4603 18.6406 16.0929 18.5287 16.6731 18.2649C17.4584 17.9053 18.1121 17.2879 18.5365 16.5049C18.7656 16.0766 18.9243 15.5919 18.8807 15.1042C18.8371 14.6165 18.5581 14.133 18.1249 13.9605C17.7394 13.8081 17.2929 13.9188 16.9504 14.1593C16.608 14.3998 16.3539 14.7554 16.1365 15.1213C15.2225 16.6322 14.7864 18.4148 14.6294 20.1962C14.4725 21.9776 14.5835 23.7712 14.6946 25.5563" stroke="white" stroke-miterlimit="10" stroke-linecap="round"/>
<path d="M17.2147 24.4453H11.6621V27.1051C11.6619 27.5395 11.7849 27.9649 12.0168 28.3316C12.2322 28.6726 12.5299 28.9535 12.8822 29.1481C13.2345 29.3427 13.63 29.4448 14.0321 29.4449H14.8466C15.2487 29.4449 15.6444 29.3429 15.9968 29.1483C16.3493 28.9536 16.647 28.6727 16.8625 28.3316C17.0941 27.9648 17.2171 27.5394 17.2172 27.1051L17.2147 24.4453Z" fill="#602587"/>
<path d="M11.482 26.1102C11.499 26.1113 11.5161 26.1113 11.5331 26.1102L17.4554 25.6058C17.5032 25.6017 17.5494 25.5898 17.5915 25.5707C17.6335 25.5516 17.6703 25.5257 17.6998 25.4946C17.7292 25.4635 17.7507 25.4279 17.7629 25.3898C17.7751 25.3517 17.7777 25.312 17.7706 25.2731C17.7573 25.1925 17.7066 25.1193 17.6289 25.0686C17.5512 25.018 17.4527 24.9939 17.3538 25.0013L11.4275 25.5041C11.3797 25.5082 11.3334 25.5201 11.2914 25.5392C11.2494 25.5583 11.2126 25.5842 11.1831 25.6153C11.1537 25.6464 11.1322 25.682 11.12 25.7201C11.1078 25.7582 11.1052 25.7979 11.1123 25.8368C11.1246 25.9108 11.1685 25.9788 11.2361 26.0288C11.3038 26.0789 11.3908 26.1077 11.482 26.1102Z" fill="#F8F5FB"/>
<path d="M11.482 27.2198C11.4991 27.2206 11.5161 27.2206 11.5332 27.2198L17.4554 26.7147C17.5031 26.7107 17.5494 26.6988 17.5914 26.6798C17.6334 26.6607 17.6703 26.6349 17.6997 26.6038C17.7292 26.5728 17.7507 26.5372 17.7629 26.4991C17.775 26.4611 17.7777 26.4214 17.7706 26.3825C17.7572 26.302 17.7064 26.2288 17.6287 26.1781C17.5511 26.1275 17.4526 26.1033 17.3538 26.1107L11.4276 26.6141C11.3798 26.6181 11.3334 26.63 11.2914 26.6491C11.2493 26.6682 11.2125 26.694 11.183 26.7252C11.1535 26.7563 11.132 26.792 11.1199 26.8301C11.1078 26.8682 11.1052 26.9079 11.1124 26.9468C11.1248 27.0207 11.1688 27.0886 11.2364 27.1386C11.304 27.1885 11.391 27.2173 11.482 27.2198Z" fill="#F8F5FB"/>
<path d="M12.018 28.3291C12.0344 28.33 12.0508 28.33 12.0672 28.3291L17.4659 27.8398C17.5118 27.8358 17.5564 27.8236 17.5968 27.804C17.6372 27.7844 17.6727 27.7579 17.701 27.726C17.7293 27.6941 17.75 27.6575 17.7616 27.6185C17.7733 27.5794 17.7758 27.5387 17.7689 27.4988C17.7561 27.4161 17.7073 27.341 17.6327 27.2891C17.558 27.2372 17.4633 27.2125 17.3683 27.2201L11.9696 27.7089C11.9235 27.7129 11.8789 27.7251 11.8384 27.7447C11.7979 27.7643 11.7624 27.7909 11.734 27.8229C11.7056 27.8548 11.6849 27.8914 11.6732 27.9306C11.6615 27.9697 11.659 28.0105 11.6659 28.0505C11.6782 28.1255 11.7201 28.1945 11.7844 28.2453C11.8487 28.2962 11.9314 28.3259 12.018 28.3291Z" fill="#F8F5FB"/>
</svg>
