<svg width="26" height="26" viewBox="0 0 26 26" fill="none" xmlns="http://www.w3.org/2000/svg">
<path d="M20 4H6C4.89543 4 4 4.89543 4 6V20C4 21.1046 4.89543 22 6 22H20C21.1046 22 22 21.1046 22 20V6C22 4.89543 21.1046 4 20 4Z" fill="#D0C5D7" stroke="#D0C5D7" stroke-width="2" stroke-linecap="round" stroke-linejoin="round"/>
<path d="M9.5 11C10.3284 11 11 10.3284 11 9.5C11 8.67157 10.3284 8 9.5 8C8.67157 8 8 8.67157 8 9.5C8 10.3284 8.67157 11 9.5 11Z" stroke="#7D45A1" stroke-width="2" stroke-linecap="round" stroke-linejoin="round"/>
<path d="M22 16L17 11L6 22" stroke="#7D45A1" stroke-width="2" stroke-linecap="round" stroke-linejoin="round"/>
</svg>
