<svg width="26" height="26" viewBox="0 0 26 26" fill="none" xmlns="http://www.w3.org/2000/svg">
<path opacity="0.4" d="M21.0104 9.7231C20.4792 9.7231 19.7756 9.7121 18.8996 9.7121C16.7632 9.7121 15.0065 8.0588 15.0065 6.0425V2.5049C15.0065 2.2266 14.7689 2 14.4742 2H8.25133C5.34725 2 3 4.2286 3 6.9599V18.8124C3 21.6779 5.45908 24 8.49362 24H17.7603C20.6539 24 23 21.7857 23 19.0522V10.2181C23 9.9387 22.7635 9.7132 22.4676 9.7143C21.9702 9.7176 21.3738 9.7231 21.0104 9.7231Z" fill="#7D45A1"/>
<path opacity="0.4" d="M17.4246 2.78474C17.1007 2.44782 16.5352 2.67965 16.5352 3.14657V6.00332C16.5352 7.20148 17.5221 8.18732 18.7202 8.18732C19.4753 8.19598 20.524 8.19815 21.4145 8.19598C21.8706 8.1949 22.1024 7.64998 21.7861 7.32065C20.6432 6.13223 18.5967 4.0024 17.4246 2.78474Z" fill="#7D45A1"/>
<path fill-rule="evenodd" clip-rule="evenodd" d="M7.806 12.3396H14.2769C14.7222 12.3396 15.084 11.9789 15.084 11.5336C15.084 11.0884 14.7222 10.7266 14.2769 10.7266H7.806C7.36075 10.7266 7 11.0884 7 11.5336C7 11.9789 7.36075 12.3396 7.806 12.3396ZM7.806 17.7498H16.7769C17.2222 17.7498 17.584 17.3891 17.584 16.9438C17.584 16.4986 17.2222 16.1367 16.7769 16.1367H7.806C7.36075 16.1367 7 16.4986 7 16.9438C7 17.3891 7.36075 17.7498 7.806 17.7498Z" fill="#7D45A1"/>
</svg>
