<svg width="16" height="17" viewBox="0 0 16 17" fill="none" xmlns="http://www.w3.org/2000/svg">
<path d="M12.76 9.12628C12.7866 8.92628 12.8 8.71961 12.8 8.49961C12.8 8.28628 12.7866 8.07295 12.7533 7.87295L14.1066 6.81961C14.165 6.77154 14.2048 6.70474 14.2194 6.63059C14.234 6.55644 14.2224 6.47952 14.1866 6.41294L12.9066 4.19961C12.869 4.13265 12.8088 4.0812 12.7368 4.05435C12.6648 4.02751 12.5856 4.02701 12.5133 4.05294L10.92 4.69294C10.5866 4.43961 10.2333 4.22628 9.83998 4.06628L9.59998 2.37294C9.58817 2.29663 9.54939 2.22708 9.49067 2.17693C9.43195 2.12677 9.3572 2.09934 9.27998 2.09961H6.71998C6.55998 2.09961 6.43331 2.21294 6.40664 2.37294L6.16664 4.06628C5.77331 4.22628 5.41331 4.44628 5.08664 4.69294L3.49331 4.05294C3.34664 3.99961 3.17998 4.05294 3.09998 4.19961L1.82664 6.41294C1.74664 6.55294 1.77331 6.72628 1.90664 6.81961L3.25998 7.87295C3.22664 8.07295 3.19998 8.29294 3.19998 8.49961C3.19998 8.70628 3.21331 8.92628 3.24664 9.12628L1.89331 10.1796C1.83499 10.2277 1.79515 10.2945 1.78056 10.3686C1.76597 10.4428 1.77754 10.5197 1.81331 10.5863L3.09331 12.7996C3.17331 12.9463 3.33998 12.9929 3.48664 12.9463L5.07998 12.3063C5.41331 12.5596 5.76664 12.7729 6.15998 12.9329L6.39998 14.6263C6.43331 14.7863 6.55998 14.8996 6.71998 14.8996H9.27998C9.43998 14.8996 9.57331 14.7863 9.59331 14.6263L9.83331 12.9329C10.2266 12.7729 10.5866 12.5596 10.9133 12.3063L12.5066 12.9463C12.6533 12.9996 12.82 12.9463 12.9 12.7996L14.18 10.5863C14.26 10.4396 14.2266 10.2729 14.1 10.1796L12.76 9.12628ZM7.99998 10.8996C6.67998 10.8996 5.59998 9.81961 5.59998 8.49961C5.59998 7.17961 6.67998 6.09961 7.99998 6.09961C9.31998 6.09961 10.4 7.17961 10.4 8.49961C10.4 9.81961 9.31998 10.8996 7.99998 10.8996Z" fill="#758089"/>
</svg>
