<svg width="75" height="76" viewBox="0 0 75 76" fill="none" xmlns="http://www.w3.org/2000/svg">
<path d="M20.3784 20.5457L20.2945 56.4681C20.2905 58.1928 21.6854 59.5943 23.4101 59.5983L52.7445 59.6667C54.4693 59.6707 55.8707 58.2758 55.8748 56.5511L55.9585 20.6288C55.9626 18.904 54.5677 17.5026 52.8429 17.4985L23.5085 17.4301C21.7838 17.4261 20.3824 18.821 20.3784 20.5457Z" fill="#7D45A1"/>
<path d="M51.6488 18.7144L24.6925 18.6514C23.8578 18.6494 23.1796 19.3244 23.1777 20.1591L23.0978 54.4131C23.0958 55.2478 23.7708 55.926 24.6055 55.9279L51.5618 55.9908C52.3965 55.9928 53.0747 55.3177 53.0766 54.4831L53.1566 20.2291C53.1584 19.3944 52.4834 18.7162 51.6488 18.7144Z" fill="white"/>
<path d="M22.7765 20.1122C22.4741 18.3451 22.487 16.5385 22.8143 14.7759C22.9127 14.2439 23.1093 13.6371 23.6188 13.452C23.9316 13.3389 24.2837 13.4242 24.5843 13.5652C25.7564 14.1146 26.4108 15.4389 26.5028 16.7313C26.5949 18.0237 27.1473 20.5639 25.8487 20.5367C23.9599 20.4969 25.6099 16.704 26.5046 15.0397C26.8534 14.3905 27.3697 13.735 28.2582 13.8934C28.8133 13.9933 29.2642 14.3874 29.5484 14.8714C30.2721 16.1281 30.4726 17.619 30.1068 19.0224C30.0895 19.0845 30.0541 19.1402 30.0053 19.1821C29.9564 19.2243 29.8962 19.2509 29.8321 19.2588C29.7681 19.2666 29.7032 19.2554 29.6457 19.2264C29.588 19.1973 29.5403 19.152 29.5084 19.0959C29.1669 18.4391 29.1576 17.6008 29.3877 16.8798C29.6863 15.9416 30.3225 15.1518 30.9404 14.3892C31.1133 14.1762 31.3011 13.9528 31.5628 13.8687C31.8644 13.7725 32.195 13.8814 32.4715 14.0309C34.3482 14.9901 35.2166 17.5346 34.3195 19.442C33.7305 19.1828 33.7115 18.3632 33.8165 17.7279C33.9805 16.7368 34.2317 15.7265 35.0033 15.0061C35.2392 14.7819 35.5244 14.6162 35.836 14.5224C37.1493 14.1411 38.1166 15.1813 38.815 16.1698C39.3484 16.9233 39.8556 17.7446 39.7241 18.7358C39.6969 18.9601 39.6194 19.1755 39.4974 19.3658C39.3752 19.5561 39.2118 19.7164 39.0191 19.8347C38.943 19.8838 38.8532 19.9074 38.7627 19.9021C38.5392 19.8776 38.4277 19.6225 38.3778 19.4032C37.9664 17.6026 38.8004 15.5844 40.3635 14.5987C40.5818 14.4404 40.8414 14.3493 41.1107 14.3363C41.358 14.3572 41.5947 14.4462 41.7946 14.5935C43.5288 15.7207 44.0243 18.3692 42.8163 20.0461C41.9758 19.4259 42.1593 18.1283 42.5291 17.1512C42.9819 15.9577 43.8005 14.6705 45.0735 14.5755C46.413 14.4764 47.4401 15.7713 47.9291 17.0179C48.3444 18.0814 48.5252 19.3968 47.7908 20.2692C46.9524 19.5479 47.3644 18.0328 47.4669 17.1771C47.5353 16.5307 47.7694 15.9129 48.1465 15.3834C49.4884 13.5627 51.3798 14.5613 52.034 15.9603C52.49 16.924 52.496 18.0311 52.4934 19.0968" stroke="#FBB858" stroke-width="1.2" stroke-miterlimit="10" stroke-linecap="round"/>
<path d="M27.0742 25.1016L49.2381 25.1524" stroke="#E1E2E2" stroke-width="1.2" stroke-miterlimit="10" stroke-linecap="round"/>
<path d="M27.0674 29.8359L49.232 29.8876" stroke="#E1E2E2" stroke-width="1.2" stroke-miterlimit="10" stroke-linecap="round"/>
<path d="M27.0547 34.5703L49.2176 34.6218" stroke="#E1E2E2" stroke-width="1.2" stroke-miterlimit="10" stroke-linecap="round"/>
<path d="M27.0488 39.3047L49.2127 39.3556" stroke="#E1E2E2" stroke-width="1.2" stroke-miterlimit="10" stroke-linecap="round"/>
<path d="M27.0303 44.0312L49.1941 44.0821" stroke="#E1E2E2" stroke-width="1.2" stroke-miterlimit="10" stroke-linecap="round"/>
<path d="M27.0166 48.7656L49.1812 48.8174" stroke="#E1E2E2" stroke-width="1.2" stroke-miterlimit="10" stroke-linecap="round"/>
<path d="M49.3903 51.9485C49.0981 51.5737 48.6237 51.3852 48.1586 51.287C47.6137 51.1727 46.9413 51.2143 46.6448 51.6859C46.4205 52.043 46.5137 52.5351 46.7751 52.8679C47.0365 53.2008 47.43 53.3988 47.8273 53.5439C48.7777 53.8885 49.8614 54.0056 50.6059 54.6895C50.3896 54.1242 50.652 53.5046 50.8523 52.9352C51.1482 52.0879 51.299 51.1169 50.8881 50.3187C50.7371 50.0242 50.4898 49.753 50.165 49.6861C49.6361 49.5743 49.1334 50.0679 49.0313 50.603C48.9291 51.1381 49.1071 51.6753 49.2843 52.1866" fill="#FBB858"/>
</svg>
