<svg width="39" height="39" viewBox="0 0 39 39" fill="none" xmlns="http://www.w3.org/2000/svg">
<circle cx="19.5" cy="19.5" r="19.5" fill="#1877F2"/>
<path d="M29.3009 16.1633C28.797 14.9606 28.0638 13.8674 27.1424 12.9446C26.2237 12.0203 25.1324 11.2854 23.9305 10.7817C22.6992 10.2631 21.3763 9.9973 20.0402 10H19.9953C18.6364 10.0068 17.3225 10.2763 16.0849 10.8064C14.8932 11.3153 13.8122 12.0515 12.9022 12.9738C11.9896 13.8945 11.2649 14.9839 10.7684 16.1813C10.2529 17.4264 9.99174 18.7621 10.0002 20.1097C10.0069 21.6685 10.3798 23.216 11.0761 24.5996V28.0137C11.0761 28.5842 11.5388 29.0469 12.107 29.0469H15.5166C16.9067 29.7483 18.4406 30.1174 19.9976 30.125H20.0447C21.3879 30.125 22.6884 29.8645 23.9147 29.3546C25.1106 28.8569 26.1978 28.1305 27.1154 27.2163C28.0408 26.2977 28.7686 25.224 29.2784 24.0269C29.8063 22.787 30.0758 21.4686 30.0825 20.1074C30.087 18.7396 29.822 17.4121 29.3009 16.1633ZM15.557 21.1406C14.9641 21.1406 14.4812 20.6577 14.4812 20.0625C14.4812 19.4673 14.9641 18.9844 15.557 18.9844C16.15 18.9844 16.6329 19.4673 16.6329 20.0625C16.6329 20.6577 16.1522 21.1406 15.557 21.1406ZM20.0402 21.1406C19.4473 21.1406 18.9644 20.6577 18.9644 20.0625C18.9644 19.4673 19.4473 18.9844 20.0402 18.9844C20.6332 18.9844 21.1161 19.4673 21.1161 20.0625C21.1161 20.6577 20.6332 21.1406 20.0402 21.1406ZM24.5234 21.1406C23.9305 21.1406 23.4476 20.6577 23.4476 20.0625C23.4476 19.4673 23.9305 18.9844 24.5234 18.9844C25.1164 18.9844 25.5993 19.4673 25.5993 20.0625C25.5993 20.6577 25.1164 21.1406 24.5234 21.1406Z" fill="white"/>
</svg>
