<svg width="63" height="63" viewBox="0 0 63 63" fill="none" xmlns="http://www.w3.org/2000/svg">
<circle cx="31.5" cy="31.5" r="31.5" fill="#F5F4F5"/>
<path d="M30.601 17.8594C30.9652 17.107 32.0369 17.107 32.4011 17.8593L36.3696 26.0572C36.5137 26.3549 36.7958 26.5621 37.123 26.6107L46.0273 27.9314C46.8414 28.0521 47.1693 29.0496 46.5856 29.6298L40.1176 36.0584C39.8874 36.2872 39.7826 36.6136 39.8364 36.9336L41.3606 45.9898C41.4985 46.8093 40.6346 47.4297 39.9021 47.0371L31.9734 42.7883C31.6783 42.6302 31.3238 42.6302 31.0287 42.7883L23.1 47.0371C22.3675 47.4297 21.5036 46.8093 21.6415 45.9898L23.1657 36.9337C23.2195 36.6136 23.1147 36.2872 22.8844 36.0584L16.4149 29.6299C15.8311 29.0498 16.1589 28.0521 16.9731 27.9314L25.8791 26.6106C26.2063 26.5621 26.4884 26.3549 26.6325 26.0572L30.601 17.8594Z" fill="#7D45A1"/>
</svg>
