<svg width="49" height="54" viewBox="0 0 49 54" fill="none" xmlns="http://www.w3.org/2000/svg">
  <path d="M41.676 7.875 8.84 51.75m6.324-43.875L48 51.75" stroke="#261405" stroke-width="2" stroke-miterlimit="10"/>
  <path d="M29.009 3.266s-32.755 20.829 0 49.993c0 0 29.893-22.003 0-49.993" fill="#5C2F0B"/>
  <path d="M28.89 7.883s-26.719 16.99 0 40.782c0-.01 24.387-17.96 0-40.782Z" stroke="#fff" stroke-miterlimit="10"/>
  <path d="M28.539 11.207 27.3 12.445l1.238 1.238 1.237-1.238zm.001 4.77-2.226 2.226 2.227 2.227 2.226-2.227zm-.004 26.269 1.237-1.238-1.237-1.238-1.238 1.238zm.004-4.762 2.226-2.226-2.227-2.227-2.226 2.227zm-.166-14.447-4.456 4.455 4.456 4.456 4.455-4.456z" fill="#fff"/>
  <mask id="a" style="mask-type:alpha" maskUnits="userSpaceOnUse" x="2" y="15" width="25" height="39">
    <path fill-rule="evenodd" clip-rule="evenodd" d="M26.083 15.078H2.426v11.25a11.83 11.83 0 0 0 6.211 10.41L4.787 49.64A3.39 3.39 0 0 0 8.034 54h12.188a3.39 3.39 0 0 0 3.226-4.46L19.28 37.035a11.83 11.83 0 0 0 6.803-10.708z" fill="#C16217"/>
  </mask>
  <g mask="url(#a)">
    <path fill-rule="evenodd" clip-rule="evenodd" d="M26.083 15.078H2.426v11.25a11.83 11.83 0 0 0 6.211 10.41L4.787 49.64A3.39 3.39 0 0 0 8.034 54h12.188a3.39 3.39 0 0 0 3.226-4.46L19.28 37.035a11.83 11.83 0 0 0 6.803-10.708z" fill="#C16217"/>
    <path d="m2.016 29.594 3.187 1.72 3.185-1.72 3.187 1.72 3.187-1.72 3.186 1.72 3.187-1.72 3.185 1.72 3.19-1.72 3.186 1.72m-28.68.506 3.187 1.72 3.185-1.72 3.187 1.72 3.187-1.72 3.186 1.72 3.187-1.72 3.185 1.72 3.19-1.72 3.186 1.72m-28.68.5 3.187 1.72 3.185-1.72 3.187 1.72 3.187-1.72 3.186 1.72 3.187-1.72 3.185 1.72 3.19-1.72 3.186 1.72M2.79 42.54l3.186 1.72 3.185-1.72 3.188 1.72 3.187-1.72 3.185 1.72 3.187-1.72 3.187 1.72 3.188-1.72 3.189 1.72m-28.682.498 3.186 1.72 3.185-1.72 3.188 1.72 3.187-1.72 3.185 1.72 3.187-1.72 3.187 1.72 3.188-1.72 3.189 1.72m-28.682.499 3.186 1.72 3.185-1.72 3.188 1.72 3.187-1.72 3.185 1.72 3.187-1.72 3.187 1.72 3.188-1.72 3.189 1.72M1.24 25.922h29.455M-.018 21.21h29.455" stroke="#5C2F0B" stroke-width=".8" stroke-miterlimit="10"/>
  </g>
  <path d="M25.205 13.633H2.318a2.318 2.318 0 1 0 0 4.634h22.887a2.318 2.318 0 1 0 0-4.634" fill="#F7C8A3"/>
  <path d="m47.879 1.061-3.192 8.362a3.325 3.325 0 0 1-5.185 1.471 3.485 3.485 0 0 1 .09-5.506L46.707.141a.778.778 0 0 1 1.172.92M8.84 1.613l3.428 8.269a3.325 3.325 0 0 0 5.226 1.316 3.486 3.486 0 0 0-.248-5.501L9.986.649a.779.779 0 0 0-1.146.964" fill="#261405"/>
</svg>
