<svg width="36" height="36" viewBox="0 0 36 36" fill="none" xmlns="http://www.w3.org/2000/svg">
<circle cx="18" cy="18" r="18" fill="#1DA1F2"/>
<path fill-rule="evenodd" clip-rule="evenodd" d="M28.7998 11.0778C28.0057 11.4306 27.1511 11.6681 26.2548 11.7754C27.1698 11.2268 27.8725 10.3585 28.203 9.32398C27.3477 9.83226 26.398 10.2002 25.3894 10.3996C24.5809 9.53852 23.4282 9 22.1546 9C19.7075 9 17.7233 10.9842 17.7233 13.4313C17.7233 13.7783 17.7629 14.1167 17.8385 14.4414C14.1553 14.2571 10.8903 12.4925 8.7045 9.81139C8.32292 10.4658 8.10478 11.2268 8.10478 12.0389C8.10478 13.576 8.88593 14.9324 10.076 15.7272C9.34885 15.7042 8.66634 15.5048 8.06806 15.1729V15.2283C8.06806 17.3759 9.59652 19.1664 11.6225 19.5747C11.251 19.6754 10.8593 19.7302 10.4554 19.7302C10.1696 19.7302 9.8917 19.7021 9.621 19.6502C10.1847 21.4105 11.8219 22.6921 13.7607 22.728C12.2445 23.916 10.3337 24.6251 8.25741 24.6251C7.89887 24.6251 7.5461 24.6042 7.1998 24.5625C9.16095 25.8195 11.49 26.5539 13.9925 26.5539C22.1431 26.5539 26.6003 19.8014 26.6003 13.9461C26.6003 13.7538 26.5967 13.5623 26.5874 13.373C27.4542 12.7466 28.2058 11.9662 28.7998 11.0778Z" fill="white"/>
</svg>
