<svg width="14" height="13" viewBox="0 0 14 13" fill="none" xmlns="http://www.w3.org/2000/svg">
<path d="M5.23281 8.40527C2.59027 8.40527 0.333252 8.81348 0.333252 10.445C0.333252 12.0779 2.57592 12.5001 5.23281 12.5001C7.87534 12.5001 10.1324 12.0919 10.1324 10.4604C10.1324 8.82753 7.8897 8.40527 5.23281 8.40527Z" fill="#949494"/>
<path opacity="0.4" d="M5.23274 6.84988C7.03248 6.84988 8.47476 5.43745 8.47476 3.67494C8.47476 1.91243 7.03248 0.5 5.23274 0.5C3.43365 0.5 1.99072 1.91243 1.99072 3.67494C1.99072 5.43745 3.43365 6.84988 5.23274 6.84988Z" fill="#949494"/>
<path opacity="0.4" d="M9.78227 3.73249C9.78227 4.63003 9.50699 5.46753 9.02428 6.1632C8.97405 6.23475 9.01841 6.33121 9.10582 6.34654C9.22715 6.36635 9.35174 6.37848 9.47894 6.38104C10.7444 6.41362 11.8801 5.61573 12.1939 4.41411C12.659 2.63116 11.2943 1.03027 9.55592 1.03027C9.3674 1.03027 9.1867 1.04944 9.01058 1.08457C8.98644 1.08968 8.96035 1.10118 8.9473 1.12162C8.93034 1.14782 8.94274 1.18167 8.9597 1.20403C9.4822 1.92143 9.78227 2.7947 9.78227 3.73249Z" fill="#949494"/>
<path d="M13.5193 8.61251C13.2877 8.12892 12.7287 7.79737 11.8781 7.63447C11.4769 7.53865 10.3901 7.40258 9.3797 7.42175C9.36469 7.42366 9.35621 7.43388 9.35491 7.44027C9.35295 7.45049 9.35752 7.46582 9.37709 7.47668C9.84415 7.70283 11.6491 8.68661 11.4221 10.7615C11.4123 10.8522 11.486 10.9289 11.578 10.9161C12.0222 10.8541 13.1651 10.6133 13.5193 9.8646C13.7157 9.46853 13.7157 9.00858 13.5193 8.61251Z" fill="#949494"/>
</svg>
