<svg width="164" height="158" viewBox="0 0 164 158" fill="none" xmlns="http://www.w3.org/2000/svg">
<rect width="164" height="158" rx="79" fill="white"/>
<path d="M117.131 58.4844H46.874V118.368H117.131V58.4844Z" stroke="#7D45A1" stroke-width="4" stroke-miterlimit="10"/>
<path d="M56.7344 39L54.9983 54.9959H37L39.8942 39H56.7344Z" fill="#7D45A1"/>
<path d="M72.9974 54.9959L73.5774 39H56.7371L54.999 54.9959H72.9974Z" fill="#D0C5D7"/>
<path d="M91.0013 54.9959L90.4232 39H73.5829L73.0029 54.9959H91.0013Z" fill="#7D45A1"/>
<path d="M108.996 54.9959L107.256 39H90.418L90.996 54.9959H108.996Z" fill="#D0C5D7"/>
<path d="M127 54.9959H108.998L107.262 39H124.102L127 54.9959Z" fill="#7D45A1"/>
<path d="M37 55V62.4495C37.0005 64.8361 37.949 67.1249 39.6368 68.8123C41.3246 70.4997 43.6135 71.4477 46.0002 71.4477C48.3868 71.4477 50.6757 70.4997 52.3635 68.8123C54.0513 67.1249 54.9998 64.8361 55.0003 62.4495V55H37Z" fill="#7D45A1"/>
<path d="M54.999 55V62.4495C54.999 64.836 55.947 67.1247 57.6345 68.8122C59.322 70.4996 61.6107 71.4477 63.9972 71.4477C65.1799 71.4492 66.3512 71.2176 67.4443 70.7661C68.5374 70.3146 69.5307 69.6521 70.3675 68.8164C71.2043 67.9806 71.8682 66.9882 72.3211 65.8957C72.7741 64.8032 73.0072 63.6321 73.0072 62.4495V55H54.999Z" fill="#D0C5D7"/>
<path d="M73.0117 55V62.4495C73.0117 63.6313 73.2445 64.8016 73.6969 65.8934C74.1492 66.9852 74.8122 67.9773 75.6479 68.8129C76.4837 69.6484 77.4759 70.3112 78.5678 70.7633C79.6597 71.2154 80.83 71.4479 82.0119 71.4477C84.3983 71.4477 86.6871 70.4996 88.3745 68.8122C90.062 67.1247 91.01 64.836 91.01 62.4495V55H73.0117Z" fill="#7D45A1"/>
<path d="M91.002 55V62.4495C91.0025 64.8361 91.9509 67.1249 93.6387 68.8123C95.3265 70.4997 97.6155 71.4477 100.002 71.4477C102.389 71.4477 104.678 70.4997 106.365 68.8123C108.053 67.1249 109.002 64.8361 109.002 62.4495V55H91.002Z" fill="#D0C5D7"/>
<path d="M108.997 55V62.4495C108.997 64.8349 109.944 67.1228 111.63 68.8101C113.317 70.4974 115.604 71.4461 117.989 71.4477C119.171 71.4479 120.341 71.2154 121.433 70.7633C122.525 70.3112 123.518 69.6484 124.353 68.8129C125.189 67.9773 125.852 66.9852 126.304 65.8934C126.757 64.8016 126.989 63.6313 126.989 62.4495V55H108.997Z" fill="#7D45A1"/>
<g style="mix-blend-mode:overlay" opacity="0.25">
<path d="M126.994 54.9959H37L39.8922 39H124.096L126.994 54.9959Z" fill="white"/>
</g>
<path d="M117.131 85.7812H46.874V118.369H117.131V85.7812Z" fill="#7D45A1"/>
<ellipse cx="82.5" cy="101.5" rx="25.5" ry="4.5" fill="#FBB858"/>
</svg>
