<svg width="16" height="17" viewBox="0 0 16 17" fill="none" xmlns="http://www.w3.org/2000/svg">
<path d="M6.76842 4.20291C6.80237 4.27202 6.8248 4.34603 6.83484 4.42212L7.02047 7.18206L7.11261 8.56928C7.11356 8.71193 7.13594 8.85367 7.17903 8.98992C7.29032 9.25426 7.55803 9.42227 7.84929 9.41056L12.2875 9.12026C12.4797 9.11709 12.6653 9.18897 12.8034 9.32008C12.9185 9.42934 12.9929 9.57227 13.0163 9.726L13.0242 9.81935C12.8405 12.3625 10.9727 14.4837 8.43482 15.0312C5.89695 15.5788 3.29449 14.4221 2.04039 12.1892C1.67884 11.5404 1.45302 10.8274 1.37617 10.0919C1.34407 9.87414 1.32994 9.65422 1.3339 9.43426C1.32994 6.70771 3.27157 4.35053 5.98947 3.78227C6.31659 3.73134 6.63727 3.90451 6.76842 4.20291Z" fill="#758089"/>
<path opacity="0.4" d="M8.57997 1.83355C11.6199 1.91089 14.1748 4.09687 14.6666 7.0412L14.6619 7.06292L14.6485 7.09452L14.6504 7.18125C14.6434 7.29615 14.5991 7.4067 14.5226 7.496C14.443 7.58901 14.3342 7.65236 14.2144 7.67695L14.1413 7.68697L9.02077 8.01875C8.85044 8.03554 8.68086 7.98062 8.55419 7.86764C8.44864 7.77349 8.38116 7.6464 8.3621 7.50946L8.0184 2.39638C8.01242 2.37909 8.01242 2.36035 8.0184 2.34306C8.0231 2.20212 8.08514 2.0689 8.19066 1.97316C8.29618 1.87742 8.43639 1.82714 8.57997 1.83355Z" fill="#758089"/>
</svg>
