<svg width="16" height="17" viewBox="0 0 16 17" fill="none" xmlns="http://www.w3.org/2000/svg">
<path d="M6.0959 14.3544V12.3098C6.09589 11.7917 6.51719 11.3708 7.03904 11.3676H8.95515C9.47933 11.3676 9.90426 11.7894 9.90426 12.3098V14.3485C9.90425 14.7979 10.2694 15.1631 10.722 15.1663H12.0293C12.6398 15.1679 13.2259 14.9282 13.6582 14.5001C14.0905 14.0721 14.3334 13.4908 14.3334 12.8847V7.07691C14.3334 6.58727 14.1148 6.12282 13.7365 5.80867L9.2954 2.28252C8.51909 1.66576 7.41033 1.68568 6.65701 2.32993L2.31142 5.80867C1.91524 6.11356 1.67845 6.57938 1.66675 7.07691V12.8788C1.66675 14.1421 2.69834 15.1663 3.97086 15.1663H5.24827C5.4662 15.1679 5.67574 15.0831 5.8304 14.9306C5.98505 14.7782 6.07203 14.5708 6.07203 14.3544H6.0959Z" fill="#758089"/>
</svg>
