<svg width="14" height="15" viewBox="0 0 14 15" fill="none" xmlns="http://www.w3.org/2000/svg">
<path opacity="0.4" d="M10.1095 14.1595H3.88984C2.92549 14.2194 1.97846 13.8851 1.26585 13.2338C0.614518 12.5205 0.280193 11.5735 0.340132 10.6098V4.38956C0.280193 3.42589 0.613852 2.47886 1.26519 1.7656C1.97846 1.11427 2.92549 0.779949 3.88984 0.839887H10.1095C11.0725 0.779949 12.0189 1.1136 12.7315 1.76493C13.3821 2.47886 13.7171 3.42522 13.6598 4.38956V10.6098C13.7191 11.5735 13.3855 12.5205 12.7341 13.2338C12.0209 13.8851 11.0738 14.2194 10.1095 14.1595Z" fill="#758089"/>
<path d="M10.3696 6.43138L6.0011 10.8216C5.77391 11.0428 5.47532 11.1663 5.16375 11.1663H3.63833C3.55395 11.1663 3.47606 11.1338 3.41764 11.0753C3.35922 11.0167 3.33325 10.9387 3.33325 10.8541L3.3722 9.31268C3.37869 9.00699 3.50202 8.72081 3.71623 8.50618L6.81249 5.40374C6.86442 5.35171 6.95529 5.35171 7.00722 5.40374L8.09318 6.48537C8.16459 6.55626 8.26844 6.60244 8.37879 6.60244C8.61896 6.60244 8.80721 6.40732 8.80721 6.17317C8.80721 6.0561 8.76177 5.95203 8.69037 5.87398C8.67089 5.84797 7.63686 4.81837 7.63686 4.81837C7.57195 4.75333 7.57195 4.64276 7.63686 4.57772L8.07176 4.13545C8.47421 3.73219 9.12332 3.73219 9.52577 4.13545L10.3696 4.98098C10.7656 5.37772 10.7656 6.02813 10.3696 6.43138Z" fill="#758089"/>
</svg>
