<svg width="17" height="17" viewBox="0 0 17 17" fill="none" xmlns="http://www.w3.org/2000/svg">
<path opacity="0.4" d="M15.1666 8.49968C15.1666 12.1817 12.1819 15.1663 8.49992 15.1663C4.81792 15.1663 1.83325 12.1817 1.83325 8.49968C1.83325 4.81834 4.81792 1.83301 8.49992 1.83301C12.1819 1.83301 15.1666 4.81834 15.1666 8.49968Z" fill="#758089"/>
<path d="M11.0731 6.30256L9.99314 9.71589C9.95314 9.85589 9.83981 9.96922 9.69981 10.0099L6.29981 11.0759C6.07314 11.1499 5.85314 10.9292 5.92648 10.7026L6.99314 7.28256C7.03314 7.14256 7.14648 7.03589 7.28648 6.98922L10.6998 5.92256C10.9331 5.84922 11.1465 6.06922 11.0731 6.30256Z" fill="#758089"/>
</svg>
