<svg width="35" height="35" viewBox="0 0 35 35" fill="none" xmlns="http://www.w3.org/2000/svg">
<circle cx="17.5" cy="17.5" r="17.5" fill="#7D45A1"/>
<path d="M15.859 21.6927L15.049 22.4977C14.7097 22.8317 14.2526 23.0189 13.7765 23.0189C13.3004 23.0189 12.8433 22.8317 12.504 22.4977C12.3386 22.3339 12.2072 22.1389 12.1176 21.924C12.028 21.7091 11.9818 21.4786 11.9818 21.2457C11.9818 21.0129 12.028 20.7824 12.1176 20.5675C12.2072 20.3526 12.3386 20.1576 12.504 19.9937L15.484 17.0387C16.101 16.4257 17.263 15.5237 18.11 16.3637C18.2012 16.4609 18.311 16.5388 18.4328 16.5926C18.5547 16.6464 18.6862 16.6751 18.8195 16.677C18.9527 16.6789 19.0849 16.654 19.2083 16.6036C19.3317 16.5533 19.4437 16.4786 19.5375 16.3841C19.6314 16.2895 19.7053 16.177 19.7548 16.0533C19.8042 15.9296 19.8282 15.7971 19.8254 15.6639C19.8225 15.5307 19.7929 15.3994 19.7382 15.2779C19.6835 15.1564 19.6049 15.0472 19.507 14.9567C18.069 13.5287 15.941 13.7927 14.088 15.6317L11.108 18.5877C10.7559 18.9349 10.4766 19.3488 10.2863 19.8051C10.0961 20.2615 9.99873 20.7513 10 21.2457C9.99878 21.7402 10.0961 22.2299 10.2864 22.6863C10.4766 23.1427 10.7559 23.5566 11.108 23.9037C11.8177 24.6077 12.7774 25.0018 13.777 24.9997C14.744 24.9997 15.711 24.6347 16.446 23.9037L17.257 23.0987C17.3495 23.0073 17.423 22.8984 17.4733 22.7785C17.5237 22.6586 17.5498 22.5299 17.5503 22.3998C17.5507 22.2697 17.5255 22.1408 17.476 22.0205C17.4266 21.9002 17.3538 21.7909 17.262 21.6987C17.0764 21.5126 16.8246 21.4075 16.5617 21.4064C16.2989 21.4052 16.0462 21.5082 15.859 21.6927ZM24.891 10.2087C23.344 8.67474 21.182 8.59174 19.752 10.0117L18.743 11.0137C18.5566 11.1989 18.4513 11.4505 18.4504 11.7132C18.4494 11.9759 18.5529 12.2283 18.738 12.4147C18.9231 12.6012 19.1747 12.7065 19.4375 12.7074C19.7002 12.7083 19.9526 12.6049 20.139 12.4197L21.149 11.4187C21.889 10.6827 22.86 10.9877 23.495 11.6157C23.831 11.9507 24.017 12.3947 24.017 12.8677C24.017 13.3407 23.831 13.7847 23.495 14.1187L20.315 17.2727C18.861 18.7137 18.179 18.0387 17.888 17.7497C17.7957 17.6581 17.6862 17.5855 17.5659 17.5361C17.4455 17.4868 17.3166 17.4616 17.1865 17.4621C17.0564 17.4625 16.9277 17.4886 16.8076 17.5388C16.6876 17.5891 16.5787 17.6624 16.487 17.7547C16.3953 17.8471 16.3228 17.9565 16.2734 18.0769C16.2241 18.1973 16.1989 18.3262 16.1994 18.4563C16.1998 18.5864 16.2259 18.7151 16.2761 18.8351C16.3263 18.9551 16.3997 19.0641 16.492 19.1557C17.16 19.8177 17.922 20.1457 18.72 20.1457C19.697 20.1457 20.73 19.6537 21.713 18.6787L24.893 15.5257C25.2444 15.1781 25.5231 14.7641 25.7132 14.3078C25.9032 13.8515 26.0007 13.362 26 12.8677C26.0009 12.3731 25.9033 11.8832 25.7129 11.4267C25.5225 10.9702 25.2431 10.5562 24.891 10.2087Z" fill="white"/>
</svg>
