<svg width="408" height="204" viewBox="0 0 408 204" fill="none" xmlns="http://www.w3.org/2000/svg">
<g clip-path="url(#clip0_15204_78102)">
<rect width="408" height="204" rx="20" fill="#7D45A1"/>
<path d="M84.366 10.2692C76.7586 53.905 36.6204 83.3038 -5.2345 76.0069C-47.0894 68.71 -74.9113 27.4631 -67.3038 -16.1728C-59.6964 -59.8086 -19.5582 -89.2074 22.2967 -81.9104C64.1515 -74.6135 91.9734 -33.3666 84.366 10.2692Z" stroke="#FBB858" stroke-width="1.50155"/>
<path d="M22.2084 111.065C4.58715 147.776 -39.0927 163.408 -75.3446 146.007C-111.596 128.606 -126.72 84.7472 -109.099 48.0369C-91.4777 11.3265 -47.7978 -4.30613 -11.5459 13.095C24.7059 30.4961 39.8295 74.3548 22.2084 111.065Z" stroke="#FBB858" stroke-width="1.50155"/>
<path d="M498.714 93.2909C537.999 106.247 559.312 148.707 546.31 188.132C533.308 227.557 490.918 249.01 451.633 236.054C412.347 223.098 391.035 180.638 404.037 141.213C417.038 101.788 459.428 80.3351 498.714 93.2909Z" stroke="#FBB858" stroke-width="1.31737"/>
<circle cx="411.472" cy="210.055" r="46.4336" transform="rotate(-71.7483 411.472 210.055)" stroke="#FBB858" stroke-width="1.31737"/>
<path d="M100.36 130.384C98.2907 130.384 96.52 129.904 95.048 128.944C93.576 127.963 92.4347 126.608 91.624 124.88C90.8347 123.131 90.44 121.104 90.44 118.8C90.44 116.517 90.8347 114.501 91.624 112.752C92.4347 111.003 93.576 109.648 95.048 108.688C96.52 107.707 98.2907 107.216 100.36 107.216C102.429 107.216 104.2 107.707 105.672 108.688C107.144 109.648 108.275 111.003 109.064 112.752C109.875 114.501 110.28 116.517 110.28 118.8C110.28 121.104 109.875 123.131 109.064 124.88C108.275 126.608 107.144 127.963 105.672 128.944C104.2 129.904 102.429 130.384 100.36 130.384ZM100.36 126.704C102.045 126.704 103.421 126 104.488 124.592C105.555 123.184 106.088 121.253 106.088 118.8C106.088 116.347 105.555 114.416 104.488 113.008C103.421 111.6 102.045 110.896 100.36 110.896C98.6533 110.896 97.2667 111.6 96.2 113.008C95.1547 114.416 94.632 116.347 94.632 118.8C94.632 121.253 95.1547 123.184 96.2 124.592C97.2667 126 98.6533 126.704 100.36 126.704Z" fill="#F8F5FB"/>
<path d="M89.32 156V148.632H86.836V147.6H93.064V148.632H90.592V156H89.32ZM95.9122 156.144C95.3442 156.144 94.8322 156.016 94.3762 155.76C93.9282 155.496 93.5722 155.132 93.3082 154.668C93.0442 154.196 92.9122 153.648 92.9122 153.024C92.9122 152.4 93.0442 151.856 93.3082 151.392C93.5802 150.92 93.9442 150.556 94.4002 150.3C94.8562 150.036 95.3642 149.904 95.9242 149.904C96.4922 149.904 97.0002 150.036 97.4482 150.3C97.9042 150.556 98.2642 150.92 98.5282 151.392C98.8002 151.856 98.9362 152.4 98.9362 153.024C98.9362 153.648 98.8002 154.196 98.5282 154.668C98.2642 155.132 97.9042 155.496 97.4482 155.76C96.9922 156.016 96.4802 156.144 95.9122 156.144ZM95.9122 155.052C96.2162 155.052 96.4962 154.976 96.7522 154.824C97.0162 154.672 97.2282 154.448 97.3882 154.152C97.5482 153.848 97.6282 153.472 97.6282 153.024C97.6282 152.576 97.5482 152.204 97.3882 151.908C97.2362 151.604 97.0282 151.376 96.7642 151.224C96.5082 151.072 96.2282 150.996 95.9242 150.996C95.6202 150.996 95.3362 151.072 95.0722 151.224C94.8162 151.376 94.6082 151.604 94.4482 151.908C94.2882 152.204 94.2082 152.576 94.2082 153.024C94.2082 153.472 94.2882 153.848 94.4482 154.152C94.6082 154.448 94.8162 154.672 95.0722 154.824C95.3282 154.976 95.6082 155.052 95.9122 155.052ZM102.573 156C101.989 156 101.525 155.86 101.181 155.58C100.837 155.292 100.665 154.784 100.665 154.056V151.116H99.6454V150.048H100.665L100.821 148.536H101.937V150.048H103.617V151.116H101.937V154.056C101.937 154.384 102.005 154.612 102.141 154.74C102.285 154.86 102.529 154.92 102.873 154.92H103.557V156H102.573ZM106.945 156.144C106.441 156.144 106.025 156.06 105.697 155.892C105.369 155.724 105.125 155.504 104.965 155.232C104.805 154.952 104.725 154.648 104.725 154.32C104.725 153.744 104.949 153.288 105.397 152.952C105.845 152.616 106.485 152.448 107.317 152.448H108.877V152.34C108.877 151.876 108.749 151.528 108.493 151.296C108.245 151.064 107.921 150.948 107.521 150.948C107.169 150.948 106.861 151.036 106.597 151.212C106.341 151.38 106.185 151.632 106.129 151.968H104.857C104.897 151.536 105.041 151.168 105.289 150.864C105.545 150.552 105.865 150.316 106.249 150.156C106.641 149.988 107.069 149.904 107.533 149.904C108.365 149.904 109.009 150.124 109.465 150.564C109.921 150.996 110.149 151.588 110.149 152.34V156H109.045L108.937 154.98C108.769 155.308 108.525 155.584 108.205 155.808C107.885 156.032 107.465 156.144 106.945 156.144ZM107.197 155.112C107.541 155.112 107.829 155.032 108.061 154.872C108.301 154.704 108.485 154.484 108.613 154.212C108.749 153.94 108.833 153.64 108.865 153.312H107.449C106.945 153.312 106.585 153.4 106.369 153.576C106.161 153.752 106.057 153.972 106.057 154.236C106.057 154.508 106.157 154.724 106.357 154.884C106.565 155.036 106.845 155.112 107.197 155.112ZM111.632 156V147.36H112.904V156H111.632Z" fill="white"/>
<line x1="133.973" y1="162.617" x2="133.973" y2="99.3837" stroke="white" stroke-width="1.05389"/>
<path d="M186.36 130.384C184.291 130.384 182.52 129.904 181.048 128.944C179.576 127.963 178.435 126.608 177.624 124.88C176.835 123.131 176.44 121.104 176.44 118.8C176.44 116.517 176.835 114.501 177.624 112.752C178.435 111.003 179.576 109.648 181.048 108.688C182.52 107.707 184.291 107.216 186.36 107.216C188.429 107.216 190.2 107.707 191.672 108.688C193.144 109.648 194.275 111.003 195.064 112.752C195.875 114.501 196.28 116.517 196.28 118.8C196.28 121.104 195.875 123.131 195.064 124.88C194.275 126.608 193.144 127.963 191.672 128.944C190.2 129.904 188.429 130.384 186.36 130.384ZM186.36 126.704C188.045 126.704 189.421 126 190.488 124.592C191.555 123.184 192.088 121.253 192.088 118.8C192.088 116.347 191.555 114.416 190.488 113.008C189.421 111.6 188.045 110.896 186.36 110.896C184.653 110.896 183.267 111.6 182.2 113.008C181.155 114.416 180.632 116.347 180.632 118.8C180.632 121.253 181.155 123.184 182.2 124.592C183.267 126 184.653 126.704 186.36 126.704Z" fill="#F8F5FB"/>
<path d="M159.096 156.144C158.264 156.144 157.544 155.964 156.936 155.604C156.336 155.236 155.872 154.728 155.544 154.08C155.216 153.424 155.052 152.668 155.052 151.812C155.052 150.948 155.216 150.192 155.544 149.544C155.872 148.888 156.336 148.376 156.936 148.008C157.544 147.64 158.264 147.456 159.096 147.456C160.08 147.456 160.884 147.696 161.508 148.176C162.132 148.656 162.528 149.328 162.696 150.192H161.28C161.168 149.704 160.928 149.316 160.56 149.028C160.192 148.74 159.7 148.596 159.084 148.596C158.244 148.596 157.58 148.884 157.092 149.46C156.604 150.028 156.36 150.812 156.36 151.812C156.36 152.804 156.604 153.584 157.092 154.152C157.58 154.72 158.244 155.004 159.084 155.004C159.7 155.004 160.192 154.868 160.56 154.596C160.928 154.324 161.168 153.952 161.28 153.48H162.696C162.528 154.312 162.132 154.964 161.508 155.436C160.884 155.908 160.08 156.144 159.096 156.144ZM166.83 156.144C166.262 156.144 165.75 156.016 165.294 155.76C164.846 155.496 164.49 155.132 164.226 154.668C163.962 154.196 163.83 153.648 163.83 153.024C163.83 152.4 163.962 151.856 164.226 151.392C164.498 150.92 164.862 150.556 165.318 150.3C165.774 150.036 166.282 149.904 166.842 149.904C167.41 149.904 167.918 150.036 168.366 150.3C168.822 150.556 169.182 150.92 169.446 151.392C169.718 151.856 169.854 152.4 169.854 153.024C169.854 153.648 169.718 154.196 169.446 154.668C169.182 155.132 168.822 155.496 168.366 155.76C167.91 156.016 167.398 156.144 166.83 156.144ZM166.83 155.052C167.134 155.052 167.414 154.976 167.67 154.824C167.934 154.672 168.146 154.448 168.306 154.152C168.466 153.848 168.546 153.472 168.546 153.024C168.546 152.576 168.466 152.204 168.306 151.908C168.154 151.604 167.946 151.376 167.682 151.224C167.426 151.072 167.146 150.996 166.842 150.996C166.538 150.996 166.254 151.072 165.99 151.224C165.734 151.376 165.526 151.604 165.366 151.908C165.206 152.204 165.126 152.576 165.126 153.024C165.126 153.472 165.206 153.848 165.366 154.152C165.526 154.448 165.734 154.672 165.99 154.824C166.246 154.976 166.526 155.052 166.83 155.052ZM171.23 156V150.048H172.358L172.466 150.888C172.658 150.584 172.91 150.344 173.222 150.168C173.542 149.992 173.91 149.904 174.326 149.904C175.27 149.904 175.926 150.276 176.294 151.02C176.51 150.676 176.798 150.404 177.158 150.204C177.526 150.004 177.922 149.904 178.346 149.904C179.09 149.904 179.674 150.128 180.098 150.576C180.522 151.024 180.734 151.692 180.734 152.58V156H179.462V152.712C179.462 151.56 179.022 150.984 178.142 150.984C177.694 150.984 177.326 151.152 177.038 151.488C176.758 151.824 176.618 152.304 176.618 152.928V156H175.346V152.712C175.346 151.56 174.902 150.984 174.014 150.984C173.574 150.984 173.21 151.152 172.922 151.488C172.642 151.824 172.502 152.304 172.502 152.928V156H171.23ZM182.222 158.64V150.048H183.362L183.494 150.972C183.686 150.692 183.95 150.444 184.286 150.228C184.622 150.012 185.054 149.904 185.582 149.904C186.158 149.904 186.666 150.04 187.106 150.312C187.546 150.584 187.89 150.956 188.138 151.428C188.394 151.9 188.522 152.436 188.522 153.036C188.522 153.636 188.394 154.172 188.138 154.644C187.89 155.108 187.546 155.476 187.106 155.748C186.666 156.012 186.154 156.144 185.57 156.144C185.106 156.144 184.694 156.052 184.334 155.868C183.982 155.684 183.702 155.424 183.494 155.088V158.64H182.222ZM185.354 155.04C185.898 155.04 186.346 154.856 186.698 154.488C187.05 154.112 187.226 153.624 187.226 153.024C187.226 152.632 187.146 152.284 186.986 151.98C186.826 151.676 186.606 151.44 186.326 151.272C186.046 151.096 185.722 151.008 185.354 151.008C184.81 151.008 184.362 151.196 184.01 151.572C183.666 151.948 183.494 152.432 183.494 153.024C183.494 153.624 183.666 154.112 184.01 154.488C184.362 154.856 184.81 155.04 185.354 155.04ZM189.898 156V147.36H191.17V156H189.898ZM195.565 156.144C194.981 156.144 194.461 156.016 194.005 155.76C193.557 155.496 193.205 155.132 192.949 154.668C192.693 154.204 192.565 153.664 192.565 153.048C192.565 152.424 192.689 151.876 192.937 151.404C193.193 150.932 193.545 150.564 193.993 150.3C194.449 150.036 194.977 149.904 195.577 149.904C196.161 149.904 196.669 150.036 197.101 150.3C197.533 150.556 197.869 150.9 198.109 151.332C198.349 151.764 198.469 152.24 198.469 152.76C198.469 152.84 198.465 152.928 198.457 153.024C198.457 153.112 198.453 153.212 198.445 153.324H193.813C193.853 153.9 194.041 154.34 194.377 154.644C194.721 154.94 195.117 155.088 195.565 155.088C195.925 155.088 196.225 155.008 196.465 154.848C196.713 154.68 196.897 154.456 197.017 154.176H198.289C198.129 154.736 197.809 155.204 197.329 155.58C196.857 155.956 196.269 156.144 195.565 156.144ZM195.565 150.948C195.141 150.948 194.765 151.076 194.437 151.332C194.109 151.58 193.909 151.956 193.837 152.46H197.197C197.173 151.996 197.009 151.628 196.705 151.356C196.401 151.084 196.021 150.948 195.565 150.948ZM202.132 156C201.548 156 201.084 155.86 200.74 155.58C200.396 155.292 200.224 154.784 200.224 154.056V151.116H199.204V150.048H200.224L200.38 148.536H201.496V150.048H203.176V151.116H201.496V154.056C201.496 154.384 201.564 154.612 201.7 154.74C201.844 154.86 202.088 154.92 202.432 154.92H203.116V156H202.132ZM207.119 156.144C206.535 156.144 206.015 156.016 205.559 155.76C205.111 155.496 204.759 155.132 204.503 154.668C204.247 154.204 204.119 153.664 204.119 153.048C204.119 152.424 204.243 151.876 204.491 151.404C204.747 150.932 205.099 150.564 205.547 150.3C206.003 150.036 206.531 149.904 207.131 149.904C207.715 149.904 208.223 150.036 208.655 150.3C209.087 150.556 209.423 150.9 209.663 151.332C209.903 151.764 210.023 152.24 210.023 152.76C210.023 152.84 210.019 152.928 210.011 153.024C210.011 153.112 210.007 153.212 209.999 153.324H205.367C205.407 153.9 205.595 154.34 205.931 154.644C206.275 154.94 206.671 155.088 207.119 155.088C207.479 155.088 207.779 155.008 208.019 154.848C208.267 154.68 208.451 154.456 208.571 154.176H209.843C209.683 154.736 209.363 155.204 208.883 155.58C208.411 155.956 207.823 156.144 207.119 156.144ZM207.119 150.948C206.695 150.948 206.319 151.076 205.991 151.332C205.663 151.58 205.463 151.956 205.391 152.46H208.751C208.727 151.996 208.563 151.628 208.259 151.356C207.955 151.084 207.575 150.948 207.119 150.948ZM214.055 156.144C213.479 156.144 212.971 156.008 212.531 155.736C212.091 155.464 211.747 155.092 211.499 154.62C211.251 154.148 211.127 153.612 211.127 153.012C211.127 152.412 211.251 151.88 211.499 151.416C211.747 150.944 212.091 150.576 212.531 150.312C212.979 150.04 213.491 149.904 214.067 149.904C214.539 149.904 214.951 149.996 215.303 150.18C215.663 150.364 215.943 150.624 216.143 150.96V147.36H217.415V156H216.275L216.143 155.076C215.951 155.356 215.687 155.604 215.351 155.82C215.015 156.036 214.583 156.144 214.055 156.144ZM214.283 155.04C214.827 155.04 215.271 154.852 215.615 154.476C215.967 154.1 216.143 153.616 216.143 153.024C216.143 152.424 215.967 151.94 215.615 151.572C215.271 151.196 214.827 151.008 214.283 151.008C213.739 151.008 213.291 151.196 212.939 151.572C212.587 151.94 212.411 152.424 212.411 153.024C212.411 153.416 212.491 153.764 212.651 154.068C212.811 154.372 213.031 154.612 213.311 154.788C213.599 154.956 213.923 155.04 214.283 155.04Z" fill="white"/>
<line x1="237.973" y1="162.617" x2="237.973" y2="99.3837" stroke="white" stroke-width="1.05389"/>
<path d="M289.86 130.384C287.791 130.384 286.02 129.904 284.548 128.944C283.076 127.963 281.935 126.608 281.124 124.88C280.335 123.131 279.94 121.104 279.94 118.8C279.94 116.517 280.335 114.501 281.124 112.752C281.935 111.003 283.076 109.648 284.548 108.688C286.02 107.707 287.791 107.216 289.86 107.216C291.929 107.216 293.7 107.707 295.172 108.688C296.644 109.648 297.775 111.003 298.564 112.752C299.375 114.501 299.78 116.517 299.78 118.8C299.78 121.104 299.375 123.131 298.564 124.88C297.775 126.608 296.644 127.963 295.172 128.944C293.7 129.904 291.929 130.384 289.86 130.384ZM289.86 126.704C291.545 126.704 292.921 126 293.988 124.592C295.055 123.184 295.588 121.253 295.588 118.8C295.588 116.347 295.055 114.416 293.988 113.008C292.921 111.6 291.545 110.896 289.86 110.896C288.153 110.896 286.767 111.6 285.7 113.008C284.655 114.416 284.132 116.347 284.132 118.8C284.132 121.253 284.655 123.184 285.7 124.592C286.767 126 288.153 126.704 289.86 126.704Z" fill="#F8F5FB"/>
<path d="M259.352 156V147.6H260.624V156H259.352ZM262.281 156V150.048H263.409L263.505 151.092C263.689 150.724 263.957 150.436 264.309 150.228C264.669 150.012 265.081 149.904 265.545 149.904C266.265 149.904 266.829 150.128 267.237 150.576C267.653 151.024 267.861 151.692 267.861 152.58V156H266.601V152.712C266.601 151.56 266.129 150.984 265.185 150.984C264.713 150.984 264.321 151.152 264.009 151.488C263.705 151.824 263.553 152.304 263.553 152.928V156H262.281ZM272.382 158.64V150.048H273.522L273.654 150.972C273.846 150.692 274.11 150.444 274.446 150.228C274.782 150.012 275.214 149.904 275.742 149.904C276.318 149.904 276.826 150.04 277.266 150.312C277.706 150.584 278.05 150.956 278.298 151.428C278.554 151.9 278.682 152.436 278.682 153.036C278.682 153.636 278.554 154.172 278.298 154.644C278.05 155.108 277.706 155.476 277.266 155.748C276.826 156.012 276.314 156.144 275.73 156.144C275.266 156.144 274.854 156.052 274.494 155.868C274.142 155.684 273.862 155.424 273.654 155.088V158.64H272.382ZM275.514 155.04C276.058 155.04 276.506 154.856 276.858 154.488C277.21 154.112 277.386 153.624 277.386 153.024C277.386 152.632 277.306 152.284 277.146 151.98C276.986 151.676 276.766 151.44 276.486 151.272C276.206 151.096 275.882 151.008 275.514 151.008C274.97 151.008 274.522 151.196 274.17 151.572C273.826 151.948 273.654 152.432 273.654 153.024C273.654 153.624 273.826 154.112 274.17 154.488C274.522 154.856 274.97 155.04 275.514 155.04ZM280.058 156V150.048H281.198L281.306 151.176C281.514 150.784 281.802 150.476 282.17 150.252C282.546 150.02 282.998 149.904 283.526 149.904V151.236H283.178C282.826 151.236 282.51 151.296 282.23 151.416C281.958 151.528 281.738 151.724 281.57 152.004C281.41 152.276 281.33 152.656 281.33 153.144V156H280.058ZM287.236 156.144C286.668 156.144 286.156 156.016 285.7 155.76C285.252 155.496 284.896 155.132 284.632 154.668C284.368 154.196 284.236 153.648 284.236 153.024C284.236 152.4 284.368 151.856 284.632 151.392C284.904 150.92 285.268 150.556 285.724 150.3C286.18 150.036 286.688 149.904 287.248 149.904C287.816 149.904 288.324 150.036 288.772 150.3C289.228 150.556 289.588 150.92 289.852 151.392C290.124 151.856 290.26 152.4 290.26 153.024C290.26 153.648 290.124 154.196 289.852 154.668C289.588 155.132 289.228 155.496 288.772 155.76C288.316 156.016 287.804 156.144 287.236 156.144ZM287.236 155.052C287.54 155.052 287.82 154.976 288.076 154.824C288.34 154.672 288.552 154.448 288.712 154.152C288.872 153.848 288.952 153.472 288.952 153.024C288.952 152.576 288.872 152.204 288.712 151.908C288.56 151.604 288.352 151.376 288.088 151.224C287.832 151.072 287.552 150.996 287.248 150.996C286.944 150.996 286.66 151.072 286.396 151.224C286.14 151.376 285.932 151.604 285.772 151.908C285.612 152.204 285.532 152.576 285.532 153.024C285.532 153.472 285.612 153.848 285.772 154.152C285.932 154.448 286.14 154.672 286.396 154.824C286.652 154.976 286.932 155.052 287.236 155.052ZM293.756 154.176C293.444 154.176 293.156 154.14 292.892 154.068L292.376 154.572C292.464 154.628 292.572 154.676 292.7 154.716C292.828 154.756 293.008 154.792 293.24 154.824C293.472 154.856 293.788 154.888 294.188 154.92C294.98 154.992 295.552 155.184 295.904 155.496C296.256 155.8 296.432 156.208 296.432 156.72C296.432 157.072 296.336 157.404 296.144 157.716C295.96 158.036 295.668 158.292 295.268 158.484C294.876 158.684 294.372 158.784 293.756 158.784C292.924 158.784 292.248 158.624 291.728 158.304C291.216 157.992 290.96 157.516 290.96 156.876C290.96 156.628 291.024 156.38 291.152 156.132C291.288 155.892 291.5 155.664 291.788 155.448C291.62 155.376 291.472 155.3 291.344 155.22C291.224 155.132 291.116 155.044 291.02 154.956V154.668L292.052 153.612C291.588 153.212 291.356 152.688 291.356 152.04C291.356 151.648 291.448 151.292 291.632 150.972C291.824 150.644 292.1 150.384 292.46 150.192C292.82 150 293.252 149.904 293.756 149.904C294.092 149.904 294.404 149.952 294.692 150.048H296.912V150.888L295.856 150.948C296.048 151.276 296.144 151.64 296.144 152.04C296.144 152.44 296.048 152.8 295.856 153.12C295.672 153.44 295.4 153.696 295.04 153.888C294.688 154.08 294.26 154.176 293.756 154.176ZM293.756 153.18C294.124 153.18 294.42 153.084 294.644 152.892C294.876 152.692 294.992 152.412 294.992 152.052C294.992 151.684 294.876 151.404 294.644 151.212C294.42 151.02 294.124 150.924 293.756 150.924C293.38 150.924 293.076 151.02 292.844 151.212C292.62 151.404 292.508 151.684 292.508 152.052C292.508 152.412 292.62 152.692 292.844 152.892C293.076 153.084 293.38 153.18 293.756 153.18ZM292.16 156.756C292.16 157.1 292.312 157.356 292.616 157.524C292.92 157.7 293.3 157.788 293.756 157.788C294.196 157.788 294.552 157.692 294.824 157.5C295.096 157.316 295.232 157.068 295.232 156.756C295.232 156.524 295.14 156.324 294.956 156.156C294.772 155.996 294.424 155.896 293.912 155.856C293.528 155.832 293.188 155.796 292.892 155.748C292.612 155.9 292.42 156.064 292.316 156.24C292.212 156.416 292.16 156.588 292.16 156.756ZM298.046 156V150.048H299.186L299.294 151.176C299.502 150.784 299.79 150.476 300.158 150.252C300.534 150.02 300.986 149.904 301.514 149.904V151.236H301.166C300.814 151.236 300.498 151.296 300.218 151.416C299.946 151.528 299.726 151.724 299.558 152.004C299.398 152.276 299.318 152.656 299.318 153.144V156H298.046ZM305.225 156.144C304.641 156.144 304.121 156.016 303.665 155.76C303.217 155.496 302.865 155.132 302.609 154.668C302.353 154.204 302.225 153.664 302.225 153.048C302.225 152.424 302.349 151.876 302.597 151.404C302.853 150.932 303.205 150.564 303.653 150.3C304.109 150.036 304.637 149.904 305.237 149.904C305.821 149.904 306.329 150.036 306.761 150.3C307.193 150.556 307.529 150.9 307.769 151.332C308.009 151.764 308.129 152.24 308.129 152.76C308.129 152.84 308.125 152.928 308.117 153.024C308.117 153.112 308.113 153.212 308.105 153.324H303.473C303.513 153.9 303.701 154.34 304.037 154.644C304.381 154.94 304.777 155.088 305.225 155.088C305.585 155.088 305.885 155.008 306.125 154.848C306.373 154.68 306.557 154.456 306.677 154.176H307.949C307.789 154.736 307.469 155.204 306.989 155.58C306.517 155.956 305.929 156.144 305.225 156.144ZM305.225 150.948C304.801 150.948 304.425 151.076 304.097 151.332C303.769 151.58 303.569 151.956 303.497 152.46H306.857C306.833 151.996 306.669 151.628 306.365 151.356C306.061 151.084 305.681 150.948 305.225 150.948ZM311.825 156.144C311.073 156.144 310.453 155.96 309.965 155.592C309.477 155.224 309.197 154.736 309.125 154.128H310.409C310.473 154.4 310.625 154.636 310.865 154.836C311.105 155.028 311.421 155.124 311.813 155.124C312.197 155.124 312.477 155.044 312.653 154.884C312.829 154.724 312.917 154.54 312.917 154.332C312.917 154.028 312.793 153.824 312.545 153.72C312.305 153.608 311.969 153.508 311.537 153.42C311.201 153.348 310.865 153.252 310.529 153.132C310.201 153.012 309.925 152.844 309.701 152.628C309.485 152.404 309.377 152.104 309.377 151.728C309.377 151.208 309.577 150.776 309.977 150.432C310.377 150.08 310.937 149.904 311.657 149.904C312.321 149.904 312.857 150.064 313.265 150.384C313.681 150.704 313.925 151.156 313.997 151.74H312.773C312.733 151.484 312.613 151.284 312.413 151.14C312.221 150.996 311.961 150.924 311.633 150.924C311.313 150.924 311.065 150.992 310.889 151.128C310.713 151.256 310.625 151.424 310.625 151.632C310.625 151.84 310.745 152.004 310.985 152.124C311.233 152.244 311.557 152.352 311.957 152.448C312.357 152.536 312.725 152.64 313.061 152.76C313.405 152.872 313.681 153.04 313.889 153.264C314.097 153.488 314.201 153.816 314.201 154.248C314.209 154.792 313.997 155.244 313.565 155.604C313.141 155.964 312.561 156.144 311.825 156.144ZM317.965 156.144C317.213 156.144 316.593 155.96 316.105 155.592C315.617 155.224 315.337 154.736 315.265 154.128H316.549C316.613 154.4 316.765 154.636 317.005 154.836C317.245 155.028 317.561 155.124 317.953 155.124C318.337 155.124 318.617 155.044 318.793 154.884C318.969 154.724 319.057 154.54 319.057 154.332C319.057 154.028 318.933 153.824 318.685 153.72C318.445 153.608 318.109 153.508 317.677 153.42C317.341 153.348 317.005 153.252 316.669 153.132C316.341 153.012 316.065 152.844 315.841 152.628C315.625 152.404 315.517 152.104 315.517 151.728C315.517 151.208 315.717 150.776 316.117 150.432C316.517 150.08 317.077 149.904 317.797 149.904C318.461 149.904 318.997 150.064 319.405 150.384C319.821 150.704 320.065 151.156 320.137 151.74H318.913C318.873 151.484 318.753 151.284 318.553 151.14C318.361 150.996 318.101 150.924 317.773 150.924C317.453 150.924 317.205 150.992 317.029 151.128C316.853 151.256 316.765 151.424 316.765 151.632C316.765 151.84 316.885 152.004 317.125 152.124C317.373 152.244 317.697 152.352 318.097 152.448C318.497 152.536 318.865 152.64 319.201 152.76C319.545 152.872 319.821 153.04 320.029 153.264C320.237 153.488 320.341 153.816 320.341 154.248C320.349 154.792 320.137 155.244 319.705 155.604C319.281 155.964 318.701 156.144 317.965 156.144Z" fill="white"/>
<path d="M124.04 50L119.6 33.2H122.888L125.912 46.568L129.464 33.2H132.848L136.304 46.568L139.328 33.2H142.64L138.08 50H134.432L131.096 37.544L127.664 50H124.04ZM149.793 50.288C148.593 50.288 147.529 50.032 146.601 49.52C145.673 49.008 144.945 48.288 144.417 47.36C143.889 46.432 143.625 45.36 143.625 44.144C143.625 42.912 143.881 41.816 144.393 40.856C144.921 39.896 145.641 39.152 146.553 38.624C147.481 38.08 148.569 37.808 149.817 37.808C150.985 37.808 152.017 38.064 152.913 38.576C153.809 39.088 154.505 39.792 155.001 40.688C155.513 41.568 155.769 42.552 155.769 43.64C155.769 43.816 155.761 44 155.745 44.192C155.745 44.384 155.737 44.584 155.721 44.792H146.673C146.737 45.72 147.057 46.448 147.633 46.976C148.225 47.504 148.937 47.768 149.769 47.768C150.393 47.768 150.913 47.632 151.329 47.36C151.761 47.072 152.081 46.704 152.289 46.256H155.409C155.185 47.008 154.809 47.696 154.281 48.32C153.769 48.928 153.129 49.408 152.361 49.76C151.609 50.112 150.753 50.288 149.793 50.288ZM149.817 40.304C149.065 40.304 148.401 40.52 147.825 40.952C147.249 41.368 146.881 42.008 146.721 42.872H152.649C152.601 42.088 152.313 41.464 151.785 41C151.257 40.536 150.601 40.304 149.817 40.304ZM164.304 50.288C163.184 50.288 162.184 50.016 161.304 49.472C160.424 48.928 159.728 48.184 159.216 47.24C158.704 46.296 158.448 45.224 158.448 44.024C158.448 42.824 158.704 41.76 159.216 40.832C159.728 39.888 160.424 39.152 161.304 38.624C162.184 38.08 163.184 37.808 164.304 37.808C165.2 37.808 165.984 37.976 166.656 38.312C167.328 38.648 167.872 39.12 168.288 39.728V32.72H171.36V50H168.624L168.288 48.296C167.904 48.824 167.392 49.288 166.752 49.688C166.128 50.088 165.312 50.288 164.304 50.288ZM164.952 47.6C165.944 47.6 166.752 47.272 167.376 46.616C168.016 45.944 168.336 45.088 168.336 44.048C168.336 43.008 168.016 42.16 167.376 41.504C166.752 40.832 165.944 40.496 164.952 40.496C163.976 40.496 163.168 40.824 162.528 41.48C161.888 42.136 161.568 42.984 161.568 44.024C161.568 45.064 161.888 45.92 162.528 46.592C163.168 47.264 163.976 47.6 164.952 47.6ZM180.441 50.288C179.321 50.288 178.321 50.016 177.441 49.472C176.561 48.928 175.865 48.184 175.353 47.24C174.841 46.296 174.585 45.224 174.585 44.024C174.585 42.824 174.841 41.76 175.353 40.832C175.865 39.888 176.561 39.152 177.441 38.624C178.321 38.08 179.321 37.808 180.441 37.808C181.337 37.808 182.121 37.976 182.793 38.312C183.465 38.648 184.009 39.12 184.425 39.728V32.72H187.497V50H184.761L184.425 48.296C184.041 48.824 183.529 49.288 182.889 49.688C182.265 50.088 181.449 50.288 180.441 50.288ZM181.089 47.6C182.081 47.6 182.889 47.272 183.513 46.616C184.153 45.944 184.473 45.088 184.473 44.048C184.473 43.008 184.153 42.16 183.513 41.504C182.889 40.832 182.081 40.496 181.089 40.496C180.113 40.496 179.305 40.824 178.665 41.48C178.025 42.136 177.705 42.984 177.705 44.024C177.705 45.064 178.025 45.92 178.665 46.592C179.305 47.264 180.113 47.6 181.089 47.6ZM192.761 36.248C192.201 36.248 191.737 36.08 191.369 35.744C191.017 35.408 190.841 34.984 190.841 34.472C190.841 33.96 191.017 33.544 191.369 33.224C191.737 32.888 192.201 32.72 192.761 32.72C193.321 32.72 193.777 32.888 194.129 33.224C194.497 33.544 194.681 33.96 194.681 34.472C194.681 34.984 194.497 35.408 194.129 35.744C193.777 36.08 193.321 36.248 192.761 36.248ZM191.225 50V38.096H194.297V50H191.225ZM197.983 50V38.096H200.695L200.935 40.112C201.303 39.408 201.831 38.848 202.519 38.432C203.223 38.016 204.047 37.808 204.991 37.808C206.463 37.808 207.607 38.272 208.423 39.2C209.239 40.128 209.647 41.488 209.647 43.28V50H206.575V43.568C206.575 42.544 206.367 41.76 205.951 41.216C205.535 40.672 204.887 40.4 204.007 40.4C203.143 40.4 202.431 40.704 201.871 41.312C201.327 41.92 201.055 42.768 201.055 43.856V50H197.983ZM218.105 46.448C217.529 46.448 216.993 46.384 216.497 46.256L215.609 47.144C215.881 47.288 216.249 47.408 216.713 47.504C217.177 47.6 217.929 47.696 218.969 47.792C220.553 47.936 221.705 48.312 222.425 48.92C223.145 49.528 223.505 50.368 223.505 51.44C223.505 52.144 223.313 52.808 222.929 53.432C222.545 54.072 221.953 54.584 221.153 54.968C220.353 55.368 219.329 55.568 218.081 55.568C216.385 55.568 215.017 55.248 213.977 54.608C212.937 53.984 212.417 53.04 212.417 51.776C212.417 50.704 212.937 49.776 213.977 48.992C213.657 48.848 213.377 48.696 213.137 48.536C212.913 48.376 212.713 48.208 212.537 48.032V47.48L214.625 45.272C213.697 44.456 213.233 43.408 213.233 42.128C213.233 41.328 213.425 40.6 213.809 39.944C214.209 39.288 214.769 38.768 215.489 38.384C216.209 38 217.081 37.808 218.105 37.808C218.777 37.808 219.401 37.904 219.977 38.096H224.489V39.968L222.449 40.112C222.769 40.72 222.929 41.392 222.929 42.128C222.929 42.928 222.737 43.656 222.353 44.312C221.969 44.968 221.409 45.488 220.673 45.872C219.953 46.256 219.097 46.448 218.105 46.448ZM218.105 44.096C218.729 44.096 219.241 43.928 219.641 43.592C220.057 43.256 220.265 42.776 220.265 42.152C220.265 41.528 220.057 41.048 219.641 40.712C219.241 40.376 218.729 40.208 218.105 40.208C217.449 40.208 216.921 40.376 216.521 40.712C216.121 41.048 215.921 41.528 215.921 42.152C215.921 42.776 216.121 43.256 216.521 43.592C216.921 43.928 217.449 44.096 218.105 44.096ZM215.225 51.464C215.225 52.056 215.497 52.496 216.041 52.784C216.601 53.088 217.281 53.24 218.081 53.24C218.849 53.24 219.473 53.08 219.953 52.76C220.433 52.456 220.673 52.04 220.673 51.512C220.673 51.08 220.513 50.72 220.193 50.432C219.889 50.144 219.273 49.968 218.345 49.904C217.689 49.856 217.081 49.784 216.521 49.688C216.057 49.944 215.721 50.224 215.513 50.528C215.321 50.832 215.225 51.144 215.225 51.464ZM233.48 50V33.2H239.696C241.04 33.2 242.152 33.424 243.032 33.872C243.912 34.32 244.568 34.936 245 35.72C245.432 36.504 245.648 37.384 245.648 38.36C245.648 39.288 245.44 40.144 245.024 40.928C244.608 41.696 243.96 42.32 243.08 42.8C242.2 43.264 241.072 43.496 239.696 43.496H236.552V50H233.48ZM236.552 41H239.504C240.576 41 241.344 40.768 241.808 40.304C242.288 39.824 242.528 39.176 242.528 38.36C242.528 37.528 242.288 36.88 241.808 36.416C241.344 35.936 240.576 35.696 239.504 35.696H236.552V41ZM248.466 50V38.096H251.202L251.49 40.328C251.922 39.56 252.506 38.952 253.242 38.504C253.994 38.04 254.874 37.808 255.882 37.808V41.048H255.018C254.346 41.048 253.746 41.152 253.218 41.36C252.69 41.568 252.274 41.928 251.97 42.44C251.682 42.952 251.538 43.664 251.538 44.576V50H248.466ZM263.963 50.288C262.811 50.288 261.771 50.024 260.843 49.496C259.931 48.968 259.203 48.24 258.659 47.312C258.131 46.368 257.867 45.28 257.867 44.048C257.867 42.816 258.139 41.736 258.683 40.808C259.227 39.864 259.955 39.128 260.867 38.6C261.795 38.072 262.835 37.808 263.987 37.808C265.123 37.808 266.147 38.072 267.059 38.6C267.987 39.128 268.715 39.864 269.243 40.808C269.787 41.736 270.059 42.816 270.059 44.048C270.059 45.28 269.787 46.368 269.243 47.312C268.715 48.24 267.987 48.968 267.059 49.496C266.131 50.024 265.099 50.288 263.963 50.288ZM263.963 47.624C264.763 47.624 265.459 47.328 266.051 46.736C266.643 46.128 266.939 45.232 266.939 44.048C266.939 42.864 266.643 41.976 266.051 41.384C265.459 40.776 264.771 40.472 263.987 40.472C263.171 40.472 262.467 40.776 261.875 41.384C261.299 41.976 261.011 42.864 261.011 44.048C261.011 45.232 261.299 46.128 261.875 46.736C262.467 47.328 263.163 47.624 263.963 47.624ZM273.837 50V40.664H272.205V38.096H273.837V36.704C273.837 35.264 274.197 34.24 274.917 33.632C275.653 33.024 276.645 32.72 277.893 32.72H279.213V35.336H278.373C277.845 35.336 277.469 35.44 277.245 35.648C277.021 35.856 276.909 36.208 276.909 36.704V38.096H284.589V50H281.517V40.664H276.909V50H273.837ZM283.077 36.392C282.517 36.392 282.053 36.224 281.685 35.888C281.333 35.552 281.157 35.128 281.157 34.616C281.157 34.104 281.333 33.688 281.685 33.368C282.053 33.032 282.517 32.864 283.077 32.864C283.637 32.864 284.093 33.032 284.445 33.368C284.813 33.688 284.997 34.104 284.997 34.616C284.997 35.128 284.813 35.552 284.445 35.888C284.093 36.224 283.637 36.392 283.077 36.392ZM288.32 50V32.72H291.392V50H288.32ZM300.795 50.288C299.595 50.288 298.531 50.032 297.603 49.52C296.675 49.008 295.947 48.288 295.419 47.36C294.891 46.432 294.627 45.36 294.627 44.144C294.627 42.912 294.883 41.816 295.395 40.856C295.923 39.896 296.643 39.152 297.555 38.624C298.483 38.08 299.571 37.808 300.819 37.808C301.987 37.808 303.019 38.064 303.915 38.576C304.811 39.088 305.507 39.792 306.003 40.688C306.515 41.568 306.771 42.552 306.771 43.64C306.771 43.816 306.763 44 306.747 44.192C306.747 44.384 306.739 44.584 306.723 44.792H297.675C297.739 45.72 298.059 46.448 298.635 46.976C299.227 47.504 299.939 47.768 300.771 47.768C301.395 47.768 301.915 47.632 302.331 47.36C302.763 47.072 303.083 46.704 303.291 46.256H306.411C306.187 47.008 305.811 47.696 305.283 48.32C304.771 48.928 304.131 49.408 303.363 49.76C302.611 50.112 301.755 50.288 300.795 50.288ZM300.819 40.304C300.067 40.304 299.403 40.52 298.827 40.952C298.251 41.368 297.883 42.008 297.723 42.872H303.651C303.603 42.088 303.315 41.464 302.787 41C302.259 40.536 301.603 40.304 300.819 40.304Z" fill="white"/>
</g>
<defs>
<clipPath id="clip0_15204_78102">
<rect width="408" height="204" rx="20" fill="white"/>
</clipPath>
</defs>
</svg>
